<svg width="75" height="75" viewBox="0 0 75 75" fill="none" xmlns="http://www.w3.org/2000/svg">
<path fill-rule="evenodd" clip-rule="evenodd" d="M7.5 37.5C7.5 20.9408 20.94 7.5 37.5 7.5C54.0592 7.5 67.5 20.9408 67.5 37.5C67.5 54.06 54.0592 67.5 37.5 67.5C20.94 67.5 7.5 54.06 7.5 37.5ZM64.9737 37.5C64.9737 36.5274 64.9223 35.5657 64.8204 34.6192C64.8255 34.6436 64.828 34.6688 64.8314 34.6933L64.9265 36.5745L64.9097 36.5678C63.9396 36.4347 62.9585 36.2975 61.9682 36.1543C61.084 35.7206 60.1863 35.2743 59.2785 34.8171C58.9627 34.9467 58.6453 35.0773 58.3269 35.2095C58.8827 35.7484 59.4301 36.2806 59.9682 36.8027C60.3034 36.7177 60.6377 36.6326 60.9712 36.5493C61.0065 36.5324 61.041 36.5156 61.0764 36.4996C61.4941 36.7093 61.9084 36.9156 62.3202 37.1194C62.3371 37.1185 62.3547 37.1185 62.3724 37.1185C62.5223 37.3897 62.6697 37.6592 62.8145 37.9278C62.7876 38.0171 62.9055 38.0474 62.8549 38.2141C61.9918 39.0352 61.1067 39.8764 60.2032 40.7345C59.3004 40.9417 58.3909 41.1514 57.4747 41.3627C56.7463 40.0945 55.9674 38.7926 55.1463 37.4613C54.4381 36.8339 53.7173 36.1956 52.9863 35.5463H52.9316C52.7135 35.7206 52.4945 35.8958 52.2756 36.0718C53.2583 37.7922 54.1863 39.4781 55.0427 41.1168C55.8394 41.5109 56.6242 41.895 57.3981 42.2672C57.4141 42.2832 57.4301 42.2992 57.4461 42.3143C57.8242 42.2099 58.2015 42.1055 58.5779 42.0011C58.7615 42.0895 58.9442 42.1771 59.1269 42.2646C59.1429 42.2798 59.1581 42.2949 59.1741 42.3101C58.7968 43.1185 58.4069 43.932 58.0036 44.7488C56.7909 45.8284 55.5606 46.9299 54.3185 48.0465C54.0331 49.6314 53.6979 51.2044 53.3156 52.7589C53.2869 52.8112 53.2592 52.8625 53.2314 52.9147C52.6798 53.3291 52.1291 53.7442 51.5783 54.1611C50.8432 55.3914 50.0954 56.6208 49.3383 57.8478C49.3173 57.8672 49.2971 57.8865 49.276 57.9051C47.9968 59.0949 46.7244 60.2874 45.468 61.4773C45.1135 61.4284 44.7556 61.3762 44.3952 61.3215C44.3792 61.324 44.3632 61.3265 44.3472 61.3291C43.8907 60.3615 43.3846 59.3594 42.8364 58.3269C42.6764 57.0638 42.4785 55.7762 42.2486 54.4659C42.5434 53.6709 42.8347 52.8743 43.1227 52.0752C42.9097 51.4731 42.6882 50.8659 42.4592 50.2528C42.3059 49.0453 42.1307 47.8242 41.9371 46.5931C41.9387 46.5745 41.9396 46.5568 41.9413 46.5383C41.4731 46.1021 40.9989 45.6625 40.5198 45.2179C39.3728 45.4411 38.2242 45.6617 37.0739 45.8789C36.0869 45.7762 35.0958 45.6684 34.1013 45.5573C33.2482 44.5417 32.3783 43.5143 31.4975 42.4802C31.3425 41.3619 31.1817 40.2411 31.0166 39.1185C31.9825 38.0095 32.9467 36.9021 33.9042 35.8015C34.4785 34.796 35.0469 33.7939 35.6086 32.796C36.7303 32.4836 37.8478 32.1745 38.9594 31.8705C38.9956 31.7956 39.0318 31.7215 39.068 31.6474C40.1493 31.7366 41.2272 31.8267 42.3008 31.9177C42.6933 32.5888 43.0823 33.2583 43.4672 33.9244C44.108 34.0954 44.748 34.2655 45.3855 34.4347C45.4604 34.4171 45.5345 34.3994 45.6095 34.3817C46.1855 34.1114 46.7589 33.8444 47.3299 33.5808C47.3661 33.5269 47.4023 33.4731 47.4377 33.4192C48.2225 33.6465 49.004 33.8714 49.7821 34.0937C50.6646 33.9783 51.5421 33.8655 52.4145 33.756C52.4507 33.7392 52.4869 33.7215 52.5232 33.7046C52.7093 33.1295 52.8903 32.5568 53.0638 31.9876C53.0798 31.9354 53.0958 31.884 53.1109 31.8326C51.948 31.7459 50.7766 31.6608 49.5977 31.5775C49.2979 30.9821 48.9939 30.3851 48.6848 29.7855C48.4684 29.8495 48.252 29.9135 48.0347 29.9775C48.0448 30.5333 48.0516 31.0891 48.0533 31.6465C47.7358 31.5488 47.4183 31.4512 47.0992 31.3535C46.5813 30.3842 46.0533 29.4099 45.5168 28.4314C45.0966 28.1813 44.6756 27.9303 44.2545 27.6777C44.5105 28.5779 44.7598 29.4773 45.0006 30.3766C44.6773 30.6596 44.3522 30.9442 44.0246 31.2305C43.7914 30.3648 43.5505 29.4975 43.3038 28.6301C42.3994 28.3825 41.4924 28.1341 40.5838 27.8865C40.5653 27.8857 40.5467 27.8857 40.5282 27.8848C39.9817 28.6267 39.4251 29.3762 38.8608 30.1307C38.1914 30.492 37.5177 30.8575 36.8415 31.2246H36.7842C36.2318 31.1615 35.6794 31.0983 35.1261 31.036C35.1497 30.1484 35.1682 29.2625 35.1825 28.3792C35.9168 28.2411 36.6495 28.1055 37.3796 27.9724C37.6701 27.6617 37.9589 27.3518 38.2453 27.0436C38.0137 26.4238 37.7804 25.804 37.5455 25.1851C37.8891 24.9543 38.2301 24.7253 38.5695 24.4979C39.4798 23.8857 40.3775 23.2844 41.2592 22.6958C42.4895 22.5973 43.7114 22.508 44.9223 22.4305C45.3796 22.1771 45.8326 21.9278 46.2815 21.6827C46.2789 21.6651 46.2773 21.6474 46.2747 21.6297C46.2478 21.1202 46.2175 20.6124 46.1838 20.1072C46.7126 19.7552 47.2322 19.4099 47.7434 19.0731C46.8752 18.8971 46.0036 18.7253 45.1303 18.5568C45.3905 17.7173 45.6331 16.8886 45.8554 16.0743C45.8747 15.9918 45.8933 15.9101 45.9118 15.8284C45.7198 15.6044 45.5286 15.3804 45.3375 15.1564C44.8802 15.6541 44.4078 16.1627 43.9219 16.6823C43.9733 18.1493 43.9918 19.6373 43.9792 21.1421C43.9808 21.1598 43.9825 21.1775 43.9851 21.1952C43.5371 21.1817 43.0882 21.1691 42.6385 21.1573C42.6208 21.1564 42.6032 21.1556 42.5846 21.1539C42.5021 20.8625 42.4179 20.572 42.3337 20.2815C41.9977 19.9733 41.6625 19.6651 41.3274 19.3577C40.6234 18.9173 39.9202 18.4777 39.2204 18.0389C39.7046 17.3728 40.1754 16.716 40.6318 16.0701C40.6444 16.0364 40.6579 16.0027 40.6705 15.9682C41.6103 14.6461 42.4861 13.3703 43.2836 12.1501C44.0423 12.1324 44.7943 12.124 45.5396 12.124C45.5724 12.1291 45.6053 12.1341 45.6381 12.1392C46.8019 12.929 47.9758 13.7215 49.1547 14.5139C49.3114 14.7606 49.4672 15.0082 49.6221 15.2558C49.2667 15.3762 48.908 15.5 48.5451 15.6272C48.9678 15.996 49.3914 16.3648 49.8149 16.7328C49.8697 16.7564 49.9236 16.78 49.9783 16.8044C50.3362 16.4987 50.6857 16.1989 51.0267 15.9067C51.0183 15.772 51.116 15.6566 51.1 15.4469C51.5497 15.5379 51.9977 15.6297 52.444 15.724L56.1004 17.3291L56.9232 18.0768C56.9291 18.0836 56.9349 18.0895 56.94 18.0962C51.9648 13.1109 45.0899 10.0263 37.5 10.0263C35.8596 10.0263 34.252 10.1712 32.7084 10.4381L32.2208 12.2478C32.2217 12.2655 32.2234 12.2832 32.2242 12.3008C32.1728 13.1067 32.1164 13.9194 32.0549 14.7387C32.0373 14.7379 32.0204 14.7371 32.0027 14.7371C30.1215 15.7434 28.1703 16.8061 26.1678 17.9084C25.772 18.6402 25.3703 19.3771 24.9627 20.1173C24.9442 20.1181 24.9265 20.1181 24.908 20.1181C24.508 20.2503 24.1063 20.3842 23.7046 20.5181C23.1219 19.6962 22.5509 18.8811 21.9935 18.076C22.1088 17.3813 22.2234 16.6899 22.3379 16.0019L23.3509 13.9867L24.4011 13.3484C22.0684 14.6166 19.9404 16.2133 18.0777 18.0752L18.5695 17.628L18.9493 17.2836L20.5072 21.9396C20.4878 21.9775 20.4676 22.0145 20.4474 22.0524C19.9211 22.6983 19.3922 23.3459 18.8617 23.9935C17.8284 24.2074 16.7943 24.4246 15.7619 24.6453C16.2941 25.1076 16.8331 25.5741 17.3762 26.0457C17.1674 26.5914 16.9594 27.1379 16.7522 27.6844C15.692 27.8579 14.6335 28.0322 13.5775 28.2091C12.8187 28.8768 12.0617 29.5429 11.308 30.2048C11.3072 30.2234 11.3072 30.2419 11.3063 30.2604L10.8347 30.9931L11.2566 29.3501C10.4566 31.9261 10.0263 34.6629 10.0263 37.5C10.0263 40.3362 10.4566 43.0714 11.2558 45.6457L10.7118 43.5295L14.4971 44.7328C15.132 45.7964 15.7661 46.8608 16.3985 47.9219C18.5627 48.9771 20.7109 50.0204 22.8263 51.0377C22.8659 51.4486 22.9046 51.8587 22.9442 52.268C22.3244 53.2331 21.7164 54.1905 21.1219 55.1379C20.8491 55.9059 20.5821 56.6697 20.3211 57.4267L19.4773 58.1973L18.0937 56.9417C18.5333 57.3813 18.9888 57.8065 19.4579 58.2149C24.2848 62.4246 30.5964 64.9737 37.5 64.9737C52.6638 64.9737 64.9737 52.6646 64.9737 37.5ZM15.9817 54.5653C16.6276 55.3897 17.3248 56.172 18.0642 56.9122C17.3248 56.1728 16.6267 55.3905 15.9817 54.5653ZM53.9008 53.9463C53.9429 53.9084 53.9842 53.8705 54.0255 53.8335C54.4701 53.2785 54.9122 52.7261 55.3509 52.1745C55.3678 52.172 55.3846 52.1695 55.4015 52.1669C55.9775 51.7206 56.5518 51.276 57.1253 50.8339C57.1876 51.3215 57.2398 51.8032 57.2836 52.2798C56.8583 53.0318 56.4246 53.7846 55.9834 54.5375C55.9783 54.5535 55.9733 54.5695 55.9691 54.5846C55.2541 55.0781 54.54 55.5733 53.8259 56.0701C53.868 55.372 53.8924 54.6638 53.9008 53.9463ZM14.9796 53.2246C15.2423 53.6069 15.5194 53.98 15.8074 54.3429C15.5025 53.9514 15.228 53.5817 14.9796 53.2246ZM14.8322 53.0183C14.8777 53.084 14.9257 53.1531 14.9796 53.2246C14.9265 53.1581 14.8785 53.0891 14.8322 53.0183ZM14.0128 51.7543C14.2731 52.1846 14.5459 52.6065 14.8322 53.0183C14.5358 52.5897 14.2688 52.1762 14.0128 51.7543ZM11.8604 47.3703C12.0263 47.8124 12.2091 48.2461 12.4036 48.6722C12.1989 48.2141 12.0187 47.7829 11.8604 47.3703ZM11.7661 47.132C11.7939 47.207 11.8251 47.2861 11.8604 47.3703C11.8251 47.2928 11.7939 47.2128 11.7661 47.132ZM11.2667 45.6811C11.4183 46.1712 11.5842 46.6554 11.7661 47.132C11.5783 46.636 11.4158 46.1611 11.2667 45.6811ZM12.4053 26.3261C11.964 27.2945 11.5851 28.2966 11.2651 29.3248C11.5851 28.2975 11.964 27.2954 12.4053 26.3261ZM19.7004 25.5985C19.6583 25.1497 19.6179 24.7017 19.5792 24.2545C19.6364 24.2158 19.6937 24.1771 19.7518 24.1383C20.2537 23.6962 20.7547 23.2549 21.2533 22.8145C21.2524 22.8516 21.2507 22.8895 21.2499 22.9265C21.4082 23.7257 21.5716 24.5282 21.7383 25.3341C21.6187 25.5994 21.4992 25.8655 21.3796 26.1307C20.8179 25.9514 20.2579 25.7737 19.7004 25.5985ZM13.2507 24.5863C12.9897 25.0731 12.7455 25.5699 12.5181 26.076C12.7674 25.5328 13.0091 25.0436 13.2507 24.5863ZM36.5543 23.2078C36.3985 22.7034 36.2419 22.1998 36.0844 21.6962C36.0179 21.1783 35.9497 20.6613 35.8806 20.1459C36.3657 20.3303 36.8516 20.5164 37.3383 20.7025C37.3771 20.7413 37.4166 20.7792 37.4554 20.8179C37.8343 21.5472 38.2133 22.2781 38.5905 23.0091C38.5459 23.1488 38.7008 23.2364 38.6672 23.3425C38.1627 23.8175 37.6516 24.2983 37.1354 24.7825C37.1177 24.8011 37.1 24.8187 37.0823 24.8364C36.7488 24.8819 36.4154 24.9282 36.0811 24.9745C36.2427 24.3834 36.4002 23.7947 36.5543 23.2078ZM14.0019 23.2651C13.7434 23.6895 13.4966 24.1215 13.2507 24.5863C13.4874 24.1375 13.7383 23.6979 14.0019 23.2651ZM15.8099 20.6545C15.1573 21.4806 14.5577 22.3497 14.0086 23.2533C14.5577 22.3497 15.1581 21.4815 15.8099 20.6545ZM34.6057 23.1472C34.5307 23.1446 34.4566 23.1429 34.3825 23.1413C34.5678 22.7 34.7505 22.2596 34.9316 21.8225C35.2895 21.9817 35.6482 22.1417 36.0078 22.3025C36.0272 22.3211 36.0465 22.3404 36.0659 22.3598C35.8604 22.6478 35.6533 22.9375 35.4444 23.228C35.1648 23.2002 34.8853 23.1733 34.6057 23.1472ZM58.5914 19.9126C58.7337 20.0709 58.7581 20.1013 58.5914 19.9126V19.9126ZM18.0625 18.092C17.3712 18.7834 16.7168 19.5118 15.9783 20.4406C16.6242 19.6145 17.3223 18.8314 18.0625 18.092ZM31.4335 18.6764C31.4907 18.2579 31.5455 17.8411 31.6002 17.4251C32.4667 17.4116 33.3316 17.4048 34.1947 17.404C34.1956 17.4225 34.1973 17.4402 34.1981 17.4587C34.1939 17.8006 34.284 18.076 34.3606 18.3867C33.7888 18.6175 33.212 18.8524 32.6318 19.0916C32.5796 19.1269 32.5274 19.1615 32.4752 19.1968C32.1265 19.0225 31.7796 18.8491 31.4335 18.6764ZM27.8309 11.7846C27.0149 12.076 26.2663 12.4002 25.5926 12.7379C26.2975 12.385 27.0402 12.06 27.8309 11.7846ZM28.4903 11.5362C28.2562 11.6027 28.0339 11.6836 27.8309 11.7846C28.0465 11.6903 28.2815 11.6053 28.4903 11.5362ZM30.6832 10.892C29.9354 11.0705 29.212 11.2869 28.4903 11.5362C29.2011 11.2752 29.9446 11.0528 30.6832 10.892ZM31.5446 10.6857C31.2575 10.7286 30.9813 10.7926 30.6832 10.892C30.9989 10.7994 31.3248 10.7227 31.5446 10.6857ZM32.7084 10.4381L32.6958 10.4861L32.7 10.4726L31.9648 10.5855C31.8604 10.6074 31.756 10.6293 31.5446 10.6857C31.9219 10.5838 32.3126 10.5072 32.7084 10.4381Z" fill="#105AB3" fill-opacity="0.5"/>
</svg>
