<svg width="75" height="75" viewBox="0 0 75 75" fill="none" xmlns="http://www.w3.org/2000/svg">
<path fill-rule="evenodd" clip-rule="evenodd" d="M7.5 37.5C7.5 20.9408 20.94 7.5 37.5 7.5C54.0592 7.5 67.5 20.9408 67.5 37.5C67.5 54.06 54.0592 67.5 37.5 67.5C20.94 67.5 7.5 54.06 7.5 37.5ZM64.9737 37.5C64.9737 28.3859 60.5257 20.3025 53.6844 15.3038L53.1674 16.2284L51.0242 17.5598L51.6263 18.2924L51.7417 18.3674L52.2604 19.505L52.3202 19.5817L52.3674 22.9636L51.2297 22.5846L49.6255 20.1375L49.6128 19.9345L50.0549 17.6322L49.8924 15.5716L49.2246 15.5682L49.5522 16.3547L49.2962 16.6916L48.1198 16.5973L48.0339 17.0057L48.0381 17.0461L47.4091 18.4272L45.9042 18.5779L42.9265 19.9539L42.6773 22.1821L44.8634 22.3808L44.9728 22.3371L45.7046 23.5598L45.6213 27.036L43.8672 28.6419L44.6032 31.4604L44.6074 31.5413L44.0171 31.8975L42.0608 30.0128L41.2701 29.8764L41.063 29.244L40.1375 29.5783L39.9573 29.6524L40.4878 30.7278L41.836 30.892L41.4006 32.8103L41.404 32.8516L42.188 33.3653L42.4869 34.1181L42.5434 34.1552L41.0638 36.2949L39.3619 37.5985L38.1232 37.3274L37.0411 37.9429L38.4145 40.6933L37.3392 41.3181L35.052 40.4011L37.3408 43.0916L37.7686 44.5973L37.0133 44.9619L33.6954 41.847L33.4133 39.3181L32.6352 39.2196L30.8347 37.1758L30.7202 37.1025L27.772 38.4583L25.7754 41.8461L25.2541 42.3261L24.2099 41.5943L23.2886 38.8263L18.5493 36.7463L16.4288 37.0891L12.4095 36.1526L11.9842 36.4549L13.9606 37.7189L13.9573 37.6726L16.4288 37.804L16.8802 38.4027L14.4659 40.4221L11.4571 41.3181L10.1392 40.0137C10.1905 40.5779 10.2587 41.1362 10.3438 41.6886L12.4069 42.2175L14.0347 42.0987L13.9463 42.8971L11.2339 45.5581L11.2297 45.5623C14.6773 56.7977 25.1396 64.9737 37.5 64.9737C52.6638 64.9737 64.9737 52.6646 64.9737 37.5ZM52.2604 59.7661L51.5994 59.2634L53.1615 58.3682L53.036 59.3577L52.2604 59.7661ZM50.9728 57.2827L50.0853 55.6844L49.9261 55.2575L49.7299 55.26L49.1227 55.3341L47.8032 54.5408L42.2343 55.6853L42.1787 55.6878L40.9451 55.5573L41.2575 54.3303L41.2549 54.2907L40.6057 51.9505L41.3223 50.9425L44.2587 49.8082L45.6448 48.8229L48.5206 47.5943L49.4857 47.2061L50.38 47.2971L50.2865 47.3324L50.4886 48.5501L51.5733 49.2137L53.0604 47.1413L53.6305 47.3029L54.6385 49.7855L56.8853 51.3543L56.8474 51.4714L56.1838 54.2074L56.1888 54.2874L54.3901 56.6857L52.7488 57.1413L50.9728 57.2827ZM41.4183 47.1918L37.3046 46.4566L34.9611 44.6596L35.6651 44.3354L37.6726 45.4225L38.4651 45.4251L38.5206 45.4225L40.3455 46.0853L40.4002 46.0811L44.0524 46.5594L43.9093 46.9282L41.4183 47.1918ZM56.1004 46.7202L54.0583 46.1518L53.9446 46.1164L51.1152 46.3177L51.0596 46.3211L50.7733 45.3316L49.0705 44.8238L48.2309 43.9051L48.1366 43.8975L48.4339 43.5707L48.4903 43.5682L49.9657 44.0053L51.4646 43.9211L51.5202 43.9168L55.7417 45.452L55.7998 45.4891L56.1004 46.7202ZM37.6853 45.4284L37.6726 45.4225L37.6448 45.4217L37.6853 45.4284ZM40.9189 45.3307L38.8937 44.2722L41.9152 41.8453C42.0154 41.7636 42.0288 41.7535 42.1282 41.6718L43.0267 41.7821L43.1396 41.8175L41.8865 45.0343L40.9189 45.3307ZM45.1952 45.244L43.3872 44.8246L43.2752 44.8297L43.7341 44.1594C43.8124 44.1105 43.8444 44.0002 43.8293 43.9227L44.844 44.0979L45.1295 44.1998L45.1952 45.244ZM27.7754 43.8158L26.7429 43.3509L26.6874 43.3543L26.6175 42.2309L27.9236 42.6394L27.9345 43.6878L27.7754 43.8158ZM45.6667 42.1147L44.4507 41.4183L45.8528 40.7211L45.8562 40.6949L45.9109 40.6916L45.8528 40.7211L45.6667 42.1147ZM43.7509 40.0086L42.7556 39.2608L42.6326 39.0646L43.2373 38.0625L43.8192 38.4752C43.8006 38.5585 43.9985 38.7446 44.0103 38.8255L44.2419 39.8604C44.0869 39.8663 43.8309 39.9034 43.7509 40.0086ZM12.6242 33.356L13.7922 33.2912L13.1691 31.3922L12.9383 31.2448L12.0179 29.8672L11.8486 29.8966L11.1067 29.9379L11.0815 29.9387C11.0091 30.1905 10.9408 30.4432 10.876 30.6958L11.0756 31.7526L12.6242 33.356ZM46.2234 32.6975L45.4604 32.5728L45.4411 32.38L45.2726 31.5034C45.3855 31.4773 45.4756 31.4309 45.5438 31.3661L46.8482 30.8507L47.9185 30.1459C47.8242 30.0996 47.8992 29.9219 47.7905 29.8688L48.0499 28.6469L48.8297 28.6815L49.2912 30.6731L49.0688 30.7244L47.3762 31.4747L47.2777 31.4714L46.2848 31.6187L46.2234 32.6975ZM47.6827 28.1838L47.9749 26.6368L48.028 26.5922L50.0928 27.5236L50.0373 27.5269L47.6827 28.1838ZM48.6133 26.1577L47.7072 26.1173L47.6002 26.012L46.6326 24.1762L46.6461 24.1341L46.5501 22.6082L47.8781 24.2259L47.8032 24.7926L48.7253 26.1518L48.6133 26.1577ZM32.7918 12.9973L33.2465 12.2848L34.0406 12.4819L35.4587 11.9994L34.7632 10.7093L35.2971 10.3185V10.2958L40.0617 10.7707L40.1712 10.7648L42.007 10.5265L43.1691 10.8642L43.5758 10.7025C41.6213 10.2604 39.5876 10.0263 37.5 10.0263C33.5741 10.0263 29.8394 10.8516 26.4608 12.3379L26.5072 12.3328L28.8878 12.0903L29.1665 11.7004L31.6726 12.0541L31.4933 12.748L32.7918 12.9973Z" fill="#105AB3" fill-opacity="0.5"/>
</svg>
