<svg width="75" height="75" viewBox="0 0 75 75" fill="none" xmlns="http://www.w3.org/2000/svg">
<path fill-rule="evenodd" clip-rule="evenodd" d="M7.90743 42.3996C5.20104 26.0659 16.2634 10.613 32.6001 7.90743C48.9337 5.20102 64.3864 16.2635 67.0928 32.6004C69.7984 48.9341 58.736 64.3869 42.4001 67.0926C26.0658 69.799 10.613 58.7365 7.90743 42.3996ZM41.9809 64.5533C43.8977 64.2357 45.7361 63.7269 47.4777 63.0469L47.4745 63.0405L46.3665 60.0141C45.7617 58.2597 45.1833 56.4701 44.6297 54.6485C42.4289 52.4429 40.2009 50.2237 37.9889 48.0133C37.7705 46.0604 37.5961 44.074 37.4649 42.0588C36.4841 41.5156 35.5033 40.9764 34.5313 40.442C34.5433 40.418 34.5569 40.394 34.5689 40.3708C34.5449 40.386 34.5217 40.4028 34.4977 40.4204C32.7033 39.8412 30.9209 39.2724 29.1601 38.722C27.8561 38.4516 26.5602 38.1868 25.277 37.9268C23.809 36.6868 22.3754 35.466 20.9994 34.2804C20.621 33.838 20.2482 33.3988 19.8842 32.9644C20.0786 33.4884 20.2794 34.0124 20.4906 34.5404C20.9178 35.1444 21.3554 35.7564 21.7994 36.366C21.593 36.3604 21.389 36.3524 21.1778 36.3444C20.445 35.6996 19.7218 35.066 19.0098 34.4412C17.7778 32.2796 16.6634 30.15 15.7074 28.0683C15.921 26.2699 16.1986 24.4547 16.5346 22.6243C16.8522 22.3707 17.1746 22.1099 17.4954 21.8547L16.5866 19.7979C11.5586 25.7139 9.07863 33.7252 10.4466 41.9804C12.921 56.9125 27.0474 67.027 41.9809 64.5533ZM52.588 60.3949C52.076 60.7381 52.0777 60.7373 52.588 60.3949V60.3949ZM53.1016 60.0381C52.9384 60.1669 52.7664 60.2845 52.588 60.3949C52.7912 60.2669 52.9904 60.1317 53.1016 60.0381ZM54.0952 59.3213C53.8016 59.5557 53.4976 59.7781 53.1016 60.0381C53.4656 59.8013 53.8152 59.5477 54.0952 59.3213ZM54.284 59.1877C54.2328 59.2269 54.1672 59.2765 54.0952 59.3213C54.192 59.2565 54.2488 59.2141 54.284 59.1877ZM54.324 59.1565L54.328 59.1533C54.3176 59.1605 54.308 59.1677 54.284 59.1877C54.3072 59.1693 54.3152 59.1629 54.324 59.1565ZM56.3312 57.4309L55.4288 58.2069L54.328 59.1533L54.3296 59.1509L54.324 59.1565C55.0232 58.6109 55.692 58.0357 56.3312 57.4309ZM64.5536 33.0196C62.0784 18.0875 47.9521 7.97303 33.0193 10.4466C32.0761 10.605 31.1521 10.8074 30.2673 11.0474L30.5361 10.989L32.1041 10.6466L32.1049 10.7106C32.0545 11.5715 32.0089 12.4283 31.9713 13.2883C32.0305 13.2771 32.0889 13.2635 32.1449 13.2451C33.0289 13.3643 33.9233 13.4859 34.8289 13.6211C34.8337 13.6411 34.8337 13.6627 34.8361 13.6787C35.1225 14.6267 35.4273 15.5763 35.7433 16.5347C36.5401 15.3883 37.3329 14.2419 38.1217 13.0995C38.1137 12.9955 38.1049 12.8915 38.0985 12.7891L37.7137 10.105L38.5601 10.0946C40.3785 10.1634 42.1657 10.4146 43.8977 10.8307L44.3649 10.9674L46.0585 14.1819C46.0433 14.2251 46.0297 14.2731 46.0129 14.3203C45.5489 15.1419 45.0729 15.9659 44.6041 16.7915C43.4873 17.2227 42.3761 17.6587 41.2641 18.0987C41.9433 18.5179 42.6313 18.9419 43.3273 19.3707C43.1929 20.0235 43.0617 20.6763 42.9329 21.3275C41.7865 21.7195 40.6321 22.1099 39.4857 22.5019C38.7609 23.3939 38.0433 24.2811 37.3249 25.1627C37.3273 25.1843 37.3305 25.2067 37.3313 25.2267C36.7889 26.4795 36.2545 27.7283 35.7281 28.9683C35.5425 29.8916 35.3633 30.814 35.1881 31.7292C34.9441 31.9388 34.7009 32.1476 34.4577 32.3548C33.7089 31.7196 32.9665 31.0916 32.2361 30.4708C31.1689 31.0116 30.1065 31.546 29.0561 32.0788C28.5001 33.1148 27.9561 34.142 27.4289 35.1524C27.4314 35.1716 27.4362 35.1924 27.441 35.214C28.0145 35.83 28.6009 36.4532 29.1913 37.078C29.9953 36.3556 30.8065 35.6204 31.6273 34.8708C31.7953 35.0964 31.9673 35.318 32.1361 35.538C32.1689 36.0532 32.2041 36.566 32.2417 37.0716C32.7641 37.2252 33.2865 37.3772 33.8065 37.5308C34.4401 38.2076 35.0745 38.8916 35.7169 39.5764C35.5721 39.6764 35.4289 39.7764 35.2873 39.8748C36.2401 40.1148 37.1985 40.3556 38.1577 40.598C38.6585 39.9452 39.1641 39.29 39.6745 38.6276C40.4281 38.734 41.1889 38.8372 41.9473 38.9452C44.3137 39.294 46.6913 39.642 49.0633 39.9828C49.9713 41.0628 50.8761 42.1412 51.7785 43.2148C54.3912 44.0012 56.984 44.7748 59.5368 45.5244C59.6576 45.9772 59.7776 46.4308 59.8936 46.8861C59.3848 48.0845 58.8808 49.2701 58.3952 50.4461C58.2312 51.3581 58.076 52.2621 57.9264 53.1629C57.1072 54.2005 56.3112 55.2197 55.54 56.2149C55.5488 56.2533 55.5592 56.2941 55.5656 56.3365L55.4288 58.2069C62.7264 51.3733 66.0976 42.3532 64.5536 33.0196ZM36.5833 35.938C35.6889 35.5444 34.7977 35.1564 33.9137 34.7716C34.5361 34.5484 35.1641 34.3236 35.7921 34.1012C36.3857 34.2996 36.9841 34.5052 37.5841 34.7084C37.6513 34.718 37.7153 34.7292 37.7841 34.7412C38.7993 34.7348 39.8137 34.7268 40.8345 34.7204C40.9017 34.7316 40.9705 34.7428 41.0353 34.7516C41.1625 35.074 41.2873 35.3996 41.4137 35.7252C40.6225 35.906 39.8337 36.0908 39.0449 36.2692C38.2233 36.1604 37.4025 36.0484 36.5833 35.938ZM16.8378 19.4771L16.5866 19.7955L16.5914 19.8075L16.5866 19.7979C17.4306 18.8027 17.6058 18.5955 16.8378 19.4771ZM45.8385 18.4419C45.7073 17.9419 45.5793 17.4491 45.4529 16.9515C45.5113 16.8987 45.5697 16.8451 45.6225 16.7891C46.1009 16.2011 46.5849 15.6139 47.0569 15.0267C47.0625 15.0699 47.0649 15.1131 47.0721 15.1515C47.3993 16.0219 47.7297 16.8915 48.0657 17.7667C47.9801 18.0883 47.8985 18.4075 47.8121 18.7267C47.1521 18.6307 46.4945 18.5347 45.8385 18.4419ZM28.3881 11.6435C27.8354 11.8363 27.8545 11.8299 28.3881 11.6435V11.6435ZM29.2041 11.3619C28.4769 11.6067 28.4305 11.6227 28.3881 11.6435C28.4305 11.6227 28.4793 11.6051 29.2041 11.3619ZM30.0433 11.1187C29.5177 11.2587 29.0129 11.4171 29.2041 11.3619C29.0209 11.4139 29.5273 11.2563 30.0433 11.1187ZM30.2673 11.0474L30.2769 11.0451C30.1985 11.0667 30.1193 11.0891 30.0433 11.1187C30.1129 11.0907 30.1913 11.069 30.2673 11.0474Z" fill="#105AB3" fill-opacity="0.5"/>
</svg>
