<?xml version="1.0" encoding="UTF-8"?>
<svg id="Layer_2" data-name="Layer 2" xmlns="http://www.w3.org/2000/svg" xmlns:xlink="http://www.w3.org/1999/xlink" viewBox="0 0 477 64.7">
  <defs>
    <style>
      .cls-1 {
        fill: #20c4f4;
      }

      .cls-1, .cls-2, .cls-3, .cls-4, .cls-5, .cls-6, .cls-7, .cls-8, .cls-9, .cls-10, .cls-11, .cls-12, .cls-13, .cls-14, .cls-15, .cls-16, .cls-17, .cls-18, .cls-19, .cls-20, .cls-21, .cls-22, .cls-23 {
        stroke-width: 0px;
      }

      .cls-2 {
        fill: #636b70;
      }

      .cls-3 {
        fill: #ed1c24;
      }

      .cls-4 {
        fill: url(#linear-gradient);
      }

      .cls-5 {
        fill: #636466;
      }

      .cls-6 {
        fill: url(#linear-gradient-11);
      }

      .cls-7 {
        fill: url(#linear-gradient-12);
      }

      .cls-8 {
        fill: url(#linear-gradient-10);
      }

      .cls-9 {
        fill: #0073ae;
      }

      .cls-10 {
        fill: url(#linear-gradient-4);
      }

      .cls-11 {
        fill: url(#linear-gradient-2);
      }

      .cls-12 {
        fill: url(#linear-gradient-3);
      }

      .cls-13 {
        fill: url(#linear-gradient-8);
      }

      .cls-14 {
        fill: url(#linear-gradient-9);
      }

      .cls-15 {
        fill: url(#linear-gradient-7);
      }

      .cls-16 {
        fill: url(#linear-gradient-5);
      }

      .cls-17 {
        fill: url(#linear-gradient-6);
      }

      .cls-18 {
        fill: #4d748d;
      }

      .cls-19 {
        fill: #fff;
      }

      .cls-20 {
        fill: #e6e6e6;
      }

      .cls-21 {
        fill: #231f20;
      }

      .cls-22 {
        fill: #002d53;
      }

      .cls-23 {
        fill: #93adc2;
      }
    </style>
    <linearGradient id="linear-gradient" x1="46.85" y1="208.04" x2="46.85" y2="16.25" gradientTransform="translate(0 70.7) scale(1 -1)" gradientUnits="userSpaceOnUse">
      <stop offset="0" stop-color="#a5aeb3"/>
      <stop offset=".17" stop-color="#3c484f"/>
      <stop offset=".26" stop-color="#838f97"/>
      <stop offset=".4" stop-color="#909ba2"/>
      <stop offset=".54" stop-color="#6d7a82"/>
      <stop offset=".63" stop-color="#6b777f"/>
      <stop offset=".72" stop-color="#e3e8eb"/>
      <stop offset=".79" stop-color="#fff"/>
      <stop offset="1" stop-color="#3c484f"/>
    </linearGradient>
    <linearGradient id="linear-gradient-2" x1="26.64" y1="61.27" x2="26.64" y2="15.64" xlink:href="#linear-gradient"/>
    <linearGradient id="linear-gradient-3" x1="69.71" y1="67.76" x2="69.71" y2="-16.86" xlink:href="#linear-gradient"/>
    <linearGradient id="linear-gradient-4" x1="89.34" y1="83.32" x2="89.34" y2="-26.43" xlink:href="#linear-gradient"/>
    <linearGradient id="linear-gradient-5" x1="106.55" y1="83.32" x2="106.55" y2="-26.43" xlink:href="#linear-gradient"/>
    <linearGradient id="linear-gradient-6" x1="124.07" y1="83.28" x2="124.07" y2="-26.43" xlink:href="#linear-gradient"/>
    <linearGradient id="linear-gradient-7" x1="140.89" y1="83.32" x2="140.89" y2="-26.43" xlink:href="#linear-gradient"/>
    <linearGradient id="linear-gradient-8" x1="159.73" y1="67.76" x2="159.73" y2="-16.86" xlink:href="#linear-gradient"/>
    <linearGradient id="linear-gradient-9" x1="176.67" y1="82.64" x2="176.67" y2="-25.42" xlink:href="#linear-gradient"/>
    <linearGradient id="linear-gradient-10" x1="194.15" y1="83.28" x2="194.15" y2="-26.43" xlink:href="#linear-gradient"/>
    <linearGradient id="linear-gradient-11" x1="210.93" y1="82.62" x2="210.93" y2="-25.43" xlink:href="#linear-gradient"/>
    <linearGradient id="linear-gradient-12" x1="227.1" y1="83.31" x2="227.1" y2="-26.45" xlink:href="#linear-gradient"/>
  </defs>
  <g id="Layer_1-2" data-name="Layer 1">
    <path class="cls-5" d="M.67,44.72c0-1.02.77-1.78,1.76-1.78s1.74.77,1.74,1.78-.77,1.79-1.74,1.79-1.76-.76-1.76-1.79ZM2.43,46.87c1.17,0,2.18-.91,2.18-2.15s-1.01-2.14-2.18-2.14-2.2.91-2.2,2.14,1.01,2.15,2.2,2.15ZM1.98,44.89h.43l.66,1.07h.42l-.71-1.09c.37-.05.65-.24.65-.69,0-.48-.29-.71-.88-.71h-.95v2.48h.38v-1.07h0ZM1.98,44.57v-.76h.51c.27,0,.54.06.54.36,0,.38-.29.4-.6.4h-.45Z"/>
    <path class="cls-4" d="M45.57,37.73l-4.62,8.73h9.5l2.31-4.65v-4.08h-7.19Z"/>
    <path class="cls-11" d="M.52,28.17L9.89,9.81h9.25l-7.06,14.02h20.15l-6.67-13.89h27.21v8.67h-13.22l2.57,5.23h10.39v8.67h-10.39l-7.19,13.89h-9.37l6.67-13.89H12.08l7.06,14.02h-9.25L.52,28.17ZM15.32,12.13h-4L3.13,28.25l8.19,15.94h4.03l-7.19-14h41.92v-4H8.16l7.16-14.06Z"/>
    <path class="cls-21" d="M0,28.16h1.03l9.14,17.89-.58.93L0,28.16Z"/>
    <path class="cls-21" d="M9.59,46.98h10.27s-1.5-.93-1.5-.93h-8.19s-.58.93-.58.93Z"/>
    <path class="cls-20" d="M18.35,46.05l1.52.94-7.05-14.05-1.5-.9,7.03,14.01Z"/>
    <path class="cls-21" d="M11.32,32.04l1.5.94h18.63l1.5-.94H11.32Z"/>
    <path class="cls-20" d="M32.96,32.04l-1.49.93-6.67,13.9,1.48-.93,6.68-13.9Z"/>
    <path class="cls-21" d="M26.27,45.94l-1.46.94h10.39l-.57-.94h-8.36Z"/>
    <path class="cls-21" d="M34.62,45.94l.57.92,7.21-13.9-.59-.93-7.19,13.9Z"/>
    <path class="cls-21" d="M42.38,32.97h10.57l-.92-.93h-10.21l.56.93Z"/>
    <path class="cls-21" d="M52.02,32.04l.93.93v-9.59l-.94.92v7.74Z"/>
    <path class="cls-20" d="M52.95,23.38h-10.54l-.61.93h10.21l.94-.93Z"/>
    <path class="cls-20" d="M42.41,23.38l-2.13-4.32-1.48-.91,3,6.15.61-.93Z"/>
    <path class="cls-21" d="M38.79,18.14l1.51.93h12.9l-.94-.93h-13.48Z"/>
    <path class="cls-21" d="M53.2,19.06l-.94-.91v-7.76l.94-.91v9.58Z"/>
    <path class="cls-20" d="M53.2,9.48l-.92.92h-26l-1.46-.92h28.38Z"/>
    <path class="cls-21" d="M26.27,10.4l-1.46-.92,6.66,13.88,1.48.93-6.68-13.89Z"/>
    <path class="cls-20" d="M31.48,23.36l1.48.93H11.31s1.5-.93,1.5-.93h18.67Z"/>
    <path class="cls-21" d="M11.31,24.29l1.5-.93,7.06-14.01-1.52.93-7.04,14.01Z"/>
    <path class="cls-20" d="M19.89,9.35l-1.55.93h-8.15l-.59-.93h10.29Z"/>
    <path class="cls-21" d="M11.03,11.67h5.04l-1.51.92h-2.95l-.57-.92Z"/>
    <path class="cls-20" d="M14.55,12.59l1.52-.93-7.16,14.04-1.52.93,7.15-14.04Z"/>
    <path class="cls-21" d="M11.6,12.59l-.56-.93L2.6,28.25h1.06l7.94-15.65Z"/>
    <path class="cls-20" d="M3.65,28.24h-1.05l8.42,16.41.57-.92-7.95-15.49Z"/>
    <path class="cls-20" d="M11.6,43.73l-.57.92h5.08l-1.53-.92h-2.98Z"/>
    <path class="cls-21" d="M14.6,43.73l1.51.92-7.18-13.99-1.53-.93,7.2,14Z"/>
    <path class="cls-20" d="M8.93,30.65l-1.53-.93h42.21l.92.93H8.93Z"/>
    <path class="cls-20" d="M49.61,29.72v-3.08l.93-.91v4.93l-.93-.94Z"/>
    <path class="cls-21" d="M49.61,26.65H7.41l1.5-.92h41.62l-.93.92Z"/>
    <path class="cls-20" d="M9.6,9.36L0,28.16h1.04S10.17,10.28,10.17,10.28l-.57-.92Z"/>
    <path class="cls-20" d="M45.28,37.27l.55.93h6.46l.94-.93h-7.95Z"/>
    <path class="cls-21" d="M53.21,37.27v4.64l-.92-.23v-3.5l.92-.92Z"/>
    <path class="cls-21" d="M53.21,41.91l-.92-.23-2.15,4.31.59.92,2.48-5Z"/>
    <path class="cls-21" d="M50.14,45.98h-8.42l-1.55.94h10.55l-.59-.94Z"/>
    <path class="cls-20" d="M41.71,45.98l-1.53.93,5.1-9.64.57.93-4.14,7.78Z"/>
    <path class="cls-21" d="M80.18,36.46h-5.86v-6.33h-7.65v6.33h-5.86v-16.17h5.86v6.08h7.65v-6.08h5.86v16.17Z"/>
    <path class="cls-21" d="M92.3,32.08v4.37h-4.52v-4.37l-6.01-8.09h5.18l3.03,4.8h.15l3.12-4.8h5.24l-6.19,8.09Z"/>
    <path class="cls-21" d="M104.15,26.85h3.95c1.58,0,2.28.33,2.28,1.94v2.61c0,1.32-.61,2.13-2.28,2.13h-3.95v-6.68ZM99.63,36.46h9.19c4.72,0,6.21-1.61,6.21-5.02v-2.61c0-3.53-2.1-4.84-6.82-4.84h-8.58v12.46Z"/>
    <path class="cls-21" d="M122.1,30.22v-3.37h3.5c1.49,0,1.87.31,1.87,1.42,0,1.41.07,1.94-1.87,1.94h-3.5ZM122.1,36.45v-3.31h3.5c1.35,0,1.9.64,1.85,1.57v1.74h4.51v-2.51c0-1.41-1.2-2.16-3.05-2.21v-.13c3.2-.55,3.2-1.76,3.2-3.84,0-3.1-1.92-3.72-5.83-3.77h-8.71v12.46h4.52Z"/>
    <path class="cls-21" d="M143.83,31.85h-4.2l2.06-5.4h.04l2.1,5.4ZM144.73,34.32l.88,2.14h4.61l-5.15-12.46h-6.86l-5.08,12.46h4.7l.84-2.14h6.08-.01Z"/>
    <path class="cls-21" d="M158.57,26.99h8.96v3.53h-8.96v5.93h-5.86v-16.17h15.58v3.53h-9.73v3.17h0Z"/>
    <path class="cls-21" d="M177.45,33.63c-2.35,0-3.11-.19-3.19-2.05v-2.81c.07-1.85.84-2.03,3.19-2.03s3.18.19,3.18,2.03v2.81c0,1.86-.83,2.05-3.18,2.05ZM177.45,36.55c4.58,0,7.84-.73,7.84-4.57v-3.52c0-3.84-3.25-4.57-7.84-4.57s-7.84.73-7.84,4.57v3.52c0,3.84,3.25,4.57,7.84,4.57Z"/>
    <path class="cls-21" d="M192.18,30.22v-3.37h3.5c1.49,0,1.88.31,1.88,1.42,0,1.41.06,1.94-1.88,1.94h-3.5ZM187.66,36.45h4.52v-3.31h3.5c1.36,0,1.89.64,1.85,1.57v1.74h4.51v-2.51c0-1.41-1.19-2.16-3.04-2.21v-.13c3.21-.55,3.21-1.76,3.21-3.84,0-3.1-1.92-3.72-5.83-3.77h-8.72v12.46h0Z"/>
    <path class="cls-21" d="M219.17,31.74v.37c0,1.36-.02,2.59-1.56,3.54-1.54.93-3.41.91-5.38.91-4.61,0-7.97-.17-7.97-4.72v-3.22c0-4.12,3.01-4.72,7.97-4.72,4.65,0,6.82.34,6.91,4.09v.48h-4.66v-.48c-.15-1.11-1.21-1.19-2.76-1.19-2.57,0-2.82.58-2.82,2.36v1.94c0,1.87.12,2.58,2.82,2.58,1.88,0,2.79-.1,2.79-1.56v-.37h4.65Z"/>
    <path class="cls-21" d="M226.21,29h7.22v2.31h-7.22v2.42h7.86v2.73h-12.38v-12.46h12.22v2.73h-7.7v2.28Z"/>
    <path class="cls-12" d="M79.39,35.71h-5.86v-6.33h-7.64v6.33h-5.86v-16.17h5.86v6.08h7.64v-6.08h5.86v16.17Z"/>
    <path class="cls-10" d="M91.51,31.34v4.37h-4.52v-4.37l-6.01-8.09h5.17l3.03,4.8h.16l3.12-4.8h5.24l-6.19,8.09h0Z"/>
    <path class="cls-16" d="M103.36,26.14h3.95c1.58,0,2.28.33,2.28,1.94v2.61c0,1.31-.61,2.13-2.28,2.13h-3.95v-6.68ZM98.85,35.71h9.19c4.72,0,6.21-1.61,6.21-5.02v-2.61c0-3.54-2.1-4.84-6.82-4.84h-8.58v12.46Z"/>
    <path class="cls-17" d="M121.32,29.51v-3.38h3.5c1.49,0,1.87.31,1.87,1.43,0,1.41.07,1.95-1.87,1.95h-3.5ZM116.8,35.71h4.52v-3.31h3.5c1.35,0,1.89.63,1.85,1.56v1.74h4.51v-2.51c0-1.41-1.19-2.16-3.05-2.21v-.13c3.21-.55,3.21-1.76,3.21-3.84,0-3.11-1.92-3.73-5.83-3.77h-8.72v12.46h0Z"/>
    <path class="cls-15" d="M143.05,31.14h-4.2l2.05-5.4h.04l2.1,5.4ZM143.95,33.57l.88,2.14h4.61l-5.15-12.46h-6.87l-5.08,12.46h4.7l.83-2.14h6.08Z"/>
    <path class="cls-13" d="M157.79,26.24h8.96v3.54h-8.96v5.93h-5.86v-16.17h15.59v3.53h-9.72v3.17h0Z"/>
    <path class="cls-14" d="M176.67,32.92c-2.35,0-3.12-.18-3.18-2.05v-2.81c.07-1.84.83-2.03,3.18-2.03s3.18.18,3.18,2.03v2.81c0,1.86-.83,2.05-3.18,2.05ZM176.67,35.81c4.59,0,7.84-.73,7.84-4.57v-3.52c0-3.84-3.25-4.57-7.84-4.57s-7.84.73-7.84,4.57v3.52c0,3.84,3.25,4.57,7.84,4.57Z"/>
    <path class="cls-8" d="M191.39,29.51v-3.38h3.5c1.49,0,1.88.31,1.88,1.43,0,1.41.07,1.95-1.88,1.95h-3.5ZM186.88,35.71h4.51v-3.31h3.5c1.35,0,1.9.63,1.86,1.56v1.74h4.51v-2.51c0-1.41-1.19-2.16-3.05-2.21v-.13c3.21-.55,3.21-1.76,3.21-3.84,0-3.11-1.92-3.73-5.83-3.77h-8.71v12.47Z"/>
    <path class="cls-6" d="M218.38,30.99v.37c0,1.37-.02,2.59-1.56,3.54-1.54.93-3.41.92-5.38.92-4.6,0-7.97-.17-7.97-4.72v-3.22c0-4.12,3-4.71,7.97-4.71,4.65,0,6.82.35,6.92,4.09v.48h-4.65v-.48c-.15-1.11-1.22-1.19-2.75-1.19-2.58,0-2.82.58-2.82,2.36v1.94c0,1.87.11,2.58,2.82,2.58,1.87,0,2.77-.1,2.77-1.56v-.37h4.65Z"/>
    <path class="cls-7" d="M225.43,28.25h7.23v2.31h-7.23v2.42h7.86v2.73h-12.38v-12.46h12.22v2.72h-7.7v2.28Z"/>
    <path class="cls-9" d="M116.82,55.2v-8.22h3.17c1.76,0,2.43.21,3.01.57.75.48,1.2,1.28,1.2,2.14s-.44,1.69-1.11,2.13c-.75.49-1.48.66-2.88.66h-1.07v2.71h-2.33ZM119.14,50.77h1.02c.42,0,.86-.02,1.24-.19.36-.15.56-.47.56-.86,0-.53-.36-.75-.58-.85-.36-.15-.78-.19-1.29-.19h-.95v2.08Z"/>
    <path class="cls-9" d="M130.04,55.35c-3.01,0-5.37-1.84-5.37-4.18,0-2.47,2.31-4.33,5.38-4.33s5.39,1.87,5.39,4.25-2.37,4.25-5.4,4.25h0ZM130.05,48.54c-1.99,0-3.07,1.3-3.07,2.52,0,1.46,1.32,2.56,3.09,2.56,1.9,0,3.04-1.29,3.04-2.53s-1.14-2.55-3.06-2.55Z"/>
    <path class="cls-9" d="M145.31,55.2h-2.04l-1.63-5.22-1.61,5.22h-2.09l-2.74-8.22h2.38l1.57,5.32,1.61-5.32h1.76l1.63,5.34,1.57-5.34h2.37l-2.79,8.22h.01Z"/>
    <path class="cls-9" d="M155.04,55.2h-5.9v-8.22h5.9v1.71h-3.58v1.48h3.51v1.71h-3.51v1.59h3.58v1.72Z"/>
    <path class="cls-9" d="M163.89,55.2h-2.49l-2.9-3.99h.69c.63,0,1.33-.03,1.7-.26.35-.23.56-.6.56-1.02s-.25-.8-.65-1.01c-.31-.15-.72-.22-1.33-.22h-1.01v6.5h-2.32v-8.22h3.17c1.46,0,2.43.17,3.05.53.85.48,1.35,1.31,1.35,2.28,0,.59-.19,1.13-.57,1.58-.36.42-.83.69-1.49.85l2.25,2.98h0Z"/>
    <path class="cls-9" d="M170.97,55.2h-2.32v-8.22h5.61v1.71h-3.29v1.57h3.21v1.72h-3.21v3.22Z"/>
    <path class="cls-9" d="M180.21,55.35c-3.01,0-5.37-1.84-5.37-4.18,0-2.47,2.31-4.33,5.38-4.33s5.39,1.87,5.39,4.25-2.37,4.25-5.4,4.25ZM180.23,48.54c-1.99,0-3.07,1.3-3.07,2.52,0,1.46,1.33,2.56,3.09,2.56,1.9,0,3.04-1.29,3.04-2.53s-1.14-2.55-3.06-2.55Z"/>
    <path class="cls-9" d="M194.18,55.2h-2.49l-2.9-3.99h.69c.63,0,1.33-.03,1.7-.26.35-.23.56-.6.56-1.02s-.25-.8-.66-1.01c-.31-.15-.72-.22-1.33-.22h-1.01v6.5h-2.32v-8.22h3.16c1.46,0,2.43.17,3.05.53.85.48,1.35,1.31,1.35,2.28,0,.59-.19,1.13-.57,1.58-.36.42-.82.69-1.49.85l2.25,2.98Z"/>
    <path class="cls-9" d="M204.23,55.2h-2.04l-1.63-5.22-1.61,5.22h-2.09l-2.74-8.22h2.38l1.57,5.32,1.62-5.32h1.76l1.63,5.34,1.57-5.34h2.37l-2.79,8.22h.01Z"/>
    <path class="cls-9" d="M213.09,55.2l-.72-1.55h-3.71l-.72,1.55h-2.53l4.18-8.22h1.97l4.09,8.22h-2.55ZM209.32,52.07h2.37l-1.2-2.66-1.17,2.66Z"/>
    <path class="cls-9" d="M221.85,55.2l-2.9-3.99h.69c.63,0,1.33-.03,1.7-.26.35-.23.56-.6.56-1.02s-.25-.8-.65-1.01c-.3-.15-.73-.22-1.33-.22h-1.01v6.5h-2.32v-8.22h3.17c1.46,0,2.43.17,3.05.53.85.48,1.35,1.31,1.35,2.28,0,.59-.19,1.13-.57,1.58-.36.42-.83.69-1.49.85l2.26,2.98h-2.49Z"/>
    <path class="cls-9" d="M225.27,55.2v-8.22h3.33c1.49,0,3.17.17,4.33,1.41.7.7,1.06,1.6,1.06,2.68,0,2.62-1.91,4.12-5.25,4.12h-3.48ZM227.59,53.48h1.26c1.82,0,2.82-.85,2.82-2.38,0-.65-.22-1.24-.62-1.67-.49-.49-1.21-.74-2.19-.74h-1.27v4.79Z"/>
    <path class="cls-9" d="M237.03,51.15c-1.09,0-1.98-.87-1.98-1.96s.89-1.96,1.98-1.96,1.97.88,1.97,1.96-.88,1.96-1.97,1.96ZM237.03,47.68c-.85,0-1.51.68-1.51,1.52s.66,1.52,1.51,1.52,1.51-.69,1.51-1.52-.66-1.52-1.51-1.52ZM237.51,50.34c-.07-.1-.06-.3-.07-.42-.01-.2-.02-.39-.24-.46-.03,0-.12-.02-.16-.02h-.4v.9h-.45v-2.24h.97c.4,0,.77.15.77.61,0,.28-.14.47-.42.54h0c.31.1.36.27.37.57,0,.15,0,.39.07.52h-.46,0ZM237.46,48.63c-.06-.17-.21-.18-.36-.18h-.45v.62h.43c.25,0,.4-.08.4-.36,0-.02,0-.07-.02-.09h0Z"/>
    <path class="cls-19" d="M477,18.32h-88.7v46.38h88.7V18.32Z"/>
    <path class="cls-22" d="M399.88,52.45h-.78l1.98-5.48h.86l1.95,5.48h-.85l-.44-1.28h-2.29l-.44,1.28ZM402.39,50.53l-.92-2.69-.93,2.69h1.84Z"/>
    <path class="cls-22" d="M407.3,46.98h2.19c1.16,0,1.77.5,1.77,1.44,0,.56-.22.89-.75,1.16.71.23,1.04.64,1.04,1.31,0,.99-.69,1.55-1.89,1.55h-2.36v-5.48h0ZM409.61,49.32c.58,0,.86-.28.86-.86s-.31-.83-.98-.83h-1.39v1.69h1.5ZM409.71,51.81c.68,0,1.05-.33,1.05-.93s-.39-.92-1.11-.92h-1.54v1.85h1.6,0Z"/>
    <path class="cls-22" d="M416.2,50.44c0,1.22-.81,2.09-1.94,2.09s-1.94-.86-1.94-2.07.81-2.09,1.96-2.09,1.92.87,1.92,2.07h0ZM413.15,50.45c0,.89.42,1.44,1.1,1.44s1.12-.54,1.12-1.44-.42-1.43-1.08-1.43c-.71,0-1.12.53-1.12,1.44h0Z"/>
    <path class="cls-22" d="M419.53,49.43c-.3-.3-.58-.42-.98-.42-.44,0-.69.16-.69.45,0,.32.18.44.89.59.43.09.69.18.9.31.33.21.5.53.5.94,0,.76-.61,1.23-1.58,1.23-.74,0-1.25-.22-1.7-.72l.51-.48c.33.41.63.56,1.15.56.55,0,.85-.19.85-.54,0-.33-.18-.44-.98-.62-.91-.2-1.29-.55-1.29-1.19,0-.71.56-1.16,1.46-1.16.62,0,1.03.15,1.43.54l-.47.52Z"/>
    <path class="cls-22" d="M424.53,51.56c-.38.66-.92.97-1.68.97-1.13,0-1.91-.84-1.91-2.07s.77-2.09,1.9-2.09c.72,0,1.23.29,1.61.93l-.65.37c-.3-.5-.52-.66-.94-.66-.7,0-1.11.53-1.11,1.44s.4,1.44,1.12,1.44c.47,0,.75-.18,1.04-.68l.62.36h0Z"/>
    <path class="cls-22" d="M425.38,46.69h.8v2.38c.25-.47.65-.7,1.2-.7.84,0,1.32.57,1.32,1.57v2.51h-.8v-2.48c0-.64-.24-.93-.76-.93-.58,0-.95.39-.95,1.01v2.4h-.8v-5.77h0Z"/>
    <path class="cls-22" d="M436.77,50.91c-.23.6-.44.91-.8,1.19-.38.28-.84.43-1.4.43-1.5,0-2.5-1.11-2.5-2.8s1.02-2.84,2.49-2.84c.64,0,1.16.19,1.55.56.26.25.4.49.61,1.01l-.72.28c-.29-.83-.7-1.18-1.42-1.18-1.03,0-1.66.82-1.66,2.17s.63,2.16,1.68,2.16c.75,0,1.19-.37,1.46-1.24l.73.29h0Z"/>
    <path class="cls-22" d="M441.34,50.44c0,1.22-.81,2.09-1.94,2.09s-1.94-.86-1.94-2.07.81-2.09,1.96-2.09,1.92.87,1.92,2.07ZM438.29,50.45c0,.89.42,1.44,1.09,1.44s1.12-.54,1.12-1.44-.42-1.43-1.09-1.43c-.71,0-1.12.53-1.12,1.44h0Z"/>
    <path class="cls-22" d="M443.23,49.05c.25-.45.61-.68,1.11-.68.53,0,.88.23,1.11.72.32-.49.71-.72,1.24-.72.8,0,1.27.58,1.27,1.57v2.51h-.8v-2.48c0-.64-.21-.93-.68-.93-.54,0-.88.4-.88,1v2.41h-.8v-2.48c0-.63-.22-.93-.69-.93-.53,0-.87.4-.87,1v2.41h-.8v-4h.8v.61h0Z"/>
    <path class="cls-22" d="M449.26,48.45h.8v.64c.31-.47.74-.72,1.3-.72,1.02,0,1.69.82,1.69,2.07s-.66,2.09-1.69,2.09c-.57,0-1.01-.25-1.3-.71v2.02h-.8v-5.4h0ZM450.04,50.45c0,.91.4,1.44,1.12,1.44s1.08-.47,1.08-1.42-.39-1.45-1.06-1.45c-.71,0-1.13.54-1.13,1.44h0Z"/>
    <path class="cls-22" d="M457.51,52.47c-.14.01-.22.02-.29.02-.47,0-.74-.18-.88-.59-.33.44-.72.63-1.22.63-.75,0-1.26-.46-1.26-1.13,0-.58.35-.99,1.04-1.19.39-.11.71-.15,1.4-.16v-.21c0-.57-.23-.82-.75-.82-.41,0-.74.14-1.14.47l-.42-.52c.48-.42.96-.6,1.61-.6.97,0,1.5.51,1.5,1.46v1.69c0,.25.11.37.32.37.01,0,.06,0,.09,0v.59h0ZM456.3,50.59c-1.09,0-1.63.26-1.63.76,0,.36.24.56.65.56.57,0,.98-.34.98-.81v-.51Z"/>
    <path class="cls-22" d="M458.51,48.45h.8v.62c.25-.47.65-.7,1.2-.7.84,0,1.32.57,1.32,1.57v2.51h-.8v-2.48c0-.64-.24-.93-.77-.93-.58,0-.95.39-.95,1.01v2.4h-.8v-4h0Z"/>
    <path class="cls-22" d="M464.57,52.96c-.23.64-.61.94-1.18.94-.31,0-.57-.08-.81-.25l.26-.56c.17.11.32.16.5.16.29,0,.47-.15.57-.48l.12-.36-1.52-3.96h.86l1.05,2.89.98-2.89h.8l-1.63,4.51h0Z"/>
    <path class="cls-1" d="M402.26,42.61v-2.9l-1.57-.88-1.59.19v3.6h3.16Z"/>
    <path class="cls-22" d="M402.26,37.18c0-1.65.89-2.68,2.27-2.68.52,0,.85.1,1.3.37l.78-2.85c-.49-.31-.97-.43-1.57-.43-1.22,0-2.09.64-2.79,2.06v-1.83h-3.16v7.2c.57.14,1.65.4,3.16.69v-2.53Z"/>
    <path class="cls-1" d="M412.05,42.84c1.68,0,3.01-.52,3.99-1.52l-4.23-.57-4.41-.19c.93,1.39,2.52,2.29,4.65,2.29Z"/>
    <path class="cls-22" d="M416.05,41.32c.26-.27.51-.57.71-.91l-2.46-1.22c-.58.93-1.18,1.28-2.21,1.28-2.41,0-2.44-2.37-2.46-2.46h7.33v-.85c0-3.51-1.9-5.61-5.05-5.61s-5.45,2.37-5.45,5.76c0,1.22.33,2.33.94,3.25,2.49.34,5.42.63,8.64.76h0ZM411.89,33.88c1.26,0,1.84.66,2,2.21h-4.19c.29-1.53.95-2.21,2.19-2.21Z"/>
    <path class="cls-23" d="M424.37,42.61h3.69l-1.14-1.69-1.87-.31-1.53.65.84,1.35Z"/>
    <path class="cls-18" d="M419.98,42.61l.78-1.22-1.55-.37-1.65.35-.85,1.24h3.26Z"/>
    <path class="cls-22" d="M420.76,41.39l1.44-2.24,1.33,2.12c1.13-.08,2.27-.2,3.4-.34l-2.74-4.07,3.51-5.04h-3.26l-1.92,3.07-1.92-3.07h-3.63l3.51,5.28-2.91,4.27c.77.02,1.56.03,2.37.03.28,0,.55,0,.83,0Z"/>
    <path class="cls-23" d="M432.26,42.61v-2.54l-1.74-.2-1.41.74v1.99h3.16Z"/>
    <path class="cls-22" d="M432.26,37.18c0-1.65.89-2.68,2.27-2.68.51,0,.84.1,1.3.37l.78-2.85c-.5-.31-.97-.43-1.57-.43-1.22,0-2.09.64-2.79,2.06v-1.83h-3.16v8.8c1.05-.16,2.11-.35,3.16-.55v-2.89Z"/>
    <path class="cls-18" d="M447.43,37.16c0-.15,0-.3-.02-.45l-1.58-.18-1.62.9c-.01.72-.21,2.79-2.09,2.94l-.23,1.23.49,1.22c2.98-.23,5.04-2.49,5.04-5.66h0Z"/>
    <path class="cls-1" d="M441.9,40.38c-1.41,0-1.95-1.02-2.16-1.91h-1.66l-1.43.7c.92,3.09,4.02,3.67,5.25,3.67.17,0,.33,0,.49-.02l-.27-2.45c-.07,0-.15.01-.23.01h0Z"/>
    <path class="cls-22" d="M439.61,37.2c0-2.11.8-3.2,2.35-3.2,1.45,0,2.25,1.13,2.25,3.18v.24c1.08-.25,2.15-.49,3.2-.72-.18-2.38-1.8-5.16-5.43-5.16-3.3,0-5.59,2.35-5.59,5.72,0,.73.1,1.35.27,1.9,1.04-.23,2.07-.46,3.09-.7-.14-.58-.13-1.11-.13-1.26Z"/>
    <path class="cls-18" d="M452.63,42.84c1.03,0,1.83-.27,2.58-.84l-.76-2.11c-.39.23-.72.33-1.1.33-.62,0-.91-.37-.91-1.17v-3.28l-1.61-.25-1.55.81v3.11c0,2.17,1.22,3.4,3.34,3.4h0Z"/>
    <path class="cls-22" d="M452.44,34.27h2.27v-2.46h-2.27v-3.26l-3.16,1.09v2.17h-1.48v2.46h1.48v2.05c1.08-.21,2.13-.4,3.16-.57v-1.48Z"/>
    <path class="cls-3" d="M463.04,36.05v6.56h3.16v-6.49l-1.59-.9-1.59.34c.02.15.03.31.03.48Z"/>
    <path class="cls-1" d="M459.45,42.61v-6.36c0-.4.05-.73.15-1.01l-1.71-.44-1.59.49v7.31h3.16Z"/>
    <path class="cls-22" d="M459.6,35.25c.42-1.22,1.58-1.24,1.83-1.24.08,0,1.38-.18,1.58,1.56,1.08.15,2.15.35,3.19.56,0-2.63-.78-4.58-3.4-4.58-1.53,0-2.62.64-3.34,1.96v-6.44h-3.16v8.24c.73-.05,1.44-.08,2.14-.08.39,0,.78,0,1.17.02h0Z"/>
    <path class="cls-2" d="M432.65,0h-105.65v18.32h105.65V0Z"/>
    <path class="cls-19" d="M337.19,11.99c-.49.61-1.28.96-2.06.96-.33,0-.68-.06-.99-.18-1.04-.37-1.47-1.24-1.47-2.31h1.98c.02.36.09.85.56.85.53,0,.56-.52.56-.93v-4.87h1.86v4.41c0,.7,0,1.5-.45,2.07Z"/>
    <path class="cls-19" d="M341.41,12.98c-1.68,0-2.95-1.23-2.95-2.91s1.27-2.91,2.95-2.91,2.95,1.23,2.95,2.91-1.27,2.91-2.95,2.91ZM341.41,8.69c-.76,0-1.31.64-1.31,1.38s.55,1.38,1.31,1.38,1.31-.64,1.31-1.38-.55-1.38-1.31-1.38Z"/>
    <path class="cls-19" d="M345.28,6.75v-1.24h1.64v1.24h-1.64ZM345.28,12.81v-5.47h1.64v5.47h-1.64Z"/>
    <path class="cls-19" d="M351.54,12.81v-2.99c0-.61-.12-1.13-.86-1.13s-.94.49-.94,1.14v2.98h-1.64v-5.47h1.53v.58h.02c.35-.56.83-.77,1.49-.77.46,0,1.05.18,1.4.47.52.43.63,1.12.63,1.77v3.42h-1.64Z"/>
    <path class="cls-19" d="M354.34,6.75v-1.24h1.64v1.24h-1.64ZM354.34,12.81v-5.47h1.64v5.47h-1.64Z"/>
    <path class="cls-19" d="M360.59,12.81v-2.99c0-.61-.12-1.13-.86-1.13s-.94.49-.94,1.14v2.98h-1.64v-5.47h1.53v.58h.02c.35-.56.83-.77,1.49-.77.46,0,1.05.18,1.4.47.52.43.63,1.12.63,1.77v3.42h-1.64Z"/>
    <path class="cls-19" d="M368.74,13.95c-.54.92-1.78,1.29-2.77,1.29-.93,0-1.85-.29-2.4-1.08-.18-.26-.3-.54-.34-.85h1.89c.18.39.55.54.96.54.9,0,1.33-.62,1.33-1.49v-.17h-.02c-.29.53-.92.78-1.5.78-1.64,0-2.76-1.28-2.76-2.88s1.1-2.95,2.76-2.95c.56,0,1.19.19,1.51.69h.02v-.51h1.64v4.81c0,.61-.01,1.26-.33,1.81ZM366.1,8.69c-.76,0-1.32.62-1.32,1.36s.52,1.41,1.31,1.41,1.34-.57,1.34-1.36-.52-1.41-1.33-1.41Z"/>
    <path class="cls-19" d="M374.97,8.58v4.23h-1.64v-4.23h-.61v-1.24h.61v-.29c0-1.33.95-1.68,2.09-1.68h.24v1.23c-.59,0-.69.12-.69.73h.69v1.24h-.69Z"/>
    <path class="cls-19" d="M379.02,12.98c-1.68,0-2.95-1.23-2.95-2.91s1.27-2.91,2.95-2.91,2.95,1.23,2.95,2.91-1.27,2.91-2.95,2.91ZM379.02,8.69c-.76,0-1.31.64-1.31,1.38s.55,1.38,1.31,1.38,1.31-.64,1.31-1.38-.55-1.38-1.31-1.38Z"/>
    <path class="cls-19" d="M384.52,9.8v3.01h-1.64v-5.47h1.54v.58h.02c.29-.56.74-.77,1.37-.77v1.65c-.72.02-1.29.16-1.29,1.01Z"/>
    <path class="cls-19" d="M389.06,12.99c-1.64,0-2.93-1.29-2.93-2.93s1.26-2.91,2.89-2.91c1.4,0,2.61.91,2.9,2.3h-1.66c-.24-.51-.66-.77-1.22-.77-.79,0-1.26.65-1.26,1.39s.5,1.39,1.3,1.39c.54,0,.94-.26,1.18-.73h1.67c-.32,1.34-1.49,2.26-2.87,2.26Z"/>
    <path class="cls-19" d="M398.25,10.57h-4.1c.1.65.64,1.04,1.28,1.04.44,0,.73-.18,1-.51h1.68c-.47,1.09-1.44,1.89-2.67,1.89-1.6,0-2.9-1.3-2.9-2.9s1.26-2.94,2.87-2.94,2.89,1.34,2.89,2.99c0,.15,0,.29-.04.43ZM395.41,8.53c-.59,0-1.11.35-1.24.94h2.48c-.13-.59-.65-.94-1.24-.94Z"/>
    <path class="cls-19" d="M401.07,13c-1.14,0-2.1-.61-2.23-1.81h1.63c.05.34.3.5.62.5.25,0,.57-.14.57-.42,0-.39-.44-.51-.74-.63-.24-.08-.47-.16-.71-.25-.65-.24-1.3-.66-1.3-1.43,0-1.14,1.07-1.81,2.12-1.81s1.99.56,2.1,1.73h-1.61c-.01-.31-.23-.41-.51-.41-.22,0-.46.12-.46.36,0,.86,2.75.37,2.75,2.31,0,1.23-1.11,1.86-2.23,1.86Z"/>
    <path class="cls-19" d="M413.22,12.81h-1.52l-.92-3.54h-.02l-.92,3.54h-1.52l-1.68-5.47h1.7l.82,3.4h.02l.9-3.4h1.38l.91,3.4h.02l.82-3.4h1.69l-1.68,5.47Z"/>
    <path class="cls-19" d="M415.55,6.75v-1.24h1.64v1.24h-1.64ZM415.55,12.81v-5.47h1.64v5.47h-1.64Z"/>
    <path class="cls-19" d="M420.39,8.58v4.23h-1.64v-4.23h-.81v-1.24h.81v-1.82h1.64v1.82h.79v1.24h-.79Z"/>
    <path class="cls-19" d="M425.32,12.81v-2.98c0-.59-.17-1.14-.88-1.14s-.92.46-.92,1.09v3.04h-1.64v-7.3h1.64v2.33h.02c.29-.51.86-.69,1.41-.69s1.13.19,1.49.6c.52.6.51,1.25.51,2v3.06h-1.64Z"/>
  </g>
</svg>