<svg width="50" height="50" viewBox="0 0 50 50" fill="none" xmlns="http://www.w3.org/2000/svg">
<path fill-rule="evenodd" clip-rule="evenodd" d="M24.2722 9.60207C24.5191 9.46881 24.8163 9.46587 25.0658 9.59424L38.5115 16.5111C38.8238 16.6717 38.9782 16.9797 38.9704 17.2846C38.9896 17.3451 39 17.4094 39 17.4762V31.4216C39 31.7079 38.8545 31.9747 38.6134 32.1306L25.8782 40.3638C25.6137 40.5348 25.2757 40.5455 25.0008 40.3917L11.433 32.799C11.1655 32.6494 11 32.3676 11 32.0621V17.4762C11 17.4085 11.0107 17.3433 11.0304 17.2822C11.0203 16.9808 11.1686 16.675 11.4742 16.5101L24.2722 9.60207ZM12.2727 18.4447V31.8148L24.6895 38.7633V25.413L19.4434 22.4689V26.3415C19.4434 26.6916 19.1585 26.9754 18.8071 26.9754C18.4556 26.9754 18.1707 26.6916 18.1707 26.3415V21.7547L12.2727 18.4447ZM25.9623 38.798L37.7273 31.192V18.4766L25.9623 25.4042V38.798ZM25.3183 24.3106L19.8811 21.2593L31.5117 14.5514C31.5739 14.5155 31.6276 14.4708 31.6724 14.4198L37.2461 17.2871L25.3183 24.3106ZM24.6812 10.8234L30.3654 13.7475L18.5936 20.5368L12.7556 17.2605L24.6812 10.8234Z" fill="#105AB3" fill-opacity="0.2"/>
</svg>
