<svg width="50" height="25" viewBox="0 0 50 25" fill="none" xmlns="http://www.w3.org/2000/svg">
<path d="M5.5 2.5V22.5H44.5V2.5H5.5ZM25.0104 18.4591L15.7189 12.55L25.0104 6.54504L34.2769 12.55L25.0104 18.4591Z" fill="#105AB3" fill-opacity="0.5"/>
<path d="M28.5664 13.701C26.9901 12.3499 24.948 11.5367 22.7187 11.5367C22.2654 11.5367 21.8245 11.5701 21.3878 11.6368C21.3129 11.9287 21.2755 12.2373 21.2755 12.55C21.2755 14.6184 22.9475 16.2948 25.0104 16.2948C26.674 16.2948 28.0798 15.2064 28.5664 13.701ZM27.5849 13.8136L27.6265 13.6843L27.6681 13.8136H27.8012L27.693 13.8928L27.7346 14.0221L27.6265 13.9429L27.5183 14.0221L27.5599 13.8928L27.4518 13.8136H27.5849ZM25.9961 12.3123L26.0252 12.2248L26.0543 12.3123H26.1458L26.071 12.3666L26.1001 12.4541L26.0252 12.3999L25.9504 12.4541L25.9795 12.3666L25.9046 12.3123H25.9961ZM24.973 13.1005L25.0021 13.0129L25.0312 13.1005H25.1227L25.0478 13.1547L25.0769 13.2423L25.0021 13.1881L24.9272 13.2423L24.9563 13.1547L24.8815 13.1005H24.973ZM21.9493 13.9387L21.8412 13.8595L21.733 13.9387L21.7746 13.8094L21.6665 13.7302H21.7996L21.8412 13.6009L21.8827 13.7302H22.0158L21.9077 13.8094L21.9493 13.9387ZM22.0533 12.0246L21.9451 11.9454L21.837 12.0246L21.8786 11.8953L21.7704 11.8161H21.9035L21.9451 11.6868L21.9867 11.8161H22.1198L22.0117 11.8953L22.0533 12.0246ZM22.4026 13.6009L22.2945 13.5217L22.1864 13.6009L22.228 13.4716L22.1198 13.3924H22.2529L22.2945 13.2631L22.3361 13.3924H22.4692L22.361 13.4716L22.4026 13.6009ZM22.7021 13.2673L22.6563 13.2339L22.6106 13.2673L22.6272 13.2131L22.5815 13.1797H22.6397L22.6563 13.1255L22.673 13.1797H22.7312L22.6855 13.2131L22.7021 13.2673ZM23.0223 14.2681L22.9475 14.2139L22.8726 14.2681L22.9017 14.1806L22.8269 14.1264H22.9184L22.9475 14.0388L22.9766 14.1264H23.0681L22.9932 14.1806L23.0223 14.2681ZM23.1845 13.9887L23.0764 13.9095L22.9683 13.9887L23.0099 13.8595L22.9017 13.7802H23.0348L23.0764 13.651L23.118 13.7802H23.2511L23.143 13.8595L23.1845 13.9887ZM23.5963 14.6768L23.4882 14.5976L23.38 14.6768L23.4216 14.5475L23.3135 14.4683H23.4466L23.4882 14.339L23.5298 14.4683H23.6628L23.5547 14.5475L23.5963 14.6768ZM24.6985 13.5467L24.6236 13.4925L24.5487 13.5467L24.5779 13.4591L24.503 13.4049H24.5945L24.6236 13.3173L24.6527 13.4049H24.7442L24.6694 13.4591L24.6985 13.5467ZM24.7609 13.6968H24.8191L24.8357 13.6426L24.8524 13.6968H24.9106L24.8648 13.7302L24.8815 13.7844L24.8357 13.751L24.79 13.7844L24.8066 13.7302L24.7609 13.6968ZM25.0478 15.5108L25.0104 15.4858L24.973 15.5108L24.9854 15.4691L24.948 15.4441H24.9938L25.0062 15.4024L25.0187 15.4441H25.0645L25.027 15.4691L25.0395 15.5108H25.0478ZM25.1185 14.3891L25.0104 14.3098L24.9023 14.3891L24.9439 14.2598L24.8357 14.1806H24.9688L25.0104 14.0513L25.052 14.1806H25.1851L25.0769 14.2598L25.1185 14.3891ZM25.5137 13.6009L25.4388 13.5467L25.3639 13.6009L25.393 13.5133L25.3182 13.4591H25.4097L25.4388 13.3716L25.4679 13.4591H25.5594L25.4845 13.5133L25.5137 13.6009ZM25.9171 14.7352L25.8464 14.681L25.7715 14.7352L25.8006 14.6476L25.7258 14.5934H25.8173L25.8464 14.5058L25.8755 14.5934H25.967L25.8921 14.6476L25.9212 14.7352H25.9171ZM26.1916 15.1564L26.1167 15.1022L26.0419 15.1564L26.071 15.0688L25.9961 15.0146H26.0876L26.1167 14.927L26.1458 15.0146H26.2373L26.1625 15.0688L26.1916 15.1564ZM26.516 14.8478L26.4411 14.7936L26.3663 14.8478L26.3954 14.7602L26.3205 14.706H26.412L26.4411 14.6184L26.4702 14.706H26.5617L26.4869 14.7602L26.516 14.8478ZM26.9444 15.4566L26.8695 15.4024L26.7947 15.4566L26.8238 15.3691L26.7531 15.3148H26.8446L26.8737 15.2273L26.9028 15.3148H26.9943L26.9194 15.3691L26.9485 15.4566H26.9444ZM26.9153 14.6226L26.9444 14.7102L26.8695 14.656L26.7947 14.7102L26.8238 14.6226L26.7531 14.5684H26.8446L26.8737 14.4808L26.9028 14.5684H26.9943L26.9194 14.6226H26.9153ZM27.3145 14.7894L27.2397 14.7352L27.1648 14.7894L27.1939 14.706L27.1191 14.6518H27.2106L27.2397 14.5684L27.2688 14.6518H27.3603L27.2854 14.706L27.3145 14.7894ZM27.6098 14.5684L27.535 14.5142L27.4643 14.5684L27.4934 14.4808L27.4185 14.4266H27.51L27.5391 14.339L27.5683 14.4266H27.6598L27.5849 14.4808L27.614 14.5684H27.6098ZM27.8469 14.3015L27.772 14.2473L27.6972 14.3015L27.7263 14.2139L27.6514 14.1597H27.7429L27.772 14.0721L27.8012 14.1597H27.8927L27.8178 14.2139L27.8469 14.3015ZM28.2129 13.9887L28.1381 13.9345L28.0632 13.9887L28.0923 13.9012L28.0174 13.847H28.1089L28.1381 13.7594L28.1672 13.847H28.2587L28.1838 13.9012L28.2129 13.9887Z" fill="#105AB3" fill-opacity="0.5"/>
<path d="M21.6166 10.9821C21.9784 10.9404 22.3444 10.9195 22.7187 10.9195C24.9854 10.9195 27.0733 11.7077 28.7162 13.0213C28.737 12.867 28.7494 12.7085 28.7494 12.5459C28.7494 10.4775 27.0775 8.80108 25.0146 8.80108C23.509 8.80108 22.2113 9.69349 21.6207 10.9821H21.6166ZM26.1583 11.3032L26.1999 11.1739L26.2415 11.3032H26.3746L26.2665 11.3824L26.308 11.5117L26.1999 11.4324L26.0918 11.5117L26.1334 11.3824L26.0252 11.3032H26.1583Z" fill="#105AB3" fill-opacity="0.5"/>
</svg>
