<svg width="50" height="50" viewBox="0 0 50 50" fill="none" xmlns="http://www.w3.org/2000/svg">
<g style="mix-blend-mode:multiply">
<path d="M33.2918 3.27736V3.77736H33.7918H40.1716H40.1723C40.8844 3.77736 41.503 4.39106 41.5 5.19029V5.19218V47.0852C41.5 47.8876 40.8828 48.5 40.1723 48.5H9.82765C9.11721 48.5 8.5 47.8876 8.5 47.0852V5.19218C8.5 4.38975 9.11718 3.77736 9.82765 3.77736H16.2075H16.7075V3.27736V2.91481C16.7075 2.11239 17.3246 1.5 18.0351 1.5H31.9642C32.6746 1.5 33.2918 2.11235 33.2918 2.91481V3.27736ZM16.7066 4.55226V4.05226H16.2066H9.82683C9.1929 4.05226 8.71629 4.58584 8.71629 5.19192V47.0913C8.71629 47.6974 9.19288 48.231 9.82683 48.231H40.1715C40.8054 48.231 41.2821 47.6974 41.2821 47.0913L41.2814 5.19192C41.2814 4.58587 40.8048 4.05226 40.1708 4.05226H33.791H33.291V4.55226V4.91481C33.291 5.71723 32.6738 6.32962 31.9634 6.32962H18.0343C17.3239 6.32962 16.7066 5.71727 16.7066 4.91481V4.55226ZM17.7043 24.3983L17.7043 24.3983C17.729 24.3724 17.7527 24.366 17.7712 24.3661C17.7897 24.3661 17.8175 24.3729 17.8474 24.4039L17.8489 24.4055C17.8709 24.4281 17.8866 24.4632 17.8866 24.5068C17.8866 24.5504 17.8707 24.5883 17.846 24.6142L14.7251 27.8839C14.6898 27.9178 14.6622 27.9224 14.6478 27.9224C14.6247 27.9224 14.5985 27.9132 14.5759 27.8896L13.2932 26.5457L13.2932 26.5457L13.2903 26.5427C13.2683 26.5201 13.2525 26.485 13.2525 26.4414C13.2525 26.3978 13.2684 26.3599 13.2932 26.334L13.2932 26.334L13.2961 26.3309C13.3167 26.309 13.3393 26.3012 13.3606 26.3012C13.382 26.3012 13.4073 26.3092 13.4309 26.334L14.2821 27.2258L14.6438 27.6047L15.0055 27.2258L17.7043 24.3983ZM17.6983 34.6519L17.6983 34.6519C17.7249 34.6241 17.7496 34.6181 17.7667 34.6181C17.7838 34.6182 17.8099 34.6243 17.8386 34.6546L17.8386 34.6546L17.8429 34.6591C17.8649 34.6818 17.8807 34.7168 17.8807 34.7604C17.8807 34.804 17.8648 34.8419 17.84 34.8678L14.7176 38.1392C14.6867 38.1695 14.6594 38.176 14.6418 38.176C14.6203 38.176 14.5904 38.1647 14.57 38.1433L13.2872 36.7993L13.2843 36.7963C13.2623 36.7737 13.2466 36.7386 13.2466 36.695C13.2466 36.6514 13.2625 36.6135 13.2872 36.5876L13.2901 36.5845C13.3107 36.5626 13.3333 36.5548 13.3546 36.5548C13.376 36.5548 13.4014 36.5628 13.425 36.5876L14.2762 37.4794L14.6379 37.8583L14.9996 37.4794L17.6983 34.6519ZM36.7521 16.6995V16.7023C36.7521 16.8005 36.6798 16.842 36.6415 16.842H20.1012C20.0629 16.842 19.9906 16.8005 19.9906 16.7023C19.9906 16.6042 20.0629 16.5627 20.1012 16.5627H36.6436C36.6639 16.5627 36.6885 16.5708 36.7121 16.5956C36.736 16.6208 36.7523 16.6573 36.7521 16.6995ZM36.7521 37.2041V37.2069C36.7521 37.3051 36.6798 37.3466 36.6415 37.3466H20.1012C20.0629 37.3466 19.9906 37.3051 19.9906 37.2069C19.9906 37.1087 20.0629 37.0673 20.1012 37.0673H36.6436C36.6822 37.0673 36.7526 37.1085 36.7521 37.2041ZM17.7044 14.1409L17.7044 14.1409C17.7291 14.1151 17.7529 14.1087 17.7714 14.1087C17.7899 14.1088 17.8177 14.1156 17.8475 14.1466L17.849 14.1481C17.871 14.1708 17.8868 14.2058 17.8868 14.2494C17.8868 14.293 17.8709 14.3309 17.8461 14.3569L14.7253 17.6265C14.69 17.6604 14.6624 17.665 14.6479 17.665C14.6248 17.665 14.5986 17.6559 14.5761 17.6323L13.2933 16.2884L13.2934 16.2884L13.2904 16.2853C13.2685 16.2627 13.2527 16.2277 13.2527 16.1841C13.2527 16.1404 13.2686 16.1026 13.2933 16.0766L13.2934 16.0766L13.2962 16.0736C13.3168 16.0516 13.3395 16.0439 13.3607 16.0439C13.3822 16.0439 13.4075 16.0519 13.4311 16.0766L14.2823 16.9684L14.644 17.3474L15.0057 16.9684L17.7044 14.1409ZM18.0346 1.77516C17.4007 1.77516 16.9241 2.30874 16.9241 2.91481V4.91508C16.9241 5.52113 17.4006 6.05474 18.0346 6.05474H31.9637C32.5976 6.05474 33.0742 5.52115 33.0742 4.91508V2.91481C33.0742 2.30876 32.5976 1.77516 31.9637 1.77516H18.0346ZM20.1012 26.8163H36.6436C36.6673 26.8163 36.6897 26.825 36.7103 26.8465C36.7311 26.8684 36.7508 26.9057 36.752 26.9587C36.7507 27.0549 36.6794 27.0956 36.6415 27.0956H20.1012C20.0629 27.0956 19.9906 27.0542 19.9906 26.956C19.9906 26.8578 20.0629 26.8163 20.1012 26.8163Z" fill="#105AB3" stroke="#105AB3"/>
</g>
</svg>
