<svg width="50" height="25" viewBox="0 0 50 25" fill="none" xmlns="http://www.w3.org/2000/svg">
<path d="M6 2.5V22.5H44V2.5H6ZM12.7636 9.82277L11.0858 8.57173L9.41218 9.82277L10.0525 7.79608L8.3788 6.54087H10.4496L11.0899 4.51418L11.7302 6.54087H13.801L12.1273 7.79608L12.7676 9.82277H12.7636ZM15.2639 14.093L14.9519 13.651L14.4494 13.8178L14.7614 13.3757L14.4494 12.9337L14.9519 13.1005L15.2639 12.6585V13.2048L15.7664 13.3716L15.2639 13.5384V14.093ZM16.7755 5.33987L16.4635 4.89783L15.961 5.06464L16.273 4.6226L15.961 4.18057L16.4635 4.34737L16.7755 3.90534V4.45163L17.278 4.61843L16.7755 4.78524V5.33987ZM17.971 11.3324L17.5414 11.0113L17.1119 11.3324L17.274 10.8153L16.8444 10.4942H17.3712L17.5333 9.97706L17.6954 10.4942H18.2222L17.7927 10.8153L17.9548 11.3324H17.971ZM18.1979 7.89199L18.048 8.41326L17.8737 7.90033L17.3429 7.91284L17.7643 7.5834L17.5901 7.07048L18.0237 7.37907L18.4451 7.04962L18.2952 7.57089L18.7288 7.87948L18.1979 7.89199Z" fill="#105AB3" fill-opacity="0.5"/>
</svg>
