<svg width="16" height="16" viewBox="0 0 16 16" fill="none" xmlns="http://www.w3.org/2000/svg">
<g clip-path="url(#clip0_1905_63112)">
<path fill-rule="evenodd" clip-rule="evenodd" d="M7.99935 1.8335C11.4051 1.8335 14.166 4.59441 14.166 8.00016C14.166 11.4059 11.4051 14.1668 7.99935 14.1668C4.59359 14.1668 1.83268 11.4059 1.83268 8.00016C1.83268 4.59441 4.59359 1.8335 7.99935 1.8335ZM15.166 8.00016C15.166 4.04212 11.9574 0.833496 7.99935 0.833496C4.04131 0.833496 0.832682 4.04212 0.832682 8.00016C0.832682 11.9582 4.04131 15.1668 7.99935 15.1668C11.9574 15.1668 15.166 11.9582 15.166 8.00016ZM5.64579 5.64661C5.45053 5.84187 5.45053 6.15845 5.64579 6.35372L7.29224 8.00016L5.64579 9.64661C5.45053 9.84187 5.45053 10.1585 5.64579 10.3537C5.84106 10.549 6.15764 10.549 6.3529 10.3537L7.99935 8.70727L9.6458 10.3537C9.84106 10.549 10.1576 10.549 10.3529 10.3537C10.5482 10.1585 10.5482 9.84187 10.3529 9.64661L8.70646 8.00016L10.3529 6.35372C10.5482 6.15845 10.5482 5.84187 10.3529 5.64661C10.1576 5.45135 9.84106 5.45135 9.6458 5.64661L7.99935 7.29306L6.3529 5.64661C6.15764 5.45135 5.84106 5.45135 5.64579 5.64661Z" fill="#576071"/>
</g>
<defs>
<clipPath id="clip0_1905_63112">
<rect width="16" height="16" fill="white" transform="matrix(-1 0 0 1 16 0)"/>
</clipPath>
</defs>
</svg>
