<svg width="42" height="38" viewBox="0 0 42 38" fill="none" xmlns="http://www.w3.org/2000/svg">
    <path d="M28.4324 13.2624C26.4371 11.1678 23.7934 9.99017 20.975 9.99017C18.1567 9.99017 15.5109 11.1252 13.5177 13.218C9.44264 17.5366 9.44264 24.5617 13.5177 28.8801L20.5414 36.3416C20.6719 36.4728 20.8023 36.5154 20.975 36.5154C21.1478 36.5154 21.2782 36.4711 21.4086 36.3416L28.4766 28.8801C32.5516 24.6058 32.5091 17.5812 28.4324 13.2624ZM27.6092 28.0963L20.9749 35.1198L14.3405 28.1391C10.655 24.2568 10.655 17.9307 14.3405 14.0909C16.1189 12.1719 18.4596 11.1681 20.9749 11.1681C23.4901 11.1681 25.8306 12.2145 27.6092 14.0483C31.2947 17.9306 31.2947 24.2565 27.6092 28.0963ZM26.4389 15.0944C23.4461 12.0403 18.5037 12.0403 15.5111 15.0944C14.0376 16.5771 13.2568 18.4978 13.2568 20.5925C13.2568 22.6871 14.0799 24.6061 15.5111 26.0907C17.0287 27.6177 18.9798 28.3591 20.9752 28.3591C22.9706 28.3591 24.9216 27.6177 26.4393 26.0907C27.9128 24.608 28.6936 22.6873 28.6936 20.5925C28.6936 18.498 27.9128 16.5773 26.4393 15.0944H26.4389ZM25.6141 25.2604C24.3133 26.5693 22.6653 27.1794 20.9751 27.1794C19.2848 27.1794 17.5927 26.525 16.3361 25.2604C15.0794 23.9959 14.429 22.3376 14.429 20.5925C14.429 18.803 15.1234 17.1465 16.3361 15.9246C18.8936 13.3512 23.0567 13.3512 25.6583 15.9246C26.915 17.1892 27.5654 18.8474 27.5654 20.5925C27.5654 22.3376 26.8725 23.9943 25.6141 25.2604ZM28.2156 35.1198C28.2156 37.0388 24.5741 38 20.9751 38C17.376 38 13.7345 36.9962 13.7345 35.1198C13.7345 34.5097 14.1241 33.5927 16.0752 32.9383C16.3784 32.8514 16.6816 32.9826 16.812 33.2877C16.8984 33.5927 16.768 33.8978 16.4648 34.029C15.3808 34.421 14.9032 34.8573 14.9032 35.1198C14.9032 35.6873 17.0271 36.8649 20.9734 36.8649C24.9198 36.8649 27.0437 35.7299 27.0437 35.1198C27.0437 34.8573 26.5661 34.421 25.4821 34.029C25.1789 33.9421 25.0044 33.5927 25.1349 33.2877C25.2213 32.9826 25.5685 32.8071 25.8716 32.9383C27.7821 33.6371 28.2156 34.5097 28.2156 35.1198ZM24.0101 16.5773H17.9399C17.3335 16.5773 16.8559 17.0579 16.8559 17.668V23.4712C16.8559 24.0813 17.3335 24.5619 17.9399 24.5619H24.0101C24.6165 24.5619 25.0941 24.0813 25.0941 23.4712V17.668C25.0941 17.0579 24.6165 16.5773 24.0101 16.5773ZM20.1078 17.7124H21.8422V20.4614H20.1078V17.7124ZM23.9661 23.4287H17.9838V17.7124H18.9814V20.6795C18.9814 21.2027 19.415 21.5964 19.8927 21.5964H22.0606C22.5806 21.5964 22.9718 21.1601 22.9718 20.6795L22.9702 17.7124H23.9678L23.9661 23.4287ZM16.856 4.75491C16.6393 4.53677 16.6393 4.1448 16.856 3.92665L20.5856 0.173837C20.672 0.0869182 20.8465 0 20.9752 0C21.1479 0 21.2784 0.0443099 21.3647 0.173837L25.0943 3.92665C25.3111 4.1448 25.3111 4.53677 25.0943 4.75491C24.8775 4.97306 24.488 4.97306 24.2712 4.75491L21.5392 2.00592V6.80514C21.5392 7.1102 21.2784 7.37267 20.9752 7.37267C20.672 7.37267 20.4112 7.11021 20.4112 6.80514V2.00592L17.6792 4.75491C17.5488 4.88614 17.4184 4.92875 17.2897 4.92875C17.1169 4.92875 16.9424 4.88614 16.856 4.75491ZM29.6028 6.63132C29.6028 6.32626 29.8636 6.06379 30.1668 6.06379H35.4561C35.7593 6.06379 36.0202 6.32625 36.0202 6.63132V11.9537C36.0202 12.2587 35.7593 12.5212 35.4561 12.5212C35.153 12.5212 34.8921 12.2587 34.8921 11.9537V8.07135L31.3793 11.606C31.2489 11.7372 31.1185 11.7799 30.9898 11.7799C30.8594 11.7799 30.6866 11.7355 30.6002 11.606C30.3834 11.3879 30.3834 10.9959 30.6002 10.7778L34.113 7.24309H30.2107C29.8635 7.19708 29.6028 6.93637 29.6028 6.63132ZM12.3471 35.7316C12.3471 36.0367 12.0863 36.2992 11.7831 36.2992H6.49375C6.19057 36.2992 5.92974 36.0367 5.92974 35.7316V30.4093C5.92974 30.1042 6.19057 29.8418 6.49375 29.8418C6.79693 29.8418 7.05776 30.1042 7.05776 30.4093V34.3359L10.2233 31.1506C10.4401 30.9325 10.8297 30.9325 11.0465 31.1506C11.2632 31.3688 11.2632 31.7607 11.0465 31.9789L7.88089 35.1642H11.7832C12.0864 35.1642 12.3471 35.4266 12.3471 35.7316ZM41.8313 21.5949L38.1017 25.3477C37.9713 25.4789 37.8409 25.5215 37.7122 25.5215C37.5818 25.5215 37.409 25.4772 37.3226 25.3477C37.1058 25.1295 37.1058 24.7376 37.3226 24.5194L40.0546 21.7704H35.0228C34.7196 21.7704 34.4588 21.508 34.4588 21.2029C34.4588 20.8978 34.7196 20.6354 35.0228 20.6354H40.0533L37.3213 17.8864C37.1045 17.6682 37.1045 17.2763 37.3213 17.0581C37.5381 16.84 37.9277 16.84 38.1445 17.0581L41.874 20.8109C42.0485 20.9848 42.0481 21.3767 41.8313 21.5949ZM4.67128 24.5194C4.88808 24.7375 4.88808 25.1295 4.67128 25.3476C4.54087 25.4789 4.41045 25.5215 4.28173 25.5215C4.15131 25.5215 3.97855 25.4772 3.89217 25.3476L0.162597 21.5948C-0.0541988 21.3767 -0.0541988 20.9847 0.162597 20.7666L3.89217 17.0137C4.10897 16.7956 4.4985 16.7956 4.7153 17.0137C4.93209 17.2319 4.93209 17.6239 4.7153 17.842L1.89696 20.5927H6.88325C7.18643 20.5927 7.44727 20.8552 7.44727 21.1602C7.44727 21.4653 7.18644 21.7278 6.88325 21.7278L1.89696 21.726L4.67128 24.5194ZM36.0203 30.4093V35.7317C36.0203 36.0367 35.7595 36.2992 35.4563 36.2992H30.1669C29.8638 36.2992 29.6029 36.0367 29.6029 35.7317C29.6029 35.4266 29.8638 35.1641 30.1669 35.1641H34.0693L30.9037 31.9788C30.6869 31.7607 30.6869 31.3687 30.9037 31.1506C31.1205 30.9324 31.51 30.9324 31.7268 31.1506L34.8924 34.3359V30.4092C34.8924 30.1042 35.1532 29.8417 35.4564 29.8417C35.7613 29.8417 36.0203 30.1026 36.0203 30.4093ZM5.93 11.9096V6.63137C5.93 6.3263 6.19083 6.06384 6.49401 6.06384H11.7834C12.0866 6.06384 12.3474 6.32629 12.3474 6.63137C12.3474 6.93643 12.0866 7.19889 11.7834 7.19889H7.88107L11.3938 10.7336C11.6106 10.9517 11.6106 11.3437 11.3938 11.5618C11.2634 11.6931 11.133 11.7357 11.0043 11.7357C10.8739 11.7357 10.7011 11.6914 10.6147 11.5618L7.10027 8.02715V11.9538C7.10027 12.2589 6.83943 12.5213 6.53625 12.5213C6.23307 12.5213 5.93 12.259 5.93 11.9096Z" fill="#105AB3"/>
</svg>