<svg width="44" height="42" viewBox="0 0 44 42" fill="none" xmlns="http://www.w3.org/2000/svg">
    <path d="M14.5885 2.89655C14.5885 2.12845 14.9009 1.39167 15.4571 0.848276C16.0135 0.305172 16.7679 0 17.5544 0H26.4523C27.2388 0 27.9932 0.305172 28.5496 0.848276C29.1057 1.3917 29.4182 2.12847 29.4182 2.89655V14.4828C29.4182 15.2509 29.1057 15.9876 28.5496 16.531C27.9932 17.0741 27.2387 17.3793 26.4523 17.3793H22.7448V23.1724C23.1381 23.1724 23.5154 23.325 23.7935 23.5966C24.0715 23.8681 24.2278 24.2366 24.2278 24.6207V28.9655C24.2278 29.3496 24.0715 29.7181 23.7935 29.9897C23.5154 30.2612 23.1381 30.4138 22.7448 30.4138V41.2759C22.7448 41.6758 22.4128 42 22.0033 42C21.5939 42 21.2618 41.6758 21.2618 41.2759V30.4138C20.8686 30.4138 20.4912 30.2612 20.2132 29.9897C19.9351 29.7181 19.7789 29.3496 19.7789 28.9655V24.6207C19.7789 24.2366 19.9351 23.8681 20.2132 23.5966C20.4912 23.325 20.8686 23.1724 21.2618 23.1724V17.3793H17.5544C16.7679 17.3793 16.0135 17.0741 15.4571 16.531C14.9009 15.9876 14.5885 15.2508 14.5885 14.4828V2.89655ZM21.2618 28.9655H22.7448V24.6207H21.2618V28.9655ZM16.0714 14.4828C16.0714 14.8668 16.2277 15.2353 16.5057 15.5069C16.7838 15.7784 17.1612 15.931 17.5544 15.931H21.2618V10.8621C21.2618 10.4622 21.5939 10.1379 22.0033 10.1379C22.4128 10.1379 22.7448 10.4622 22.7448 10.8621V15.931H26.4523C26.8455 15.931 27.2229 15.7784 27.5009 15.5069C27.779 15.2353 27.9352 14.8668 27.9352 14.4828V2.89655C27.9352 2.5125 27.779 2.14396 27.5009 1.87241C27.2229 1.60087 26.8455 1.44828 26.4523 1.44828H17.5544C17.1612 1.44828 16.7838 1.60087 16.5057 1.87241C16.2277 2.14396 16.0714 2.5125 16.0714 2.89655V14.4828Z" fill="#105AB3"/>
    <path d="M0.5 21.7241C0.499668 19.8455 1.24745 18.04 2.58447 16.6897C3.92178 15.3391 5.74439 14.549 7.667 14.4863C9.58961 14.4232 11.4621 15.0927 12.8888 16.3529C14.3156 17.6131 15.1848 19.3655 15.3132 21.2402C15.4416 23.1145 14.819 24.9647 13.577 26.399C12.3351 27.8337 10.5704 28.7409 8.65644 28.9286V31.1379C9.04969 31.1379 9.42706 31.2905 9.70512 31.562C9.98317 31.8336 10.1394 32.2021 10.1394 32.5862V36.931C10.1394 37.315 9.98317 37.6836 9.70512 37.9551C9.42706 38.2267 9.04969 38.3793 8.65644 38.3793V41.2758C8.65644 41.6757 8.32442 41.9999 7.91495 41.9999C7.50548 41.9999 7.17347 41.6757 7.17347 41.2758V38.3793C6.78022 38.3793 6.40284 38.2267 6.12479 37.9551C5.84674 37.6836 5.69049 37.315 5.69049 36.931V32.5862C5.69049 32.2021 5.84674 31.8336 6.12479 31.562C6.40284 31.2905 6.78022 31.1379 7.17347 31.1379V28.9286C5.34559 28.747 3.65144 27.91 2.41871 26.579C1.18598 25.2484 0.502377 23.5186 0.5 21.7241ZM7.17338 36.931H8.65636V32.5862H7.17338V36.931ZM13.8468 21.7241C13.8481 20.2293 13.2576 18.7919 12.1986 17.7122C11.14 16.6328 9.69511 15.995 8.16579 15.9316C6.63646 15.8682 5.14129 16.3848 3.99295 17.3731C2.84462 18.3613 2.13195 19.7449 2.00382 21.2346C1.87571 22.7242 2.34212 24.2042 3.30536 25.3657C4.26895 26.5276 5.65465 27.2802 7.17338 27.467V21.724C7.17338 21.3241 7.5054 20.9999 7.91487 20.9999C8.32434 20.9999 8.65636 21.3241 8.65636 21.724V27.467C10.0887 27.2896 11.4054 26.6087 12.3608 25.5516C13.3161 24.4945 13.8445 23.1339 13.8468 21.7241Z" fill="#105AB3"/>
    <path d="M36.0915 14.4827C38.6509 14.485 41.028 15.7758 42.3802 17.8978C43.7328 20.0199 43.8688 22.6729 42.7407 24.9165C41.6123 27.1597 39.3792 28.6766 36.8329 28.9287V31.1379C37.2262 31.1379 37.6036 31.2905 37.8816 31.562C38.1597 31.8336 38.3159 32.2021 38.3159 32.5862V36.931C38.3159 37.3151 38.1597 37.6836 37.8816 37.9551C37.6036 38.2267 37.2262 38.3793 36.8329 38.3793V41.2758C36.8329 41.6757 36.5009 42 36.0915 42C35.682 42 35.35 41.6757 35.35 41.2758V38.3793C34.9567 38.3793 34.5794 38.2267 34.3013 37.9551C34.0232 37.6836 33.867 37.3151 33.867 36.931V32.5862C33.867 32.2021 34.0232 31.8336 34.3013 31.562C34.5794 31.2905 34.9567 31.1379 35.35 31.1379V28.9287C32.8038 28.6765 30.5707 27.1597 29.4422 24.9165C28.3142 22.673 28.4502 20.0199 29.8027 17.8978C31.1549 15.7758 33.532 14.485 36.0915 14.4827ZM35.35 36.931H36.833V32.5862H35.35V36.931ZM35.35 27.4667V21.7237C35.35 21.3238 35.682 20.9996 36.0915 20.9996C36.5009 20.9996 36.833 21.3238 36.833 21.7237V27.4667C38.8479 27.2191 40.593 25.9816 41.4583 24.1871C42.3233 22.3925 42.1882 20.2903 41.1001 18.6158C40.0121 16.9409 38.1222 15.9261 36.0915 15.9261C34.0608 15.9261 32.1709 16.9409 31.0829 18.6158C29.9948 20.2903 29.8597 22.3926 30.7247 24.1871C31.59 25.9816 33.3351 27.2191 35.35 27.4667Z" fill="#105AB3"/>
</svg>