<svg width="25" height="25" viewBox="0 0 25 25" fill="none" xmlns="http://www.w3.org/2000/svg">
<path d="M21.3055 4H3.6945C2.4845 4 1.5 5.01677 1.5 6.26644V18.7336C1.5 19.9832 2.4845 21 3.6945 21H21.3055C22.5155 21 23.5 19.9832 23.5 18.7336V6.26644C23.5 5.01677 22.5155 4 21.3055 4ZM14.6894 12.5004L22.5225 5.43371C22.6761 5.67266 22.7667 5.95857 22.7667 6.26644V18.7336C22.7667 19.0414 22.6761 19.3273 22.5225 19.5663L14.6897 12.5008L14.6894 12.5004ZM21.3055 4.75737C21.5449 4.75737 21.7679 4.82289 21.9677 4.92892L12.5 13.4706L3.0323 4.92892C3.23213 4.82289 3.4547 4.75737 3.6945 4.75737H21.3055ZM2.47753 19.5663C2.3239 19.3273 2.23333 19.0414 2.23333 18.7336V6.26644C2.23333 5.95857 2.3239 5.67266 2.47753 5.43371L10.3103 12.5004L2.47753 19.5663ZM3.69413 20.2426C3.4547 20.2426 3.23177 20.1771 3.0323 20.0711L10.8676 13.0033L12.2587 14.2582C12.3277 14.3207 12.4138 14.3518 12.5 14.3518C12.5862 14.3518 12.672 14.3203 12.7413 14.2582L14.1324 13.0033L21.9677 20.0711C21.7679 20.1771 21.5453 20.2426 21.3059 20.2426H3.69413Z" fill="white" fill-opacity="0.8"/>
</svg>
