<svg width="33" height="34" viewBox="0 0 33 34" fill="none" xmlns="http://www.w3.org/2000/svg">
<path d="M2.76746 1C1.517 1 0.5 2.02691 0.5 3.27907V12.9302C0.5 14.1824 1.517 15.2093 2.76746 15.2093H12.3954C13.6459 15.2093 14.6744 14.1824 14.6744 12.9302V3.27907C14.6744 2.02693 13.6459 1 12.3954 1H2.76746ZM2.76746 1.74419H12.3954C13.2382 1.74419 13.9303 2.43254 13.9303 3.27907V12.9302C13.9303 13.7768 13.2382 14.4651 12.3954 14.4651H2.76746C1.92467 14.4651 1.24419 13.7768 1.24419 12.9302V3.27907C1.24419 2.43253 1.92467 1.74419 2.76746 1.74419Z" fill="white"/>
<path d="M20.593 1C19.3449 1 18.314 2.02531 18.314 3.27907V12.9302C18.314 14.184 19.3449 15.2093 20.593 15.2093H30.2209C31.4688 15.2093 32.5 14.1826 32.5 12.9302V3.27907C32.5 2.0267 31.4688 1 30.2209 1H20.593ZM20.593 1.74419H30.2209C31.0601 1.74419 31.7558 2.43195 31.7558 3.27907V12.9302C31.7558 13.7774 31.0601 14.4651 30.2209 14.4651H20.593C19.7531 14.4651 19.0581 13.7775 19.0581 12.9302V3.27907C19.0581 2.43178 19.7531 1.74419 20.593 1.74419Z" fill="white"/>
<path d="M2.76746 18.779C1.51533 18.779 0.5 19.8083 0.5 21.0581V30.7093C0.5 31.9592 1.51533 33 2.76746 33H12.3954C13.6475 33 14.6744 31.9592 14.6744 30.7093V21.0581C14.6744 19.8083 13.6475 18.779 12.3954 18.779H2.76746ZM2.76746 19.5232H12.3954C13.2389 19.5232 13.9303 20.2145 13.9303 21.0581V30.7093C13.9303 31.5529 13.2389 32.2558 12.3954 32.2558H2.76746C1.92389 32.2558 1.24419 31.5529 1.24419 30.7093V21.0581C1.24419 20.2145 1.92393 19.5232 2.76746 19.5232Z" fill="white"/>
<path d="M20.593 18.779C19.3432 18.779 18.314 19.8067 18.314 21.0581V30.7093C18.314 31.9608 19.3432 33 20.593 33H30.2209C31.4705 33 32.5 31.9594 32.5 30.7093V21.0581C32.5 19.8081 31.4705 18.779 30.2209 18.779H20.593ZM20.593 19.5232H30.2209C31.0609 19.5232 31.7558 20.2139 31.7558 21.0581V30.7093C31.7558 31.5535 31.0609 32.2558 30.2209 32.2558H20.593C19.7523 32.2558 19.0581 31.5537 19.0581 30.7093V21.0581C19.0581 20.2137 19.7523 19.5232 20.593 19.5232Z" fill="white"/>
<path d="M2.76746 0.75C1.3774 0.75 0.25 1.89038 0.25 3.27907H0.75C0.75 2.16344 1.65661 1.25 2.76746 1.25V0.75ZM0.25 3.27907V12.9302H0.75V3.27907H0.25ZM0.25 12.9302C0.25 14.3189 1.3774 15.4593 2.76746 15.4593V14.9593C1.65661 14.9593 0.75 14.0459 0.75 12.9302H0.25ZM2.76746 15.4593H12.3954V14.9593H2.76746V15.4593ZM12.3954 15.4593C13.7838 15.4593 14.9244 14.3206 14.9244 12.9302H14.4244C14.4244 14.0442 13.5079 14.9593 12.3954 14.9593V15.4593ZM14.9244 12.9302V3.27907H14.4244V12.9302H14.9244ZM14.9244 3.27907C14.9244 1.88874 13.7838 0.75 12.3954 0.75V1.25C13.5079 1.25 14.4244 2.16512 14.4244 3.27907H14.9244ZM12.3954 0.75H2.76746V1.25H12.3954V0.75ZM2.76746 1.99419H12.3954V1.49419H2.76746V1.99419ZM12.3954 1.99419C13.1005 1.99419 13.6803 2.571 13.6803 3.27907H14.1803C14.1803 2.29407 13.3758 1.49419 12.3954 1.49419V1.99419ZM13.6803 3.27907V12.9302H14.1803V3.27907H13.6803ZM13.6803 12.9302C13.6803 13.6383 13.1005 14.2151 12.3954 14.2151V14.7151C13.3758 14.7151 14.1803 13.9152 14.1803 12.9302H13.6803ZM12.3954 14.2151H2.76746V14.7151H12.3954V14.2151ZM2.76746 14.2151C2.06481 14.2151 1.49419 13.6408 1.49419 12.9302H0.994186C0.994186 13.9128 1.78453 14.7151 2.76746 14.7151V14.2151ZM1.49419 12.9302V3.27907H0.994186V12.9302H1.49419ZM1.49419 3.27907C1.49419 2.56853 2.06481 1.99419 2.76746 1.99419V1.49419C1.78453 1.49419 0.994186 2.29654 0.994186 3.27907H1.49419ZM20.593 0.75C19.2072 0.75 18.064 1.88684 18.064 3.27907H18.564C18.564 2.16378 19.4825 1.25 20.593 1.25V0.75ZM18.064 3.27907V12.9302H18.564V3.27907H18.064ZM18.064 12.9302C18.064 14.3225 19.2072 15.4593 20.593 15.4593V14.9593C19.4825 14.9593 18.564 14.0455 18.564 12.9302H18.064ZM20.593 15.4593H30.2209V14.9593H20.593V15.4593ZM30.2209 15.4593C31.6065 15.4593 32.75 14.321 32.75 12.9302H32.25C32.25 14.0442 31.331 14.9593 30.2209 14.9593V15.4593ZM32.75 12.9302V3.27907H32.25V12.9302H32.75ZM32.75 3.27907C32.75 1.88831 31.6065 0.75 30.2209 0.75V1.25C31.331 1.25 32.25 2.16509 32.25 3.27907H32.75ZM30.2209 0.75H20.593V1.25H30.2209V0.75ZM20.593 1.99419H30.2209V1.49419H20.593V1.99419ZM30.2209 1.99419C30.9229 1.99419 31.5058 2.57086 31.5058 3.27907H32.0058C32.0058 2.29304 31.1974 1.49419 30.2209 1.49419V1.99419ZM31.5058 3.27907V12.9302H32.0058V3.27907H31.5058ZM31.5058 12.9302C31.5058 13.6384 30.9229 14.2151 30.2209 14.2151V14.7151C31.1974 14.7151 32.0058 13.9163 32.0058 12.9302H31.5058ZM30.2209 14.2151H20.593V14.7151H30.2209V14.2151ZM20.593 14.2151C19.8904 14.2151 19.3081 13.6387 19.3081 12.9302H18.8081C18.8081 13.9164 19.6158 14.7151 20.593 14.7151V14.2151ZM19.3081 12.9302V3.27907H18.8081V12.9302H19.3081ZM19.3081 3.27907C19.3081 2.57064 19.8904 1.99419 20.593 1.99419V1.49419C19.6158 1.49419 18.8081 2.29293 18.8081 3.27907H19.3081ZM2.76746 18.529C1.37544 18.529 0.25 19.6721 0.25 21.0581H0.75C0.75 19.9445 1.65522 19.029 2.76746 19.029V18.529ZM0.25 21.0581V30.7093H0.75V21.0581H0.25ZM0.25 30.7093C0.25 32.0937 1.3738 33.25 2.76746 33.25V32.75C1.65686 32.75 0.75 31.8246 0.75 30.7093H0.25ZM2.76746 33.25H12.3954V32.75H2.76746V33.25ZM12.3954 33.25C13.7874 33.25 14.9244 32.0954 14.9244 30.7093H14.4244C14.4244 31.8229 13.5076 32.75 12.3954 32.75V33.25ZM14.9244 30.7093V21.0581H14.4244V30.7093H14.9244ZM14.9244 21.0581C14.9244 19.6704 13.7857 18.529 12.3954 18.529V19.029C13.5093 19.029 14.4244 19.9462 14.4244 21.0581H14.9244ZM12.3954 18.529H2.76746V19.029H12.3954V18.529ZM2.76746 19.7732H12.3954V19.2732H2.76746V19.7732ZM12.3954 19.7732C13.1009 19.7732 13.6803 20.3526 13.6803 21.0581H14.1803C14.1803 20.0764 13.377 19.2732 12.3954 19.2732V19.7732ZM13.6803 21.0581V30.7093H14.1803V21.0581H13.6803ZM13.6803 30.7093C13.6803 31.4173 13.0984 32.0058 12.3954 32.0058V32.5058C13.3794 32.5058 14.1803 31.6886 14.1803 30.7093H13.6803ZM12.3954 32.0058H2.76746V32.5058H12.3954V32.0058ZM2.76746 32.0058C2.06685 32.0058 1.49419 31.4198 1.49419 30.7093H0.994186C0.994186 31.6861 1.78093 32.5058 2.76746 32.5058V32.0058ZM1.49419 30.7093V21.0581H0.994186V30.7093H1.49419ZM1.49419 21.0581C1.49419 20.3501 2.06445 19.7732 2.76746 19.7732V19.2732C1.7834 19.2732 0.994186 20.0789 0.994186 21.0581H1.49419ZM20.593 18.529C19.2052 18.529 18.064 19.6685 18.064 21.0581H18.564C18.564 19.9449 19.4812 19.029 20.593 19.029V18.529ZM18.064 21.0581V30.7093H18.564V21.0581H18.064ZM18.064 30.7093C18.064 32.0973 19.2036 33.25 20.593 33.25V32.75C19.4828 32.75 18.564 31.8242 18.564 30.7093H18.064ZM20.593 33.25H30.2209V32.75H20.593V33.25ZM30.2209 33.25C31.6101 33.25 32.75 32.0958 32.75 30.7093H32.25C32.25 31.8229 31.3308 32.75 30.2209 32.75V33.25ZM32.75 30.7093V21.0581H32.25V30.7093H32.75ZM32.75 21.0581C32.75 19.67 31.6085 18.529 30.2209 18.529V19.029C31.3324 19.029 32.25 19.9462 32.25 21.0581H32.75ZM30.2209 18.529H20.593V19.029H30.2209V18.529ZM20.593 19.7732H30.2209V19.2732H20.593V19.7732ZM30.2209 19.7732C30.9233 19.7732 31.5058 20.3524 31.5058 21.0581H32.0058C32.0058 20.0754 31.1986 19.2732 30.2209 19.2732V19.7732ZM31.5058 21.0581V30.7093H32.0058V21.0581H31.5058ZM31.5058 30.7093C31.5058 31.4175 30.9209 32.0058 30.2209 32.0058V32.5058C31.201 32.5058 32.0058 31.6896 32.0058 30.7093H31.5058ZM30.2209 32.0058H20.593V32.5058H30.2209V32.0058ZM20.593 32.0058C19.8924 32.0058 19.3081 31.4177 19.3081 30.7093H18.8081C18.8081 31.6897 19.6122 32.5058 20.593 32.5058V32.0058ZM19.3081 30.7093V21.0581H18.8081V30.7093H19.3081ZM19.3081 21.0581C19.3081 20.3522 19.89 19.7732 20.593 19.7732V19.2732C19.6146 19.2732 18.8081 20.0753 18.8081 21.0581H19.3081Z" fill="white"/>
</svg>
