<svg width="21" height="21" viewBox="0 0 21 21" fill="none" xmlns="http://www.w3.org/2000/svg">
<path d="M9.19704 19.1842C10.0453 20.0328 11.1737 20.5 12.3738 20.5H12.3748C13.5749 20.5 14.703 20.0325 15.5513 19.1842L16.9111 17.8244C17.3879 17.3473 17.3879 16.5714 16.9111 16.0942L14.4469 13.63C13.9854 13.1682 13.1791 13.1679 12.7169 13.63L11.3478 14.9992C11.0897 15.2576 10.6692 15.2573 10.4111 14.9992L6.00093 10.5887C5.74284 10.3306 5.74284 9.91014 6.00093 9.65172L7.37007 8.28293C7.84691 7.80577 7.84691 7.02984 7.37007 6.55302L4.90588 4.08886C4.42871 3.6117 3.65277 3.6117 3.17594 4.08886L1.81613 5.44865C0.967497 6.29727 0.5 7.42564 0.5 8.62571C0.5 9.82578 0.967164 10.9542 1.81613 11.8028L9.19738 19.1839L9.19704 19.1842ZM2.28729 5.92014L3.6471 4.56035C3.75547 4.45165 3.89819 4.39763 4.04057 4.39763C4.18296 4.39763 4.32567 4.45198 4.43404 4.56035L6.89824 7.02451C7.11498 7.24125 7.11498 7.59436 6.89824 7.81144L5.52943 9.18023C5.01125 9.6984 5.01125 10.5417 5.52943 11.0602L9.93964 15.4707C10.4578 15.9888 11.3011 15.9888 11.8193 15.4707L13.1884 14.1015C13.3988 13.8911 13.765 13.8911 13.9754 14.1015L16.4396 16.5657C16.6563 16.7828 16.6563 17.1359 16.4396 17.353L15.0798 18.7127C14.3572 19.435 13.3968 19.8331 12.3748 19.8331H12.3738C11.3518 19.8331 10.3911 19.4353 9.66854 18.7127L2.28729 11.3313C1.56471 10.6087 1.16657 9.64772 1.16657 8.62571C1.16657 7.6037 1.56437 6.64271 2.28729 5.92014Z" fill="white" fill-opacity="0.8"/>
<path d="M11.3861 0.5C11.2021 0.5 11.0527 0.649383 11.0527 0.833444C11.0527 1.01751 11.2021 1.16689 11.3861 1.16689C16.0438 1.16689 19.8331 4.95615 19.8331 9.6137C19.8331 9.79777 19.9825 9.94715 20.1665 9.94715C20.3506 9.94715 20.5 9.79777 20.5 9.6137C20.5 4.58836 16.4116 0.5 11.3861 0.5Z" fill="white" fill-opacity="0.8"/>
<path d="M11.3861 3.45098C11.2021 3.45098 11.0527 3.60037 11.0527 3.78443C11.0527 3.96849 11.2021 4.11787 11.3861 4.11787C14.4165 4.11787 16.8817 6.58336 16.8817 9.61337C16.8817 9.79743 17.0311 9.94682 17.2152 9.94682C17.3992 9.94682 17.5486 9.79743 17.5486 9.61337C17.5486 6.21524 14.784 3.45098 11.3861 3.45098Z" fill="white" fill-opacity="0.8"/>
<path d="M11.3861 7.06886C12.7893 7.06886 13.9307 8.21024 13.9307 9.61337C13.9307 9.79743 14.0801 9.94682 14.2642 9.94682C14.4482 9.94682 14.5976 9.79743 14.5976 9.61337C14.5976 7.84245 13.1568 6.40197 11.3861 6.40197C11.2021 6.40197 11.0527 6.55135 11.0527 6.73541C11.0527 6.91947 11.2021 7.06886 11.3861 7.06886Z" fill="white" fill-opacity="0.8"/>
</svg>
