<svg width="39" height="36" viewBox="0 0 39 36" fill="none" xmlns="http://www.w3.org/2000/svg">
<path d="M32.1297 33.3592V27.626H31.1612V33.3592C31.1612 33.7264 30.8642 34.0253 30.499 34.0253H2.13022C1.76535 34.0253 1.46858 33.7264 1.46858 33.3592V16.134H7.02397V30.8535H7.99255V26.6491H16.0883V30.8535H17.0569V26.6491H22.9604V25.6744H7.99255V21.3916H13.2876V20.4169H7.99255V16.134H13.7719V10.1H12.8033V15.1593H1.46858V8.42304C1.46858 8.05586 1.76535 7.75721 2.13022 7.75721H15.1127V6.78252H2.13022C1.2314 6.78252 0.5 7.51854 0.5 8.42304V33.3592C0.5 34.264 1.2314 35 2.13022 35H30.499C31.3981 35 32.1297 34.264 32.1297 33.3592Z" fill="white"/>
<path d="M27.9414 7.11757C25.4712 7.11757 23.4612 9.14002 23.4612 11.6258C23.4612 14.1118 25.4712 16.1342 27.9414 16.1342C30.4115 16.1342 32.4211 14.1118 32.4211 11.6258C32.4211 9.14002 30.4115 7.11757 27.9414 7.11757ZM27.9414 15.1595C26.0052 15.1595 24.4298 13.5742 24.4298 11.6258C24.4298 9.67734 26.0052 8.09227 27.9414 8.09227C29.8776 8.09227 31.4525 9.67734 31.4525 11.6258C31.4525 13.5742 29.8776 15.1595 27.9414 15.1595Z" fill="white"/>
<path d="M27.9416 1C22.1197 1 17.383 5.76641 17.383 11.6253C17.383 14.9716 18.9827 18.155 21.6657 20.157L26.1705 26.4512C26.5857 27.0313 27.2313 27.364 27.9416 27.364C28.652 27.364 29.2975 27.0313 29.7128 26.4512L34.2171 20.1575C36.9 18.1553 38.5 14.9718 38.5 11.6253C38.5 5.76641 33.7635 1 27.9416 1ZM33.5828 19.4167L28.9268 25.8815C28.696 26.2042 28.337 26.3893 27.9416 26.3893C27.5462 26.3893 27.1873 26.2042 26.9565 25.8815L22.3623 19.4622L22.2999 19.4165C19.8276 17.6001 18.3516 14.6877 18.3516 11.6253C18.3516 6.30397 22.6537 1.9747 27.9416 1.9747C33.2296 1.9747 37.5314 6.30397 37.5314 11.6253C37.5314 14.6879 36.0554 17.6006 33.5828 19.4167Z" fill="white"/>
<path d="M32.1297 27.626H32.3797V27.376H32.1297V27.626ZM31.1612 27.626V27.376H30.9112V27.626H31.1612ZM1.46858 16.134V15.884H1.21858V16.134H1.46858ZM7.02397 16.134H7.27397V15.884H7.02397V16.134ZM7.02397 30.8535H6.77397V31.1035H7.02397V30.8535ZM7.99255 30.8535V31.1035H8.24255V30.8535H7.99255ZM7.99255 26.6491V26.3991H7.74255V26.6491H7.99255ZM16.0883 26.6491H16.3383V26.3991H16.0883V26.6491ZM16.0883 30.8535H15.8383V31.1035H16.0883V30.8535ZM17.0569 30.8535V31.1035H17.3069V30.8535H17.0569ZM17.0569 26.6491V26.3991H16.8069V26.6491H17.0569ZM22.9604 26.6491V26.8991H23.2104V26.6491H22.9604ZM22.9604 25.6744H23.2104V25.4244H22.9604V25.6744ZM7.99255 25.6744H7.74255V25.9244H7.99255V25.6744ZM7.99255 21.3916V21.1416H7.74255V21.3916H7.99255ZM13.2876 21.3916V21.6416H13.5376V21.3916H13.2876ZM13.2876 20.4169H13.5376V20.1669H13.2876V20.4169ZM7.99255 20.4169H7.74255V20.6669H7.99255V20.4169ZM7.99255 16.134V15.884H7.74255V16.134H7.99255ZM13.7719 16.134V16.384H14.0219V16.134H13.7719ZM13.7719 10.1H14.0219V9.84997H13.7719V10.1ZM12.8033 10.1V9.84997H12.5533V10.1H12.8033ZM12.8033 15.1593V15.4093H13.0533V15.1593H12.8033ZM1.46858 15.1593H1.21858V15.4093H1.46858V15.1593ZM15.1127 7.75721V8.00721H15.3627V7.75721H15.1127ZM15.1127 6.78252H15.3627V6.53252H15.1127V6.78252ZM21.6657 20.157L21.869 20.0115L21.8464 19.9799L21.8152 19.9567L21.6657 20.157ZM26.1705 26.4512L25.9672 26.5967L25.9672 26.5967L26.1705 26.4512ZM29.7128 26.4512L29.9161 26.5967L29.9161 26.5967L29.7128 26.4512ZM34.2171 20.1575L34.0675 19.9571L34.0364 19.9804L34.0138 20.012L34.2171 20.1575ZM38.5 11.6253H38.75H38.5ZM33.5828 19.4167L33.4348 19.2152L33.403 19.2386L33.38 19.2706L33.5828 19.4167ZM28.9268 25.8815L28.7239 25.7354L28.7234 25.736L28.9268 25.8815ZM26.9565 25.8815L27.1598 25.736L27.1598 25.736L26.9565 25.8815ZM22.3623 19.4622L22.5656 19.3167L22.5423 19.2841L22.51 19.2604L22.3623 19.4622ZM22.2999 19.4165L22.1519 19.6179L22.1523 19.6182L22.2999 19.4165ZM32.3797 33.3592V27.626H31.8797V33.3592H32.3797ZM32.1297 27.376H31.1612V27.876H32.1297V27.376ZM30.9112 27.626V33.3592H31.4112V27.626H30.9112ZM30.9112 33.3592C30.9112 33.5898 30.7247 33.7753 30.499 33.7753V34.2753C31.0036 34.2753 31.4112 33.8631 31.4112 33.3592H30.9112ZM30.499 33.7753H2.13022V34.2753H30.499V33.7753ZM2.13022 33.7753C1.90502 33.7753 1.71858 33.59 1.71858 33.3592H1.21858C1.21858 33.8629 1.62568 34.2753 2.13022 34.2753V33.7753ZM1.71858 33.3592V16.134H1.21858V33.3592H1.71858ZM1.46858 16.384H7.02397V15.884H1.46858V16.384ZM7.02397 31.1035H7.99255V30.6035H7.02397V31.1035ZM8.24255 30.8535V26.6491H7.74255V30.8535H8.24255ZM7.99255 26.8991H16.0883V26.3991H7.99255V26.8991ZM15.8383 26.6491V30.8535H16.3383V26.6491H15.8383ZM16.0883 31.1035H17.0569V30.6035H16.0883V31.1035ZM17.3069 30.8535V26.6491H16.8069V30.8535H17.3069ZM17.0569 26.8991H22.9604V26.3991H17.0569V26.8991ZM23.2104 26.6491V25.6744H22.7104V26.6491H23.2104ZM22.9604 25.4244H7.99255V25.9244H22.9604V25.4244ZM8.24255 25.6744V21.3916H7.74255V25.6744H8.24255ZM7.99255 21.6416H13.2876V21.1416H7.99255V21.6416ZM13.5376 21.3916V20.4169H13.0376V21.3916H13.5376ZM13.2876 20.1669H7.99255V20.6669H13.2876V20.1669ZM8.24255 20.4169V16.134H7.74255V20.4169H8.24255ZM7.99255 16.384H13.7719V15.884H7.99255V16.384ZM14.0219 16.134V10.1H13.5219V16.134H14.0219ZM13.7719 9.84997H12.8033V10.35H13.7719V9.84997ZM12.5533 10.1V15.1593H13.0533V10.1H12.5533ZM1.71858 15.1593V8.42304H1.21858V15.1593H1.71858ZM1.71858 8.42304C1.71858 8.19244 1.9049 8.00721 2.13022 8.00721V7.50721C1.6258 7.50721 1.21858 7.91927 1.21858 8.42304H1.71858ZM2.13022 8.00721H15.1127V7.50721H2.13022V8.00721ZM15.3627 7.75721V6.78252H14.8627V7.75721H15.3627ZM15.1127 6.53252H2.13022V7.03252H15.1127V6.53252ZM2.13022 6.53252C1.09185 6.53252 0.25 7.38195 0.25 8.42304H0.75C0.75 7.65512 1.37095 7.03252 2.13022 7.03252V6.53252ZM0.25 8.42304V33.3592H0.75V8.42304H0.25ZM0.25 33.3592C0.25 34.4005 1.09182 35.25 2.13022 35.25V34.75C1.37098 34.75 0.75 34.1274 0.75 33.3592H0.25ZM2.13022 35.25H30.499V34.75H2.13022V35.25ZM30.499 35.25C31.5376 35.25 32.3797 34.4006 32.3797 33.3592H31.8797C31.8797 34.1273 31.2586 34.75 30.499 34.75V35.25ZM27.9414 6.86757C25.3317 6.86757 23.2112 9.00342 23.2112 11.6258H23.7112C23.7112 9.27662 25.6108 7.36757 27.9414 7.36757V6.86757ZM23.2112 11.6258C23.2112 14.2484 25.3317 16.3842 27.9414 16.3842V15.8842C25.6108 15.8842 23.7112 13.9752 23.7112 11.6258H23.2112ZM27.9414 16.3842C30.5511 16.3842 32.6711 14.2484 32.6711 11.6258H32.1711C32.1711 13.9752 30.272 15.8842 27.9414 15.8842V16.3842ZM32.6711 11.6258C32.6711 9.00345 30.5511 6.86757 27.9414 6.86757V7.36757C30.272 7.36757 32.1711 9.27659 32.1711 11.6258H32.6711ZM27.9414 14.9095C26.1447 14.9095 24.6798 13.4376 24.6798 11.6258H24.1798C24.1798 13.7108 25.8656 15.4095 27.9414 15.4095V14.9095ZM24.6798 11.6258C24.6798 9.81395 26.1447 8.34227 27.9414 8.34227V7.84227C25.8656 7.84227 24.1798 9.54074 24.1798 11.6258H24.6798ZM27.9414 8.34227C29.738 8.34227 31.2025 9.8139 31.2025 11.6258H31.7025C31.7025 9.54078 30.0172 7.84227 27.9414 7.84227V8.34227ZM31.2025 11.6258C31.2025 13.4377 29.738 14.9095 27.9414 14.9095V15.4095C30.0172 15.4095 31.7025 13.7108 31.7025 11.6258H31.2025ZM27.9416 0.75C21.9802 0.75 17.133 5.62982 17.133 11.6253H17.633C17.633 5.903 22.2593 1.25 27.9416 1.25V0.75ZM17.133 11.6253C17.133 15.0506 18.7701 18.3083 21.5162 20.3574L21.8152 19.9567C19.1953 18.0017 17.633 14.8925 17.633 11.6253H17.133ZM21.4624 20.3025L25.9672 26.5967L26.3738 26.3057L21.869 20.0115L21.4624 20.3025ZM25.9672 26.5967C26.4291 27.2421 27.1502 27.614 27.9416 27.614V27.114C27.3123 27.114 26.7423 26.8206 26.3738 26.3057L25.9672 26.5967ZM27.9416 27.614C28.733 27.614 29.4541 27.2421 29.9161 26.5967L29.5095 26.3057C29.141 26.8206 28.5709 27.114 27.9416 27.114V27.614ZM29.9161 26.5967L34.4204 20.303L34.0138 20.012L29.5095 26.3057L29.9161 26.5967ZM34.3666 20.3579C37.1126 18.3086 38.75 15.0509 38.75 11.6253H38.25C38.25 14.8927 36.6874 18.002 34.0675 19.9571L34.3666 20.3579ZM38.75 11.6253C38.75 5.62983 33.9031 0.75 27.9416 0.75V1.25C33.624 1.25 38.25 5.90299 38.25 11.6253H38.75ZM33.38 19.2706L28.7239 25.7354L29.1296 26.0276L33.7857 19.5628L33.38 19.2706ZM28.7234 25.736C28.5393 25.9934 28.2559 26.1393 27.9416 26.1393V26.6393C28.4181 26.6393 28.8526 26.4149 29.1301 26.0269L28.7234 25.736ZM27.9416 26.1393C27.6273 26.1393 27.3439 25.9934 27.1598 25.736L26.7531 26.0269C27.0306 26.4149 27.4652 26.6393 27.9416 26.6393V26.1393ZM27.1598 25.736L22.5656 19.3167L22.159 19.6077L26.7532 26.027L27.1598 25.736ZM22.51 19.2604L22.4476 19.2147L22.1523 19.6182L22.2147 19.6639L22.51 19.2604ZM22.4479 19.215C20.0396 17.4456 18.6016 14.6079 18.6016 11.6253H18.1016C18.1016 14.7674 19.6156 17.7546 22.1519 19.6179L22.4479 19.215ZM18.6016 11.6253C18.6016 6.44056 22.7932 2.2247 27.9416 2.2247V1.7247C22.5141 1.7247 18.1016 6.16739 18.1016 11.6253H18.6016ZM27.9416 2.2247C33.09 2.2247 37.2814 6.44055 37.2814 11.6253H37.7814C37.7814 6.16739 33.3691 1.7247 27.9416 1.7247V2.2247ZM37.2814 11.6253C37.2814 14.6082 35.8434 17.4461 33.4348 19.2152L33.7308 19.6182C36.2674 17.7551 37.7814 14.7676 37.7814 11.6253H37.2814ZM6.77397 16.134V30.8535H7.27397V16.134H6.77397ZM12.8033 14.9093H1.46858V15.4093H12.8033V14.9093Z" fill="white"/>
</svg>
