<svg width="36" height="34" viewBox="0 0 36 34" fill="none" xmlns="http://www.w3.org/2000/svg">
<path d="M34.997 11.3054C34.9957 11.2914 34.9917 11.2773 34.9877 11.2633C34.9864 11.2595 34.985 11.2556 34.9837 11.2531C34.9797 11.2403 34.9731 11.2276 34.9678 11.2161C34.9678 11.2148 34.9664 11.2135 34.9664 11.2122C34.9585 11.1995 34.9492 11.1867 34.9399 11.1752C34.9386 11.174 34.9372 11.1727 34.9372 11.1701C34.9359 11.1689 34.9346 11.1676 34.9346 11.1676C34.924 11.1561 34.9133 11.1459 34.9014 11.137C34.8987 11.1357 34.8961 11.1331 34.8934 11.1319C34.8881 11.128 34.8828 11.1242 34.8761 11.1204L28.0524 7.00882V2.92274C28.0524 2.78237 27.9328 2.66753 27.7867 2.66753H20.8433L18.1406 1.03924C18.0543 0.98692 17.9454 0.98692 17.859 1.03924L15.1563 2.66753H8.21287C8.06678 2.66753 7.94725 2.78237 7.94725 2.92274V7.01012L1.12484 11.1191C1.11953 11.1229 1.11289 11.1267 1.10758 11.1305C1.10492 11.1318 1.10227 11.1344 1.09961 11.1357C1.08766 11.1446 1.0757 11.1561 1.06641 11.1663C1.06508 11.1676 1.06375 11.1688 1.06375 11.1688C1.06242 11.1701 1.06109 11.1714 1.06109 11.1739C1.05047 11.1854 1.0425 11.1982 1.03453 11.2109C1.03453 11.2122 1.0332 11.2135 1.0332 11.2148C1.02656 11.2263 1.02125 11.239 1.01727 11.2518C1.01594 11.2556 1.01461 11.2594 1.01328 11.262C1.0093 11.276 1.00531 11.2901 1.00398 11.3041V11.3118C1.00133 11.3194 1 11.3271 1 11.3347V32.7448C1 32.8852 1.11953 33 1.26562 33H34.7344C34.8805 33 35 32.8852 35 32.7448V11.3347C35 11.3271 34.9987 11.3194 34.9987 11.3118C34.9987 11.3105 34.9987 11.3079 34.9973 11.3054L34.997 11.3054ZM27.5198 3.17801V16.8844L21.9564 21.4223L18.1752 18.1759C18.0743 18.0891 17.9216 18.0891 17.8206 18.1759L14.0395 21.4223L8.47611 16.8844L8.47877 3.17801H27.5198ZM13.6424 21.764L1.53131 32.1614V11.8872L13.6424 21.764ZM17.9998 18.7067L34.0525 32.4897H1.94645L17.9998 18.7067ZM22.3576 21.7641L34.4686 11.8874V32.1629L22.3576 21.7641ZM28.0525 16.4504V7.61219L34.2854 11.3664L28.0525 16.4504ZM16.1567 2.66761L18.0001 1.55743L19.8435 2.66761H16.1567ZM7.94742 16.4494L1.71457 11.3657L7.94742 7.61153V16.4494Z" fill="white"/>
<path d="M11.9237 12.1159C12.1282 12.5293 12.5333 12.8356 13.0167 12.9185V15.8867C13.0167 17.0581 13.9225 18.0114 15.0355 18.0114C16.1484 18.0114 17.0542 17.0581 17.0542 15.8867V12.9415H17.2016C17.8338 12.9415 18.8312 13.198 19.3784 13.5017L23.4835 15.7782C23.6907 15.8931 23.8966 15.9518 24.0931 15.9518C24.3481 15.9518 24.5753 15.8497 24.7306 15.6634C24.8767 15.4873 24.9551 15.2448 24.9551 14.9615L24.9538 5.65126C24.9538 5.05916 24.6071 4.66231 24.0918 4.66231C23.8952 4.66231 23.6907 4.72101 23.4822 4.83586L19.3771 7.1124C18.8299 7.41611 17.8324 7.67259 17.2003 7.67259H13.2811C12.6821 7.67259 12.1642 8.01077 11.9225 8.4982C10.9383 8.55817 10.1561 9.34553 10.1561 10.3064C10.1574 11.2673 10.9396 12.0559 11.9237 12.1159ZM13.2824 8.18303H17.2015C17.924 8.18303 19.0197 7.90101 19.6439 7.55391L23.7491 5.27737C23.8739 5.20846 23.9921 5.17145 24.0931 5.17145C24.3905 5.17145 24.4238 5.50577 24.4238 5.64997V14.9616C24.4238 15.1249 24.3852 15.2602 24.3162 15.3431C24.2617 15.4082 24.1887 15.4401 24.0931 15.4401C23.9921 15.4401 23.8739 15.4031 23.7491 15.3342L19.6439 13.0576C19.0184 12.7105 17.9227 12.4285 17.2015 12.4285H13.2824C12.7458 12.4285 12.3102 12.01 12.3102 11.4944V9.11583C12.3102 8.60158 12.7458 8.18303 13.2824 8.18303ZM15.0355 17.4998C14.2147 17.4998 13.548 16.7763 13.548 15.8856V12.9404H16.5243V15.8856C16.5243 16.7763 15.8562 17.4998 15.0355 17.4998ZM11.7816 11.5841C11.16 11.4667 10.6885 10.9383 10.6885 10.3067C10.6885 9.67502 11.1587 9.14672 11.7816 9.02931C11.7802 9.05866 11.7789 9.08801 11.7789 9.11736V11.496C11.7789 11.5266 11.7802 11.5547 11.7816 11.5841Z" fill="white"/>
<path d="M34.997 11.3054L34.5988 11.3431L34.6364 11.741L35.0344 11.7036L34.997 11.3054ZM34.9877 11.2633L35.3725 11.1541L35.3694 11.143L35.3656 11.1322L34.9877 11.2633ZM34.9837 11.2531L34.6019 11.3723L34.6125 11.4062L34.6289 11.4377L34.9837 11.2531ZM34.9678 11.2161H34.5678V11.3041L34.6047 11.384L34.9678 11.2161ZM34.9664 11.2122H35.3665V11.0976L35.3057 11.0004L34.9664 11.2122ZM34.9399 11.1752L35.2508 10.9236L35.2351 10.9041L35.217 10.8868L34.9399 11.1752ZM34.9372 11.1701H35.3372V10.9998L35.2144 10.8817L34.9372 11.1701ZM34.9346 11.1676L34.641 11.4392L34.649 11.4479L34.6574 11.456L34.9346 11.1676ZM34.9014 11.137L35.1408 10.8165L35.1096 10.7932L35.0746 10.7764L34.9014 11.137ZM34.8934 11.1319L34.6596 11.4564L34.6883 11.4771L34.7202 11.4924L34.8934 11.1319ZM34.8761 11.1204L34.6697 11.463L34.6764 11.4669L34.8761 11.1204ZM28.0524 7.00882H27.6524V7.2348L27.8459 7.35143L28.0524 7.00882ZM20.8433 2.66753L20.6369 3.01015L20.7321 3.06753H20.8433V2.66753ZM18.1406 1.03924L17.9333 1.38132L17.9342 1.38186L18.1406 1.03924ZM17.859 1.03924L18.0655 1.38187L18.0664 1.38132L17.859 1.03924ZM15.1563 2.66753V3.06753H15.2675L15.3627 3.01015L15.1563 2.66753ZM7.94725 7.01012L8.15362 7.35278L8.34725 7.23616V7.01012H7.94725ZM1.12484 11.1191L0.918473 10.7764L0.904369 10.7849L0.89101 10.7945L1.12484 11.1191ZM1.10758 11.1305L1.28079 11.4911L1.31271 11.4758L1.34143 11.4551L1.10758 11.1305ZM1.09961 11.1357L0.926397 10.7751L0.891329 10.7919L0.860164 10.8152L1.09961 11.1357ZM1.06641 11.1663L1.34354 11.4547L1.35316 11.4455L1.36215 11.4356L1.06641 11.1663ZM1.06375 11.1688L1.34089 11.4573L1.34104 11.4571L1.06375 11.1688ZM1.06109 11.1739L1.35472 11.4456L1.46109 11.3306V11.1739H1.06109ZM1.03453 11.2109L0.695256 10.9991L0.634531 11.0963V11.2109H1.03453ZM1.0332 11.2148L1.37949 11.415L1.4332 11.3221V11.2148H1.0332ZM1.01727 11.2518L1.39535 11.3829L1.39908 11.371L1.01727 11.2518ZM1.01328 11.262L0.658453 11.0773L0.639623 11.1135L0.628484 11.1528L1.01328 11.262ZM1.00398 11.3041L0.605762 11.2664L0.603984 11.2852V11.3041H1.00398ZM1.00398 11.3118L1.38189 11.4429L1.40398 11.3792V11.3118H1.00398ZM34.9973 11.3054L35.3522 11.1207L35.2279 10.882L34.9599 10.9071L34.9973 11.3054ZM27.5198 3.17801H27.9198V2.77801H27.5198V3.17801ZM27.5198 16.8844L27.7726 17.1944L27.9198 17.0743V16.8844H27.5198ZM21.9564 21.4223L21.6958 21.7257L21.9498 21.9438L22.2092 21.7322L21.9564 21.4223ZM18.1752 18.1759L17.9145 18.4792L17.9147 18.4794L18.1752 18.1759ZM17.8206 18.1759L18.0812 18.4794L18.0814 18.4792L17.8206 18.1759ZM14.0395 21.4223L13.7867 21.7322L14.0461 21.9438L14.3001 21.7257L14.0395 21.4223ZM8.47611 16.8844L8.07611 16.8843L8.07608 17.0743L8.22329 17.1944L8.47611 16.8844ZM8.47877 3.17801V2.77801H8.07885L8.07877 3.17793L8.47877 3.17801ZM13.6424 21.764L13.9029 22.0675L14.2656 21.7561L13.8952 21.454L13.6424 21.764ZM1.53131 32.1614H1.13131V33.032L1.79186 32.4649L1.53131 32.1614ZM1.53131 11.8872L1.78411 11.5772L1.13131 11.0449V11.8872H1.53131ZM17.9998 18.7067L18.2604 18.4032L17.9998 18.1794L17.7392 18.4032L17.9998 18.7067ZM34.0525 32.4897V32.8897H35.1324L34.3131 32.1863L34.0525 32.4897ZM1.94645 32.4897L1.68588 32.1862L0.866516 32.8897H1.94645V32.4897ZM22.3576 21.7641L22.1048 21.4542L21.7343 21.7563L22.097 22.0676L22.3576 21.7641ZM34.4686 11.8874H34.8686V11.0451L34.2158 11.5774L34.4686 11.8874ZM34.4686 32.1629L34.2081 32.4664L34.8686 33.0336V32.1629H34.4686ZM28.0525 16.4504H27.6525V17.2929L28.3054 16.7604L28.0525 16.4504ZM28.0525 7.61219L28.2589 7.26954L27.6525 6.9043V7.61219H28.0525ZM34.2854 11.3664L34.5382 11.6763L34.9787 11.317L34.4918 11.0237L34.2854 11.3664ZM16.1567 2.66761L15.9503 2.32495L14.7171 3.06761H16.1567V2.66761ZM18.0001 1.55743L18.2065 1.21477L18.0001 1.09049L17.7938 1.21477L18.0001 1.55743ZM19.8435 2.66761V3.06761H21.2831L20.0499 2.32495L19.8435 2.66761ZM7.94742 16.4494L7.69459 16.7594L8.34741 17.2919V16.4494H7.94742ZM1.71457 11.3657L1.50818 11.0231L1.02122 11.3164L1.46174 11.6757L1.71457 11.3657ZM7.94742 7.61153H8.34741V6.90365L7.74103 7.26889L7.94742 7.61153ZM11.9237 12.1159L12.2822 11.9385L12.1794 11.7307L11.948 11.7166L11.9237 12.1159ZM13.0167 12.9185H13.4167V12.5813L13.0844 12.5243L13.0167 12.9185ZM17.0542 12.9415V12.5415H16.6542V12.9415H17.0542ZM19.3784 13.5017L19.1843 13.8514L19.1844 13.8515L19.3784 13.5017ZM23.4835 15.7782L23.2895 16.128L23.2896 16.1281L23.4835 15.7782ZM24.7306 15.6634L25.0378 15.9196L25.0385 15.9188L24.7306 15.6634ZM24.9551 14.9615H25.3551V14.9615L24.9551 14.9615ZM24.9538 5.65126H24.5538V5.65132L24.9538 5.65126ZM23.4822 4.83586L23.2892 4.48549L23.2882 4.48605L23.4822 4.83586ZM19.3771 7.1124L19.1831 6.76259L19.1829 6.76266L19.3771 7.1124ZM11.9225 8.4982L11.9468 8.89746L12.1779 8.88337L12.2808 8.6759L11.9225 8.4982ZM10.1561 10.3064H9.75606L9.75606 10.307L10.1561 10.3064ZM19.6439 7.55391L19.4499 7.2041L19.4495 7.20432L19.6439 7.55391ZM23.7491 5.27737L23.5558 4.92717L23.5551 4.92756L23.7491 5.27737ZM24.3162 15.3431L24.623 15.5998L24.6236 15.599L24.3162 15.3431ZM23.7491 15.3342L23.5551 15.684L23.5558 15.6844L23.7491 15.3342ZM19.6439 13.0576L19.4499 13.4074L19.4499 13.4075L19.6439 13.0576ZM13.548 12.9404V12.5404H13.148V12.9404H13.548ZM16.5243 12.9404H16.9243V12.5404H16.5243V12.9404ZM11.7816 11.5841L11.7073 11.9771L12.204 12.0709L12.1812 11.566L11.7816 11.5841ZM11.7816 9.02931L12.1812 9.0474L12.204 8.54264L11.7075 8.63624L11.7816 9.02931ZM35.3952 11.2677C35.3898 11.2109 35.3745 11.1612 35.3725 11.1541L34.6029 11.3725C34.604 11.3764 34.6044 11.3778 34.6047 11.3788C34.6049 11.3796 34.6046 11.3786 34.6041 11.3764C34.6032 11.3725 34.6004 11.3603 34.5988 11.3431L35.3952 11.2677ZM35.3656 11.1322C35.3653 11.1314 35.3628 11.1241 35.3598 11.1161C35.3573 11.1095 35.3501 11.0907 35.3385 11.0684L34.6289 11.4377C34.6232 11.4268 34.6192 11.4178 34.6168 11.4123C34.6144 11.4065 34.6126 11.4019 34.6116 11.3993C34.6099 11.3949 34.6087 11.3913 34.6098 11.3944L35.3656 11.1322ZM35.3655 11.1339C35.3565 11.1048 35.3462 11.0815 35.3405 11.0688C35.3375 11.0622 35.3347 11.0563 35.3332 11.0531C35.3322 11.0511 35.3318 11.0503 35.3313 11.0492C35.3309 11.0483 35.3308 11.048 35.3308 11.0481L34.6047 11.384C34.6072 11.3894 34.6099 11.3949 34.6107 11.3967C34.6121 11.3995 34.6122 11.3998 34.612 11.3994C34.6117 11.3988 34.6105 11.396 34.6088 11.3919C34.6071 11.3877 34.6046 11.381 34.6019 11.3723L35.3655 11.1339ZM35.3678 11.2161C35.3678 11.1812 35.3632 11.151 35.3577 11.1268C35.3523 11.1029 35.3456 11.0835 35.3402 11.0697C35.3348 11.056 35.3298 11.0453 35.3269 11.0393C35.3253 11.0361 35.324 11.0336 35.3232 11.032C35.3228 11.0312 35.3225 11.0306 35.3223 11.0302C35.3222 11.03 35.3221 11.0298 35.322 11.0297C35.322 11.0296 35.3219 11.0295 35.3219 11.0295C35.3218 11.0292 35.3224 11.0303 35.323 11.0315C35.3237 11.0329 35.3249 11.0353 35.3264 11.0383C35.3291 11.044 35.334 11.0544 35.3393 11.0678C35.3445 11.0812 35.3512 11.1003 35.3565 11.1239C35.3619 11.1478 35.3665 11.1777 35.3665 11.2122H34.5665C34.5665 11.2471 34.571 11.2774 34.5765 11.3015C34.5819 11.3254 34.5887 11.3449 34.594 11.3586C34.5994 11.3724 34.6044 11.3831 34.6074 11.3891C34.6089 11.3922 34.6102 11.3948 34.611 11.3963C34.6114 11.3971 34.6117 11.3977 34.6119 11.3981C34.612 11.3983 34.6121 11.3985 34.6122 11.3986C34.6122 11.3987 34.6123 11.3988 34.6123 11.3988C34.6124 11.3991 34.6119 11.398 34.6112 11.3968C34.6105 11.3954 34.6093 11.393 34.6079 11.39C34.6051 11.3843 34.6002 11.3739 34.5949 11.3605C34.5897 11.3471 34.5831 11.328 34.5777 11.3044C34.5723 11.2806 34.5678 11.2506 34.5678 11.2161H35.3678ZM35.3057 11.0004C35.2878 10.9716 35.2686 10.9456 35.2508 10.9236L34.629 11.4269C34.6291 11.4271 34.6292 11.4272 34.6291 11.4271C34.6291 11.427 34.6284 11.4261 34.6272 11.4241L35.3057 11.0004ZM35.217 10.8868C35.2107 10.8807 35.2473 10.9131 35.2773 10.9613C35.3152 11.0219 35.3372 11.0941 35.3372 11.1701H34.5372C34.5372 11.3549 34.6595 11.4606 34.6628 11.4637L35.217 10.8868ZM35.2144 10.8817C35.2127 10.8801 35.214 10.8814 35.2125 10.8799C35.2125 10.8799 35.2122 10.8797 35.2122 10.8796C35.2121 10.8795 35.2122 10.8796 35.2121 10.8795C35.2121 10.8795 35.2122 10.8796 35.2121 10.8795C35.2121 10.8795 35.2121 10.8795 35.2121 10.8795C35.2121 10.8795 35.2121 10.8795 35.2121 10.8795C35.2121 10.8795 35.2121 10.8795 35.2121 10.8795C35.2121 10.8795 35.2121 10.8795 35.2121 10.8795C35.212 10.8794 35.212 10.8795 35.2119 10.8794C35.2119 10.8793 35.2119 10.8793 35.2118 10.8793C35.2118 10.8792 35.2119 10.8793 35.2118 10.8792C35.2118 10.8792 35.2118 10.8792 35.2117 10.8792C35.2117 10.8792 35.2117 10.8792 35.2117 10.8792C35.2117 10.8792 35.2117 10.8792 35.2117 10.8792C35.2117 10.8791 35.2118 10.8792 35.2117 10.8792C35.2117 10.8792 35.2117 10.8792 35.2117 10.8792C35.2117 10.8792 35.2117 10.8792 35.2117 10.8792C35.2117 10.8792 35.2117 10.8792 35.2117 10.8792C35.2117 10.8792 35.2117 10.8792 35.2117 10.8792C35.2117 10.8791 35.2117 10.8792 35.2117 10.8792C35.2117 10.8791 35.2117 10.8791 35.2117 10.8791C35.2117 10.8791 35.2117 10.8792 35.2117 10.8791C35.2117 10.8791 35.2117 10.8791 35.2117 10.8791C35.2117 10.8791 35.2117 10.8791 35.2117 10.8791C35.2117 10.8791 35.2117 10.8791 34.9346 11.1676C34.6574 11.456 34.6574 11.456 34.6574 11.456C34.6574 11.456 34.6574 11.456 34.6574 11.456C34.6574 11.456 34.6574 11.456 34.6574 11.456C34.6574 11.456 34.6574 11.456 34.6574 11.456C34.6575 11.456 34.6574 11.456 34.6574 11.456C34.6575 11.456 34.6574 11.456 34.6575 11.456C34.6575 11.456 34.6575 11.456 34.6575 11.4561C34.6575 11.4561 34.6575 11.456 34.6575 11.4561C34.6582 11.4567 34.6569 11.4555 34.6577 11.4562C34.6578 11.4563 34.6577 11.4563 34.6578 11.4564C34.6579 11.4564 34.6578 11.4564 34.6579 11.4564C34.6579 11.4565 34.6578 11.4564 34.6579 11.4565C34.6579 11.4565 34.6579 11.4565 34.6579 11.4565C34.6581 11.4566 34.6581 11.4566 34.6583 11.4568C34.6585 11.4571 34.6597 11.4582 34.6601 11.4586L35.2144 10.8817ZM35.2282 10.8959C35.2078 10.8739 35.1789 10.845 35.1408 10.8165L34.6619 11.4574C34.6477 11.4468 34.6401 11.4383 34.641 11.4392L35.2282 10.8959ZM35.0746 10.7764C35.0858 10.7818 35.0952 10.787 35.1025 10.7912C35.1097 10.7955 35.1156 10.7993 35.1198 10.802C35.124 10.8048 35.1273 10.8071 35.129 10.8083C35.1306 10.8094 35.1319 10.8103 35.1312 10.8099C35.1312 10.8099 35.1292 10.8084 35.127 10.8069C35.1246 10.8052 35.1207 10.8025 35.1159 10.7993C35.111 10.796 35.1044 10.7918 35.0965 10.7872C35.0886 10.7826 35.0785 10.777 35.0666 10.7713L34.7202 11.4924C34.7089 11.487 34.6995 11.4818 34.6923 11.4776C34.685 11.4733 34.6791 11.4695 34.6749 11.4668C34.6707 11.464 34.6675 11.4617 34.6658 11.4605C34.6642 11.4594 34.6629 11.4585 34.6635 11.4589C34.6636 11.459 34.6655 11.4604 34.6678 11.4619C34.6702 11.4636 34.6741 11.4664 34.6789 11.4696C34.6838 11.4728 34.6904 11.477 34.6983 11.4816C34.7062 11.4863 34.7163 11.4918 34.7282 11.4975L35.0746 10.7764ZM35.1272 10.8073C35.1227 10.8041 35.1023 10.7891 35.0759 10.7738L34.6764 11.4669C34.6632 11.4593 34.6535 11.452 34.6596 11.4564L35.1272 10.8073ZM35.0826 10.7778L28.2588 6.6662L27.8459 7.35143L34.6697 11.463L35.0826 10.7778ZM28.4524 7.00882V2.92274H27.6524V7.00882H28.4524ZM28.4524 2.92274C28.4524 2.54654 28.1385 2.26753 27.7867 2.26753V3.06753C27.7271 3.06753 27.6524 3.01821 27.6524 2.92274H28.4524ZM27.7867 2.26753H20.8433V3.06753H27.7867V2.26753ZM21.0497 2.3249L18.347 0.696616L17.9342 1.38186L20.6369 3.01015L21.0497 2.3249ZM18.3479 0.697161C18.1342 0.567614 17.8655 0.56761 17.6517 0.697165L18.0664 1.38132C18.0253 1.40623 17.9744 1.40623 17.9333 1.38132L18.3479 0.697161ZM17.6526 0.696616L14.9499 2.3249L15.3627 3.01015L18.0655 1.38186L17.6526 0.696616ZM15.1563 2.26753H8.21287V3.06753H15.1563V2.26753ZM8.21287 2.26753C7.86108 2.26753 7.54725 2.54654 7.54725 2.92274H8.34725C8.34725 3.01821 8.27247 3.06753 8.21287 3.06753V2.26753ZM7.54725 2.92274V7.01012H8.34725V2.92274H7.54725ZM7.74088 6.66747L0.918473 10.7764L1.33121 11.4617L8.15362 7.35278L7.74088 6.66747ZM0.89101 10.7945C0.895811 10.7911 0.8994 10.7887 0.900599 10.7879C0.901663 10.7872 0.90236 10.7868 0.900471 10.788C0.899368 10.7887 0.89568 10.791 0.891706 10.7937C0.887598 10.7964 0.881183 10.8007 0.873721 10.806L1.34143 11.4551C1.33663 11.4585 1.33304 11.4609 1.33183 11.4617C1.33076 11.4624 1.33007 11.4628 1.33195 11.4616C1.33305 11.4609 1.33673 11.4586 1.3407 11.456C1.34481 11.4533 1.35122 11.449 1.35868 11.4436L0.89101 10.7945ZM0.934365 10.77C0.922448 10.7757 0.912387 10.7813 0.904473 10.7859C0.896551 10.7905 0.889977 10.7947 0.885115 10.7979C0.880264 10.8012 0.876364 10.8039 0.873975 10.8056C0.871742 10.8071 0.869792 10.8085 0.869737 10.8086C0.869128 10.809 0.870414 10.8081 0.871982 10.807C0.873708 10.8058 0.876944 10.8035 0.88113 10.8007C0.885329 10.798 0.891238 10.7942 0.898497 10.7899C0.905746 10.7857 0.915143 10.7805 0.926397 10.7751L1.27282 11.4962C1.28474 11.4905 1.2948 11.4849 1.30271 11.4803C1.31064 11.4757 1.31721 11.4715 1.32207 11.4683C1.32692 11.465 1.33082 11.4623 1.33321 11.4606C1.33544 11.4591 1.3374 11.4577 1.33745 11.4576C1.33806 11.4572 1.33677 11.4581 1.3352 11.4592C1.33348 11.4604 1.33024 11.4627 1.32606 11.4655C1.32186 11.4682 1.31595 11.472 1.30869 11.4763C1.30144 11.4805 1.29204 11.4857 1.28079 11.4911L0.934365 10.77ZM0.860164 10.8152C0.822455 10.8434 0.791818 10.8737 0.770665 10.8969L1.36215 11.4356C1.35988 11.4381 1.35757 11.4405 1.35482 11.443C1.35229 11.4454 1.34708 11.4501 1.33905 11.4561L0.860164 10.8152ZM0.78927 10.8778C0.788558 10.8785 0.787856 10.8792 0.787339 10.8797C0.787078 10.8799 0.78686 10.8802 0.786707 10.8803C0.78663 10.8804 0.786568 10.8804 0.786526 10.8805C0.786505 10.8805 0.786488 10.8805 0.786476 10.8805C0.78647 10.8805 0.786465 10.8805 0.786462 10.8805C0.78646 10.8805 0.786459 10.8805 0.786458 10.8805C0.786457 10.8805 0.786457 10.8805 0.786456 10.8805C0.786456 10.8805 0.786456 10.8805 0.786456 10.8805C0.786456 10.8805 0.786456 10.8805 0.786456 10.8805C0.786456 10.8805 0.786456 10.8805 1.06375 11.1688C1.34104 11.4571 1.34104 11.4571 1.34104 11.4571C1.34104 11.4571 1.34104 11.4571 1.34104 11.4571C1.34104 11.4571 1.34104 11.4571 1.34104 11.4571C1.34104 11.4571 1.34104 11.4571 1.34104 11.4571C1.34104 11.4571 1.34104 11.4571 1.34105 11.4571C1.34105 11.4571 1.34105 11.4571 1.34105 11.4571C1.34106 11.4571 1.34108 11.4571 1.34109 11.4571C1.34113 11.457 1.34118 11.457 1.34125 11.4569C1.34139 11.4568 1.34158 11.4566 1.34182 11.4564C1.3423 11.4559 1.34293 11.4553 1.34354 11.4547L0.78927 10.8778ZM0.786614 10.8804C0.783459 10.8834 0.661094 10.9891 0.661094 11.1739H1.46109C1.46109 11.25 1.43906 11.3222 1.40118 11.3828C1.37109 11.431 1.3345 11.4634 1.34089 11.4573L0.786614 10.8804ZM0.767471 10.9023C0.727173 10.9459 0.700394 10.9908 0.695256 10.9991L1.37381 11.4228C1.37601 11.4193 1.37672 11.4182 1.37723 11.4174C1.37758 11.4168 1.37688 11.4179 1.37545 11.42C1.37259 11.4241 1.36563 11.4338 1.35472 11.4456L0.767471 10.9023ZM0.634531 11.2109C0.634531 11.1764 0.639029 11.1465 0.644453 11.1226C0.649819 11.0991 0.656444 11.0799 0.661693 11.0665C0.666921 11.0531 0.671824 11.0427 0.674602 11.037C0.676061 11.034 0.677268 11.0316 0.677972 11.0303C0.678614 11.029 0.679168 11.028 0.679026 11.0282C0.679022 11.0282 0.678974 11.0283 0.678921 11.0284C0.678863 11.0285 0.678775 11.0287 0.678669 11.0289C0.67846 11.0293 0.678128 11.03 0.677724 11.0307C0.676939 11.0323 0.675652 11.0348 0.674115 11.038C0.67118 11.044 0.666132 11.0547 0.66078 11.0684C0.655406 11.0822 0.648678 11.1016 0.643239 11.1255C0.637743 11.1496 0.633203 11.1799 0.633203 11.2148H1.4332C1.4332 11.2493 1.42871 11.2793 1.42328 11.3031C1.41791 11.3267 1.41129 11.3458 1.40604 11.3592C1.40081 11.3726 1.39591 11.383 1.39313 11.3887C1.39167 11.3917 1.39047 11.3941 1.38976 11.3954C1.38912 11.3967 1.38857 11.3978 1.38871 11.3975C1.38871 11.3975 1.38876 11.3974 1.38881 11.3973C1.38887 11.3972 1.38896 11.397 1.38907 11.3968C1.38927 11.3964 1.38961 11.3957 1.39001 11.395C1.3908 11.3934 1.39208 11.3909 1.39362 11.3877C1.39655 11.3817 1.4016 11.371 1.40695 11.3573C1.41233 11.3435 1.41906 11.3241 1.4245 11.3002C1.42999 11.2761 1.43453 11.2458 1.43453 11.2109H0.634531ZM0.686919 11.0145C0.662941 11.056 0.646596 11.0968 0.635447 11.1325L1.39908 11.371C1.3959 11.3812 1.39018 11.3965 1.37949 11.415L0.686919 11.0145ZM0.639364 11.1207C0.638289 11.1238 0.639497 11.1202 0.64117 11.1158C0.642168 11.1131 0.643944 11.1085 0.646409 11.1028C0.648771 11.0972 0.652775 11.0882 0.658453 11.0773L1.36811 11.4466C1.37968 11.4244 1.38688 11.4055 1.38938 11.3989C1.39238 11.391 1.39491 11.3836 1.39517 11.3829L0.639364 11.1207ZM0.628484 11.1528C0.626456 11.1599 0.611137 11.2096 0.605762 11.2664L1.40221 11.3418C1.40057 11.359 1.39783 11.3712 1.3969 11.3751C1.39638 11.3773 1.39609 11.3783 1.39631 11.3775C1.39659 11.3765 1.39698 11.3751 1.39808 11.3712L0.628484 11.1528ZM0.603984 11.3041V11.3118H1.40398V11.3041H0.603984ZM0.626082 11.1806C0.60966 11.228 0.6 11.2799 0.6 11.3347H1.4C1.4 11.3743 1.393 11.4108 1.38189 11.4429L0.626082 11.1806ZM0.6 11.3347V32.7448H1.4V11.3347H0.6ZM0.6 32.7448C0.6 33.121 0.913835 33.4 1.26562 33.4V32.6C1.32522 32.6 1.4 32.6493 1.4 32.7448H0.6ZM1.26562 33.4H34.7344V32.6H1.26562V33.4ZM34.7344 33.4C35.0862 33.4 35.4 33.121 35.4 32.7448H34.6C34.6 32.6493 34.6748 32.6 34.7344 32.6V33.4ZM35.4 32.7448V11.3347H34.6V32.7448H35.4ZM35.4 11.3347C35.4 11.3215 35.3994 11.3104 35.3989 11.303C35.3985 11.2961 35.3979 11.2899 35.3978 11.2887C35.3976 11.286 35.3978 11.2884 35.398 11.2915C35.3983 11.2951 35.3987 11.3023 35.3987 11.3118H34.5987C34.5987 11.325 34.5992 11.336 34.5997 11.3435C34.6002 11.3504 34.6007 11.3566 34.6008 11.3578C34.6011 11.3604 34.6008 11.3581 34.6006 11.3549C34.6004 11.3514 34.6 11.3441 34.6 11.3347H35.4ZM35.3987 11.3118C35.3987 11.3064 35.4021 11.2167 35.3522 11.1207L34.6425 11.49C34.6179 11.4428 34.6075 11.3991 34.6029 11.3679C34.6005 11.3521 34.5995 11.3386 34.5991 11.3287C34.5986 11.3191 34.5987 11.3114 34.5987 11.3118H35.3987ZM34.9599 10.9071L34.9596 10.9072L35.0344 11.7036L35.0347 11.7036L34.9599 10.9071ZM27.1198 3.17801V16.8844H27.9198V3.17801H27.1198ZM27.2669 16.5744L21.7035 21.1123L22.2092 21.7322L27.7726 17.1944L27.2669 16.5744ZM22.2169 21.1188L18.4358 17.8724L17.9147 18.4794L21.6958 21.7257L22.2169 21.1188ZM18.436 17.8726C18.1851 17.6569 17.8108 17.6569 17.5599 17.8726L18.0814 18.4792C18.0324 18.5213 17.9635 18.5214 17.9145 18.4792L18.436 17.8726ZM17.5601 17.8724L13.7789 21.1188L14.3001 21.7257L18.0812 18.4794L17.5601 17.8724ZM14.2923 21.1123L8.72894 16.5744L8.22329 17.1944L13.7867 21.7322L14.2923 21.1123ZM8.87611 16.8845L8.87877 3.17809L8.07877 3.17793L8.07611 16.8843L8.87611 16.8845ZM13.3818 21.4605L1.27075 31.8579L1.79186 32.4649L13.9029 22.0675L13.3818 21.4605ZM1.93131 32.1614V11.8872H1.13131V32.1614H1.93131ZM34.0525 32.0897H1.94645V32.8897H34.0525V32.0897ZM22.6104 22.0741L34.7214 12.1974L34.2158 11.5774L22.1048 21.4542L22.6104 22.0741ZM34.0686 11.8874V32.1629H34.8686V11.8874H34.0686ZM34.7292 31.8594L22.6181 21.4607L22.097 22.0676L34.2081 32.4664L34.7292 31.8594ZM28.4525 16.4504V7.61219H27.6525V16.4504H28.4525ZM27.8462 7.95483L34.079 11.709L34.4918 11.0237L28.2589 7.26954L27.8462 7.95483ZM34.0326 11.0564L27.7997 16.1405L28.3054 16.7604L34.5382 11.6763L34.0326 11.0564ZM16.363 3.01027L18.2065 1.90009L17.7938 1.21477L15.9503 2.32495L16.363 3.01027ZM17.7938 1.90009L19.6372 3.01027L20.0499 2.32495L18.2065 1.21477L17.7938 1.90009ZM19.8435 2.26761H16.1567V3.06761H19.8435V2.26761ZM8.20024 16.1395L1.96739 11.0557L1.46174 11.6757L7.69459 16.7594L8.20024 16.1395ZM1.92095 11.7083L8.1538 7.95418L7.74103 7.26889L1.50818 11.0231L1.92095 11.7083ZM7.54742 7.61153V16.4494H8.34741V7.61153H7.54742ZM11.5652 12.2933C11.8273 12.8232 12.3417 13.2085 12.9491 13.3128L13.0844 12.5243C12.725 12.4626 12.4291 12.2355 12.2822 11.9385L11.5652 12.2933ZM12.6167 12.9185V15.8867H13.4167V12.9185H12.6167ZM12.6167 15.8867C12.6167 17.2595 13.6826 18.4114 15.0355 18.4114V17.6114C14.1624 17.6114 13.4167 16.8567 13.4167 15.8867H12.6167ZM15.0355 18.4114C16.3883 18.4114 17.4542 17.2595 17.4542 15.8867H16.6542C16.6542 16.8567 15.9085 17.6114 15.0355 17.6114V18.4114ZM17.4542 15.8867V12.9415H16.6542V15.8867H17.4542ZM17.0542 13.3415H17.2016V12.5415H17.0542V13.3415ZM17.2016 13.3415C17.4725 13.3415 17.8445 13.3979 18.2222 13.4951C18.6002 13.5923 18.951 13.7219 19.1843 13.8514L19.5725 13.1519C19.2587 12.9778 18.8372 12.8273 18.4216 12.7203C18.0057 12.6133 17.5629 12.5415 17.2016 12.5415V13.3415ZM19.1844 13.8515L23.2895 16.128L23.6775 15.4284L19.5724 13.1519L19.1844 13.8515ZM23.2896 16.1281C23.5438 16.269 23.8159 16.3518 24.0931 16.3518V15.5518C23.9772 15.5518 23.8376 15.5172 23.6775 15.4284L23.2896 16.1281ZM24.0931 16.3518C24.4587 16.3518 24.8014 16.2031 25.0378 15.9196L24.4235 15.4072C24.3491 15.4963 24.2376 15.5518 24.0931 15.5518V16.3518ZM25.0385 15.9188C25.2565 15.656 25.3551 15.3167 25.3551 14.9615H24.5551C24.5551 15.173 24.497 15.3186 24.4228 15.408L25.0385 15.9188ZM25.3551 14.9615L25.3538 5.6512L24.5538 5.65132L24.5551 14.9616L25.3551 14.9615ZM25.3538 5.65126C25.3538 5.27874 25.2442 4.93181 25.0175 4.67184C24.7866 4.40709 24.459 4.26231 24.0918 4.26231V5.06231C24.2399 5.06231 24.3433 5.11596 24.4146 5.19766C24.49 5.28413 24.5538 5.43168 24.5538 5.65126H25.3538ZM24.0918 4.26231C23.8141 4.26231 23.5436 4.34539 23.2892 4.48549L23.6752 5.18623C23.8378 5.09664 23.9764 5.06231 24.0918 5.06231V4.26231ZM23.2882 4.48605L19.1831 6.76259L19.571 7.46222L23.6762 5.18567L23.2882 4.48605ZM19.1829 6.76266C18.9496 6.89217 18.5988 7.02177 18.2209 7.119C17.8431 7.21619 17.4712 7.27259 17.2003 7.27259V8.07259C17.5615 8.07259 18.0044 8.00075 18.4202 7.89377C18.8358 7.78684 19.2573 7.63634 19.5712 7.46215L19.1829 6.76266ZM17.2003 7.27259H13.2811V8.07259H17.2003V7.27259ZM13.2811 7.27259C12.5302 7.27259 11.8734 7.69683 11.5641 8.3205L12.2808 8.6759C12.455 8.32471 12.834 8.07259 13.2811 8.07259V7.27259ZM11.8981 8.09894C10.7187 8.17082 9.75606 9.11864 9.75606 10.3064H10.5561C10.5561 9.57243 11.158 8.94553 11.9468 8.89746L11.8981 8.09894ZM9.75606 10.307C9.7577 11.4939 10.7194 12.4432 11.8994 12.5151L11.948 11.7166C11.1597 11.6686 10.5571 11.0408 10.5561 10.3059L9.75606 10.307ZM13.2824 8.58303H17.2015V7.78303H13.2824V8.58303ZM17.2015 8.58303C17.9911 8.58303 19.1539 8.28412 19.8383 7.9035L19.4495 7.20432C18.8856 7.51791 17.8569 7.78303 17.2015 7.78303V8.58303ZM19.8379 7.90372L23.9431 5.62718L23.5551 4.92756L19.4499 7.2041L19.8379 7.90372ZM23.9424 5.62756C24.0332 5.57745 24.0836 5.57145 24.0931 5.57145V4.77145C23.9007 4.77145 23.7147 4.83947 23.5558 4.92717L23.9424 5.62756ZM24.0931 5.57145C24.0924 5.57145 24.0839 5.57128 24.0705 5.56699C24.0568 5.5626 24.043 5.55552 24.0308 5.54634C24.0068 5.52841 24.0016 5.51268 24.0049 5.52008C24.0084 5.52787 24.0141 5.54551 24.0184 5.57384C24.0224 5.60093 24.0238 5.62824 24.0238 5.64997H24.8238C24.8238 5.5597 24.8152 5.3723 24.735 5.19319C24.6929 5.09899 24.6236 4.99066 24.5097 4.90555C24.3909 4.81678 24.2477 4.77145 24.0931 4.77145V5.57145ZM24.0238 5.64997V14.9616H24.8238V5.64997H24.0238ZM24.0238 14.9616C24.0238 15.0129 24.0176 15.0502 24.0109 15.0737C24.004 15.0982 23.9992 15.0986 24.0088 15.0872L24.6236 15.599C24.7759 15.4161 24.8238 15.1738 24.8238 14.9616H24.0238ZM24.0094 15.0864C24.0195 15.0743 24.0371 15.0594 24.0604 15.0492C24.0823 15.0397 24.0961 15.0401 24.0931 15.0401V15.8401C24.291 15.8401 24.4827 15.7674 24.623 15.5998L24.0094 15.0864ZM24.0931 15.0401C24.0836 15.0401 24.0332 15.0341 23.9424 14.984L23.5558 15.6844C23.7147 15.7721 23.9007 15.8401 24.0931 15.8401V15.0401ZM23.9431 14.9844L19.8379 12.7078L19.4499 13.4075L23.5551 15.684L23.9431 14.9844ZM19.838 12.7079C19.1525 12.3275 17.9899 12.0285 17.2015 12.0285V12.8285C17.8555 12.8285 18.8843 13.0936 19.4499 13.4074L19.838 12.7079ZM17.2015 12.0285H13.2824V12.8285H17.2015V12.0285ZM13.2824 12.0285C12.9515 12.0285 12.7102 11.7742 12.7102 11.4944H11.9102C11.9102 12.2458 12.5401 12.8285 13.2824 12.8285V12.0285ZM12.7102 11.4944V9.11583H11.9102V11.4944H12.7102ZM12.7102 9.11583C12.7102 8.83776 12.9511 8.58303 13.2824 8.58303V7.78303C12.5404 7.78303 11.9102 8.36539 11.9102 9.11583H12.7102ZM15.0355 17.0998C14.4658 17.0998 13.948 16.5868 13.948 15.8856H13.148C13.148 16.9658 13.9636 17.8998 15.0355 17.8998V17.0998ZM13.948 15.8856V12.9404H13.148V15.8856H13.948ZM13.548 13.3404H16.5243V12.5404H13.548V13.3404ZM16.1243 12.9404V15.8856H16.9243V12.9404H16.1243ZM16.1243 15.8856C16.1243 16.5864 15.6056 17.0998 15.0355 17.0998V17.8998C16.1069 17.8998 16.9243 16.9663 16.9243 15.8856H16.1243ZM11.8558 11.191C11.4081 11.1064 11.0885 10.7311 11.0885 10.3067H10.2885C10.2885 11.1456 10.9119 11.8269 11.7073 11.9771L11.8558 11.191ZM11.0885 10.3067C11.0885 9.88193 11.4071 9.50694 11.8557 9.42239L11.7075 8.63624C10.9103 8.7865 10.2885 9.46812 10.2885 10.3067H11.0885ZM11.382 9.01123C11.3807 9.03907 11.3789 9.07746 11.3789 9.11736H12.1789C12.1789 9.09857 12.1798 9.07826 12.1812 9.0474L11.382 9.01123ZM11.3789 9.11736V11.496H12.1789V9.11736H11.3789ZM11.3789 11.496C11.3789 11.5372 11.3807 11.5746 11.382 11.6021L12.1812 11.566C12.1798 11.5348 12.1789 11.5159 12.1789 11.496H11.3789ZM8.47877 3.57801H27.5198V2.77801H8.47877V3.57801ZM1.27851 12.1972L13.3896 22.0739L13.8952 21.454L1.78411 11.5772L1.27851 12.1972ZM2.20701 32.7932L18.2604 19.0101L17.7392 18.4032L1.68588 32.1862L2.20701 32.7932ZM17.7392 19.0101L33.7919 32.7932L34.3131 32.1863L18.2604 18.4032L17.7392 19.0101Z" fill="white"/>
</svg>
