<svg width="50" height="50" viewBox="0 0 50 50" fill="none" xmlns="http://www.w3.org/2000/svg">
<g style="mix-blend-mode:multiply">
<mask id="path-1-inside-1_1902_39147" fill="white">
<path d="M42.1752 33.5714C42.3649 33.342 42.7109 33.3048 42.9485 33.4892C43.1851 33.6741 43.2229 34.0092 43.0338 34.2395L37.0528 41.476C36.955 41.5944 36.8092 41.6673 36.6534 41.6751C36.6428 41.6751 36.6332 41.6761 36.6231 41.6761C36.4773 41.6761 36.3366 41.6194 36.2337 41.5176L33.4347 38.793C33.2203 38.5847 33.2208 38.2472 33.4367 38.0378C33.6516 37.8319 33.9996 37.8319 34.215 38.0407L36.5797 40.3432L42.1752 33.5714ZM47 21.1127V27.546C47 27.8415 46.7544 28.0802 46.4497 28.0802H42.5541C42.3911 28.8163 42.1692 29.5559 41.8953 30.2867C42.4844 30.4041 43.0877 30.4697 43.6961 30.4697C44.3765 30.4697 45.056 30.3958 45.7158 30.2486C45.8807 30.2124 46.0512 30.25 46.1813 30.3508C46.313 30.4521 46.3897 30.6057 46.3897 30.7685V39.6427C46.3897 43.4859 41.6108 46.4277 38.3084 46.9912C38.2771 46.9961 38.2453 47 38.2135 47C38.1807 47 38.15 46.9961 38.1182 46.9912C35.2142 46.4957 31.1713 44.1664 30.2291 41.0025C29.7832 41.1351 29.3312 41.2574 28.8722 41.3557V45.1349C28.8722 45.4308 28.626 45.67 28.3219 45.67H21.6882C21.3836 45.67 21.1379 45.4313 21.1379 45.1349V41.3547C19.0486 40.9096 17.0965 40.1245 15.3215 39.0185L12.5668 41.6986C12.4644 41.7984 12.3237 41.8551 12.1779 41.8551C12.0321 41.8551 11.8914 41.7984 11.7885 41.6986L7.09286 37.1456C6.99046 37.0458 6.93245 36.9098 6.93245 36.768C6.93245 36.6266 6.99097 36.4901 7.09387 36.3908L9.85809 33.7181C8.71507 31.9865 7.90598 30.093 7.44898 28.0802H3.54982C3.24565 28.0802 3 27.8415 3 27.546V21.1127C3 20.8173 3.24565 20.5796 3.54982 20.5796H7.44898C7.90951 18.5584 8.7181 16.6688 9.85809 14.9494L7.09387 12.2782C6.99097 12.1784 6.93296 12.0429 6.93245 11.9011C6.93245 11.7592 6.99046 11.6237 7.09286 11.5239L11.789 6.97043C11.9953 6.77037 12.361 6.77037 12.5673 6.96994L15.323 9.64265C17.1207 8.52886 19.0728 7.74573 21.1384 7.31283V3.53366C21.1384 3.23822 21.3841 3 21.6887 3H28.3229C28.627 3 28.8732 3.23822 28.8732 3.53366V7.31283C30.9327 7.7472 32.8818 8.52837 34.678 9.64265L37.4327 6.97043C37.6395 6.77037 38.0052 6.77037 38.2115 6.96994L42.9066 11.5234C43.01 11.6237 43.0681 11.7587 43.0681 11.9006C43.0681 12.0429 43.01 12.1779 42.9066 12.2787L40.151 14.9499C41.2996 16.6913 42.1056 18.5814 42.553 20.58H46.4507C46.7538 20.5796 47 20.8173 47 21.1127ZM32.9534 30.4574C34.3804 28.7293 35.1688 26.5667 35.1688 24.3343C35.1688 18.8964 30.6074 14.473 25.0003 14.473C19.3987 14.473 14.8412 18.8964 14.8412 24.3343C14.8412 29.7658 19.3987 34.1853 25.0003 34.1853C26.7824 34.1853 28.5115 33.7338 30.0273 32.889V30.7685C30.0273 30.6057 30.1035 30.4521 30.2341 30.3508C30.3653 30.2496 30.5352 30.2119 30.6997 30.2481C31.4387 30.412 32.1978 30.4785 32.9534 30.4574ZM41.0993 31.201C41.0494 31.1966 40.9989 31.1873 40.949 31.1682C40.9379 31.1623 40.9273 31.1564 40.9167 31.1511C39.9543 30.885 39.0372 30.4863 38.214 29.9585C36.7759 30.8791 35.0553 31.4152 33.2974 31.515C33.2758 31.5174 33.2556 31.5174 33.2344 31.5179C32.5317 31.5536 31.825 31.5223 31.1279 31.4152V39.6427C31.1279 39.8217 31.1426 40.0008 31.1708 40.1773C31.1804 40.2116 31.187 40.2463 31.1895 40.281C31.708 43.0711 35.4947 45.4205 38.214 45.9244C41.1336 45.3834 45.289 42.7067 45.289 39.6427V31.4152C43.8933 31.6309 42.4542 31.5492 41.0993 31.201ZM45.8999 21.6464H42.1036C41.8398 21.6464 41.6123 21.4644 41.5629 21.2125C41.1381 19.0539 40.2726 17.0239 38.9888 15.1774C38.8415 14.9661 38.8698 14.6829 39.0559 14.5019L41.7389 11.9001L37.8221 8.10134L35.1386 10.7036C34.9514 10.8841 34.6594 10.912 34.4415 10.7682C32.5378 9.52428 30.4445 8.68343 28.2185 8.27303C27.9592 8.22412 27.771 8.00449 27.771 7.74867V4.06732H22.2375V7.74867C22.2375 8.00449 22.0499 8.22461 21.7896 8.27303C19.5591 8.68294 17.4622 9.5233 15.5565 10.7682C15.3391 10.912 15.046 10.8836 14.8599 10.7041L12.1769 8.10134L8.26009 11.9001L10.9532 14.5009C11.1403 14.6824 11.1686 14.967 11.0198 15.1793C9.7451 16.996 8.87649 19.0265 8.43562 21.215C8.38518 21.4654 8.1592 21.6464 7.8959 21.6464H4.09963V27.0124H7.8964C8.15971 27.0124 8.38619 27.1933 8.43613 27.4443C8.87346 29.6234 9.74258 31.6578 11.0208 33.4907C11.1686 33.703 11.1403 33.9871 10.9537 34.1672L8.26059 36.7689L12.1769 40.5672L14.8604 37.9561C15.0465 37.7751 15.3411 37.7468 15.559 37.8915C17.4335 39.1276 19.5313 39.9699 21.7932 40.3965C22.0519 40.4459 22.2381 40.665 22.2381 40.9199V44.6017H27.7715V40.9199C27.7715 40.664 27.9597 40.4434 28.219 40.3965C28.8374 40.281 29.4447 40.1221 30.0389 39.9401C30.0328 39.8413 30.0273 39.7425 30.0273 39.6427V34.1006C28.4813 34.8534 26.7632 35.2526 25.0003 35.2526C18.7919 35.2526 13.7411 30.3542 13.7411 24.3343C13.7411 18.3089 18.7924 13.4057 25.0003 13.4057C31.2142 13.4057 36.2695 18.3084 36.2695 24.3343C36.2695 26.4645 35.6228 28.5405 34.4349 30.3009C35.6869 30.0671 36.8808 29.5863 37.8922 28.8775C38.0844 28.743 38.3442 28.743 38.5364 28.8775C39.2289 29.3627 40.0057 29.7408 40.8259 30.0089C41.1497 29.1597 41.3999 28.3013 41.5629 27.4492C41.6103 27.1958 41.8373 27.0119 42.1036 27.0119H45.8999V21.6464Z"/>
</mask>
<path d="M42.1752 33.5714C42.3649 33.342 42.7109 33.3048 42.9485 33.4892C43.1851 33.6741 43.2229 34.0092 43.0338 34.2395L37.0528 41.476C36.955 41.5944 36.8092 41.6673 36.6534 41.6751C36.6428 41.6751 36.6332 41.6761 36.6231 41.6761C36.4773 41.6761 36.3366 41.6194 36.2337 41.5176L33.4347 38.793C33.2203 38.5847 33.2208 38.2472 33.4367 38.0378C33.6516 37.8319 33.9996 37.8319 34.215 38.0407L36.5797 40.3432L42.1752 33.5714ZM47 21.1127V27.546C47 27.8415 46.7544 28.0802 46.4497 28.0802H42.5541C42.3911 28.8163 42.1692 29.5559 41.8953 30.2867C42.4844 30.4041 43.0877 30.4697 43.6961 30.4697C44.3765 30.4697 45.056 30.3958 45.7158 30.2486C45.8807 30.2124 46.0512 30.25 46.1813 30.3508C46.313 30.4521 46.3897 30.6057 46.3897 30.7685V39.6427C46.3897 43.4859 41.6108 46.4277 38.3084 46.9912C38.2771 46.9961 38.2453 47 38.2135 47C38.1807 47 38.15 46.9961 38.1182 46.9912C35.2142 46.4957 31.1713 44.1664 30.2291 41.0025C29.7832 41.1351 29.3312 41.2574 28.8722 41.3557V45.1349C28.8722 45.4308 28.626 45.67 28.3219 45.67H21.6882C21.3836 45.67 21.1379 45.4313 21.1379 45.1349V41.3547C19.0486 40.9096 17.0965 40.1245 15.3215 39.0185L12.5668 41.6986C12.4644 41.7984 12.3237 41.8551 12.1779 41.8551C12.0321 41.8551 11.8914 41.7984 11.7885 41.6986L7.09286 37.1456C6.99046 37.0458 6.93245 36.9098 6.93245 36.768C6.93245 36.6266 6.99097 36.4901 7.09387 36.3908L9.85809 33.7181C8.71507 31.9865 7.90598 30.093 7.44898 28.0802H3.54982C3.24565 28.0802 3 27.8415 3 27.546V21.1127C3 20.8173 3.24565 20.5796 3.54982 20.5796H7.44898C7.90951 18.5584 8.7181 16.6688 9.85809 14.9494L7.09387 12.2782C6.99097 12.1784 6.93296 12.0429 6.93245 11.9011C6.93245 11.7592 6.99046 11.6237 7.09286 11.5239L11.789 6.97043C11.9953 6.77037 12.361 6.77037 12.5673 6.96994L15.323 9.64265C17.1207 8.52886 19.0728 7.74573 21.1384 7.31283V3.53366C21.1384 3.23822 21.3841 3 21.6887 3H28.3229C28.627 3 28.8732 3.23822 28.8732 3.53366V7.31283C30.9327 7.7472 32.8818 8.52837 34.678 9.64265L37.4327 6.97043C37.6395 6.77037 38.0052 6.77037 38.2115 6.96994L42.9066 11.5234C43.01 11.6237 43.0681 11.7587 43.0681 11.9006C43.0681 12.0429 43.01 12.1779 42.9066 12.2787L40.151 14.9499C41.2996 16.6913 42.1056 18.5814 42.553 20.58H46.4507C46.7538 20.5796 47 20.8173 47 21.1127ZM32.9534 30.4574C34.3804 28.7293 35.1688 26.5667 35.1688 24.3343C35.1688 18.8964 30.6074 14.473 25.0003 14.473C19.3987 14.473 14.8412 18.8964 14.8412 24.3343C14.8412 29.7658 19.3987 34.1853 25.0003 34.1853C26.7824 34.1853 28.5115 33.7338 30.0273 32.889V30.7685C30.0273 30.6057 30.1035 30.4521 30.2341 30.3508C30.3653 30.2496 30.5352 30.2119 30.6997 30.2481C31.4387 30.412 32.1978 30.4785 32.9534 30.4574ZM41.0993 31.201C41.0494 31.1966 40.9989 31.1873 40.949 31.1682C40.9379 31.1623 40.9273 31.1564 40.9167 31.1511C39.9543 30.885 39.0372 30.4863 38.214 29.9585C36.7759 30.8791 35.0553 31.4152 33.2974 31.515C33.2758 31.5174 33.2556 31.5174 33.2344 31.5179C32.5317 31.5536 31.825 31.5223 31.1279 31.4152V39.6427C31.1279 39.8217 31.1426 40.0008 31.1708 40.1773C31.1804 40.2116 31.187 40.2463 31.1895 40.281C31.708 43.0711 35.4947 45.4205 38.214 45.9244C41.1336 45.3834 45.289 42.7067 45.289 39.6427V31.4152C43.8933 31.6309 42.4542 31.5492 41.0993 31.201ZM45.8999 21.6464H42.1036C41.8398 21.6464 41.6123 21.4644 41.5629 21.2125C41.1381 19.0539 40.2726 17.0239 38.9888 15.1774C38.8415 14.9661 38.8698 14.6829 39.0559 14.5019L41.7389 11.9001L37.8221 8.10134L35.1386 10.7036C34.9514 10.8841 34.6594 10.912 34.4415 10.7682C32.5378 9.52428 30.4445 8.68343 28.2185 8.27303C27.9592 8.22412 27.771 8.00449 27.771 7.74867V4.06732H22.2375V7.74867C22.2375 8.00449 22.0499 8.22461 21.7896 8.27303C19.5591 8.68294 17.4622 9.5233 15.5565 10.7682C15.3391 10.912 15.046 10.8836 14.8599 10.7041L12.1769 8.10134L8.26009 11.9001L10.9532 14.5009C11.1403 14.6824 11.1686 14.967 11.0198 15.1793C9.7451 16.996 8.87649 19.0265 8.43562 21.215C8.38518 21.4654 8.1592 21.6464 7.8959 21.6464H4.09963V27.0124H7.8964C8.15971 27.0124 8.38619 27.1933 8.43613 27.4443C8.87346 29.6234 9.74258 31.6578 11.0208 33.4907C11.1686 33.703 11.1403 33.9871 10.9537 34.1672L8.26059 36.7689L12.1769 40.5672L14.8604 37.9561C15.0465 37.7751 15.3411 37.7468 15.559 37.8915C17.4335 39.1276 19.5313 39.9699 21.7932 40.3965C22.0519 40.4459 22.2381 40.665 22.2381 40.9199V44.6017H27.7715V40.9199C27.7715 40.664 27.9597 40.4434 28.219 40.3965C28.8374 40.281 29.4447 40.1221 30.0389 39.9401C30.0328 39.8413 30.0273 39.7425 30.0273 39.6427V34.1006C28.4813 34.8534 26.7632 35.2526 25.0003 35.2526C18.7919 35.2526 13.7411 30.3542 13.7411 24.3343C13.7411 18.3089 18.7924 13.4057 25.0003 13.4057C31.2142 13.4057 36.2695 18.3084 36.2695 24.3343C36.2695 26.4645 35.6228 28.5405 34.4349 30.3009C35.6869 30.0671 36.8808 29.5863 37.8922 28.8775C38.0844 28.743 38.3442 28.743 38.5364 28.8775C39.2289 29.3627 40.0057 29.7408 40.8259 30.0089C41.1497 29.1597 41.3999 28.3013 41.5629 27.4492C41.6103 27.1958 41.8373 27.0119 42.1036 27.0119H45.8999V21.6464Z" fill="#105AB3" stroke="#105AB3" stroke-width="2" mask="url(#path-1-inside-1_1902_39147)"/>
</g>
</svg>
