<svg width="10" height="10" viewBox="0 0 10 10" fill="none" xmlns="http://www.w3.org/2000/svg">
    <path fill-rule="evenodd" clip-rule="evenodd" d="M5 0C7.76141 0 10 2.2387 10 5C10 7.7613 7.7613 10 5 10C2.2387 10 0 7.76141 0 5C0 2.23859 2.23859 0 5 0ZM1.11268 7.2557H3.22789C3.11219 6.6504 3.04139 5.97164 3.02794 5.25319H0.513382C0.553728 5.98019 0.767016 6.66118 1.11268 7.2557ZM3.7425 7.2557H6.2575C6.37776 6.65907 6.45179 5.97908 6.46579 5.25319H3.53421C3.54822 5.97908 3.62213 6.65896 3.7425 7.2557ZM6.77222 7.2557H8.88732C9.23298 6.66129 9.44627 5.98031 9.48662 5.25319H6.97217C6.95861 5.97164 6.88792 6.6504 6.77222 7.2557ZM8.54488 7.76197H6.66074C6.51492 8.34204 6.29729 8.94401 5.97675 9.38714C7.00685 9.15885 7.91079 8.575 8.54488 7.76197ZM6.13902 7.76197H3.86098C4.48028 10.0619 5.51972 10.0619 6.13902 7.76197ZM3.33926 7.76197H1.45501C2.08943 8.57511 2.99282 9.15874 4.02325 9.38714C3.70282 8.94401 3.48508 8.34204 3.33926 7.76197ZM1.45501 2.23803H3.33937C3.4852 1.65774 3.70271 1.05611 4.02336 0.612746C2.99282 0.841262 2.08932 1.42489 1.45501 2.23803ZM3.86098 2.23803H6.13913C5.51983 -0.0619083 4.48017 -0.0619083 3.86098 2.23803ZM6.66074 2.23803H8.54499C7.91057 1.42489 7.00718 0.841262 5.97675 0.612746C6.29729 1.05622 6.5148 1.65774 6.66074 2.23803ZM8.88732 2.74441H6.77222C6.88792 3.34971 6.95872 4.02836 6.97217 4.74692H9.48662C9.44616 4.01981 9.23298 3.33882 8.88732 2.74441ZM6.2575 2.74441H3.7425C3.62213 3.34104 3.54822 4.02092 3.53421 4.74692H6.46579C6.45179 4.02092 6.37776 3.34104 6.2575 2.74441ZM3.22778 2.74441H1.11257C0.767016 3.33882 0.553728 4.01981 0.513382 4.74692H3.02783C3.04139 4.02836 3.11208 3.3496 3.22778 2.74441Z" fill="#808080"/>
</svg>
