<svg width="22" height="22" viewBox="0 0 22 22" fill="none" xmlns="http://www.w3.org/2000/svg">
<path d="M0 1.22222C0 0.547208 0.547208 0 1.22222 0H8.55556C9.23057 0 9.77778 0.547208 9.77778 1.22222V8.55556C9.77778 9.23057 9.23057 9.77778 8.55556 9.77778H1.22222C0.547208 9.77778 0 9.23057 0 8.55556V1.22222Z" fill="white"/>
<path d="M0 13.4444C0 12.7694 0.547208 12.2222 1.22222 12.2222H8.55556C9.23057 12.2222 9.77778 12.7694 9.77778 13.4444V20.7778C9.77778 21.4528 9.23057 22 8.55556 22H1.22222C0.547208 22 0 21.4528 0 20.7778V13.4444Z" fill="white"/>
<path d="M12.2222 13.4444C12.2222 12.7694 12.7694 12.2222 13.4444 12.2222H20.7778C21.4528 12.2222 22 12.7694 22 13.4444V20.7778C22 21.4528 21.4528 22 20.7778 22H13.4444C12.7694 22 12.2222 21.4528 12.2222 20.7778V13.4444Z" fill="white"/>
<path d="M12.2222 1.22222C12.2222 0.547208 12.7694 0 13.4444 0H20.7778C21.4528 0 22 0.547208 22 1.22222V8.55556C22 9.23057 21.4528 9.77778 20.7778 9.77778H13.4444C12.7694 9.77778 12.2222 9.23057 12.2222 8.55556V1.22222Z" fill="white"/>
</svg>
