<svg width="50" height="50" viewBox="0 0 50 50" fill="none" xmlns="http://www.w3.org/2000/svg">
<g style="mix-blend-mode:multiply">
<path d="M6.81925 9.09904C6.44524 9.02491 6.08311 9.272 6.01187 9.66118C6.00594 9.69206 6 9.72295 6 9.76001V34.488C6 34.803 6.19591 35.0748 6.4868 35.1675L6.81925 9.09904ZM43.271 9.50556L43.271 9.50559L43.2759 9.50439C43.3196 9.49369 43.3714 9.50183 43.4187 9.5388C43.46 9.57569 43.4964 9.64419 43.5 9.72533V34.5131C43.4929 34.6251 43.4229 34.6953 43.3621 34.7138L43.362 34.7137L43.3568 34.7154L25.0484 40.4912L25.0484 40.4911L25.0403 40.4939C25.0089 40.5044 24.9741 40.5013 24.9441 40.4851L24.7504 40.3802L24.5423 40.4524C24.5261 40.458 24.5025 40.4604 24.4715 40.4501L24.468 40.449L6.64046 34.6917L6.63855 34.6911C6.56191 34.6667 6.5 34.5926 6.5 34.488V9.77087L6.50289 9.75555L6.50291 9.75555L6.5037 9.75121C6.52561 9.63152 6.6247 9.57379 6.71567 9.58836L24.5605 13.8416L24.6177 13.8552H24.6765H24.7299H24.8522L24.9607 13.7988C24.9686 13.7946 24.976 13.7912 24.9822 13.7886C24.9831 13.7881 24.984 13.7878 24.9849 13.7874L43.271 9.50556ZM24.1546 39.9057L24.8084 40.1169V39.4299V14.7019V14.3073L24.4246 14.2156L7.48753 10.1694L6.87135 10.0222V10.6557V33.9567V34.3206L7.2176 34.4325L24.1546 39.9057ZM42.7728 34.4707L43.1227 34.3606V33.9938V10.6063V9.97638L42.5092 10.1194L25.5722 14.0667L25.1857 14.1568V14.5536V39.3249V40.0064L25.8358 39.8018L42.7728 34.4707ZM28.5462 21.2157L28.5462 21.2156L28.5406 21.2174C28.5303 21.2206 28.521 21.2228 28.5133 21.2241C28.5056 21.2254 28.501 21.2256 28.4996 21.2256C28.4377 21.2256 28.354 21.1809 28.3214 21.0692C28.2875 20.9478 28.3609 20.8313 28.4553 20.8016C28.4557 20.8015 28.456 20.8014 28.4564 20.8013L39.4804 17.5018C39.555 17.4871 39.6534 17.5298 39.6888 17.6404C39.7297 17.7682 39.6587 17.8823 39.5759 17.9145L28.5462 21.2157ZM28.5406 25.5354C28.5367 25.5366 28.5336 25.5375 28.5311 25.5381L28.5232 25.5374H28.4996C28.4377 25.5374 28.354 25.4927 28.3214 25.381C28.2875 25.2596 28.3609 25.1432 28.4553 25.1134C28.4556 25.1133 28.456 25.1132 28.4564 25.1131L39.4803 21.8198C39.5549 21.805 39.6533 21.8477 39.6888 21.9584C39.7297 22.0862 39.6587 22.2002 39.5759 22.2325L28.5462 25.5336L28.5462 25.5336L28.5406 25.5354ZM28.5462 29.8454L28.5462 29.8454L28.5406 29.8472C28.5303 29.8504 28.521 29.8526 28.5133 29.8539C28.5088 29.8546 28.5054 29.855 28.5031 29.8552C28.4278 29.8508 28.3508 29.7996 28.3214 29.699C28.2876 29.5776 28.3609 29.4611 28.4553 29.4314C28.4556 29.4313 28.456 29.4312 28.4564 29.4311L39.4804 26.1316C39.555 26.1168 39.6534 26.1595 39.6888 26.2702C39.7297 26.398 39.6587 26.512 39.5759 26.5443L28.5462 29.8454Z" fill="#105AB3" stroke="#105AB3"/>
</g>
</svg>
