<svg width="40" height="40" viewBox="0 0 40 40" fill="none" xmlns="http://www.w3.org/2000/svg">
    <path d="M37.7 1H2.30002C1.95534 1.00034 1.62487 1.13741 1.38114 1.38114C1.13741 1.62487 1.00034 1.95534 1 2.30002V28.9152C1.00034 29.2599 1.13741 29.5904 1.38114 29.8341C1.62487 30.0778 1.95534 30.2149 2.30002 30.2152H15.972C15.733 32.9977 13.5425 35.1844 10.883 35.1844C10.8327 35.1844 10.7828 35.192 10.7348 35.2068C10.2593 35.2795 9.82886 35.5292 9.52967 35.9059C9.23048 36.2825 9.08462 36.7582 9.12129 37.2379C9.15797 37.7175 9.37447 38.1655 9.72745 38.4923C10.0804 38.819 10.5438 39.0004 11.0248 39H28.9752C29.4562 39.0004 29.9196 38.819 30.2726 38.4923C30.6255 38.1655 30.842 37.7175 30.8787 37.2379C30.9154 36.7582 30.7695 36.2825 30.4703 35.9059C30.1711 35.5292 29.7407 35.2795 29.2652 35.2068C29.2172 35.192 29.1673 35.1844 29.117 35.1844C26.457 35.1844 24.267 32.9977 24.0276 30.2152H37.7C38.0447 30.2149 38.3751 30.0778 38.6189 29.8341C38.8626 29.5904 38.9997 29.2599 39 28.9152V2.30002C38.9997 1.95534 38.8626 1.62487 38.6189 1.38114C38.3751 1.13741 38.0447 1.00034 37.7 1ZM2.30002 2.01333H37.7C37.7762 2.01432 37.849 2.045 37.903 2.09886C37.9569 2.15272 37.9877 2.2255 37.9888 2.30171V25.2356H2.01333V2.30002C2.01485 2.22446 2.04553 2.15242 2.09898 2.09898C2.15242 2.04553 2.22446 2.01485 2.30002 2.01333ZM29.8711 37.0941C29.87 37.3311 29.7752 37.5579 29.6073 37.7252C29.4394 37.8924 29.2122 37.9864 28.9752 37.9867H11.0248C10.7905 37.9816 10.5675 37.8849 10.4036 37.7174C10.2397 37.5499 10.1479 37.3249 10.1479 37.0905C10.1479 36.8561 10.2397 36.6311 10.4036 36.4636C10.5675 36.2961 10.7905 36.1994 11.0248 36.1943H28.9752C29.2128 36.1947 29.4405 36.2892 29.6085 36.4573C29.7765 36.6253 29.8709 36.8531 29.8711 37.0907V37.0941ZM25.8368 35.1865H14.1632C14.9785 34.625 15.6562 33.8862 16.1454 33.0256C16.6345 32.165 16.9226 31.2047 16.9879 30.2169H23.0121C23.0777 31.2044 23.3658 32.1643 23.855 33.0247C24.3442 33.885 25.0217 34.6235 25.8368 35.1848V35.1865ZM37.7 29.2044H2.30002C2.22381 29.2035 2.15098 29.1728 2.09704 29.1189C2.04311 29.0651 2.01232 28.9923 2.01122 28.9161V26.2489H37.9888V28.9169C37.9875 28.993 37.9566 29.0655 37.9027 29.1192C37.8488 29.1729 37.7761 29.2035 37.7 29.2044ZM15.193 17.6841L12.9844 18.9596H10.3353C10.201 18.9596 10.0721 19.013 9.97707 19.108C9.88205 19.2031 9.82867 19.3319 9.82867 19.4663V22.2504C9.82867 22.3848 9.88205 22.5137 9.97707 22.6087C10.0721 22.7037 10.201 22.7571 10.3353 22.7571H13.1199C13.2543 22.7571 13.3831 22.7037 13.4782 22.6087C13.5732 22.5137 13.6266 22.3848 13.6266 22.2504V19.7593L15.7001 18.5623L19.7467 20.8976H19.7505C19.7685 20.9078 19.7871 20.917 19.8062 20.9251H19.8096C19.8271 20.9322 19.845 20.9383 19.8632 20.9432L19.8784 20.947C19.8934 20.9509 19.9086 20.9539 19.924 20.9559L19.9396 20.9584C19.9794 20.9635 20.0197 20.9635 20.0595 20.9584L20.0752 20.9559C20.0905 20.9539 20.1057 20.9509 20.1208 20.947L20.136 20.9432C20.1542 20.9382 20.1721 20.9321 20.1896 20.9251H20.193C20.212 20.917 20.2306 20.9078 20.2487 20.8976H20.2525L24.3008 18.5602L26.3739 19.7572V22.2483C26.3739 22.3149 26.387 22.3808 26.4124 22.4422C26.4379 22.5037 26.4752 22.5596 26.5223 22.6066C26.5693 22.6536 26.6252 22.691 26.6866 22.7164C26.7481 22.7419 26.814 22.755 26.8805 22.755H29.6647C29.7312 22.755 29.7971 22.7419 29.8586 22.7164C29.92 22.691 29.9759 22.6536 30.0229 22.6066C30.07 22.5596 30.1073 22.5037 30.1328 22.4422C30.1582 22.3808 30.1713 22.3149 30.1713 22.2483V19.4655C30.1713 19.3989 30.1582 19.333 30.1328 19.2716C30.1073 19.2101 30.07 19.1542 30.0229 19.1072C29.9759 19.0602 29.92 19.0228 29.8586 18.9974C29.7971 18.9719 29.7312 18.9588 29.6647 18.9588H27.0156L24.8066 17.6837V13.0055C24.8062 12.9849 24.8048 12.9643 24.8024 12.9438V12.9396C24.7998 12.9211 24.7961 12.9028 24.7914 12.8847L24.7872 12.8695C24.7829 12.8547 24.7779 12.8404 24.7724 12.8273L24.7665 12.8121C24.7589 12.794 24.7501 12.7763 24.7403 12.7593C24.7306 12.7423 24.7197 12.7259 24.7078 12.7103L24.6976 12.6977C24.6879 12.6858 24.6778 12.674 24.6677 12.663L24.6563 12.6516C24.6429 12.6386 24.6288 12.6263 24.614 12.6149L24.6107 12.612C24.5942 12.5997 24.5769 12.5883 24.5596 12.5778L24.5558 12.5752L20.5067 10.2348V8.05407H21.3933C21.5277 8.05407 21.6566 8.00069 21.7516 7.90567C21.8466 7.81065 21.9 7.68178 21.9 7.5474V4.76411C21.9 4.62973 21.8466 4.50086 21.7516 4.40584C21.6566 4.31083 21.5277 4.25744 21.3933 4.25744H18.6067C18.4723 4.25744 18.3434 4.31083 18.2484 4.40584C18.1534 4.50086 18.1 4.62973 18.1 4.76411V7.54824C18.1 7.68262 18.1534 7.81149 18.2484 7.90651C18.3434 8.00153 18.4723 8.05491 18.6067 8.05491H19.4933V10.2357L15.4451 12.5727L15.4417 12.5752C15.4238 12.5857 15.4066 12.5973 15.3902 12.6098L15.3868 12.6124C15.372 12.6239 15.3579 12.6363 15.3446 12.6495L15.3336 12.6605C15.323 12.6715 15.3129 12.6833 15.3032 12.6951L15.2931 12.7078C15.2811 12.7234 15.2703 12.7397 15.2606 12.7568C15.251 12.7739 15.2424 12.7915 15.2348 12.8096L15.2289 12.8248C15.2234 12.8391 15.2183 12.8535 15.2141 12.867L15.2099 12.8822C15.2052 12.9002 15.2015 12.9186 15.1989 12.9371V12.9413C15.1962 12.9617 15.1948 12.9823 15.1947 13.0029V17.6841H15.193ZM19.1133 5.27078H20.8867V7.04411H19.1133V5.27078ZM12.6141 21.7442H10.8407V19.9709H12.6141V21.7442ZM16.203 13.8858L19.4925 15.7858V19.5858L16.203 17.6858V13.8858ZM20 11.1105L23.2895 13.0105L20 14.9093L16.7105 13.0093L20 11.1105ZM20.5067 19.5837V15.7837L23.7962 13.8837V17.6837L20.5067 19.5837ZM27.3868 19.9709H29.1601V21.7442H27.3868V19.9709ZM4.55258 5.28471C4.55258 5.15033 4.60596 5.02146 4.70098 4.92644C4.796 4.83143 4.92487 4.77804 5.05924 4.77804H9.77716C9.8463 4.77357 9.91563 4.78333 9.98085 4.80672C10.0461 4.83011 10.1058 4.86662 10.1564 4.91401C10.2069 4.9614 10.2472 5.01865 10.2748 5.08223C10.3023 5.14581 10.3165 5.21437 10.3165 5.28366C10.3165 5.35295 10.3023 5.4215 10.2748 5.48508C10.2472 5.54866 10.2069 5.60591 10.1564 5.6533C10.1058 5.70069 10.0461 5.7372 9.98085 5.76059C9.91563 5.78398 9.8463 5.79374 9.77716 5.78927H5.05798C4.92419 5.78893 4.79596 5.73569 4.70127 5.64117C4.60659 5.54664 4.55313 5.4185 4.55258 5.28471ZM4.55258 8.21198C4.55258 8.0776 4.60596 7.94873 4.70098 7.85371C4.796 7.75869 4.92487 7.70531 5.05924 7.70531H11.2524C11.3868 7.70531 11.5156 7.75869 11.6107 7.85371C11.7057 7.94873 11.7591 8.0776 11.7591 8.21198C11.7591 8.34635 11.7057 8.47523 11.6107 8.57024C11.5156 8.66526 11.3868 8.71864 11.2524 8.71864H5.05798C4.92382 8.71831 4.79527 8.66478 4.70053 8.5698C4.60578 8.47482 4.55258 8.34613 4.55258 8.21198Z" fill="#105AB3" stroke="#105AB3" stroke-width="0.25"/>
</svg>
