<svg width="22" height="22" viewBox="0 0 22 22" fill="none" xmlns="http://www.w3.org/2000/svg">
<path d="M4 2C4 3.10457 3.10457 4 2 4C0.89543 4 0 3.10457 0 2C0 0.89543 0.89543 0 2 0C3.10457 0 4 0.89543 4 2Z" fill="#CECECE"/>
<path d="M4 11C4 12.1046 3.10457 13 2 13C0.89543 13 0 12.1046 0 11C0 9.89543 0.89543 9 2 9C3.10457 9 4 9.89543 4 11Z" fill="#CECECE"/>
<path d="M4 20C4 21.1046 3.10457 22 2 22C0.89543 22 0 21.1046 0 20C0 18.8954 0.89543 18 2 18C3.10457 18 4 18.8954 4 20Z" fill="#CECECE"/>
<path d="M6 2C6 0.895431 6.89543 0 8 0H20C21.1046 0 22 0.895431 22 2C22 3.10457 21.1046 4 20 4H8C6.89543 4 6 3.10457 6 2Z" fill="#CECECE"/>
<path d="M6 11C6 9.89543 6.89543 9 8 9H20C21.1046 9 22 9.89543 22 11C22 12.1046 21.1046 13 20 13H8C6.89543 13 6 12.1046 6 11Z" fill="#CECECE"/>
<path d="M6 20C6 18.8954 6.89543 18 8 18H20C21.1046 18 22 18.8954 22 20C22 21.1046 21.1046 22 20 22H8C6.89543 22 6 21.1046 6 20Z" fill="#CECECE"/>
</svg>
