<svg width="50" height="50" viewBox="0 0 50 50" fill="none" xmlns="http://www.w3.org/2000/svg">
<g style="mix-blend-mode:multiply">
<path d="M43.4967 18.9495C43.4953 18.9346 43.491 18.9197 43.4866 18.9047C43.4852 18.9007 43.4837 18.8966 43.4823 18.8939C43.4779 18.8803 43.4707 18.8668 43.4649 18.8546C43.4649 18.8532 43.4635 18.8519 43.4635 18.8505C43.4548 18.837 43.4447 18.8234 43.4346 18.8112C43.4331 18.8098 43.4317 18.8085 43.4317 18.8058C43.4302 18.8044 43.4288 18.8031 43.4288 18.8031C43.4172 18.7909 43.4057 18.78 43.3927 18.7705C43.3898 18.7692 43.3869 18.7665 43.384 18.7651C43.3782 18.761 43.3724 18.757 43.3652 18.7529L35.9393 14.3844V10.0429C35.9393 9.89377 35.8093 9.77175 35.6503 9.77175H28.0942L25.153 8.04169C25.0591 7.9861 24.9405 7.9861 24.8466 8.04169L21.9054 9.77175H14.3493C14.1903 9.77175 14.0602 9.89377 14.0602 10.0429V14.3858L6.63586 18.7515C6.63008 18.7556 6.62285 18.7596 6.61707 18.7637C6.61418 18.7651 6.61129 18.7678 6.6084 18.7691C6.59539 18.7786 6.58238 18.7908 6.57227 18.8017C6.57082 18.803 6.56937 18.8044 6.56937 18.8044C6.56793 18.8057 6.56648 18.8071 6.56648 18.8098C6.55492 18.822 6.54625 18.8356 6.53758 18.8491C6.53758 18.8505 6.53613 18.8518 6.53613 18.8532C6.52891 18.8654 6.52313 18.879 6.51879 18.8925C6.51734 18.8966 6.5159 18.9006 6.51445 18.9034C6.51012 18.9183 6.50578 18.9332 6.50434 18.9481V18.9562C6.50145 18.9644 6.5 18.9725 6.5 18.9806V41.7288C6.5 41.878 6.63008 42 6.78906 42H43.2109C43.3699 42 43.5 41.878 43.5 41.7288V18.9806C43.5 18.9725 43.4986 18.9644 43.4986 18.9562C43.4986 18.9549 43.4986 18.9522 43.4971 18.9495L43.4967 18.9495ZM35.3597 10.3141V24.8772L29.3055 29.6986L25.1907 26.2494C25.0809 26.1572 24.9147 26.1572 24.8048 26.2494L20.6901 29.6986L14.6358 24.8772L14.6387 10.3141H35.3597ZM20.2579 30.0617L7.07819 41.109V19.5677L20.2579 30.0617ZM24.9998 26.8133L42.4689 41.4578H7.52996L24.9998 26.8133ZM29.7421 30.0619L42.9218 19.5679V41.1106L29.7421 30.0619ZM35.9395 24.4161V15.0254L42.7223 19.0143L35.9395 24.4161ZM22.994 9.77183L25.0001 8.59227L27.0062 9.77183H22.994ZM14.0604 24.415L7.27762 19.0136L14.0604 15.0248V24.415Z" fill="#105AB3"/>
<path d="M18.3876 19.8106C18.6101 20.2499 19.051 20.5753 19.577 20.6634V23.8171C19.577 25.0617 20.5627 26.0746 21.7739 26.0746C22.985 26.0746 23.9707 25.0617 23.9707 23.8171V20.6878H24.1312C24.8192 20.6878 25.9046 20.9604 26.5 21.283L30.9674 23.7019C31.1928 23.8239 31.4168 23.8863 31.6308 23.8863C31.9083 23.8863 32.1554 23.7778 32.3245 23.5798C32.4835 23.3927 32.5688 23.1351 32.5688 22.8341L32.5673 12.942C32.5673 12.3129 32.1901 11.8912 31.6293 11.8912C31.4154 11.8912 31.1928 11.9536 30.9659 12.0756L26.4986 14.4944C25.9031 14.8171 24.8177 15.0896 24.1297 15.0896H19.8647C19.2129 15.0896 18.6492 15.4489 18.3862 15.9668C17.3152 16.0306 16.4639 16.8671 16.4639 17.8881C16.4654 18.909 17.3166 19.7469 18.3876 19.8106ZM19.8661 15.632H24.1311C24.9173 15.632 26.1097 15.3323 26.789 14.9635L31.2563 12.5447C31.3922 12.4715 31.5208 12.4322 31.6307 12.4322C31.9544 12.4322 31.9906 12.7874 31.9906 12.9406V22.8342C31.9906 23.0077 31.9486 23.1514 31.8735 23.2396C31.8142 23.3087 31.7347 23.3426 31.6307 23.3426C31.5208 23.3426 31.3922 23.3033 31.2563 23.2301L26.789 20.8112C26.1083 20.4425 24.9159 20.1428 24.1311 20.1428H19.8661C19.2822 20.1428 18.8081 19.6981 18.8081 19.1503V16.6231C18.8081 16.0767 19.2822 15.632 19.8661 15.632ZM21.7739 25.5311C20.8807 25.5311 20.1551 24.7623 20.1551 23.816V20.6867H23.3941V23.816C23.3941 24.7623 22.6671 25.5311 21.7739 25.5311ZM18.2329 19.2456C17.5565 19.1208 17.0434 18.5595 17.0434 17.8884C17.0434 17.2172 17.5551 16.6559 18.2329 16.5311C18.2314 16.5623 18.23 16.5935 18.23 16.6247V19.152C18.23 19.1845 18.2314 19.2144 18.2329 19.2456Z" fill="#105AB3"/>
<path d="M43.4967 18.9495L43.1235 18.9857L43.1595 19.357L43.531 19.3229L43.4967 18.9495ZM43.4866 18.9047L43.8467 18.8001L43.8436 18.7895L43.84 18.7792L43.4866 18.9047ZM43.4823 18.8939L43.1251 19.0081L43.1354 19.0404L43.1514 19.0703L43.4823 18.8939ZM43.4649 18.8546H43.0899V18.9389L43.126 19.0151L43.4649 18.8546ZM43.4635 18.8505H43.8385V18.7408L43.7794 18.6485L43.4635 18.8505ZM43.4346 18.8112L43.7233 18.5718L43.7083 18.5538L43.6912 18.5377L43.4346 18.8112ZM43.4317 18.8058H43.8067V18.6434L43.6883 18.5323L43.4317 18.8058ZM43.4288 18.8031L43.1566 19.061L43.1642 19.069L43.1722 19.0766L43.4288 18.8031ZM43.3927 18.7705L43.6137 18.4676L43.5846 18.4463L43.5519 18.431L43.3927 18.7705ZM43.384 18.7651L43.1682 19.0718L43.1951 19.0907L43.2248 19.1046L43.384 18.7651ZM43.3652 18.7529L43.175 19.0762L43.1813 19.0797L43.3652 18.7529ZM35.9393 14.3844H35.5643V14.5988L35.7492 14.7076L35.9393 14.3844ZM28.0942 9.77175L27.9041 10.095L27.9921 10.1467H28.0942V9.77175ZM25.153 8.04169L24.962 8.36443L24.9629 8.36492L25.153 8.04169ZM24.8466 8.04169L25.0367 8.36492L25.0376 8.36442L24.8466 8.04169ZM21.9054 9.77175V10.1467H22.0075L22.0955 10.095L21.9054 9.77175ZM14.0602 14.3858L14.2503 14.709L14.4352 14.6003V14.3858H14.0602ZM6.63586 18.7515L6.44578 18.4282L6.4326 18.436L6.42009 18.4448L6.63586 18.7515ZM6.61707 18.7637L6.77632 19.1032L6.80602 19.0893L6.83286 19.0704L6.61707 18.7637ZM6.6084 18.7691L6.44915 18.4296L6.4165 18.4449L6.38737 18.4662L6.6084 18.7691ZM6.57227 18.8017L6.82883 19.0752L6.83796 19.0666L6.84649 19.0575L6.57227 18.8017ZM6.56937 18.8044L6.82594 19.0779L6.82609 19.0777L6.56937 18.8044ZM6.56648 18.8098L6.8387 19.0677L6.94148 18.9592V18.8098H6.56648ZM6.53758 18.8491L6.22167 18.6471L6.16258 18.7395V18.8491H6.53758ZM6.53613 18.8532L6.8588 19.0443L6.91113 18.9559V18.8532H6.53613ZM6.51879 18.8925L6.87232 19.0181L6.87597 19.0067L6.51879 18.8925ZM6.51445 18.9034L6.18353 18.727L6.16523 18.7613L6.15436 18.7987L6.51445 18.9034ZM6.50434 18.9481L6.13108 18.9119L6.12934 18.93V18.9481H6.50434ZM6.50434 18.9562L6.85769 19.0818L6.87934 19.0209V18.9562H6.50434ZM43.4971 18.9495L43.828 18.7731L43.7109 18.5533L43.4629 18.576L43.4971 18.9495ZM35.3597 10.3141H35.7347V9.93914H35.3597V10.3141ZM35.3597 24.8772L35.5933 25.1705L35.7347 25.0579V24.8772H35.3597ZM29.3055 29.6986L29.0646 29.986L29.2994 30.1829L29.5391 29.992L29.3055 29.6986ZM25.1907 26.2494L24.9496 26.5366L24.9498 26.5368L25.1907 26.2494ZM24.8048 26.2494L25.0457 26.5368L25.0459 26.5366L24.8048 26.2494ZM20.6901 29.6986L20.4564 29.992L20.6961 30.1829L20.931 29.986L20.6901 29.6986ZM14.6358 24.8772L14.2608 24.8771L14.2607 25.0579L14.4022 25.1705L14.6358 24.8772ZM14.6387 10.3141V9.93914H14.2637L14.2637 10.3141L14.6387 10.3141ZM20.2579 30.0617L20.4988 30.3491L20.8506 30.0542L20.4915 29.7683L20.2579 30.0617ZM7.07819 41.109H6.70319V41.9127L7.31908 41.3964L7.07819 41.109ZM7.07819 19.5677L7.31177 19.2743L6.70319 18.7897V19.5677H7.07819ZM24.9998 26.8133L25.2407 26.5259L24.9998 26.324L24.7589 26.5259L24.9998 26.8133ZM42.4689 41.4578V41.8328H43.4999L42.7098 41.1705L42.4689 41.4578ZM7.52996 41.4578L7.28905 41.1705L6.49887 41.8328H7.52996V41.4578ZM29.7421 30.0619L29.5085 29.7685L29.1494 30.0544L29.5011 30.3493L29.7421 30.0619ZM42.9218 19.5679H43.2968V18.7899L42.6882 19.2745L42.9218 19.5679ZM42.9218 41.1106L42.6808 41.398L43.2968 41.9143V41.1106H42.9218ZM35.9395 24.4161H35.5645V25.1941L36.1731 24.7094L35.9395 24.4161ZM35.9395 15.0254L36.1296 14.7022L35.5645 14.3699V15.0254H35.9395ZM42.7223 19.0143L42.9559 19.3076L43.3828 18.9676L42.9124 18.691L42.7223 19.0143ZM22.994 9.77183L22.804 9.44857L21.6164 10.1468H22.994V9.77183ZM25.0001 8.59227L25.1902 8.26901L25.0001 8.15725L24.81 8.26901L25.0001 8.59227ZM27.0062 9.77183V10.1468H28.3838L27.1963 9.44857L27.0062 9.77183ZM14.0604 24.415L13.8268 24.7084L14.4354 25.193V24.415H14.0604ZM7.27762 19.0136L7.08752 18.6903L6.61711 18.9669L7.04401 19.3069L7.27762 19.0136ZM14.0604 15.0248H14.4354V14.3692L13.8703 14.7015L14.0604 15.0248ZM18.3876 19.8106L18.7221 19.6411L18.6247 19.4491L18.4098 19.4363L18.3876 19.8106ZM19.577 20.6634H19.952V20.346L19.639 20.2936L19.577 20.6634ZM23.9707 20.6878V20.3128H23.5957V20.6878H23.9707ZM26.5 21.283L26.3213 21.6127L26.3215 21.6128L26.5 21.283ZM30.9674 23.7019L30.7888 24.0316L30.7889 24.0317L30.9674 23.7019ZM32.3245 23.5798L32.6097 23.8234L32.6103 23.8227L32.3245 23.5798ZM32.5688 22.8341H32.9438V22.8341L32.5688 22.8341ZM32.5673 12.942H32.1923V12.942L32.5673 12.942ZM30.9659 12.0756L30.7883 11.7453L30.7874 11.7458L30.9659 12.0756ZM26.4986 14.4944L26.32 14.1647L26.3199 14.1647L26.4986 14.4944ZM18.3862 15.9668L18.4085 16.3412L18.6232 16.3284L18.7205 16.1366L18.3862 15.9668ZM16.4639 17.8881H16.0889L16.0889 17.8886L16.4639 17.8881ZM26.789 14.9635L26.6104 14.6338L26.6101 14.634L26.789 14.9635ZM31.2563 12.5447L31.0784 12.2146L31.0778 12.2149L31.2563 12.5447ZM31.8735 23.2396L32.1582 23.4836L32.1588 23.4829L31.8735 23.2396ZM31.2563 23.2301L31.0778 23.5598L31.0784 23.5602L31.2563 23.2301ZM26.789 20.8112L26.6104 21.141L26.6104 21.141L26.789 20.8112ZM20.1551 20.6867V20.3117H19.7801V20.6867H20.1551ZM23.3941 20.6867H23.7691V20.3117H23.3941V20.6867ZM18.2329 19.2456L18.1649 19.6143L18.6294 19.7L18.6075 19.2282L18.2329 19.2456ZM18.2329 16.5311L18.6075 16.5485L18.6294 16.0769L18.165 16.1623L18.2329 16.5311ZM43.87 18.9133C43.8646 18.8574 43.8491 18.8083 43.8467 18.8001L43.1265 19.0094C43.1277 19.0135 43.1282 19.0152 43.1286 19.0166C43.1289 19.0177 43.1287 19.0171 43.1283 19.0154C43.1276 19.0124 43.125 19.0015 43.1235 18.9857L43.87 18.9133ZM43.84 18.7792C43.8396 18.7783 43.8371 18.771 43.8341 18.7633C43.8316 18.7568 43.8245 18.7387 43.8132 18.7175L43.1514 19.0703C43.1459 19.06 43.142 19.0516 43.1398 19.0464C43.1374 19.041 43.1357 19.0368 43.1348 19.0344C43.1332 19.0303 43.1321 19.0271 43.1333 19.0303L43.84 18.7792ZM43.8395 18.7797C43.8304 18.7513 43.8201 18.7284 43.8142 18.7157C43.8111 18.709 43.8083 18.7031 43.8066 18.6997C43.8045 18.6954 43.8042 18.6947 43.8038 18.694L43.126 19.0151C43.1286 19.0205 43.1313 19.0261 43.1323 19.0282C43.1338 19.0312 43.1341 19.0318 43.1341 19.0318C43.134 19.0316 43.1329 19.0293 43.1315 19.0257C43.13 19.0221 43.1276 19.0161 43.1251 19.0081L43.8395 18.7797ZM43.8399 18.8546C43.8399 18.8211 43.8355 18.792 43.8301 18.7689C43.8247 18.7461 43.8182 18.7275 43.8129 18.7144C43.8077 18.7013 43.8028 18.6911 43.7999 18.6854C43.7984 18.6824 43.7972 18.68 43.7964 18.6786C43.796 18.6778 43.7957 18.6772 43.7955 18.6768C43.7954 18.6766 43.7953 18.6765 43.7952 18.6764C43.7952 18.6763 43.7951 18.6762 43.7951 18.6762C43.795 18.6759 43.7955 18.6769 43.7961 18.6781C43.7968 18.6793 43.798 18.6816 43.7994 18.6844C43.8021 18.6898 43.8068 18.6996 43.8119 18.7123C43.817 18.7251 43.8235 18.7433 43.8288 18.7659C43.8341 18.7886 43.8385 18.8173 43.8385 18.8505H43.0885C43.0885 18.884 43.093 18.9131 43.0984 18.9362C43.1037 18.9591 43.1103 18.9776 43.1155 18.9907C43.1207 19.0038 43.1256 19.014 43.1285 19.0197C43.13 19.0227 43.1312 19.0251 43.132 19.0265C43.1324 19.0273 43.1327 19.0279 43.1329 19.0283C43.133 19.0285 43.1331 19.0286 43.1332 19.0287C43.1332 19.0288 43.1333 19.0289 43.1333 19.0289C43.1334 19.0292 43.1329 19.0282 43.1323 19.027C43.1316 19.0257 43.1304 19.0235 43.129 19.0207C43.1263 19.0153 43.1216 19.0055 43.1165 18.9928C43.1114 18.98 43.1049 18.9618 43.0997 18.9392C43.0944 18.9164 43.0899 18.8878 43.0899 18.8546H43.8399ZM43.7794 18.6485C43.7611 18.6198 43.7415 18.5938 43.7233 18.5718L43.1459 19.0505C43.1467 19.0515 43.1474 19.0524 43.1479 19.053C43.1484 19.0537 43.1483 19.0536 43.1476 19.0526L43.7794 18.6485ZM43.6912 18.5377C43.6849 18.5318 43.7197 18.5619 43.7485 18.6069C43.785 18.664 43.8067 18.7327 43.8067 18.8058H43.0567C43.0567 18.9829 43.1762 19.083 43.178 19.0847L43.6912 18.5377ZM43.6883 18.5323C43.6862 18.5303 43.6882 18.5322 43.6863 18.5304C43.6859 18.5301 43.6859 18.53 43.6856 18.5298C43.6856 18.5298 43.6856 18.5298 43.6856 18.5298C43.6856 18.5298 43.6856 18.5298 43.6856 18.5298C43.6854 18.5296 43.6857 18.5299 43.6856 18.5297C43.6855 18.5297 43.6856 18.5298 43.6855 18.5297C43.6855 18.5297 43.6855 18.5297 43.6855 18.5297C43.6855 18.5297 43.6855 18.5297 43.6855 18.5297C43.6855 18.5297 43.6855 18.5297 43.6855 18.5297C43.6855 18.5297 43.6855 18.5297 43.6855 18.5297C43.6855 18.5296 43.6856 18.5298 43.6855 18.5297C43.6855 18.5296 43.6855 18.5297 43.6855 18.5297C43.6855 18.5297 43.6855 18.5296 43.6855 18.5296C43.6854 18.5296 43.6854 18.5296 43.6854 18.5296C43.6854 18.5296 43.6854 18.5296 43.6854 18.5296C43.6854 18.5296 43.6854 18.5296 43.6854 18.5296C43.6854 18.5296 43.6854 18.5296 43.6854 18.5296C43.6854 18.5296 43.6854 18.5296 43.6854 18.5296C43.6854 18.5296 43.6854 18.5296 43.6854 18.5296C43.6854 18.5296 43.6854 18.5296 43.4288 18.8031C43.1722 19.0766 43.1722 19.0766 43.1722 19.0766C43.1722 19.0766 43.1722 19.0766 43.1722 19.0766C43.1722 19.0766 43.1722 19.0766 43.1722 19.0766C43.1722 19.0766 43.1722 19.0766 43.1722 19.0766C43.1722 19.0766 43.1723 19.0766 43.1723 19.0766C43.1723 19.0766 43.1722 19.0766 43.1723 19.0766C43.1723 19.0766 43.1724 19.0767 43.1724 19.0767C43.1724 19.0767 43.1724 19.0767 43.1725 19.0768C43.1729 19.0772 43.1722 19.0765 43.1726 19.0769C43.173 19.0773 43.1723 19.0766 43.1728 19.0771C43.1729 19.0772 43.1728 19.0771 43.1729 19.0772C43.1885 19.0918 43.1575 19.0628 43.1731 19.0774C43.1745 19.0787 43.1736 19.0778 43.1751 19.0793L43.6883 18.5323ZM43.701 18.5451C43.6801 18.5231 43.6513 18.495 43.6137 18.4676L43.1716 19.0735C43.1601 19.065 43.1544 19.0586 43.1566 19.061L43.701 18.5451ZM43.5519 18.431C43.5623 18.4359 43.571 18.4406 43.5777 18.4444C43.5844 18.4482 43.5899 18.4516 43.5937 18.4541C43.5976 18.4566 43.6006 18.4587 43.6022 18.4598C43.6036 18.4607 43.6047 18.4615 43.6041 18.4611C43.604 18.461 43.6021 18.4597 43.6 18.4582C43.5977 18.4567 43.594 18.4541 43.5894 18.4512C43.5848 18.4482 43.5786 18.4444 43.5712 18.4401C43.5638 18.4359 43.5544 18.4308 43.5432 18.4256L43.2248 19.1046C43.2144 19.0997 43.2057 19.0951 43.199 19.0912C43.1923 19.0874 43.1868 19.084 43.1829 19.0815C43.179 19.079 43.1761 19.0769 43.1745 19.0759C43.1731 19.0749 43.1719 19.0741 43.1726 19.0745C43.1726 19.0746 43.1745 19.0759 43.1767 19.0774C43.179 19.079 43.1827 19.0815 43.1873 19.0844C43.1919 19.0874 43.1981 19.0913 43.2055 19.0955C43.2129 19.0998 43.2223 19.1048 43.2334 19.11L43.5519 18.431ZM43.5998 18.4584C43.5947 18.4548 43.5748 18.4406 43.5492 18.4261L43.1813 19.0797C43.1701 19.0734 43.1617 19.0672 43.1682 19.0718L43.5998 18.4584ZM43.5554 18.4297L36.1295 14.0611L35.7492 14.7076L43.1751 19.0761L43.5554 18.4297ZM36.3143 14.3844V10.0429H35.5643V14.3844H36.3143ZM36.3143 10.0429C36.3143 9.66445 35.9934 9.39675 35.6503 9.39675V10.1467C35.6331 10.1467 35.614 10.14 35.5979 10.1249C35.5814 10.1095 35.5643 10.0808 35.5643 10.0429H36.3143ZM35.6503 9.39675H28.0942V10.1467H35.6503V9.39675ZM28.2843 9.44852L25.3431 7.71846L24.9629 8.36492L27.9041 10.095L28.2843 9.44852ZM25.344 7.71896C25.1322 7.59368 24.8673 7.59368 24.6556 7.71896L25.0376 8.36442C25.0137 8.37853 24.9859 8.37852 24.962 8.36442L25.344 7.71896ZM24.6565 7.71846L21.7153 9.44852L22.0955 10.095L25.0367 8.36492L24.6565 7.71846ZM21.9054 9.39675H14.3493V10.1467H21.9054V9.39675ZM14.3493 9.39675C14.0061 9.39675 13.6852 9.66445 13.6852 10.0429H14.4352C14.4352 10.0808 14.4182 10.1095 14.4017 10.1249C14.3856 10.14 14.3665 10.1467 14.3493 10.1467V9.39675ZM13.6852 10.0429V14.3858H14.4352V10.0429H13.6852ZM13.8702 14.0625L6.44578 18.4282L6.82594 19.0748L14.2503 14.709L13.8702 14.0625ZM6.42009 18.4448C6.42439 18.4418 6.42754 18.4397 6.42844 18.4392C6.42921 18.4387 6.42963 18.4384 6.42763 18.4397C6.42638 18.4404 6.4227 18.4427 6.41876 18.4453C6.4147 18.4479 6.40848 18.452 6.40128 18.457L6.83286 19.0704C6.82855 19.0734 6.8254 19.0755 6.8245 19.076C6.82373 19.0765 6.8233 19.0768 6.82529 19.0756C6.82655 19.0748 6.83022 19.0725 6.83416 19.0699C6.83822 19.0673 6.84443 19.0633 6.85162 19.0582L6.42009 18.4448ZM6.45782 18.4242C6.44671 18.4294 6.43731 18.4345 6.42988 18.4387C6.42244 18.443 6.41625 18.4468 6.41165 18.4498C6.40706 18.4528 6.40336 18.4553 6.40107 18.4569C6.39893 18.4583 6.39705 18.4597 6.39695 18.4597C6.39633 18.4602 6.39748 18.4593 6.3989 18.4584C6.40047 18.4573 6.40345 18.4553 6.40731 18.4528C6.41119 18.4503 6.41666 18.4468 6.42337 18.443C6.43008 18.4392 6.43876 18.4345 6.44915 18.4296L6.76764 19.1086C6.77875 19.1034 6.78816 19.0984 6.79559 19.0941C6.80303 19.0899 6.80922 19.086 6.81382 19.083C6.81841 19.0801 6.82211 19.0776 6.8244 19.076C6.82654 19.0745 6.82842 19.0732 6.82852 19.0731C6.82914 19.0727 6.82799 19.0735 6.82657 19.0745C6.825 19.0756 6.82202 19.0776 6.81815 19.0801C6.81428 19.0826 6.80881 19.086 6.8021 19.0898C6.79539 19.0937 6.7867 19.0983 6.77632 19.1032L6.45782 18.4242ZM6.38737 18.4662C6.35015 18.4934 6.31947 18.5229 6.29804 18.5459L6.84649 19.0575C6.84497 19.0591 6.84351 19.0605 6.84171 19.0622C6.84011 19.0636 6.83608 19.0672 6.82943 19.0721L6.38737 18.4662ZM6.3157 18.5282C6.31493 18.5289 6.31417 18.5296 6.31361 18.5301C6.31333 18.5304 6.3131 18.5306 6.31293 18.5308C6.31285 18.5309 6.31278 18.5309 6.31273 18.531C6.31271 18.531 6.31269 18.531 6.31268 18.531C6.31267 18.531 6.31267 18.531 6.31267 18.531C6.31266 18.531 6.31266 18.531 6.31266 18.531C6.31266 18.531 6.31266 18.531 6.31266 18.531C6.31266 18.531 6.31266 18.531 6.31266 18.531C6.31266 18.531 6.31266 18.531 6.31266 18.531C6.31266 18.531 6.31266 18.531 6.56937 18.8044C6.82609 19.0777 6.82609 19.0777 6.82609 19.0777C6.82609 19.0777 6.82609 19.0777 6.82609 19.0777C6.82609 19.0777 6.82609 19.0777 6.82609 19.0777C6.82609 19.0777 6.82609 19.0777 6.82609 19.0777C6.82609 19.0777 6.82609 19.0777 6.82609 19.0777C6.82609 19.0777 6.8261 19.0777 6.8261 19.0777C6.82611 19.0777 6.82613 19.0777 6.82614 19.0777C6.82618 19.0776 6.82624 19.0776 6.82632 19.0775C6.82647 19.0774 6.82668 19.0772 6.82694 19.0769C6.82747 19.0764 6.82815 19.0758 6.82883 19.0752L6.3157 18.5282ZM6.31281 18.5309C6.31109 18.5325 6.19148 18.6326 6.19148 18.8098H6.94148C6.94148 18.8829 6.91976 18.9516 6.88327 19.0087C6.85448 19.0537 6.81962 19.0838 6.82594 19.0779L6.31281 18.5309ZM6.29427 18.5519C6.25439 18.594 6.22769 18.6377 6.22167 18.6471L6.85348 19.0512C6.85586 19.0475 6.85679 19.046 6.85753 19.0449C6.85813 19.044 6.85771 19.0446 6.85662 19.0462C6.85441 19.0493 6.84836 19.0575 6.8387 19.0677L6.29427 18.5519ZM6.16258 18.8491C6.16258 18.8159 6.167 18.7873 6.17231 18.7645C6.17756 18.742 6.18404 18.7237 6.18914 18.711C6.19422 18.6982 6.19898 18.6884 6.20166 18.683C6.20307 18.6802 6.20423 18.678 6.20491 18.6767C6.20553 18.6755 6.20606 18.6745 6.20592 18.6748C6.20591 18.6748 6.20586 18.6749 6.20581 18.675C6.20575 18.6751 6.20567 18.6753 6.20556 18.6755C6.20536 18.6758 6.20503 18.6765 6.20464 18.6772C6.20388 18.6787 6.20262 18.6811 6.20113 18.6841C6.19828 18.6898 6.19336 18.6999 6.18814 18.713C6.18291 18.7261 6.17632 18.7447 6.17099 18.7675C6.1656 18.7906 6.16113 18.8197 6.16113 18.8532H6.91113C6.91113 18.8864 6.90671 18.9151 6.9014 18.9378C6.89615 18.9604 6.88967 18.9786 6.88457 18.9914C6.87949 19.0041 6.87473 19.0139 6.87205 19.0193C6.87064 19.0221 6.86948 19.0243 6.8688 19.0256C6.86818 19.0268 6.86765 19.0278 6.8678 19.0275C6.8678 19.0275 6.86785 19.0274 6.8679 19.0273C6.86796 19.0272 6.86804 19.0271 6.86815 19.0269C6.86835 19.0265 6.86868 19.0259 6.86907 19.0251C6.86984 19.0237 6.87109 19.0212 6.87258 19.0182C6.87543 19.0125 6.88035 19.0024 6.88557 18.9893C6.8908 18.9762 6.89739 18.9577 6.90272 18.9348C6.90811 18.9117 6.91258 18.8826 6.91258 18.8491H6.16258ZM6.21347 18.6621C6.18948 18.7026 6.17296 18.7428 6.16161 18.7783L6.87597 19.0067C6.87329 19.0151 6.86833 19.0282 6.8588 19.0443L6.21347 18.6621ZM6.16544 18.7669C6.16431 18.7701 6.16542 18.7669 6.16697 18.7629C6.16791 18.7605 6.1696 18.7562 6.17196 18.7508C6.17422 18.7457 6.17806 18.7372 6.18353 18.727L6.84538 19.0797C6.85667 19.0586 6.86376 19.0405 6.86627 19.034C6.86927 19.0262 6.87182 19.019 6.87214 19.0181L6.16544 18.7669ZM6.15436 18.7987C6.15196 18.8069 6.1365 18.856 6.13108 18.9119L6.87759 18.9843C6.87605 19.0001 6.8735 19.011 6.87277 19.014C6.87236 19.0157 6.87217 19.0163 6.87249 19.0152C6.87287 19.0138 6.87336 19.0121 6.87454 19.008L6.15436 18.7987ZM6.12934 18.9481V18.9562H6.87934V18.9481H6.12934ZM6.15098 18.8307C6.13465 18.8766 6.125 18.9272 6.125 18.9806H6.875C6.875 19.0179 6.86824 19.0521 6.85769 19.0818L6.15098 18.8307ZM6.125 18.9806V41.7288H6.875V18.9806H6.125ZM6.125 41.7288C6.125 42.1073 6.4459 42.375 6.78906 42.375V41.625C6.80623 41.625 6.82534 41.6317 6.84148 41.6469C6.85794 41.6623 6.875 41.6909 6.875 41.7288H6.125ZM6.78906 42.375H43.2109V41.625H6.78906V42.375ZM43.2109 42.375C43.5541 42.375 43.875 42.1073 43.875 41.7288H43.125C43.125 41.6909 43.1421 41.6623 43.1585 41.6469C43.1747 41.6317 43.1938 41.625 43.2109 41.625V42.375ZM43.875 41.7288V18.9806H43.125V41.7288H43.875ZM43.875 18.9806C43.875 18.9677 43.8744 18.9569 43.8739 18.9496C43.8735 18.9428 43.8729 18.9366 43.8728 18.9353C43.8726 18.9325 43.8728 18.9346 43.873 18.9374C43.8732 18.9407 43.8736 18.9474 43.8736 18.9562H43.1236C43.1236 18.9691 43.1241 18.98 43.1246 18.9873C43.1251 18.9941 43.1256 19.0003 43.1257 19.0016C43.126 19.0043 43.1258 19.0023 43.1256 18.9995C43.1254 18.9962 43.125 18.9895 43.125 18.9806H43.875ZM43.8736 18.9562C43.8736 18.9507 43.8768 18.8647 43.828 18.7731L43.1662 19.1258C43.1424 19.0812 43.1322 19.0398 43.1276 19.0098C43.1253 18.9947 43.1244 18.9819 43.1239 18.9723C43.1235 18.9632 43.1236 18.9558 43.1236 18.9562H43.8736ZM43.4629 18.576L43.4625 18.5761L43.531 19.3229L43.5313 19.3229L43.4629 18.576ZM34.9847 10.3141V24.8772H35.7347V10.3141H34.9847ZM35.1261 24.5838L29.0718 29.4053L29.5391 29.992L35.5933 25.1705L35.1261 24.5838ZM29.5464 29.4113L25.4316 25.962L24.9498 26.5368L29.0646 29.986L29.5464 29.4113ZM25.4318 25.9622C25.1825 25.7529 24.813 25.753 24.5637 25.9621L25.0459 26.5366C25.029 26.5508 25.0111 26.5553 24.9978 26.5553C24.9844 26.5553 24.9666 26.5508 24.9496 26.5366L25.4318 25.9622ZM24.5639 25.962L20.4491 29.4113L20.931 29.986L25.0457 26.5368L24.5639 25.962ZM20.9237 29.4053L14.8694 24.5838L14.4022 25.1705L20.4564 29.992L20.9237 29.4053ZM15.0108 24.8772L15.0137 10.3142L14.2637 10.3141L14.2608 24.8771L15.0108 24.8772ZM20.017 29.7743L6.83729 40.8216L7.31908 41.3964L20.4988 30.3491L20.017 29.7743ZM7.45319 41.109V19.5677H6.70319V41.109H7.45319ZM42.4689 41.0828H7.52996V41.8328H42.4689V41.0828ZM29.9756 30.3553L43.1553 19.8612L42.6882 19.2745L29.5085 29.7685L29.9756 30.3553ZM42.5468 19.5679V41.1106H43.2968V19.5679H42.5468ZM43.1627 40.8232L29.983 29.7745L29.5011 30.3493L42.6808 41.398L43.1627 40.8232ZM36.3145 24.4161V15.0254H35.5645V24.4161H36.3145ZM35.7494 15.3487L42.5322 19.3375L42.9124 18.691L36.1296 14.7022L35.7494 15.3487ZM42.4887 18.7209L35.7059 24.1227L36.1731 24.7094L42.9559 19.3076L42.4887 18.7209ZM23.1841 10.0951L25.1902 8.91553L24.81 8.26901L22.804 9.44857L23.1841 10.0951ZM24.81 8.91553L26.8161 10.0951L27.1963 9.44857L25.1902 8.26901L24.81 8.91553ZM27.0062 9.39683H22.994V10.1468H27.0062V9.39683ZM14.294 24.1217L7.51122 18.7202L7.04401 19.3069L13.8268 24.7084L14.294 24.1217ZM7.46771 19.3368L14.2505 15.348L13.8703 14.7015L7.08752 18.6903L7.46771 19.3368ZM13.6854 15.0248V24.415H14.4354V15.0248H13.6854ZM18.053 19.9801C18.3315 20.5297 18.876 20.9262 19.5151 21.0333L19.639 20.2936C19.2259 20.2244 18.8887 19.9701 18.7221 19.6411L18.053 19.9801ZM19.202 20.6634V23.8171H19.952V20.6634H19.202ZM19.202 23.8171C19.202 25.2592 20.3461 26.4496 21.7739 26.4496V25.6996C20.7794 25.6996 19.952 24.8643 19.952 23.8171H19.202ZM21.7739 26.4496C23.2017 26.4496 24.3457 25.2592 24.3457 23.8171H23.5957C23.5957 24.8643 22.7684 25.6996 21.7739 25.6996V26.4496ZM24.3457 23.8171V20.6878H23.5957V23.8171H24.3457ZM23.9707 21.0628H24.1312V20.3128H23.9707V21.0628ZM24.1312 21.0628C24.4338 21.0628 24.8447 21.1241 25.2589 21.2281C25.6735 21.3323 26.061 21.4717 26.3213 21.6127L26.6787 20.9533C26.3436 20.7717 25.8907 20.6135 25.4417 20.5007C24.9923 20.3879 24.5165 20.3128 24.1312 20.3128V21.0628ZM26.3215 21.6128L30.7888 24.0316L31.1459 23.3721L26.6786 20.9533L26.3215 21.6128ZM30.7889 24.0317C31.0582 24.1774 31.3431 24.2613 31.6308 24.2613V23.5113C31.4906 23.5113 31.3275 23.4704 31.1459 23.3721L30.7889 24.0317ZM31.6308 24.2613C32.0086 24.2613 32.3635 24.1116 32.6097 23.8234L32.0394 23.3363C31.9474 23.444 31.8079 23.5113 31.6308 23.5113V24.2613ZM32.6103 23.8227C32.8383 23.5543 32.9438 23.2047 32.9438 22.8341H32.1938C32.1938 23.0656 32.1287 23.2312 32.0388 23.337L32.6103 23.8227ZM32.9438 22.8341L32.9423 12.9419L32.1923 12.942L32.1938 22.8342L32.9438 22.8341ZM32.9423 12.942C32.9423 12.5534 32.8252 12.1961 32.5883 11.9309C32.3481 11.6619 32.0093 11.5162 31.6293 11.5162V12.2662C31.8101 12.2662 31.9404 12.3313 32.029 12.4305C32.1209 12.5334 32.1923 12.7014 32.1923 12.942H32.9423ZM31.6293 11.5162C31.3412 11.5162 31.0579 11.6003 30.7883 11.7453L31.1435 12.4059C31.3277 12.3068 31.4896 12.2662 31.6293 12.2662V11.5162ZM30.7874 11.7458L26.32 14.1647L26.6771 14.8242L31.1445 12.4054L30.7874 11.7458ZM26.3199 14.1647C26.0595 14.3058 25.672 14.4452 25.2574 14.5493C24.8432 14.6534 24.4323 14.7146 24.1297 14.7146V15.4646C24.515 15.4646 24.9909 15.3896 25.4402 15.2767C25.8892 15.1639 26.3421 15.0057 26.6772 14.8241L26.3199 14.1647ZM24.1297 14.7146H19.8647V15.4646H24.1297V14.7146ZM19.8647 14.7146C19.0753 14.7146 18.3804 15.1501 18.0518 15.797L18.7205 16.1366C18.9181 15.7478 19.3506 15.4646 19.8647 15.4646V14.7146ZM18.3639 15.5925C17.1176 15.6667 16.0889 16.6467 16.0889 17.8881H16.8389C16.8389 17.0876 17.5129 16.3945 18.4085 16.3412L18.3639 15.5925ZM16.0889 17.8886C16.0907 19.1291 17.1184 20.1108 18.3653 20.185L18.4098 19.4363C17.5147 19.383 16.8401 18.6889 16.8389 17.8875L16.0889 17.8886ZM19.8661 16.007H24.1311V15.257H19.8661V16.007ZM24.1311 16.007C24.9786 16.007 26.2326 15.6923 26.9679 15.2931L26.6101 14.634C25.9868 14.9724 24.856 15.257 24.1311 15.257V16.007ZM26.9675 15.2933L31.4349 12.8745L31.0778 12.2149L26.6104 14.6338L26.9675 15.2933ZM31.4342 12.8748C31.5383 12.8188 31.6045 12.8072 31.6307 12.8072V12.0572C31.4372 12.0572 31.2462 12.1242 31.0784 12.2146L31.4342 12.8748ZM31.6307 12.8072C31.6365 12.8072 31.6344 12.8079 31.627 12.8056C31.6194 12.8032 31.6106 12.7989 31.6024 12.793C31.5864 12.7813 31.5854 12.7727 31.5911 12.7852C31.5972 12.7983 31.6042 12.8211 31.6092 12.8536C31.614 12.8849 31.6156 12.916 31.6156 12.9406H32.3656C32.3656 12.8464 32.3562 12.6544 32.2729 12.4726C32.2291 12.3772 32.1584 12.2702 32.0445 12.1871C31.9265 12.101 31.7848 12.0572 31.6307 12.0572V12.8072ZM31.6156 12.9406V22.8342H32.3656V12.9406H31.6156ZM31.6156 22.8342C31.6156 22.8918 31.6085 22.9353 31.6 22.9646C31.5912 22.9948 31.5835 23.0017 31.5881 22.9962L32.1588 23.4829C32.3141 23.3008 32.3656 23.0553 32.3656 22.8342H31.6156ZM31.5887 22.9955C31.5912 22.9927 31.5955 22.9883 31.6019 22.9835C31.6084 22.9787 31.6154 22.9748 31.6222 22.9719C31.6364 22.9659 31.6419 22.9676 31.6307 22.9676V23.7176C31.8275 23.7176 32.0175 23.6477 32.1582 23.4836L31.5887 22.9955ZM31.6307 22.9676C31.6045 22.9676 31.5382 22.956 31.4343 22.9L31.0784 23.5602C31.2461 23.6506 31.4371 23.7176 31.6307 23.7176V22.9676ZM31.4349 22.9003L26.9675 20.4815L26.6104 21.141L31.0778 23.5598L31.4349 22.9003ZM26.9676 20.4815C26.2312 20.0826 24.9773 19.7678 24.1311 19.7678V20.5178C24.8545 20.5178 25.9854 20.8024 26.6104 21.141L26.9676 20.4815ZM24.1311 19.7678H19.8661V20.5178H24.1311V19.7678ZM19.8661 19.7678C19.4664 19.7678 19.1831 19.4688 19.1831 19.1503H18.4331C18.4331 19.9274 19.098 20.5178 19.8661 20.5178V19.7678ZM19.1831 19.1503V16.6231H18.4331V19.1503H19.1831ZM19.1831 16.6231C19.1831 16.3063 19.466 16.007 19.8661 16.007V15.257C19.0983 15.257 18.4331 15.847 18.4331 16.6231H19.1831ZM21.7739 25.1561C21.1079 25.1561 20.5301 24.576 20.5301 23.816H19.7801C19.7801 24.9487 20.6534 25.9061 21.7739 25.9061V25.1561ZM20.5301 23.816V20.6867H19.7801V23.816H20.5301ZM20.1551 21.0617H23.3941V20.3117H20.1551V21.0617ZM23.0191 20.6867V23.816H23.7691V20.6867H23.0191ZM23.0191 23.816C23.0191 24.5755 22.4403 25.1561 21.7739 25.1561V25.9061C22.8939 25.9061 23.7691 24.9492 23.7691 23.816H23.0191ZM18.3009 18.8768C17.7818 18.781 17.4184 18.3584 17.4184 17.8884H16.6684C16.6684 18.7605 17.3312 19.4606 18.1649 19.6143L18.3009 18.8768ZM17.4184 17.8884C17.4184 17.4179 17.7807 16.9957 18.3008 16.9L18.165 16.1623C17.3294 16.3161 16.6684 17.0165 16.6684 17.8884H17.4184ZM17.8583 16.5138C17.8569 16.5435 17.855 16.5834 17.855 16.6247H18.605C18.605 16.6037 18.606 16.5811 18.6075 16.5485L17.8583 16.5138ZM17.855 16.6247V19.152H18.605V16.6247H17.855ZM17.855 19.152C17.855 19.1947 17.8569 19.2335 17.8583 19.2629L18.6075 19.2282C18.606 19.1953 18.605 19.1743 18.605 19.152H17.855ZM14.6387 10.6891H35.3597V9.93914H14.6387V10.6891ZM6.8446 19.861L20.0243 30.3551L20.4915 29.7683L7.31177 19.2743L6.8446 19.861ZM7.77086 41.7452L25.2407 27.1007L24.7589 26.5259L7.28905 41.1705L7.77086 41.7452ZM24.7589 27.1007L42.228 41.7452L42.7098 41.1705L25.2407 26.5259L24.7589 27.1007Z" fill="#105AB3"/>
</g>
</svg>
