<svg width="50" height="50" viewBox="0 0 50 50" fill="none" xmlns="http://www.w3.org/2000/svg">
<path d="M25.0106 25.1429C27.8241 25.1429 30.1327 22.8571 30.1327 20.0714C30.1327 17.2857 27.8241 15 25.0106 15C22.197 15 19.8885 17.2857 19.8885 20.0714C19.8885 22.8571 22.197 25.1429 25.0106 25.1429ZM25.0106 16.0714C27.247 16.0714 29.0505 17.8571 29.0505 20.0714C29.0505 22.2857 27.247 24.0714 25.0106 24.0714C22.7742 24.0714 20.9706 22.2857 20.9706 20.0714C20.9706 17.8571 22.7742 16.0714 25.0106 16.0714ZM40.449 30.25C39.4751 27.8571 37.2026 26.2857 34.7137 26.2857C33.0544 26.2857 31.5034 26.9643 30.313 28.1786C28.798 26.9643 26.8863 26.25 24.9024 26.25C22.9906 26.25 21.187 26.8929 19.672 28.0357C18.4817 26.75 16.8585 26 15.1632 26C12.7825 26 10.5461 27.4643 9.53607 29.7143C9.53607 29.8214 9.5 29.8929 9.5 29.9643V31.7857C9.5 32.0714 9.7525 32.3214 10.0411 32.3214H16.8224V34.4643C16.8224 34.75 17.0749 35 17.3635 35H32.6216C32.9101 35 33.1626 34.75 33.1626 34.4643V32.5714H39.944C40.2326 32.5714 40.4851 32.3214 40.4851 32.0357V30.4286C40.5211 30.3571 40.4851 30.2857 40.449 30.25ZM10.5821 30.0714C11.4478 28.25 13.2514 27.0714 15.1992 27.0714C16.606 27.0714 17.9406 27.6786 18.9146 28.75C18.1931 29.4643 17.5799 30.2857 17.0749 31.2143H10.5821V30.0714ZM32.0805 33.9286H17.9406V31.9286C19.2753 29.1429 21.9806 27.3571 24.9384 27.3571C28.0045 27.3571 30.818 29.2857 32.0805 32.25V33.9286ZM39.439 31.5H32.9462C32.4773 30.5 31.8641 29.6429 31.1426 28.8929C32.1166 27.8929 33.3791 27.3571 34.7137 27.3571C36.7337 27.3571 38.5733 28.6071 39.4029 30.5357L39.439 31.5ZM34.7858 25.8571C36.8058 25.8571 38.429 24.25 38.429 22.25C38.429 20.25 36.7697 18.6429 34.7858 18.6429C32.8019 18.6429 31.1426 20.25 31.1426 22.25C31.1426 24.25 32.7658 25.8571 34.7858 25.8571ZM34.7858 19.6786C36.1926 19.6786 37.3469 20.8214 37.3469 22.2143C37.3469 23.6071 36.1926 24.75 34.7858 24.75C33.3791 24.75 32.2248 23.6071 32.2248 22.2143C32.2248 20.8214 33.343 19.6786 34.7858 19.6786ZM15.2353 25.6071C17.2553 25.6071 18.8785 24 18.8785 22C18.8785 20 17.2553 18.3929 15.2353 18.3929C13.2153 18.3929 11.5921 20 11.5921 22C11.5921 23.9643 13.2153 25.6071 15.2353 25.6071ZM15.2353 19.4286C16.6421 19.4286 17.7963 20.5714 17.7963 21.9643C17.7963 23.3571 16.6421 24.5 15.2353 24.5C13.8285 24.5 12.6743 23.3571 12.6743 21.9643C12.6743 20.5714 13.8285 19.4286 15.2353 19.4286Z" fill="#105AB3" fill-opacity="0.2"/>
</svg>
