<svg width="25" height="25" viewBox="0 0 25 25" fill="none" xmlns="http://www.w3.org/2000/svg">
<path d="M11.197 21.1842C12.0453 22.0328 13.1737 22.5 14.3738 22.5H14.3748C15.5749 22.5 16.703 22.0325 17.5513 21.1842L18.9111 19.8244C19.3879 19.3473 19.3879 18.5714 18.9111 18.0942L16.4469 15.63C15.9854 15.1682 15.1791 15.1679 14.7169 15.63L13.3478 16.9992C13.0897 17.2576 12.6692 17.2573 12.4111 16.9992L8.00093 12.5887C7.74284 12.3306 7.74284 11.9101 8.00093 11.6517L9.37007 10.2829C9.84691 9.80577 9.84691 9.02984 9.37007 8.55302L6.90588 6.08886C6.42871 5.6117 5.65277 5.6117 5.17594 6.08886L3.81613 7.44865C2.9675 8.29727 2.5 9.42564 2.5 10.6257C2.5 11.8258 2.96716 12.9542 3.81613 13.8028L11.1974 21.1839L11.197 21.1842ZM4.28729 7.92014L5.6471 6.56035C5.75547 6.45165 5.89819 6.39763 6.04057 6.39763C6.18296 6.39763 6.32567 6.45198 6.43404 6.56035L8.89824 9.02451C9.11498 9.24125 9.11498 9.59436 8.89824 9.81144L7.52943 11.1802C7.01125 11.6984 7.01125 12.5417 7.52943 13.0602L11.9396 17.4707C12.4578 17.9888 13.3011 17.9888 13.8193 17.4707L15.1884 16.1015C15.3988 15.8911 15.765 15.8911 15.9754 16.1015L18.4396 18.5657C18.6563 18.7828 18.6563 19.1359 18.4396 19.353L17.0798 20.7127C16.3572 21.435 15.3968 21.8331 14.3748 21.8331H14.3738C13.3518 21.8331 12.3911 21.4353 11.6685 20.7127L4.28729 13.3313C3.56471 12.6087 3.16657 11.6477 3.16657 10.6257C3.16657 9.6037 3.56437 8.64271 4.28729 7.92014Z" stroke="#105AB3" stroke-width="0.5"/>
<path d="M13.3861 2.5C13.2021 2.5 13.0527 2.64938 13.0527 2.83344C13.0527 3.01751 13.2021 3.16689 13.3861 3.16689C18.0438 3.16689 21.8331 6.95615 21.8331 11.6137C21.8331 11.7978 21.9825 11.9471 22.1666 11.9471C22.3506 11.9471 22.5 11.7978 22.5 11.6137C22.5 6.58836 18.4116 2.5 13.3861 2.5Z" stroke="#105AB3" stroke-width="0.5"/>
<path d="M13.3861 5.45098C13.2021 5.45098 13.0527 5.60037 13.0527 5.78443C13.0527 5.96849 13.2021 6.11787 13.3861 6.11787C16.4165 6.11787 18.8817 8.58336 18.8817 11.6134C18.8817 11.7974 19.0311 11.9468 19.2152 11.9468C19.3992 11.9468 19.5486 11.7974 19.5486 11.6134C19.5486 8.21524 16.784 5.45098 13.3861 5.45098Z" stroke="#105AB3" stroke-width="0.5"/>
<path d="M13.3861 9.06886C14.7893 9.06886 15.9307 10.2102 15.9307 11.6134C15.9307 11.7974 16.0801 11.9468 16.2642 11.9468C16.4482 11.9468 16.5976 11.7974 16.5976 11.6134C16.5976 9.84245 15.1568 8.40197 13.3861 8.40197C13.2021 8.40197 13.0527 8.55135 13.0527 8.73541C13.0527 8.91947 13.2021 9.06886 13.3861 9.06886Z" stroke="#105AB3" stroke-width="0.5"/>
</svg>
