<svg width="50" height="50" viewBox="0 0 50 50" fill="none" xmlns="http://www.w3.org/2000/svg">
<g style="mix-blend-mode:multiply">
<path d="M22.9153 38.8948C24.2725 40.2526 26.078 41 27.9981 41H27.9997C29.9199 41 31.7248 40.252 33.082 38.8948L35.2577 36.7191C36.0207 35.9557 36.0207 34.7142 35.2577 33.9507L31.315 30.0081C30.5766 29.2692 29.2866 29.2686 28.5471 30.0081L26.3565 32.1987C25.9435 32.6121 25.2708 32.6116 24.8578 32.1987L17.8015 25.1419C17.3885 24.729 17.3885 24.0562 17.8015 23.6427L19.9921 21.4527C20.755 20.6892 20.755 19.4477 19.9921 18.6848L16.0494 14.7422C15.2859 13.9787 14.0444 13.9787 13.2815 14.7422L11.1058 16.9178C9.748 18.2756 9 20.081 9 22.0011C9 23.9212 9.74746 25.7266 11.1058 27.0844L22.9158 38.8942L22.9153 38.8948ZM11.8597 17.6722L14.0354 15.4966C14.2088 15.3226 14.4371 15.2362 14.6649 15.2362C14.8927 15.2362 15.1211 15.3232 15.2945 15.4966L19.2372 19.4392C19.584 19.786 19.584 20.351 19.2372 20.6983L17.0471 22.8884C16.218 23.7174 16.218 25.0667 17.0471 25.8963L24.1034 32.9531C24.9325 33.7821 26.2818 33.7821 27.1109 32.9531L29.3015 30.7625C29.6382 30.4258 30.224 30.4258 30.5606 30.7625L34.5033 34.7051C34.8501 35.0524 34.8501 35.6174 34.5033 35.9647L32.3276 38.1404C31.1715 39.296 29.635 39.933 27.9997 39.933H27.9981C26.3629 39.933 24.8258 39.2965 23.6697 38.1404L11.8597 26.33C10.7035 25.1739 10.0665 23.6363 10.0665 22.0011C10.0665 20.3659 10.703 18.8283 11.8597 17.6722Z" fill="#105AB3"/>
<path d="M26.4178 9C26.1233 9 25.8843 9.23901 25.8843 9.53351C25.8843 9.82801 26.1233 10.067 26.4178 10.067C33.87 10.067 39.933 16.1298 39.933 23.5819C39.933 23.8764 40.172 24.1154 40.4665 24.1154C40.761 24.1154 41 23.8764 41 23.5819C41 15.5414 34.4585 9 26.4178 9Z" fill="#105AB3"/>
<path d="M26.4178 13.7216C26.1233 13.7216 25.8843 13.9606 25.8843 14.2551C25.8843 14.5496 26.1233 14.7886 26.4178 14.7886C31.2665 14.7886 35.2108 18.7334 35.2108 23.5814C35.2108 23.8759 35.4498 24.1149 35.7443 24.1149C36.0388 24.1149 36.2778 23.8759 36.2778 23.5814C36.2778 18.1444 31.8544 13.7216 26.4178 13.7216Z" fill="#105AB3"/>
<path d="M26.4178 19.5102C28.6629 19.5102 30.4891 21.3364 30.4891 23.5814C30.4891 23.8759 30.7281 24.1149 31.0226 24.1149C31.3171 24.1149 31.5562 23.8759 31.5562 23.5814C31.5562 20.7479 29.2508 18.4431 26.4178 18.4431C26.1233 18.4431 25.8843 18.6822 25.8843 18.9767C25.8843 19.2712 26.1233 19.5102 26.4178 19.5102Z" fill="#105AB3"/>
<path d="M22.9153 38.8948L22.8269 38.8064L22.7385 38.8947L22.8269 38.9831L22.9153 38.8948ZM35.2577 36.7191L35.3461 36.8075L35.3461 36.8075L35.2577 36.7191ZM35.2577 33.9507L35.3461 33.8624L35.3461 33.8623L35.2577 33.9507ZM31.315 30.0081L31.2266 30.0964L31.2266 30.0965L31.315 30.0081ZM28.5471 30.0081L28.4587 29.9197L28.5471 30.0081ZM26.3565 32.1987L26.2681 32.1103L26.268 32.1103L26.3565 32.1987ZM24.8578 32.1987L24.7694 32.2871L24.7694 32.2871L24.8578 32.1987ZM17.8015 25.1419L17.8899 25.0535L17.8899 25.0535L17.8015 25.1419ZM17.8015 23.6427L17.7131 23.5543L17.713 23.5544L17.8015 23.6427ZM19.9921 21.4527L20.0805 21.5411L20.0805 21.541L19.9921 21.4527ZM13.2815 14.7422L13.3699 14.8306L13.3699 14.8305L13.2815 14.7422ZM11.1058 16.9178L11.1942 17.0062L11.1058 16.9178ZM11.1058 27.0844L11.1942 26.996L11.1942 26.996L11.1058 27.0844ZM22.9158 38.8942L23.0042 38.9826L23.0926 38.8942L23.0042 38.8058L22.9158 38.8942ZM11.8597 17.6722L11.948 17.7606L11.9481 17.7606L11.8597 17.6722ZM14.0354 15.4966L14.1237 15.585L14.1239 15.5848L14.0354 15.4966ZM19.2372 20.6983L19.3256 20.7867L19.3256 20.7866L19.2372 20.6983ZM17.0471 22.8884L17.1355 22.9768L17.0471 22.8884ZM17.0471 25.8963L16.9587 25.9847L16.9587 25.9847L17.0471 25.8963ZM24.1034 32.9531L24.015 33.0414L24.015 33.0414L24.1034 32.9531ZM27.1109 32.9531L27.0225 32.8647L27.1109 32.9531ZM29.3015 30.7625L29.3899 30.8508L29.3015 30.7625ZM30.5606 30.7625L30.4722 30.8508L30.5606 30.7625ZM34.5033 34.7051L34.5918 34.6168L34.5917 34.6167L34.5033 34.7051ZM34.5033 35.9647L34.5917 36.0531L34.5918 36.053L34.5033 35.9647ZM32.3276 38.1404L32.416 38.2288L32.416 38.2288L32.3276 38.1404ZM23.6697 38.1404L23.5813 38.2288L23.5813 38.2288L23.6697 38.1404ZM11.8597 26.33L11.9481 26.2417L11.9481 26.2417L11.8597 26.33ZM22.8269 38.9831C24.2076 40.3644 26.0448 41.125 27.9981 41.125V40.875C26.1111 40.875 24.3375 40.1407 23.0037 38.8064L22.8269 38.9831ZM27.9981 41.125H27.9997V40.875H27.9981V41.125ZM27.9997 41.125C29.953 41.125 31.7897 40.3638 33.1704 38.9832L32.9936 38.8064C31.6598 40.1402 29.8867 40.875 27.9997 40.875V41.125ZM33.1704 38.9832L35.3461 36.8075L35.1693 36.6307L32.9936 38.8064L33.1704 38.9832ZM35.3461 36.8075C36.1579 35.9952 36.1579 34.6746 35.3461 33.8624L35.1693 34.0391C35.8835 34.7537 35.8835 35.9161 35.1693 36.6307L35.3461 36.8075ZM35.3461 33.8623L31.4034 29.9197L31.2266 30.0965L35.1693 34.0391L35.3461 33.8623ZM31.4034 29.9197C30.6162 29.1319 29.247 29.1314 28.4587 29.9197L28.6355 30.0965C29.3261 29.4058 30.537 29.4064 31.2266 30.0964L31.4034 29.9197ZM28.4587 29.9197L26.2681 32.1103L26.4449 32.2871L28.6355 30.0965L28.4587 29.9197ZM26.268 32.1103C25.904 32.4748 25.3104 32.4745 24.9462 32.1103L24.7694 32.2871C25.2311 32.7487 25.9831 32.7494 26.4449 32.287L26.268 32.1103ZM24.9462 32.1103L17.8899 25.0535L17.7131 25.2303L24.7694 32.2871L24.9462 32.1103ZM17.8899 25.0535C17.5258 24.6894 17.5257 24.0958 17.8899 23.7311L17.713 23.5544C17.2514 24.0167 17.2513 24.7685 17.7131 25.2303L17.8899 25.0535ZM17.8899 23.7311L20.0805 21.5411L19.9037 21.3643L17.7131 23.5543L17.8899 23.7311ZM20.0805 21.541C20.8922 20.7288 20.8923 19.4082 20.0805 18.5964L19.9037 18.7732C20.6178 19.4873 20.6179 20.6497 19.9037 21.3643L20.0805 21.541ZM20.0805 18.5964L16.1378 14.6538L15.961 14.8306L19.9037 18.7732L20.0805 18.5964ZM16.1378 14.6538C15.3255 13.8415 14.0049 13.8415 13.1931 14.6538L13.3699 14.8305C14.084 14.116 15.2463 14.1159 15.961 14.8306L16.1378 14.6538ZM13.1931 14.6538L11.0174 16.8294L11.1942 17.0062L13.3699 14.8306L13.1931 14.6538ZM11.0174 16.8294C9.63617 18.2107 8.875 20.0479 8.875 22.0011H9.125C9.125 20.1142 9.85982 18.3406 11.1942 17.0062L11.0174 16.8294ZM8.875 22.0011C8.875 23.9544 9.63562 25.7916 11.0174 27.1728L11.1942 26.996C9.8593 25.6617 9.125 23.8881 9.125 22.0011H8.875ZM11.0174 27.1728L22.8274 38.9826L23.0042 38.8058L11.1942 26.996L11.0174 27.1728ZM22.8274 38.8058L22.8269 38.8064L23.0037 38.9832L23.0042 38.9826L22.8274 38.8058ZM11.9481 17.7606L14.1237 15.585L13.947 15.4082L11.7713 17.5838L11.9481 17.7606ZM14.1239 15.5848C14.2727 15.4356 14.4686 15.3612 14.6649 15.3612V15.1112C14.4056 15.1112 14.1449 15.2097 13.9468 15.4083L14.1239 15.5848ZM14.6649 15.3612C14.861 15.3612 15.0571 15.436 15.2061 15.585L15.3829 15.4082C15.185 15.2103 14.9244 15.1112 14.6649 15.1112V15.3612ZM15.2061 15.585L19.1488 19.5276L19.3256 19.3508L15.3829 15.4082L15.2061 15.585ZM19.1488 19.5276C19.4467 19.8255 19.4468 20.3114 19.1487 20.61L19.3256 20.7866C19.7211 20.3905 19.7212 19.7465 19.3256 19.3508L19.1488 19.5276ZM19.1488 20.6099L16.9587 22.8L17.1355 22.9768L19.3256 20.7867L19.1488 20.6099ZM16.9587 22.8C16.0808 23.6779 16.0808 25.1063 16.9587 25.9847L17.1355 25.8079C16.3552 25.0271 16.3552 23.757 17.1355 22.9768L16.9587 22.8ZM16.9587 25.9847L24.015 33.0414L24.1918 32.8647L17.1355 25.8079L16.9587 25.9847ZM24.015 33.0414C24.8929 33.9193 26.3214 33.9193 27.1993 33.0414L27.0225 32.8647C26.2422 33.6449 24.9721 33.6449 24.1918 32.8647L24.015 33.0414ZM27.1993 33.0414L29.3899 30.8508L29.2131 30.6741L27.0225 32.8647L27.1993 33.0414ZM29.3899 30.8508C29.6777 30.563 30.1844 30.563 30.4722 30.8508L30.649 30.6741C30.2635 30.2886 29.5986 30.2886 29.2131 30.6741L29.3899 30.8508ZM30.4722 30.8508L34.4149 34.7935L34.5917 34.6167L30.649 30.6741L30.4722 30.8508ZM34.4149 34.7934C34.7129 35.0919 34.7129 35.5779 34.4149 35.8764L34.5918 36.053C34.9873 35.6569 34.9873 35.0129 34.5918 34.6168L34.4149 34.7934ZM34.4149 35.8763L32.2392 38.052L32.416 38.2288L34.5917 36.0531L34.4149 35.8763ZM32.2393 38.052C31.1065 39.1841 29.6018 39.808 27.9997 39.808V40.058C29.6681 40.058 31.2364 39.4078 32.416 38.2288L32.2393 38.052ZM27.9997 39.808H27.9981V40.058H27.9997V39.808ZM27.9981 39.808C26.396 39.808 24.8907 39.1847 23.7581 38.052L23.5813 38.2288C24.7609 39.4083 26.3297 40.058 27.9981 40.058V39.808ZM23.7581 38.052L11.9481 26.2417L11.7713 26.4184L23.5813 38.2288L23.7581 38.052ZM11.9481 26.2417C10.8154 25.109 10.1915 23.6032 10.1915 22.0011H9.94151C9.94151 23.6695 10.5917 25.2389 11.7713 26.4184L11.9481 26.2417ZM10.1915 22.0011C10.1915 20.3991 10.8148 18.8933 11.948 17.7606L11.7713 17.5838C10.5912 18.7634 9.94151 20.3328 9.94151 22.0011H10.1915ZM26.4178 8.875C26.0543 8.875 25.7593 9.16998 25.7593 9.53351H26.0093C26.0093 9.30805 26.1924 9.125 26.4178 9.125V8.875ZM25.7593 9.53351C25.7593 9.89705 26.0543 10.192 26.4178 10.192V9.94202C26.1924 9.94202 26.0093 9.75897 26.0093 9.53351H25.7593ZM26.4178 10.192C33.801 10.192 39.808 16.1989 39.808 23.5819H40.058C40.058 16.0608 33.9391 9.94202 26.4178 9.94202V10.192ZM39.808 23.5819C39.808 23.9455 40.1029 24.2404 40.4665 24.2404V23.9904C40.241 23.9904 40.058 23.8074 40.058 23.5819H39.808ZM40.4665 24.2404C40.83 24.2404 41.125 23.9455 41.125 23.5819H40.875C40.875 23.8074 40.6919 23.9904 40.4665 23.9904V24.2404ZM41.125 23.5819C41.125 15.4723 34.5275 8.875 26.4178 8.875V9.125C34.3895 9.125 40.875 15.6104 40.875 23.5819H41.125ZM26.4178 13.5966C26.0543 13.5966 25.7593 13.8915 25.7593 14.2551H26.0093C26.0093 14.0296 26.1924 13.8466 26.4178 13.8466V13.5966ZM25.7593 14.2551C25.7593 14.6186 26.0543 14.9136 26.4178 14.9136V14.6636C26.1924 14.6636 26.0093 14.4805 26.0093 14.2551H25.7593ZM26.4178 14.9136C31.1974 14.9136 35.0858 18.8024 35.0858 23.5814H35.3358C35.3358 18.6643 31.3355 14.6636 26.4178 14.6636V14.9136ZM35.0858 23.5814C35.0858 23.9449 35.3808 24.2399 35.7443 24.2399V23.9899C35.5188 23.9899 35.3358 23.8069 35.3358 23.5814H35.0858ZM35.7443 24.2399C36.1078 24.2399 36.4028 23.9449 36.4028 23.5814H36.1528C36.1528 23.8069 35.9698 23.9899 35.7443 23.9899V24.2399ZM36.4028 23.5814C36.4028 18.0753 31.9234 13.5966 26.4178 13.5966V13.8466C31.7854 13.8466 36.1528 18.2134 36.1528 23.5814H36.4028ZM26.4178 19.6352C28.5938 19.6352 30.3641 21.4054 30.3641 23.5814H30.6141C30.6141 21.2673 28.7319 19.3852 26.4178 19.3852V19.6352ZM30.3641 23.5814C30.3641 23.9449 30.6591 24.2399 31.0226 24.2399V23.9899C30.7972 23.9899 30.6141 23.8069 30.6141 23.5814H30.3641ZM31.0226 24.2399C31.3862 24.2399 31.6812 23.9449 31.6812 23.5814H31.4312C31.4312 23.8069 31.2481 23.9899 31.0226 23.9899V24.2399ZM31.6812 23.5814C31.6812 20.6789 29.3198 18.3181 26.4178 18.3181V18.5681C29.1818 18.5681 31.4312 20.817 31.4312 23.5814H31.6812ZM26.4178 18.3181C26.0543 18.3181 25.7593 18.6131 25.7593 18.9767H26.0093C26.0093 18.7512 26.1924 18.5681 26.4178 18.5681V18.3181ZM25.7593 18.9767C25.7593 19.3402 26.0543 19.6352 26.4178 19.6352V19.3852C26.1924 19.3852 26.0093 19.2021 26.0093 18.9767H25.7593Z" fill="#105AB3"/>
</g>
</svg>
