<svg width="50" height="50" viewBox="0 0 50 50" fill="none" xmlns="http://www.w3.org/2000/svg">
<g style="mix-blend-mode:multiply">
<path d="M25 5C13.972 5 5 13.972 5 25C5 36.028 13.972 45 25 45C36.028 45 45 36.028 45 25C45 13.972 36.028 5 25 5ZM25 43C15.0745 43 7 34.9255 7 25C7 15.0745 15.0745 7 25 7C34.9255 7 43 15.0745 43 25C43 34.9255 34.9255 43 25 43ZM31.995 21.2285C32.1185 24.497 29.915 27.462 26.755 28.278C26.3105 28.393 26 28.79 26 29.2435V30.5C26 31.052 25.552 31.5 25 31.5C24.448 31.5 24 31.052 24 30.5V29.2435C24 27.8775 24.927 26.684 26.255 26.3415C28.5115 25.7585 30.085 23.6405 29.996 21.304C29.8995 18.754 27.746 16.6005 25.1955 16.5035C23.815 16.45 22.52 16.946 21.5325 17.8975C20.5445 18.849 20 20.1285 20 21.5C20 22.052 19.552 22.5 19 22.5C18.448 22.5 18 22.052 18 21.5C18 19.58 18.762 17.789 20.1455 16.457C21.5285 15.1255 23.3365 14.4335 25.272 14.5055C28.904 14.6435 31.857 17.5965 31.995 21.2285ZM26 34.5C26 35.0525 25.5525 35.5 25 35.5C24.4475 35.5 24 35.0525 24 34.5C24 33.9475 24.4475 33.5 25 33.5C25.5525 33.5 26 33.9475 26 34.5Z" fill="#105AB3" stroke="#F6F9FC" stroke-width="0.75"/>
</g>
</svg>
