<svg width="50" height="50" viewBox="0 0 50 50" fill="none" xmlns="http://www.w3.org/2000/svg">
<path d="M19.9901 29.4149H32.2823C33.2442 29.4149 34.1206 28.8701 34.5696 27.9931L39.6988 17.9636C40.1268 17.1269 40.0972 16.145 39.6192 15.3372C39.1456 14.5357 38.3216 14.0596 37.4122 14.0596H37.3897L16.3707 14.2428L16.3676 14.2324C15.9871 12.882 14.9201 11.8658 13.5839 11.5802L10.9501 11.017C10.5251 10.9262 10.1054 11.2082 10.0166 11.6482C9.9281 12.0878 10.2022 12.5183 10.6293 12.6098L13.2632 13.173C14.0258 13.3356 14.6342 13.9157 14.8516 14.686L15.0151 15.266C15.0188 15.281 15.0231 15.2959 15.0277 15.3105L18.7287 28.4365L17.3612 30.3022C16.759 31.1236 16.6615 32.2062 17.1065 33.1268C17.1944 33.3086 17.3 33.4767 17.4205 33.6295C16.738 34.1798 16.2985 35.036 16.2985 35.9959C16.2985 37.6525 17.6067 39 19.2149 39C20.8231 39 22.1312 37.6525 22.1312 35.9959C22.1312 35.4997 22.0137 35.0313 21.806 34.6185H32.4108C32.2031 35.0313 32.0856 35.4997 32.0856 35.9959C32.0856 37.6525 33.3937 39 35.0019 39C36.6098 39 37.9179 37.6525 37.9179 35.9959C37.9179 35.4371 37.7688 34.9135 37.5098 34.4649C37.7084 34.3173 37.8377 34.0769 37.8377 33.8053C37.8377 33.3561 37.4843 32.9921 37.0483 32.9921H19.4489C19.0459 32.9921 18.6986 32.7713 18.5198 32.4016C18.3409 32.0315 18.3789 31.6128 18.6212 31.2821L19.9901 29.4149ZM16.828 15.8651L37.4029 15.686H37.4125C37.7711 15.686 38.0838 15.8667 38.271 16.1831C38.4597 16.5024 38.4708 16.875 38.3018 17.2057L33.1726 27.2348C32.9981 27.5763 32.6567 27.7885 32.2823 27.7885H20.19L16.828 15.8651ZM35.0019 34.6185C35.7392 34.6185 36.339 35.2364 36.339 35.9959C36.339 36.7554 35.7392 37.3736 35.0019 37.3736C34.2646 37.3736 33.6645 36.7554 33.6645 35.9959C33.6645 35.2364 34.2646 34.6185 35.0019 34.6185ZM19.2149 34.6185C19.9522 34.6185 20.5523 35.2364 20.5523 35.9959C20.5523 36.7554 19.9522 37.3736 19.2149 37.3736C18.4775 37.3736 17.8774 36.7554 17.8774 35.9959C17.8774 35.2364 18.4775 34.6185 19.2149 34.6185Z" fill="#105AB3" fill-opacity="0.2"/>
</svg>
