<svg width="50" height="50" viewBox="0 0 50 50" fill="none" xmlns="http://www.w3.org/2000/svg">
<g style="mix-blend-mode:multiply">
<mask id="path-1-inside-1_1902_39140" fill="white">
<path fill-rule="evenodd" clip-rule="evenodd" d="M6.10636 5.90714C5.71894 5.90714 5.39767 6.2318 5.39767 6.6233V43.3958C5.39767 43.7873 5.71894 44.112 6.10636 44.112H43.9031C44.2905 44.112 44.6118 43.7873 44.6118 43.3958V6.6233C44.6118 6.2318 44.2999 5.90714 43.9031 5.90714H6.10636ZM43.9031 45H6.10636C5.22759 45 4.5 44.2743 4.5 43.3862V6.61375C4.5 5.72571 5.21814 5 6.10636 5H43.9031C44.7819 5 45.5 5.72571 45.5 6.61375V43.3862C45.5 44.2743 44.7819 45 43.9031 45Z"/>
<path fill-rule="evenodd" clip-rule="evenodd" d="M45.0559 13.909H4.94411C4.69843 13.909 4.5 13.7085 4.5 13.4603C4.5 13.212 4.69843 13.0115 4.94411 13.0115H45.0464C45.2921 13.0115 45.4905 13.212 45.4905 13.4603C45.5 13.699 45.3016 13.909 45.0559 13.909Z"/>
<path fill-rule="evenodd" clip-rule="evenodd" d="M38.6493 8.12246C38.3753 8.12246 38.158 8.34209 38.158 8.619V10.2805C38.158 10.5574 38.3753 10.777 38.6493 10.777H40.2935C40.5675 10.777 40.7849 10.5574 40.7849 10.2805V8.619C40.7849 8.34209 40.5675 8.12246 40.2935 8.12246H38.6493ZM40.2935 11.6842H38.6493C37.884 11.6842 37.2603 11.054 37.2603 10.2805V8.619C37.2603 7.84555 37.884 7.21533 38.6493 7.21533H40.2935C41.0589 7.21533 41.6825 7.84555 41.6825 8.619V10.2805C41.6825 11.054 41.0589 11.6842 40.2935 11.6842Z"/>
<path fill-rule="evenodd" clip-rule="evenodd" d="M31.3451 8.12246C31.0711 8.12246 30.8538 8.34209 30.8538 8.619V10.2805C30.8538 10.5574 31.0711 10.777 31.3451 10.777H32.9893C33.2633 10.777 33.4806 10.5574 33.4806 10.2805V8.619C33.4806 8.34209 33.2633 8.12246 32.9893 8.12246H31.3451ZM32.9893 11.6842H31.3451C30.5797 11.6842 29.9561 11.054 29.9561 10.2805V8.619C29.9561 7.84555 30.5797 7.21533 31.3451 7.21533H32.9893C33.7547 7.21533 34.3783 7.84555 34.3783 8.619V10.2805C34.3783 11.054 33.7547 11.6842 32.9893 11.6842Z"/>
<path fill-rule="evenodd" clip-rule="evenodd" d="M24.0315 8.12246C23.7574 8.12246 23.5401 8.34209 23.5401 8.619V10.2805C23.5401 10.5574 23.7574 10.777 24.0315 10.777H25.6756C25.9496 10.777 26.167 10.5574 26.167 10.2805V8.619C26.167 8.34209 25.9496 8.12246 25.6756 8.12246H24.0315ZM25.6851 11.6842H24.0409C23.2755 11.6842 22.6519 11.054 22.6519 10.2805V8.619C22.6519 7.84555 23.2755 7.21533 24.0409 7.21533H25.6851C26.4504 7.21533 27.0741 7.84555 27.0741 8.619V10.2805C27.0741 11.054 26.4504 11.6842 25.6851 11.6842Z"/>
<path fill-rule="evenodd" clip-rule="evenodd" d="M20.4691 32.4243C20.3085 32.4243 20.1573 32.3383 20.0722 32.1855C19.94 31.9277 19.8171 31.6699 19.7226 31.393H18.6643C18.0312 31.393 17.521 30.8774 17.521 30.2376V28.7002C17.521 28.0605 18.0312 27.5448 18.6643 27.5448H19.7226C19.7888 27.3729 19.8549 27.2011 19.9305 27.0292L19.184 26.2748C18.9667 26.0552 18.8533 25.7687 18.8533 25.4632C18.8533 25.1576 18.9761 24.8616 19.184 24.6515L20.2612 23.563C20.4786 23.3433 20.762 23.2288 21.0644 23.2288C21.3668 23.2288 21.6597 23.3529 21.8676 23.563L22.6141 24.3173C22.7842 24.2409 22.9542 24.1645 23.1243 24.1072V23.0378C23.1243 22.398 23.6346 21.8824 24.2677 21.8824H25.789C26.4221 21.8824 26.9324 22.398 26.9324 23.0378V24.1072C27.2064 24.2027 27.4615 24.3269 27.7166 24.4606C27.934 24.5751 28.0096 24.8521 27.8962 25.0717C27.7733 25.2913 27.5087 25.3772 27.2914 25.2531C26.9985 25.0908 26.6867 24.9571 26.3654 24.8712C26.1764 24.8139 26.0441 24.642 26.0441 24.4415V23.0473C26.0441 22.9136 25.9307 22.7991 25.7984 22.7991H24.2677C24.1354 22.7991 24.022 22.9136 24.022 23.0473V24.4415C24.022 24.642 23.8897 24.8234 23.7007 24.8712C23.37 24.9666 23.0487 25.1003 22.7464 25.2722C22.5763 25.3677 22.3589 25.339 22.2172 25.1958L21.2439 24.2027C21.1778 24.1359 21.1117 24.1359 21.0739 24.1359C21.0361 24.1359 20.9605 24.1454 20.9038 24.2027L19.8266 25.2913C19.7604 25.3581 19.751 25.425 19.751 25.4632C19.751 25.5014 19.7604 25.5778 19.8266 25.6351L20.8093 26.6281C20.951 26.7714 20.9794 26.991 20.8849 27.1629C20.7148 27.4684 20.5825 27.7931 20.488 28.1273C20.4313 28.3183 20.2612 28.452 20.0628 28.452H18.6832C18.5509 28.452 18.4375 28.5665 18.4375 28.7002V30.2376C18.4375 30.3713 18.5509 30.4859 18.6832 30.4859H20.0628C20.2612 30.4859 20.4408 30.6195 20.488 30.8105C20.5825 31.1352 20.7148 31.4503 20.8754 31.7463C20.9888 31.9659 20.9132 32.2428 20.6959 32.3574C20.6108 32.4052 20.5353 32.4243 20.4691 32.4243ZM25.7984 37.0554H24.2677C23.6346 37.0554 23.1243 36.5398 23.1243 35.9V34.8306C22.8503 34.7351 22.5952 34.6109 22.34 34.4773C22.1227 34.3627 22.0471 34.0858 22.1605 33.8661C22.2739 33.6465 22.5479 33.5606 22.7653 33.6847C23.0582 33.847 23.37 33.9807 23.6913 34.0667C23.8803 34.124 24.0126 34.2958 24.0126 34.4964V35.8905C24.0126 36.0242 24.1259 36.1388 24.2582 36.1388H25.7795C25.9118 36.1388 26.0252 36.0242 26.0252 35.8905V34.4964C26.0252 34.2958 26.1575 34.1144 26.3465 34.0667C26.6772 33.9712 26.9985 33.8375 27.3009 33.6656C27.4804 33.5701 27.6883 33.5988 27.83 33.742L28.8127 34.7351C28.9072 34.8306 29.0679 34.8306 29.1624 34.7351L30.2396 33.6465C30.3057 33.5797 30.3057 33.5128 30.3057 33.4746C30.3057 33.4364 30.2963 33.3601 30.2301 33.3028L29.2474 32.3097C29.1057 32.1664 29.0773 31.9468 29.1718 31.7749C29.3419 31.4694 29.4742 31.1447 29.5687 30.8105C29.6254 30.6195 29.7955 30.4859 29.9939 30.4859H31.3735C31.5058 30.4859 31.6191 30.3713 31.6191 30.2376V28.7002C31.6191 28.5665 31.5058 28.452 31.3735 28.452H29.9939C29.7955 28.452 29.6159 28.3183 29.5687 28.1273C29.4742 27.8026 29.3419 27.4875 29.1813 27.1915C29.0679 26.9719 29.1435 26.695 29.3608 26.5804C29.5781 26.4563 29.8521 26.5422 29.9655 26.7618C30.1073 27.0196 30.2207 27.2775 30.3152 27.5544H31.3735C32.0066 27.5544 32.5168 28.07 32.5168 28.7098V30.2471C32.5168 30.8869 32.0066 31.4025 31.3735 31.4025H30.3152C30.249 31.5744 30.1829 31.7463 30.1073 31.9182L30.8538 32.6725C31.0711 32.8922 31.1845 33.1786 31.1845 33.4842C31.1845 33.7897 31.0616 34.0858 30.8538 34.2958L29.7766 35.3844C29.3324 35.8332 28.6049 35.8332 28.1607 35.3844L27.4143 34.63C27.2442 34.7064 27.0741 34.7828 26.904 34.8401V35.9096C26.9323 36.5398 26.4221 37.0554 25.7984 37.0554Z"/>
<path fill-rule="evenodd" clip-rule="evenodd" d="M21.7542 31.1161C21.5747 31.1161 21.3951 31.0015 21.329 30.8201C21.1778 30.3904 21.1022 29.932 21.1022 29.4737C21.1022 27.287 22.8598 25.5014 25.0331 25.5014C25.4866 25.5014 25.9402 25.5778 26.3654 25.7401C26.6016 25.826 26.715 26.0839 26.6394 26.3226C26.5544 26.5613 26.2993 26.6759 26.063 26.5899C25.7323 26.4658 25.3921 26.4085 25.0331 26.4085C23.3606 26.4085 21.9999 27.7835 21.9999 29.4737C21.9999 29.827 22.0566 30.1803 22.1794 30.5145C22.2645 30.7532 22.1416 31.011 21.9148 31.097C21.8581 31.1065 21.8109 31.1161 21.7542 31.1161ZM25.0331 33.4364C24.5795 33.4364 24.1259 33.3601 23.7007 33.1977C23.4645 33.1118 23.3511 32.854 23.4267 32.6152C23.5117 32.3765 23.7669 32.2619 24.0031 32.3383C24.3338 32.4625 24.674 32.5198 25.0331 32.5198C26.7056 32.5198 28.0663 31.1447 28.0663 29.4546C28.0663 29.1013 28.0096 28.748 27.8867 28.4138C27.8017 28.175 27.9245 27.9172 28.1607 27.8313C28.397 27.7453 28.6521 27.8695 28.7371 28.0987C28.8883 28.5283 28.9734 28.9867 28.9734 29.445C28.9639 31.6604 27.1969 33.4364 25.0331 33.4364Z"/>
<path fill-rule="evenodd" clip-rule="evenodd" d="M18.7305 37.9721C19.3825 38.0103 20.0533 37.7716 20.5069 37.3133C21.0928 36.7212 21.3006 36.0051 21.1211 35.1839C21.0928 35.0311 21.1306 34.8783 21.2439 34.7637L30.249 25.6637C30.353 25.5587 30.5136 25.5109 30.6648 25.5396C31.4302 25.7114 32.2144 25.4727 32.7719 24.9189C33.2539 24.4319 33.4901 23.773 33.4334 23.1046L32.6964 23.8494C32.2711 24.2791 31.5719 24.2791 31.1467 23.8494L30.5797 23.2765C30.1545 22.8468 30.1545 22.1402 30.5797 21.7105L31.3168 20.9657C30.6648 20.9179 30.0128 21.1471 29.5309 21.6341C28.9734 22.1975 28.7466 22.99 28.9072 23.7635C28.9356 23.9163 28.8978 24.069 28.7844 24.1836L19.7793 33.2837C19.6754 33.3887 19.5147 33.4364 19.3636 33.4078C18.5509 33.2264 17.8422 33.4364 17.2564 34.0285C16.8028 34.4868 16.5666 35.1743 16.6044 35.8236L17.332 35.0884C17.7572 34.6587 18.4564 34.6587 18.8816 35.0884L19.4486 35.6613C19.6565 35.8714 19.7699 36.1483 19.7699 36.4443C19.7699 36.7403 19.6565 37.0172 19.4486 37.2273L18.7305 37.9721ZM18.8627 38.8793C18.4564 38.8793 18.0501 38.8029 17.6722 38.6501C17.5304 38.5928 17.4359 38.4687 17.4076 38.3159C17.3792 38.1631 17.4265 38.0103 17.5304 37.9053L18.8344 36.5876C18.8816 36.5398 18.8911 36.473 18.8911 36.4443C18.8911 36.4157 18.8816 36.3488 18.8344 36.3011L18.2675 35.7282C18.1919 35.6518 18.0596 35.6518 17.984 35.7282L16.68 37.0554C16.576 37.1605 16.4249 37.2082 16.2737 37.1796C16.1319 37.1509 15.9996 37.0459 15.943 36.9122C15.461 35.7377 15.7445 34.2958 16.6327 33.3982C17.3792 32.6439 18.2958 32.3288 19.3163 32.4816L27.9907 23.7157C27.8584 22.7227 28.1891 21.72 28.8978 21.0039C29.8144 20.0776 31.175 19.8103 32.3751 20.3068C32.5168 20.3641 32.6113 20.4882 32.6397 20.641C32.668 20.7938 32.6208 20.9466 32.5168 21.0516L31.2128 22.3694C31.1372 22.4458 31.1372 22.5794 31.2128 22.6558L31.7798 23.2288C31.8554 23.3051 31.9877 23.3051 32.0633 23.2288L33.3672 21.911C33.4712 21.806 33.6224 21.7582 33.7736 21.7869C33.9153 21.8155 34.0381 21.9206 34.0948 22.0543C34.5862 23.2574 34.3216 24.642 33.405 25.5682C32.6964 26.2844 31.7042 26.6186 30.7215 26.4849L22.0566 35.2412C22.2078 36.2629 21.8959 37.1987 21.1495 37.953C20.5447 38.5546 19.7037 38.8793 18.8627 38.8793Z"/>
</mask>
<path fill-rule="evenodd" clip-rule="evenodd" d="M6.10636 5.90714C5.71894 5.90714 5.39767 6.2318 5.39767 6.6233V43.3958C5.39767 43.7873 5.71894 44.112 6.10636 44.112H43.9031C44.2905 44.112 44.6118 43.7873 44.6118 43.3958V6.6233C44.6118 6.2318 44.2999 5.90714 43.9031 5.90714H6.10636ZM43.9031 45H6.10636C5.22759 45 4.5 44.2743 4.5 43.3862V6.61375C4.5 5.72571 5.21814 5 6.10636 5H43.9031C44.7819 5 45.5 5.72571 45.5 6.61375V43.3862C45.5 44.2743 44.7819 45 43.9031 45Z" fill="#105AB3"/>
<path fill-rule="evenodd" clip-rule="evenodd" d="M45.0559 13.909H4.94411C4.69843 13.909 4.5 13.7085 4.5 13.4603C4.5 13.212 4.69843 13.0115 4.94411 13.0115H45.0464C45.2921 13.0115 45.4905 13.212 45.4905 13.4603C45.5 13.699 45.3016 13.909 45.0559 13.909Z" fill="#105AB3"/>
<path fill-rule="evenodd" clip-rule="evenodd" d="M38.6493 8.12246C38.3753 8.12246 38.158 8.34209 38.158 8.619V10.2805C38.158 10.5574 38.3753 10.777 38.6493 10.777H40.2935C40.5675 10.777 40.7849 10.5574 40.7849 10.2805V8.619C40.7849 8.34209 40.5675 8.12246 40.2935 8.12246H38.6493ZM40.2935 11.6842H38.6493C37.884 11.6842 37.2603 11.054 37.2603 10.2805V8.619C37.2603 7.84555 37.884 7.21533 38.6493 7.21533H40.2935C41.0589 7.21533 41.6825 7.84555 41.6825 8.619V10.2805C41.6825 11.054 41.0589 11.6842 40.2935 11.6842Z" fill="#105AB3"/>
<path fill-rule="evenodd" clip-rule="evenodd" d="M31.3451 8.12246C31.0711 8.12246 30.8538 8.34209 30.8538 8.619V10.2805C30.8538 10.5574 31.0711 10.777 31.3451 10.777H32.9893C33.2633 10.777 33.4806 10.5574 33.4806 10.2805V8.619C33.4806 8.34209 33.2633 8.12246 32.9893 8.12246H31.3451ZM32.9893 11.6842H31.3451C30.5797 11.6842 29.9561 11.054 29.9561 10.2805V8.619C29.9561 7.84555 30.5797 7.21533 31.3451 7.21533H32.9893C33.7547 7.21533 34.3783 7.84555 34.3783 8.619V10.2805C34.3783 11.054 33.7547 11.6842 32.9893 11.6842Z" fill="#105AB3"/>
<path fill-rule="evenodd" clip-rule="evenodd" d="M24.0315 8.12246C23.7574 8.12246 23.5401 8.34209 23.5401 8.619V10.2805C23.5401 10.5574 23.7574 10.777 24.0315 10.777H25.6756C25.9496 10.777 26.167 10.5574 26.167 10.2805V8.619C26.167 8.34209 25.9496 8.12246 25.6756 8.12246H24.0315ZM25.6851 11.6842H24.0409C23.2755 11.6842 22.6519 11.054 22.6519 10.2805V8.619C22.6519 7.84555 23.2755 7.21533 24.0409 7.21533H25.6851C26.4504 7.21533 27.0741 7.84555 27.0741 8.619V10.2805C27.0741 11.054 26.4504 11.6842 25.6851 11.6842Z" fill="#105AB3"/>
<path fill-rule="evenodd" clip-rule="evenodd" d="M20.4691 32.4243C20.3085 32.4243 20.1573 32.3383 20.0722 32.1855C19.94 31.9277 19.8171 31.6699 19.7226 31.393H18.6643C18.0312 31.393 17.521 30.8774 17.521 30.2376V28.7002C17.521 28.0605 18.0312 27.5448 18.6643 27.5448H19.7226C19.7888 27.3729 19.8549 27.2011 19.9305 27.0292L19.184 26.2748C18.9667 26.0552 18.8533 25.7687 18.8533 25.4632C18.8533 25.1576 18.9761 24.8616 19.184 24.6515L20.2612 23.563C20.4786 23.3433 20.762 23.2288 21.0644 23.2288C21.3668 23.2288 21.6597 23.3529 21.8676 23.563L22.6141 24.3173C22.7842 24.2409 22.9542 24.1645 23.1243 24.1072V23.0378C23.1243 22.398 23.6346 21.8824 24.2677 21.8824H25.789C26.4221 21.8824 26.9324 22.398 26.9324 23.0378V24.1072C27.2064 24.2027 27.4615 24.3269 27.7166 24.4606C27.934 24.5751 28.0096 24.8521 27.8962 25.0717C27.7733 25.2913 27.5087 25.3772 27.2914 25.2531C26.9985 25.0908 26.6867 24.9571 26.3654 24.8712C26.1764 24.8139 26.0441 24.642 26.0441 24.4415V23.0473C26.0441 22.9136 25.9307 22.7991 25.7984 22.7991H24.2677C24.1354 22.7991 24.022 22.9136 24.022 23.0473V24.4415C24.022 24.642 23.8897 24.8234 23.7007 24.8712C23.37 24.9666 23.0487 25.1003 22.7464 25.2722C22.5763 25.3677 22.3589 25.339 22.2172 25.1958L21.2439 24.2027C21.1778 24.1359 21.1117 24.1359 21.0739 24.1359C21.0361 24.1359 20.9605 24.1454 20.9038 24.2027L19.8266 25.2913C19.7604 25.3581 19.751 25.425 19.751 25.4632C19.751 25.5014 19.7604 25.5778 19.8266 25.6351L20.8093 26.6281C20.951 26.7714 20.9794 26.991 20.8849 27.1629C20.7148 27.4684 20.5825 27.7931 20.488 28.1273C20.4313 28.3183 20.2612 28.452 20.0628 28.452H18.6832C18.5509 28.452 18.4375 28.5665 18.4375 28.7002V30.2376C18.4375 30.3713 18.5509 30.4859 18.6832 30.4859H20.0628C20.2612 30.4859 20.4408 30.6195 20.488 30.8105C20.5825 31.1352 20.7148 31.4503 20.8754 31.7463C20.9888 31.9659 20.9132 32.2428 20.6959 32.3574C20.6108 32.4052 20.5353 32.4243 20.4691 32.4243ZM25.7984 37.0554H24.2677C23.6346 37.0554 23.1243 36.5398 23.1243 35.9V34.8306C22.8503 34.7351 22.5952 34.6109 22.34 34.4773C22.1227 34.3627 22.0471 34.0858 22.1605 33.8661C22.2739 33.6465 22.5479 33.5606 22.7653 33.6847C23.0582 33.847 23.37 33.9807 23.6913 34.0667C23.8803 34.124 24.0126 34.2958 24.0126 34.4964V35.8905C24.0126 36.0242 24.1259 36.1388 24.2582 36.1388H25.7795C25.9118 36.1388 26.0252 36.0242 26.0252 35.8905V34.4964C26.0252 34.2958 26.1575 34.1144 26.3465 34.0667C26.6772 33.9712 26.9985 33.8375 27.3009 33.6656C27.4804 33.5701 27.6883 33.5988 27.83 33.742L28.8127 34.7351C28.9072 34.8306 29.0679 34.8306 29.1624 34.7351L30.2396 33.6465C30.3057 33.5797 30.3057 33.5128 30.3057 33.4746C30.3057 33.4364 30.2963 33.3601 30.2301 33.3028L29.2474 32.3097C29.1057 32.1664 29.0773 31.9468 29.1718 31.7749C29.3419 31.4694 29.4742 31.1447 29.5687 30.8105C29.6254 30.6195 29.7955 30.4859 29.9939 30.4859H31.3735C31.5058 30.4859 31.6191 30.3713 31.6191 30.2376V28.7002C31.6191 28.5665 31.5058 28.452 31.3735 28.452H29.9939C29.7955 28.452 29.6159 28.3183 29.5687 28.1273C29.4742 27.8026 29.3419 27.4875 29.1813 27.1915C29.0679 26.9719 29.1435 26.695 29.3608 26.5804C29.5781 26.4563 29.8521 26.5422 29.9655 26.7618C30.1073 27.0196 30.2207 27.2775 30.3152 27.5544H31.3735C32.0066 27.5544 32.5168 28.07 32.5168 28.7098V30.2471C32.5168 30.8869 32.0066 31.4025 31.3735 31.4025H30.3152C30.249 31.5744 30.1829 31.7463 30.1073 31.9182L30.8538 32.6725C31.0711 32.8922 31.1845 33.1786 31.1845 33.4842C31.1845 33.7897 31.0616 34.0858 30.8538 34.2958L29.7766 35.3844C29.3324 35.8332 28.6049 35.8332 28.1607 35.3844L27.4143 34.63C27.2442 34.7064 27.0741 34.7828 26.904 34.8401V35.9096C26.9323 36.5398 26.4221 37.0554 25.7984 37.0554Z" fill="#105AB3"/>
<path fill-rule="evenodd" clip-rule="evenodd" d="M21.7542 31.1161C21.5747 31.1161 21.3951 31.0015 21.329 30.8201C21.1778 30.3904 21.1022 29.932 21.1022 29.4737C21.1022 27.287 22.8598 25.5014 25.0331 25.5014C25.4866 25.5014 25.9402 25.5778 26.3654 25.7401C26.6016 25.826 26.715 26.0839 26.6394 26.3226C26.5544 26.5613 26.2993 26.6759 26.063 26.5899C25.7323 26.4658 25.3921 26.4085 25.0331 26.4085C23.3606 26.4085 21.9999 27.7835 21.9999 29.4737C21.9999 29.827 22.0566 30.1803 22.1794 30.5145C22.2645 30.7532 22.1416 31.011 21.9148 31.097C21.8581 31.1065 21.8109 31.1161 21.7542 31.1161ZM25.0331 33.4364C24.5795 33.4364 24.1259 33.3601 23.7007 33.1977C23.4645 33.1118 23.3511 32.854 23.4267 32.6152C23.5117 32.3765 23.7669 32.2619 24.0031 32.3383C24.3338 32.4625 24.674 32.5198 25.0331 32.5198C26.7056 32.5198 28.0663 31.1447 28.0663 29.4546C28.0663 29.1013 28.0096 28.748 27.8867 28.4138C27.8017 28.175 27.9245 27.9172 28.1607 27.8313C28.397 27.7453 28.6521 27.8695 28.7371 28.0987C28.8883 28.5283 28.9734 28.9867 28.9734 29.445C28.9639 31.6604 27.1969 33.4364 25.0331 33.4364Z" fill="#105AB3"/>
<path fill-rule="evenodd" clip-rule="evenodd" d="M18.7305 37.9721C19.3825 38.0103 20.0533 37.7716 20.5069 37.3133C21.0928 36.7212 21.3006 36.0051 21.1211 35.1839C21.0928 35.0311 21.1306 34.8783 21.2439 34.7637L30.249 25.6637C30.353 25.5587 30.5136 25.5109 30.6648 25.5396C31.4302 25.7114 32.2144 25.4727 32.7719 24.9189C33.2539 24.4319 33.4901 23.773 33.4334 23.1046L32.6964 23.8494C32.2711 24.2791 31.5719 24.2791 31.1467 23.8494L30.5797 23.2765C30.1545 22.8468 30.1545 22.1402 30.5797 21.7105L31.3168 20.9657C30.6648 20.9179 30.0128 21.1471 29.5309 21.6341C28.9734 22.1975 28.7466 22.99 28.9072 23.7635C28.9356 23.9163 28.8978 24.069 28.7844 24.1836L19.7793 33.2837C19.6754 33.3887 19.5147 33.4364 19.3636 33.4078C18.5509 33.2264 17.8422 33.4364 17.2564 34.0285C16.8028 34.4868 16.5666 35.1743 16.6044 35.8236L17.332 35.0884C17.7572 34.6587 18.4564 34.6587 18.8816 35.0884L19.4486 35.6613C19.6565 35.8714 19.7699 36.1483 19.7699 36.4443C19.7699 36.7403 19.6565 37.0172 19.4486 37.2273L18.7305 37.9721ZM18.8627 38.8793C18.4564 38.8793 18.0501 38.8029 17.6722 38.6501C17.5304 38.5928 17.4359 38.4687 17.4076 38.3159C17.3792 38.1631 17.4265 38.0103 17.5304 37.9053L18.8344 36.5876C18.8816 36.5398 18.8911 36.473 18.8911 36.4443C18.8911 36.4157 18.8816 36.3488 18.8344 36.3011L18.2675 35.7282C18.1919 35.6518 18.0596 35.6518 17.984 35.7282L16.68 37.0554C16.576 37.1605 16.4249 37.2082 16.2737 37.1796C16.1319 37.1509 15.9996 37.0459 15.943 36.9122C15.461 35.7377 15.7445 34.2958 16.6327 33.3982C17.3792 32.6439 18.2958 32.3288 19.3163 32.4816L27.9907 23.7157C27.8584 22.7227 28.1891 21.72 28.8978 21.0039C29.8144 20.0776 31.175 19.8103 32.3751 20.3068C32.5168 20.3641 32.6113 20.4882 32.6397 20.641C32.668 20.7938 32.6208 20.9466 32.5168 21.0516L31.2128 22.3694C31.1372 22.4458 31.1372 22.5794 31.2128 22.6558L31.7798 23.2288C31.8554 23.3051 31.9877 23.3051 32.0633 23.2288L33.3672 21.911C33.4712 21.806 33.6224 21.7582 33.7736 21.7869C33.9153 21.8155 34.0381 21.9206 34.0948 22.0543C34.5862 23.2574 34.3216 24.642 33.405 25.5682C32.6964 26.2844 31.7042 26.6186 30.7215 26.4849L22.0566 35.2412C22.2078 36.2629 21.8959 37.1987 21.1495 37.953C20.5447 38.5546 19.7037 38.8793 18.8627 38.8793Z" fill="#105AB3"/>
<path d="M45.4905 13.4603H44.4905V13.48L44.4913 13.4998L45.4905 13.4603ZM20.0722 32.1855L19.1825 32.6421L19.1903 32.6571L19.1985 32.6719L20.0722 32.1855ZM19.7226 31.393L20.669 31.07L20.438 30.393H19.7226V31.393ZM19.7226 27.5448V28.5448H20.4093L20.6559 27.904L19.7226 27.5448ZM19.9305 27.0292L20.8459 27.4318L21.1197 26.8092L20.6413 26.3258L19.9305 27.0292ZM19.184 24.6515L19.8948 25.3549L19.184 24.6515ZM20.2612 23.563L19.5504 22.8596L20.2612 23.563ZM21.8676 23.563L22.5784 22.8596H22.5784L21.8676 23.563ZM22.6141 24.3173L21.9033 25.0207L22.3911 25.5137L23.0238 25.2295L22.6141 24.3173ZM23.1243 24.1072L23.4436 25.0549L24.1243 24.8256V24.1072H23.1243ZM26.9324 24.1072H25.9324V24.8178L26.6033 25.0516L26.9324 24.1072ZM27.7166 24.4606L28.183 23.576L28.1808 23.5748L27.7166 24.4606ZM27.8962 25.0717L28.7689 25.5598L28.7771 25.5453L28.7847 25.5304L27.8962 25.0717ZM27.2914 25.2531L27.7874 24.3847L27.7761 24.3784L27.2914 25.2531ZM26.3654 24.8712L26.0753 25.8281L26.0911 25.8329L26.107 25.8372L26.3654 24.8712ZM23.7007 24.8712L23.4558 23.9016L23.4395 23.9057L23.4233 23.9104L23.7007 24.8712ZM22.7464 25.2722L23.2359 26.1442L23.2405 26.1416L22.7464 25.2722ZM22.2172 25.1958L21.503 25.8958L21.5064 25.8992L22.2172 25.1958ZM21.2439 24.2027L21.9581 23.5028L21.9547 23.4993L21.2439 24.2027ZM20.9038 24.2027L20.193 23.4993H20.193L20.9038 24.2027ZM19.8266 25.2913L20.5374 25.9947L19.8266 25.2913ZM19.8266 25.6351L20.5374 24.9317L20.5103 24.9044L20.4813 24.8792L19.8266 25.6351ZM20.8093 26.6281L20.0985 27.3315L20.0985 27.3315L20.8093 26.6281ZM20.8849 27.1629L21.7586 27.6492L21.7612 27.6446L20.8849 27.1629ZM20.488 28.1273L21.4467 28.4119L21.4503 28.3994L20.488 28.1273ZM20.488 30.8105L19.5173 31.0507L19.5222 31.0704L19.5278 31.09L20.488 30.8105ZM20.8754 31.7463L21.764 31.2875L21.7593 31.2784L21.7543 31.2693L20.8754 31.7463ZM20.6959 32.3574L20.2295 31.4728L20.2178 31.479L20.2063 31.4854L20.6959 32.3574ZM23.1243 34.8306H24.1243V34.1201L23.4534 33.8863L23.1243 34.8306ZM22.34 34.4773L21.8737 35.3618L21.8759 35.363L22.34 34.4773ZM22.7653 33.6847L22.2692 34.5531L22.2805 34.5594L22.7653 33.6847ZM23.6913 34.0667L23.9814 33.1097L23.9656 33.1049L23.9497 33.1006L23.6913 34.0667ZM26.3465 34.0667L26.5914 35.0362L26.6077 35.0321L26.6239 35.0274L26.3465 34.0667ZM27.3009 33.6656L26.8313 32.7827L26.8189 32.7893L26.8067 32.7962L27.3009 33.6656ZM27.83 33.742L28.5408 33.0386H28.5408L27.83 33.742ZM28.8127 34.7351L28.1019 35.4385L28.1019 35.4385L28.8127 34.7351ZM30.2396 33.6465L30.9504 34.3499L30.2396 33.6465ZM30.2301 33.3028L29.5193 34.0061L29.5463 34.0335L29.5754 34.0586L30.2301 33.3028ZM29.2474 32.3097L29.9582 31.6063L29.9582 31.6063L29.2474 32.3097ZM29.1718 31.7749L28.298 31.2886L28.2955 31.2932L29.1718 31.7749ZM29.5687 30.8105L28.6099 30.5259L28.6064 30.5384L29.5687 30.8105ZM29.5687 28.1273L30.5394 27.8871L30.5345 27.8674L30.5288 27.8478L29.5687 28.1273ZM29.1813 27.1915L28.2927 27.6503L28.2974 27.6594L28.3023 27.6685L29.1813 27.1915ZM29.3608 26.5804L29.8272 27.465L29.8421 27.4571L29.8568 27.4487L29.3608 26.5804ZM29.9655 26.7618L29.077 27.2206L29.083 27.2322L29.0892 27.2436L29.9655 26.7618ZM30.3152 27.5544L29.3687 27.8773L29.5998 28.5544H30.3152V27.5544ZM30.3152 31.4025V30.4025H29.6285L29.3819 31.0434L30.3152 31.4025ZM30.1073 31.9182L29.1919 31.5156L28.9181 32.1381L29.3965 32.6216L30.1073 31.9182ZM30.8538 32.6725L31.5646 31.9691H31.5646L30.8538 32.6725ZM30.8538 34.2958L31.5646 34.9992V34.9992L30.8538 34.2958ZM29.7766 35.3844L29.0657 34.681L29.7766 35.3844ZM28.1607 35.3844L28.8715 34.681L28.8715 34.681L28.1607 35.3844ZM27.4143 34.63L28.1251 33.9267L27.6372 33.4337L27.0046 33.7178L27.4143 34.63ZM26.904 34.8401L26.5848 33.8924L25.904 34.1218V34.8401H26.904ZM26.904 35.9096H25.904V35.9321L25.905 35.9545L26.904 35.9096ZM21.329 30.8201L20.3856 31.152L20.3895 31.1626L21.329 30.8201ZM26.3654 25.7401L26.0087 26.6743L26.0161 26.6771L26.0235 26.6798L26.3654 25.7401ZM26.6394 26.3226L27.5814 26.6582L27.5874 26.6414L27.5928 26.6245L26.6394 26.3226ZM26.063 26.5899L25.7116 27.5262L25.7212 27.5297L26.063 26.5899ZM22.1794 30.5145L23.1215 30.1789L23.118 30.1695L22.1794 30.5145ZM21.9148 31.097L22.0809 32.0831L22.1776 32.0668L22.2692 32.0321L21.9148 31.097ZM23.7007 33.1977L24.0574 32.2635L24.05 32.2607L24.0426 32.258L23.7007 33.1977ZM23.4267 32.6152L22.4847 32.2797L22.4787 32.2964L22.4734 32.3134L23.4267 32.6152ZM24.0031 32.3383L24.3545 31.4021L24.3328 31.394L24.3108 31.3868L24.0031 32.3383ZM27.8867 28.4138L26.9447 28.7494L26.9481 28.7588L27.8867 28.4138ZM28.7371 28.0987L29.6805 27.7668L29.6776 27.7587L29.6747 27.7507L28.7371 28.0987ZM28.9734 29.445L29.9734 29.4493V29.445H28.9734ZM18.7305 37.9721L18.0106 37.278L16.5014 38.8433L18.672 38.9704L18.7305 37.9721ZM21.1211 35.1839L20.1379 35.3663L20.1408 35.3819L20.1442 35.3975L21.1211 35.1839ZM21.2439 34.7637L21.9547 35.4671L21.2439 34.7637ZM30.249 25.6637L29.5382 24.9603L30.249 25.6637ZM30.6648 25.5396L30.8839 24.5639L30.8675 24.5602L30.8509 24.5571L30.6648 25.5396ZM32.7719 24.9189L33.4767 25.6284L33.4827 25.6223L32.7719 24.9189ZM33.4334 23.1046L34.4298 23.0201L34.2467 20.8611L32.7226 22.4012L33.4334 23.1046ZM31.3168 20.9657L32.0276 21.6691L33.5537 20.1268L31.3898 19.9684L31.3168 20.9657ZM28.9072 23.7635L29.8904 23.5811L29.8885 23.5706L29.8863 23.5601L28.9072 23.7635ZM28.7844 24.1836L28.0736 23.4802V23.4802L28.7844 24.1836ZM19.7793 33.2837L20.4901 33.987L19.7793 33.2837ZM19.3636 33.4078L19.1457 34.3838L19.1615 34.3873L19.1774 34.3903L19.3636 33.4078ZM16.6044 35.8236L15.6061 35.8818L15.7365 38.1224L17.3152 36.527L16.6044 35.8236ZM19.4486 37.2273L18.7377 36.5239L18.7287 36.5332L19.4486 37.2273ZM17.6722 38.6501L17.2974 39.5772L17.6722 38.6501ZM17.5304 37.9053L16.8196 37.2019L17.5304 37.9053ZM18.8344 36.5876L19.5452 37.2909L18.8344 36.5876ZM18.2675 35.7282L17.5566 36.4315L18.2675 35.7282ZM17.984 35.7282L17.2732 35.0248L17.2706 35.0273L17.984 35.7282ZM16.68 37.0554L17.3908 37.7588L17.3933 37.7563L16.68 37.0554ZM16.2737 37.1796L16.0756 38.1598L16.0875 38.1621L16.2737 37.1796ZM15.943 36.9122L15.0177 37.2918L15.0223 37.3027L15.943 36.9122ZM19.3163 32.4816L19.1683 33.4705L19.6702 33.5457L20.0271 33.1849L19.3163 32.4816ZM27.9907 23.7157L28.7015 24.4191L29.0467 24.0702L28.9819 23.5837L27.9907 23.7157ZM32.3751 20.3068L31.9927 21.2309L32.0003 21.2339L32.3751 20.3068ZM31.2128 22.3694L31.9236 23.0727L31.2128 22.3694ZM31.2128 22.6558L31.9236 21.9524L31.2128 22.6558ZM31.7798 23.2288L31.069 23.9321L31.7798 23.2288ZM32.0633 23.2288L32.7741 23.9321L32.0633 23.2288ZM33.3672 21.911L34.078 22.6144L33.3672 21.911ZM33.7736 21.7869L33.9717 20.8066L33.9597 20.8044L33.7736 21.7869ZM34.0948 22.0543L35.0207 21.6761L35.0155 21.6638L34.0948 22.0543ZM30.7215 26.4849L30.8563 25.494L30.3617 25.4268L30.0107 25.7815L30.7215 26.4849ZM22.0566 35.2412L21.3458 34.5378L20.9942 34.8931L21.0673 35.3875L22.0566 35.2412ZM21.1495 37.953L21.8547 38.662L21.8603 38.6564L21.1495 37.953ZM6.10636 4.90714C5.1568 4.90714 4.39767 5.68943 4.39767 6.6233H6.39767C6.39767 6.77417 6.28109 6.90714 6.10636 6.90714V4.90714ZM4.39767 6.6233V43.3958H6.39767V6.6233H4.39767ZM4.39767 43.3958C4.39767 44.3297 5.1568 45.112 6.10636 45.112V43.112C6.28109 43.112 6.39767 43.2449 6.39767 43.3958H4.39767ZM6.10636 45.112H43.9031V43.112H6.10636V45.112ZM43.9031 45.112C44.8526 45.112 45.6118 44.3297 45.6118 43.3958H43.6118C43.6118 43.2449 43.7284 43.112 43.9031 43.112V45.112ZM45.6118 43.3958V6.6233H43.6118V43.3958H45.6118ZM45.6118 6.6233C45.6118 5.69818 44.8707 4.90714 43.9031 4.90714V6.90714C43.7292 6.90714 43.6118 6.76541 43.6118 6.6233H45.6118ZM43.9031 4.90714H6.10636V6.90714H43.9031V4.90714ZM43.9031 44H6.10636V46H43.9031V44ZM6.10636 44C5.7821 44 5.5 43.7242 5.5 43.3862H3.5C3.5 44.8243 4.67308 46 6.10636 46V44ZM5.5 43.3862V6.61375H3.5V43.3862H5.5ZM5.5 6.61375C5.5 6.27194 5.77646 6 6.10636 6V4C4.65981 4 3.5 5.17948 3.5 6.61375H5.5ZM6.10636 6H43.9031V4H6.10636V6ZM43.9031 6C44.2197 6 44.5 6.26808 44.5 6.61375H46.5C46.5 5.18334 45.344 4 43.9031 4V6ZM44.5 6.61375V43.3862H46.5V6.61375H44.5ZM44.5 43.3862C44.5 43.7319 44.2197 44 43.9031 44V46C45.344 46 46.5 44.8167 46.5 43.3862H44.5ZM45.0559 12.909H4.94411V14.909H45.0559V12.909ZM4.94411 12.909C5.26058 12.909 5.5 13.1662 5.5 13.4603H3.5C3.5 14.2509 4.13628 14.909 4.94411 14.909V12.909ZM5.5 13.4603C5.5 13.7544 5.26058 14.0115 4.94411 14.0115V12.0115C4.13628 12.0115 3.5 12.6696 3.5 13.4603H5.5ZM4.94411 14.0115H45.0464V12.0115H4.94411V14.0115ZM45.0464 14.0115C44.73 14.0115 44.4905 13.7544 44.4905 13.4603H46.4905C46.4905 12.6696 45.8543 12.0115 45.0464 12.0115V14.0115ZM44.4913 13.4998C44.4783 13.1715 44.7334 12.909 45.0559 12.909V14.909C45.8697 14.909 46.5217 14.2265 46.4898 13.4207L44.4913 13.4998ZM38.6493 7.12246C37.8132 7.12246 37.158 7.79971 37.158 8.619H39.158C39.158 8.88446 38.9375 9.12246 38.6493 9.12246V7.12246ZM37.158 8.619V10.2805H39.158V8.619H37.158ZM37.158 10.2805C37.158 11.0998 37.8132 11.777 38.6493 11.777V9.77703C38.9375 9.77703 39.158 10.015 39.158 10.2805H37.158ZM38.6493 11.777H40.2935V9.77703H38.6493V11.777ZM40.2935 11.777C41.1297 11.777 41.7849 11.0998 41.7849 10.2805H39.7849C39.7849 10.015 40.0054 9.77703 40.2935 9.77703V11.777ZM41.7849 10.2805V8.619H39.7849V10.2805H41.7849ZM41.7849 8.619C41.7849 7.79972 41.1297 7.12246 40.2935 7.12246V9.12246C40.0054 9.12246 39.7849 8.88445 39.7849 8.619H41.7849ZM40.2935 7.12246H38.6493V9.12246H40.2935V7.12246ZM40.2935 10.6842H38.6493V12.6842H40.2935V10.6842ZM38.6493 10.6842C38.4461 10.6842 38.2603 10.5116 38.2603 10.2805H36.2603C36.2603 11.5963 37.3218 12.6842 38.6493 12.6842V10.6842ZM38.2603 10.2805V8.619H36.2603V10.2805H38.2603ZM38.2603 8.619C38.2603 8.38792 38.4461 8.21533 38.6493 8.21533V6.21533C37.3218 6.21533 36.2603 7.30318 36.2603 8.619H38.2603ZM38.6493 8.21533H40.2935V6.21533H38.6493V8.21533ZM40.2935 8.21533C40.4967 8.21533 40.6825 8.38792 40.6825 8.619H42.6825C42.6825 7.30318 41.621 6.21533 40.2935 6.21533V8.21533ZM40.6825 8.619V10.2805H42.6825V8.619H40.6825ZM40.6825 10.2805C40.6825 10.5116 40.4967 10.6842 40.2935 10.6842V12.6842C41.621 12.6842 42.6825 11.5963 42.6825 10.2805H40.6825ZM31.3451 7.12246C30.5089 7.12246 29.8538 7.79972 29.8538 8.619H31.8538C31.8538 8.88445 31.6332 9.12246 31.3451 9.12246V7.12246ZM29.8538 8.619V10.2805H31.8538V8.619H29.8538ZM29.8538 10.2805C29.8538 11.0998 30.5089 11.777 31.3451 11.777V9.77703C31.6333 9.77703 31.8538 10.015 31.8538 10.2805H29.8538ZM31.3451 11.777H32.9893V9.77703H31.3451V11.777ZM32.9893 11.777C33.8255 11.777 34.4806 11.0998 34.4806 10.2805H32.4806C32.4806 10.015 32.7012 9.77703 32.9893 9.77703V11.777ZM34.4806 10.2805V8.619H32.4806V10.2805H34.4806ZM34.4806 8.619C34.4806 7.79971 33.8255 7.12246 32.9893 7.12246V9.12246C32.7012 9.12246 32.4806 8.88446 32.4806 8.619H34.4806ZM32.9893 7.12246H31.3451V9.12246H32.9893V7.12246ZM32.9893 10.6842H31.3451V12.6842H32.9893V10.6842ZM31.3451 10.6842C31.1419 10.6842 30.9561 10.5116 30.9561 10.2805H28.9561C28.9561 11.5963 30.0176 12.6842 31.3451 12.6842V10.6842ZM30.9561 10.2805V8.619H28.9561V10.2805H30.9561ZM30.9561 8.619C30.9561 8.38792 31.1419 8.21533 31.3451 8.21533V6.21533C30.0176 6.21533 28.9561 7.30318 28.9561 8.619H30.9561ZM31.3451 8.21533H32.9893V6.21533H31.3451V8.21533ZM32.9893 8.21533C33.1925 8.21533 33.3783 8.38792 33.3783 8.619H35.3783C35.3783 7.30318 34.3168 6.21533 32.9893 6.21533V8.21533ZM33.3783 8.619V10.2805H35.3783V8.619H33.3783ZM33.3783 10.2805C33.3783 10.5116 33.1925 10.6842 32.9893 10.6842V12.6842C34.3168 12.6842 35.3783 11.5963 35.3783 10.2805H33.3783ZM24.0315 7.12246C23.1953 7.12246 22.5401 7.79972 22.5401 8.619H24.5401C24.5401 8.88446 24.3196 9.12246 24.0315 9.12246V7.12246ZM22.5401 8.619V10.2805H24.5401V8.619H22.5401ZM22.5401 10.2805C22.5401 11.0998 23.1953 11.777 24.0315 11.777V9.77703C24.3196 9.77703 24.5401 10.015 24.5401 10.2805H22.5401ZM24.0315 11.777H25.6756V9.77703H24.0315V11.777ZM25.6756 11.777C26.5118 11.777 27.167 11.0998 27.167 10.2805H25.167C25.167 10.015 25.3875 9.77703 25.6756 9.77703V11.777ZM27.167 10.2805V8.619H25.167V10.2805H27.167ZM27.167 8.619C27.167 7.79971 26.5118 7.12246 25.6756 7.12246V9.12246C25.3875 9.12246 25.167 8.88446 25.167 8.619H27.167ZM25.6756 7.12246H24.0315V9.12246H25.6756V7.12246ZM25.6851 10.6842H24.0409V12.6842H25.6851V10.6842ZM24.0409 10.6842C23.8377 10.6842 23.6519 10.5116 23.6519 10.2805H21.6519C21.6519 11.5963 22.7134 12.6842 24.0409 12.6842V10.6842ZM23.6519 10.2805V8.619H21.6519V10.2805H23.6519ZM23.6519 8.619C23.6519 8.38792 23.8377 8.21533 24.0409 8.21533V6.21533C22.7134 6.21533 21.6519 7.30318 21.6519 8.619H23.6519ZM24.0409 8.21533H25.6851V6.21533H24.0409V8.21533ZM25.6851 8.21533C25.8883 8.21533 26.0741 8.38792 26.0741 8.619H28.0741C28.0741 7.30318 27.0126 6.21533 25.6851 6.21533V8.21533ZM26.0741 8.619V10.2805H28.0741V8.619H26.0741ZM26.0741 10.2805C26.0741 10.5116 25.8883 10.6842 25.6851 10.6842V12.6842C27.0126 12.6842 28.0741 11.5963 28.0741 10.2805H26.0741ZM20.4691 31.4243C20.6765 31.4243 20.8571 31.5395 20.946 31.6992L19.1985 32.6719C19.4575 33.1372 19.9404 33.4243 20.4691 33.4243V31.4243ZM20.962 31.729C20.8369 31.4854 20.7401 31.2782 20.669 31.07L18.7762 31.7159C18.8942 32.0616 19.043 32.3701 19.1825 32.6421L20.962 31.729ZM19.7226 30.393H18.6643V32.393H19.7226V30.393ZM18.6643 30.393C18.5934 30.393 18.521 30.335 18.521 30.2376H16.521C16.521 31.4197 17.4691 32.393 18.6643 32.393V30.393ZM18.521 30.2376V28.7002H16.521V30.2376H18.521ZM18.521 28.7002C18.521 28.6028 18.5934 28.5448 18.6643 28.5448V26.5448C17.4691 26.5448 16.521 27.5181 16.521 28.7002H18.521ZM18.6643 28.5448H19.7226V26.5448H18.6643V28.5448ZM20.6559 27.904C20.7233 27.7288 20.7813 27.5787 20.8459 27.4318L19.0151 26.6266C18.9285 26.8235 18.8542 27.0171 18.7893 27.1857L20.6559 27.904ZM20.6413 26.3258L19.8948 25.5714L18.4732 26.9782L19.2197 27.7326L20.6413 26.3258ZM19.8948 25.5714C19.8686 25.5449 19.8533 25.5137 19.8533 25.4632H17.8533C17.8533 26.0238 18.0648 26.5655 18.4732 26.9782L19.8948 25.5714ZM19.8533 25.4632C19.8533 25.419 19.8737 25.3763 19.8948 25.3549L18.4732 23.9481C18.0786 24.3469 17.8533 24.8963 17.8533 25.4632H19.8533ZM19.8948 25.3549L20.972 24.2664L19.5504 22.8596L18.4732 23.9481L19.8948 25.3549ZM20.972 24.2664C20.9879 24.2503 21.0016 24.2423 21.0127 24.2378C21.024 24.2331 21.0404 24.2288 21.0644 24.2288V22.2288C20.5003 22.2288 19.9593 22.4464 19.5504 22.8596L20.972 24.2664ZM21.0644 24.2288C21.0987 24.2288 21.136 24.2453 21.1568 24.2664L22.5784 22.8596C22.1834 22.4605 21.6349 22.2288 21.0644 22.2288V24.2288ZM21.1568 24.2664L21.9033 25.0207L23.3249 23.6139L22.5784 22.8596L21.1568 24.2664ZM23.0238 25.2295C23.2026 25.1492 23.3277 25.094 23.4436 25.0549L22.8051 23.1596C22.5808 23.2351 22.3657 23.3326 22.2044 23.4051L23.0238 25.2295ZM24.1243 24.1072V23.0378H22.1243V24.1072H24.1243ZM24.1243 23.0378C24.1243 22.9404 24.1967 22.8824 24.2677 22.8824V20.8824C23.0724 20.8824 22.1243 21.8556 22.1243 23.0378H24.1243ZM24.2677 22.8824H25.789V20.8824H24.2677V22.8824ZM25.789 22.8824C25.8599 22.8824 25.9324 22.9404 25.9324 23.0378H27.9324C27.9324 21.8556 26.9842 20.8824 25.789 20.8824V22.8824ZM25.9324 23.0378V24.1072H27.9324V23.0378H25.9324ZM26.6033 25.0516C26.8076 25.1228 27.0116 25.2201 27.2525 25.3463L28.1808 23.5748C27.9115 23.4337 27.6051 23.2827 27.2614 23.1629L26.6033 25.0516ZM27.2502 25.3451C26.9414 25.1823 26.8907 24.8393 27.0076 24.6129L28.7847 25.5304C29.1284 24.8648 28.9265 23.968 28.183 23.576L27.2502 25.3451ZM27.0234 24.5835C27.1462 24.364 27.4776 24.2078 27.7874 24.3848L26.7954 26.1214C27.5399 26.5467 28.4005 26.2186 28.7689 25.5598L27.0234 24.5835ZM27.7761 24.3784C27.4253 24.184 27.0376 24.0158 26.6238 23.9051L26.107 25.8372C26.3358 25.8984 26.5717 25.9975 26.8067 26.1278L27.7761 24.3784ZM26.6555 23.9142C26.8757 23.9809 27.0441 24.1885 27.0441 24.4415H25.0441C25.0441 25.0954 25.4772 25.6468 26.0753 25.8281L26.6555 23.9142ZM27.0441 24.4415V23.0473H25.0441V24.4415H27.0441ZM27.0441 23.0473C27.0441 22.3713 26.4929 21.7991 25.7984 21.7991V23.7991C25.3686 23.7991 25.0441 23.456 25.0441 23.0473H27.0441ZM25.7984 21.7991H24.2677V23.7991H25.7984V21.7991ZM24.2677 21.7991C23.5732 21.7991 23.022 22.3713 23.022 23.0473H25.022C25.022 23.456 24.6975 23.7991 24.2677 23.7991V21.7991ZM23.022 23.0473V24.4415H25.022V23.0473H23.022ZM23.022 24.4415C23.022 24.2238 23.1633 23.9755 23.4558 23.9016L23.9457 25.8407C24.6161 25.6713 25.022 25.0601 25.022 24.4415H23.022ZM23.4233 23.9104C23.0197 24.0269 22.6253 24.1907 22.2522 24.4028L23.2405 26.1416C23.4721 26.0099 23.7203 25.9063 23.9781 25.8319L23.4233 23.9104ZM22.2568 24.4002C22.4796 24.2752 22.7535 24.316 22.928 24.4924L21.5064 25.8992C21.9644 26.3621 22.673 26.4602 23.2359 26.1442L22.2568 24.4002ZM22.9314 24.4959L21.9581 23.5028L20.5297 24.9027L21.503 25.8958L22.9314 24.4959ZM21.9547 23.4993C21.5969 23.1378 21.1816 23.1359 21.0739 23.1359V25.1359C21.0891 25.1359 20.992 25.1393 20.876 25.1065C20.7456 25.0696 20.6258 24.9998 20.5331 24.9061L21.9547 23.4993ZM21.0739 23.1359C20.9197 23.1359 20.522 23.1668 20.193 23.4993L21.6146 24.9061C21.5034 25.0184 21.382 25.075 21.2928 25.1027C21.207 25.1294 21.1317 25.1359 21.0739 25.1359V23.1359ZM20.193 23.4993L19.1158 24.5879L20.5374 25.9947L21.6146 24.9061L20.193 23.4993ZM19.1158 24.5879C18.8187 24.8881 18.751 25.2346 18.751 25.4632H20.751C20.751 25.5284 20.7426 25.6206 20.706 25.7236C20.6681 25.8298 20.6089 25.9224 20.5374 25.9947L19.1158 24.5879ZM18.751 25.4632C18.751 25.6318 18.7892 26.0595 19.1718 26.3909L20.4813 24.8792C20.7316 25.096 20.751 25.3709 20.751 25.4632H18.751ZM19.1158 26.3384L20.0985 27.3315L21.5201 25.9247L20.5374 24.9317L19.1158 26.3384ZM20.0985 27.3315C19.9266 27.1578 19.8912 26.8947 20.0086 26.6811L21.7612 27.6446C22.0676 27.0873 21.9755 26.3849 21.5201 25.9247L20.0985 27.3315ZM20.0111 26.6765C19.8019 27.0524 19.6405 27.4493 19.5257 27.8552L21.4503 28.3994C21.5245 28.1369 21.6277 27.8845 21.7586 27.6492L20.0111 26.6765ZM19.5294 27.8427C19.5915 27.6335 19.7938 27.452 20.0628 27.452V29.452C20.7287 29.452 21.2712 29.003 21.4467 28.4119L19.5294 27.8427ZM20.0628 27.452H18.6832V29.452H20.0628V27.452ZM18.6832 27.452C17.9888 27.452 17.4375 28.0242 17.4375 28.7002H19.4375C19.4375 29.1089 19.1131 29.452 18.6832 29.452V27.452ZM17.4375 28.7002V30.2376H19.4375V28.7002H17.4375ZM17.4375 30.2376C17.4375 30.9136 17.9888 31.4859 18.6832 31.4859V29.4859C19.1131 29.4859 19.4375 29.8289 19.4375 30.2376H17.4375ZM18.6832 31.4859H20.0628V29.4859H18.6832V31.4859ZM20.0628 31.4859C19.8281 31.4859 19.5867 31.3314 19.5173 31.0507L21.4587 30.5704C21.2948 29.9077 20.6943 29.4859 20.0628 29.4859V31.4859ZM19.5278 31.09C19.6436 31.4877 19.8041 31.8688 19.9965 32.2233L21.7543 31.2693C21.6255 31.0318 21.5214 30.7827 21.4482 30.5311L19.5278 31.09ZM19.9869 32.2051C19.87 31.9787 19.9207 31.6357 20.2295 31.4728L21.1623 33.242C21.9058 32.85 22.1076 31.9531 21.764 31.2875L19.9869 32.2051ZM20.2063 31.4854C20.2444 31.4641 20.3358 31.4243 20.4691 31.4243V33.4243C20.7347 33.4243 20.9773 33.3462 21.1854 33.2294L20.2063 31.4854ZM25.7984 36.0554H24.2677V38.0554H25.7984V36.0554ZM24.2677 36.0554C24.1967 36.0554 24.1243 35.9974 24.1243 35.9H22.1243C22.1243 37.0822 23.0724 38.0554 24.2677 38.0554V36.0554ZM24.1243 35.9V34.8306H22.1243V35.9H24.1243ZM23.4534 33.8863C23.2491 33.8151 23.0451 33.7177 22.8042 33.5915L21.8759 35.363C22.1452 35.5041 22.4516 35.6551 22.7953 35.7749L23.4534 33.8863ZM22.8064 33.5927C23.1152 33.7555 23.1659 34.0986 23.0491 34.3249L21.272 33.4074C20.9283 34.073 21.1302 34.9699 21.8737 35.3618L22.8064 33.5927ZM23.0491 34.3249C22.9083 34.5975 22.5588 34.7184 22.2693 34.553L23.2612 32.8164C22.537 32.4027 21.6395 32.6955 21.272 33.4074L23.0491 34.3249ZM22.2805 34.5594C22.6314 34.7538 23.0191 34.922 23.4329 35.0327L23.9497 33.1006C23.7209 33.0394 23.485 32.9403 23.25 32.81L22.2805 34.5594ZM23.4012 35.0237C23.181 34.9569 23.0126 34.7493 23.0126 34.4964H25.0126C25.0126 33.8424 24.5795 33.291 23.9814 33.1097L23.4012 35.0237ZM23.0126 34.4964V35.8905H25.0126V34.4964H23.0126ZM23.0126 35.8905C23.0126 36.5665 23.5638 37.1388 24.2582 37.1388V35.1388C24.6881 35.1388 25.0126 35.4818 25.0126 35.8905H23.0126ZM24.2582 37.1388H25.7795V35.1388H24.2582V37.1388ZM25.7795 37.1388C26.474 37.1388 27.0252 36.5665 27.0252 35.8905H25.0252C25.0252 35.4818 25.3497 35.1388 25.7795 35.1388V37.1388ZM27.0252 35.8905V34.4964H25.0252V35.8905H27.0252ZM27.0252 34.4964C27.0252 34.714 26.8839 34.9623 26.5914 35.0362L26.1016 33.0971C25.4311 33.2665 25.0252 33.8777 25.0252 34.4964H27.0252ZM26.6239 35.0274C27.0276 34.9109 27.4219 34.7471 27.795 34.535L26.8067 32.7962C26.5751 32.9279 26.3269 33.0315 26.0691 33.1059L26.6239 35.0274ZM27.7704 34.5485C27.6801 34.5966 27.5638 34.6221 27.4385 34.6043C27.3121 34.5863 27.2001 34.5272 27.1192 34.4454L28.5408 33.0386C28.0776 32.5705 27.3869 32.4872 26.8313 32.7827L27.7704 34.5485ZM27.1192 34.4454L28.1019 35.4385L29.5235 34.0317L28.5408 33.0386L27.1192 34.4454ZM28.1019 35.4385C28.5878 35.9294 29.3873 35.9294 29.8732 35.4385L28.4516 34.0317C28.7484 33.7317 29.2267 33.7317 29.5235 34.0317L28.1019 35.4385ZM29.8732 35.4385L30.9504 34.3499L29.5288 32.9431L28.4516 34.0317L29.8732 35.4385ZM30.9504 34.3499C31.3053 33.9912 31.3057 33.5788 31.3057 33.4746H29.3057C29.3057 33.4903 29.3024 33.3959 29.3337 33.2828C29.369 33.1556 29.4362 33.0367 29.5288 32.9431L30.9504 34.3499ZM31.3057 33.4746C31.3057 33.306 31.2675 32.8783 30.8848 32.5469L29.5754 34.0586C29.3251 33.8418 29.3057 33.5669 29.3057 33.4746H31.3057ZM30.9409 32.5994L29.9582 31.6063L28.5366 33.0131L29.5193 34.0061L30.9409 32.5994ZM29.9582 31.6063C30.1301 31.78 30.1655 32.0431 30.0481 32.2567L28.2955 31.2932C27.9891 31.8505 28.0812 32.5529 28.5366 33.0131L29.9582 31.6063ZM30.0456 32.2613C30.2548 31.8854 30.4162 31.4885 30.5309 31.0826L28.6064 30.5384C28.5322 30.8009 28.429 31.0534 28.298 31.2886L30.0456 32.2613ZM30.5273 31.0951C30.4652 31.3043 30.2629 31.4859 29.9939 31.4859V29.4859C29.328 29.4859 28.7855 29.9348 28.61 30.5259L30.5273 31.0951ZM29.9939 31.4859H31.3735V29.4859H29.9939V31.4859ZM31.3735 31.4859C32.0679 31.4859 32.6191 30.9136 32.6191 30.2376H30.6191C30.6191 29.8289 30.9436 29.4859 31.3735 29.4859V31.4859ZM32.6191 30.2376V28.7002H30.6191V30.2376H32.6191ZM32.6191 28.7002C32.6191 28.0242 32.0679 27.452 31.3735 27.452V29.452C30.9436 29.452 30.6191 29.1089 30.6191 28.7002H32.6191ZM31.3735 27.452H29.9939V29.452H31.3735V27.452ZM29.9939 27.452C30.2286 27.452 30.47 27.6064 30.5394 27.8871L28.5979 28.3675C28.7619 29.0301 29.3623 29.452 29.9939 29.452V27.452ZM30.5288 27.8478C30.4131 27.4501 30.2526 27.0691 30.0602 26.7146L28.3023 27.6685C28.4312 27.906 28.5353 28.1551 28.6085 28.4068L30.5288 27.8478ZM30.0698 26.7328C30.1867 26.9591 30.136 27.3021 29.8272 27.465L28.8944 25.6958C28.1509 26.0878 27.9491 26.9847 28.2927 27.6503L30.0698 26.7328ZM29.8568 27.4487C29.5672 27.6141 29.2177 27.4932 29.077 27.2206L30.8541 26.3031C30.4866 25.5912 29.589 25.2984 28.8648 25.7121L29.8568 27.4487ZM29.0892 27.2436C29.2027 27.4499 29.2927 27.6546 29.3687 27.8773L31.2616 27.2314C31.1486 26.9004 31.0119 26.5893 30.8418 26.2801L29.0892 27.2436ZM30.3152 28.5544H31.3735V26.5544H30.3152V28.5544ZM31.3735 28.5544C31.4444 28.5544 31.5168 28.6124 31.5168 28.7098H33.5168C33.5168 27.5276 32.5687 26.5544 31.3735 26.5544V28.5544ZM31.5168 28.7098V30.2471H33.5168V28.7098H31.5168ZM31.5168 30.2471C31.5168 30.3445 31.4444 30.4025 31.3735 30.4025V32.4025C32.5687 32.4025 33.5168 31.4293 33.5168 30.2471H31.5168ZM31.3735 30.4025H30.3152V32.4025H31.3735V30.4025ZM29.3819 31.0434C29.3144 31.2186 29.2565 31.3687 29.1919 31.5156L31.0227 32.3208C31.1092 32.1239 31.1836 31.9302 31.2484 31.7617L29.3819 31.0434ZM29.3965 32.6216L30.143 33.3759L31.5646 31.9691L30.8181 31.2148L29.3965 32.6216ZM30.143 33.3759C30.1692 33.4025 30.1845 33.4337 30.1845 33.4842H32.1845C32.1845 32.9236 31.973 32.3819 31.5646 31.9691L30.143 33.3759ZM30.1845 33.4842C30.1845 33.5284 30.1641 33.5711 30.143 33.5924L31.5646 34.9992C31.9592 34.6005 32.1845 34.0511 32.1845 33.4842H30.1845ZM30.143 33.5924L29.0657 34.681L30.4874 36.0878L31.5646 34.9992L30.143 33.5924ZM29.0657 34.681C29.013 34.7343 28.9243 34.7343 28.8715 34.681L27.4499 36.0878C28.2854 36.9321 29.6519 36.9321 30.4874 36.0878L29.0657 34.681ZM28.8715 34.681L28.1251 33.9267L26.7035 35.3334L27.4499 36.0878L28.8715 34.681ZM27.0046 33.7178C26.8258 33.7981 26.7006 33.8534 26.5848 33.8924L27.2232 35.7878C27.4475 35.7122 27.6626 35.6147 27.824 35.5423L27.0046 33.7178ZM25.904 34.8401V35.9096H27.904V34.8401H25.904ZM25.905 35.9545C25.9062 35.98 25.8984 36.0016 25.8788 36.0217C25.858 36.0431 25.8301 36.0554 25.7984 36.0554V38.0554C26.9755 38.0554 27.9577 37.0806 27.903 35.8647L25.905 35.9545ZM21.7542 30.1161C21.9716 30.1161 22.1829 30.2428 22.2685 30.4775L20.3895 31.1626C20.6074 31.7602 21.1777 32.1161 21.7542 32.1161V30.1161ZM22.2723 30.4882C22.16 30.1691 22.1022 29.8233 22.1022 29.4737H20.1022C20.1022 30.0408 20.1956 30.6116 20.3857 31.152L22.2723 30.4882ZM22.1022 29.4737C22.1022 27.8278 23.4235 26.5014 25.0331 26.5014V24.5014C22.2961 24.5014 20.1022 26.7462 20.1022 29.4737H22.1022ZM25.0331 26.5014C25.3754 26.5014 25.707 26.5591 26.0087 26.6743L26.7221 24.8059C26.1734 24.5964 25.5979 24.5014 25.0331 24.5014V26.5014ZM26.0235 26.6798C25.7123 26.5666 25.6144 26.2471 25.6861 26.0207L27.5928 26.6245C27.8157 25.9206 27.4909 25.0854 26.7073 24.8003L26.0235 26.6798ZM25.6974 25.987C25.8044 25.6866 26.1362 25.5524 26.4049 25.6502L25.7212 27.5297C26.4623 27.7993 27.3043 27.436 27.5814 26.6582L25.6974 25.987ZM26.4144 25.6537C25.9626 25.4841 25.5024 25.4085 25.0331 25.4085V27.4085C25.2818 27.4085 25.502 27.4475 25.7116 27.5262L26.4144 25.6537ZM25.0331 25.4085C22.7984 25.4085 20.9999 27.2412 20.9999 29.4737H22.9999C22.9999 28.3259 23.9227 27.4085 25.0331 27.4085V25.4085ZM20.9999 29.4737C20.9999 29.9333 21.0736 30.4045 21.2408 30.8595L23.118 30.1695C23.0396 29.9561 22.9999 29.7207 22.9999 29.4737H20.9999ZM21.2374 30.8501C21.1405 30.578 21.2761 30.2697 21.5605 30.1619L22.2692 32.0321C23.0072 31.7524 23.3885 30.9285 23.1214 30.1789L21.2374 30.8501ZM21.7488 30.1109C21.7397 30.1124 21.731 30.1139 21.7244 30.115C21.7172 30.1163 21.7123 30.1171 21.7077 30.1179C21.6986 30.1194 21.6967 30.1196 21.698 30.1195C21.6999 30.1192 21.7067 30.1183 21.7169 30.1175C21.7273 30.1167 21.74 30.1161 21.7542 30.1161V32.1161C21.9152 32.1161 22.0625 32.0862 22.0809 32.0831L21.7488 30.1109ZM25.0331 32.4364C24.6908 32.4364 24.3592 32.3787 24.0574 32.2635L23.3441 34.132C23.8927 34.3414 24.4683 34.4364 25.0331 34.4364V32.4364ZM24.0426 32.258C24.3538 32.3712 24.4518 32.6907 24.38 32.9171L22.4734 32.3134C22.2505 33.0173 22.5752 33.8524 23.3589 34.1375L24.0426 32.258ZM24.3687 32.9508C24.2612 33.2526 23.9419 33.3695 23.6954 33.2898L24.3108 31.3868C23.5919 31.1544 22.7623 31.5005 22.4847 32.2797L24.3687 32.9508ZM23.6517 33.2746C24.1035 33.4441 24.5637 33.5198 25.0331 33.5198V31.5198C24.7843 31.5198 24.5641 31.4808 24.3545 31.4021L23.6517 33.2746ZM25.0331 33.5198C27.2677 33.5198 29.0663 31.6871 29.0663 29.4546H27.0663C27.0663 30.6024 26.1434 31.5198 25.0331 31.5198V33.5198ZM29.0663 29.4546C29.0663 28.995 28.9925 28.5237 28.8253 28.0688L26.9481 28.7588C27.0266 28.9722 27.0663 29.2075 27.0663 29.4546H29.0663ZM28.8287 28.0782C28.929 28.3598 28.7805 28.67 28.5026 28.771L27.8189 26.8915C27.0686 27.1645 26.6743 27.9903 26.9447 28.7493L28.8287 28.0782ZM28.5026 28.771C28.2103 28.8774 27.9014 28.7209 27.7996 28.4466L29.6747 27.7507C29.4028 27.0181 28.5837 26.6133 27.8189 26.8915L28.5026 28.771ZM27.7938 28.4306C27.9107 28.7627 27.9734 29.109 27.9734 29.445H29.9734C29.9734 28.8644 29.866 28.294 29.6805 27.7668L27.7938 28.4306ZM27.9734 29.4408C27.9662 31.1194 26.6325 32.4364 25.0331 32.4364V34.4364C27.7614 34.4364 29.9616 32.2013 29.9734 29.4493L27.9734 29.4408ZM18.672 38.9704C19.5893 39.0242 20.5473 38.6941 21.2177 38.0167L19.7961 36.6099C19.5594 36.8491 19.1756 36.9965 18.7889 36.9738L18.672 38.9704ZM21.2177 38.0167C22.0432 37.1825 22.3495 36.1207 22.098 34.9703L20.1442 35.3975C20.2517 35.8895 20.1423 36.26 19.7961 36.6099L21.2177 38.0167ZM22.1043 35.0014C22.1156 35.0622 22.1169 35.1414 22.0922 35.2294C22.0668 35.32 22.0185 35.4027 21.9547 35.4671L20.5331 34.0603C20.1635 34.4338 20.0568 34.9293 20.1379 35.3663L22.1043 35.0014ZM21.9547 35.4671L30.9598 26.3671L29.5382 24.9603L20.5331 34.0603L21.9547 35.4671ZM30.9598 26.3671C30.8173 26.5111 30.6364 26.552 30.4786 26.5221L30.8509 24.5571C30.3908 24.4699 29.8886 24.6062 29.5382 24.9603L30.9598 26.3671ZM30.4457 26.5153C31.5565 26.7647 32.686 26.4139 33.4767 25.6283L32.0672 24.2095C31.7429 24.5316 31.3038 24.6582 30.8839 24.5639L30.4457 26.5153ZM33.4827 25.6223C34.1702 24.9276 34.5113 23.9809 34.4298 23.0201L32.437 23.1891C32.4689 23.5652 32.3375 23.9362 32.0611 24.2155L33.4827 25.6223ZM32.7226 22.4012L31.9855 23.146L33.4072 24.5528L34.1442 23.808L32.7226 22.4012ZM31.9855 23.146C31.9697 23.1621 31.9485 23.1717 31.9215 23.1717C31.8945 23.1717 31.8734 23.1621 31.8575 23.146L30.4359 24.5528C31.2524 25.378 32.5906 25.378 33.4072 24.5528L31.9855 23.146ZM31.8575 23.146L31.2905 22.5731L29.8689 23.9799L30.4359 24.5528L31.8575 23.146ZM31.2905 22.5731C31.2741 22.5565 31.2608 22.5301 31.2608 22.4935C31.2608 22.4569 31.2741 22.4305 31.2905 22.4139L29.8689 21.0071C29.0581 21.8265 29.0581 23.1605 29.8689 23.9799L31.2905 22.5731ZM31.2905 22.4139L32.0276 21.6691L30.606 20.2623L29.8689 21.0071L31.2905 22.4139ZM31.3898 19.9684C30.4549 19.8999 29.5138 20.2296 28.8201 20.9307L30.2417 22.3375C30.5117 22.0646 30.8746 21.936 31.2437 21.963L31.3898 19.9684ZM28.8201 20.9307C28.0221 21.7371 27.7007 22.8719 27.9281 23.9668L29.8863 23.5601C29.7925 23.1082 29.9246 22.6579 30.2417 22.3375L28.8201 20.9307ZM27.924 23.9459C27.9127 23.8852 27.9114 23.806 27.9361 23.7179C27.9615 23.6273 28.0099 23.5446 28.0736 23.4802L29.4952 24.887C29.8648 24.5135 29.9715 24.0181 29.8904 23.5811L27.924 23.9459ZM28.0736 23.4802L19.0685 32.5803L20.4901 33.987L29.4952 24.887L28.0736 23.4802ZM19.0685 32.5803C19.211 32.4363 19.392 32.3954 19.5497 32.4253L19.1774 34.3903C19.6375 34.4775 20.1397 34.3411 20.4901 33.987L19.0685 32.5803ZM19.5815 32.4318C18.4309 32.1749 17.372 32.49 16.5456 33.3251L17.9672 34.7319C18.3125 34.3829 18.6709 34.2778 19.1457 34.3838L19.5815 32.4318ZM16.5456 33.3251C15.875 34.0027 15.5533 34.9752 15.6061 35.8818L17.6027 35.7655C17.5799 35.3734 17.7307 34.9709 17.9672 34.7319L16.5456 33.3251ZM17.3152 36.527L18.0428 35.7918L16.6212 34.385L15.8936 35.1203L17.3152 36.527ZM18.0428 35.7918C18.0587 35.7757 18.0798 35.7661 18.1068 35.7661C18.1338 35.7661 18.155 35.7757 18.1708 35.7918L19.5925 34.385C18.7759 33.5598 17.4377 33.5598 16.6212 34.385L18.0428 35.7918ZM18.1708 35.7918L18.7378 36.3647L20.1594 34.9579L19.5925 34.385L18.1708 35.7918ZM18.7378 36.3647C18.7595 36.3866 18.7699 36.4104 18.7699 36.4443H20.7699C20.7699 35.8862 20.5535 35.3562 20.1594 34.9579L18.7378 36.3647ZM18.7699 36.4443C18.7699 36.4782 18.7595 36.502 18.7378 36.5239L20.1594 37.9307C20.5535 37.5325 20.7699 37.0024 20.7699 36.4443H18.7699ZM18.7287 36.5332L18.0106 37.278L19.4503 38.6662L20.1685 37.9214L18.7287 36.5332ZM18.8627 37.8793C18.5808 37.8793 18.302 37.8261 18.0469 37.723L17.2974 39.5772C17.7982 39.7797 18.3321 39.8793 18.8627 39.8793V37.8793ZM18.0469 37.723C18.2503 37.8052 18.3626 37.9816 18.3908 38.1335L16.4244 38.4983C16.5092 38.9557 16.8106 39.3804 17.2974 39.5772L18.0469 37.723ZM18.3908 38.1335C18.4208 38.2951 18.3731 38.4754 18.2412 38.6087L16.8196 37.2019C16.4798 37.5452 16.3377 38.0311 16.4244 38.4983L18.3908 38.1335ZM18.2412 38.6087L19.5452 37.2909L18.1236 35.8842L16.8196 37.2019L18.2412 38.6087ZM19.5452 37.2909C19.8549 36.9779 19.8911 36.6013 19.8911 36.4443H17.8911C17.8911 36.3657 17.9017 36.2875 17.9266 36.2084C17.9523 36.1269 18.0069 36.0021 18.1236 35.8842L19.5452 37.2909ZM19.8911 36.4443C19.8911 36.2874 19.8549 35.9107 19.5452 35.5977L18.1236 37.0045C18.0069 36.8865 17.9523 36.7618 17.9266 36.6802C17.9017 36.6011 17.8911 36.523 17.8911 36.4443H19.8911ZM19.5452 35.5977L18.9783 35.0248L17.5566 36.4315L18.1236 37.0045L19.5452 35.5977ZM18.9783 35.0248C18.5113 34.5529 17.7401 34.5529 17.2732 35.0248L18.6948 36.4315C18.379 36.7506 17.8724 36.7506 17.5566 36.4315L18.9783 35.0248ZM17.2706 35.0273L15.9666 36.3546L17.3933 37.7563L18.6973 36.429L17.2706 35.0273ZM15.9692 36.3521C16.102 36.2178 16.2881 36.1645 16.4598 36.1971L16.0875 38.1621C16.5616 38.2519 17.0501 38.1031 17.3908 37.7588L15.9692 36.3521ZM16.4718 36.1994C16.5705 36.2193 16.6468 36.2607 16.7032 36.3061C16.7596 36.3514 16.8208 36.4208 16.8636 36.5218L15.0223 37.3027C15.212 37.75 15.6212 38.0679 16.0756 38.1598L16.4718 36.1994ZM16.8681 36.5326C16.5376 35.7272 16.7393 34.7123 17.3435 34.1016L15.9219 32.6949C14.7498 33.8794 14.3844 35.7482 15.0178 37.2918L16.8681 36.5326ZM17.3435 34.1016C17.8748 33.5647 18.4759 33.3669 19.1683 33.4705L19.4644 31.4926C18.1157 31.2907 16.8836 31.723 15.9219 32.6949L17.3435 34.1016ZM20.0271 33.1849L28.7015 24.4191L27.2799 23.0124L18.6055 31.7782L20.0271 33.1849ZM28.9819 23.5837C28.8901 22.8943 29.1199 22.2011 29.6086 21.7073L28.187 20.3005C27.2582 21.239 26.8267 22.5511 26.9994 23.8478L28.9819 23.5837ZM29.6086 21.7073C30.2367 21.0725 31.1645 20.8881 31.9927 21.2308L32.7574 19.3828C31.1856 18.7324 29.392 19.0828 28.187 20.3005L29.6086 21.7073ZM32.0003 21.2339C31.797 21.1517 31.6846 20.9753 31.6564 20.8235L33.6229 20.4586C33.538 20.0012 33.2367 19.5765 32.7498 19.3797L32.0003 21.2339ZM31.6564 20.8235C31.6264 20.6618 31.6741 20.4815 31.806 20.3482L33.2276 21.755C33.5674 21.4117 33.7096 20.9258 33.6229 20.4586L31.6564 20.8235ZM31.806 20.3482L30.502 21.666L31.9236 23.0727L33.2276 21.755L31.806 20.3482ZM30.502 21.666C30.0408 22.132 30.0408 22.8932 30.502 23.3592L31.9236 21.9524C32.0924 22.123 32.1561 22.3336 32.1561 22.5126C32.1561 22.6916 32.0924 22.9022 31.9236 23.0727L30.502 21.666ZM30.502 23.3592L31.069 23.9321L32.4906 22.5254L31.9236 21.9524L30.502 23.3592ZM31.069 23.9321C31.5359 24.404 32.3071 24.404 32.7741 23.9321L31.3525 22.5254C31.6682 22.2063 32.1748 22.2063 32.4906 22.5254L31.069 23.9321ZM32.7741 23.9321L34.078 22.6144L32.6564 21.2076L31.3525 22.5254L32.7741 23.9321ZM34.078 22.6144C33.9452 22.7486 33.7591 22.8019 33.5874 22.7694L33.9597 20.8044C33.4857 20.7145 32.9971 20.8633 32.6564 21.2076L34.078 22.6144ZM33.5755 22.7671C33.3745 22.7265 33.2384 22.5961 33.1742 22.4447L35.0155 21.6638C34.8378 21.245 34.4561 20.9046 33.9717 20.8067L33.5755 22.7671ZM33.1691 22.4323C33.5112 23.2701 33.3247 24.2277 32.6942 24.8648L34.1158 26.2716C35.3186 25.0562 35.6612 23.2447 35.0206 21.6762L33.1691 22.4323ZM32.6942 24.8648C32.2063 25.3579 31.5272 25.5853 30.8563 25.494L30.5867 27.4758C31.8812 27.6519 33.1864 27.2108 34.1158 26.2716L32.6942 24.8648ZM30.0107 25.7815L21.3458 34.5378L22.7674 35.9446L31.4323 27.1883L30.0107 25.7815ZM21.0673 35.3875C21.1712 36.0894 20.97 36.7127 20.4386 37.2496L21.8603 38.6564C22.8219 37.6847 23.2443 36.4364 23.0458 35.0948L21.0673 35.3875ZM20.4442 37.2441C20.0379 37.6483 19.4554 37.8793 18.8627 37.8793V39.8793C19.9521 39.8793 21.0515 39.4609 21.8547 38.662L20.4442 37.2441Z" fill="#105AB3" mask="url(#path-1-inside-1_1902_39140)"/>
</g>
</svg>
