<svg width="50" height="25" viewBox="0 0 50 25" fill="none" xmlns="http://www.w3.org/2000/svg">
<path d="M5.5 2.5H44.5V22.5H5.5V2.5ZM26.9071 10.5873H44.018V9.23547H35.6649L44.0176 5.05608V2.98411L31.5255 9.23505H28.465L40.957 2.9837H39.8774L28.2562 8.79889V2.9837H26.9071V10.5873ZM23.0925 2.9837H21.7442V8.79847L10.1222 2.9837H5.98285L18.4749 9.23505H15.4144L5.98285 4.51568V5.05567L14.3347 9.23505H5.98285V10.5869H23.0929L23.0925 2.9837ZM23.0925 14.4131H5.98285V15.7649H14.3347L5.98285 19.9447V22.0167L18.4749 15.7654H21.5363L9.04338 22.0163H10.1222L21.7442 16.2015V22.0163H23.0925V14.4131ZM26.9071 22.0163H28.2562V16.2015L39.8774 22.0163H44.0176L31.5255 15.7649H34.5869L44.0176 20.4852V19.9443L35.6649 15.7649H44.0176V14.4131H26.9071V22.0163Z" fill="#105AB3" fill-opacity="0.5"/>
</svg>
