<svg width="50" height="25" viewBox="0 0 50 25" fill="none" xmlns="http://www.w3.org/2000/svg">
<path d="M6 2.5H44V22.5H6V2.5ZM43.757 19.4227H6.2405V20.9609H43.757V19.4227ZM43.757 16.3458H6.2405V17.8845H43.757V16.3458ZM43.757 8.65378V7.11555H20.6689V5.57731H43.757V4.03865H20.6689V2.74358H20.4284V13.2693H6.2405V14.8076H43.757V13.2693H20.6689V11.7315H43.757V10.1929H20.6689V8.6542L43.757 8.65378ZM18.8485 3.35212L19.1323 3.559L19.0241 3.89309L19.3079 3.68705L19.5908 3.89309L19.4835 3.559L19.7664 3.35212H19.416L19.3079 3.01719L19.1997 3.35212H18.8485ZM18.8485 12.2354L19.1323 12.4414L19.0241 12.7767L19.3079 12.5699L19.5908 12.7767L19.4835 12.4414L19.7664 12.2354H19.416L19.3079 11.9021L19.1997 12.2354H18.8485ZM18.8485 7.79332L19.1323 8.0002L19.0241 8.33512L19.3079 8.12908L19.5908 8.33512L19.4835 8.0002L19.7664 7.79332H19.416L19.3079 7.46006L19.1997 7.79332H18.8485ZM18.8485 5.57355L19.1323 5.7796L19.0241 6.11369L19.3079 5.90681L19.5908 6.11369L19.4835 5.7796L19.7664 5.57355H19.416L19.3079 5.23863L19.1997 5.57355H18.8485ZM18.8485 10.0156L19.1323 10.2216L19.0241 10.5549L19.3079 10.3488L19.5908 10.5549L19.4835 10.2216L19.7664 10.0156H19.416L19.3079 9.67983L19.1997 10.0156H18.8485ZM12.7844 11.1251L13.069 11.3319L12.96 11.666L13.2446 11.4591L13.5275 11.666L13.4185 11.3319L13.7031 11.1251H13.3519L13.2446 10.791L13.1356 11.1251H12.7844ZM12.7844 6.68302L13.069 6.88906L12.96 7.22482L13.2446 7.01795L13.5275 7.22482L13.4185 6.88906L13.7031 6.68302H13.3519L13.2446 6.34976L13.1356 6.68302H12.7844ZM12.7844 4.46325L13.069 4.6693L12.96 5.00255L13.2446 4.79651L13.5275 5.00255L13.4185 4.6693L13.7031 4.46325H13.3519L13.2446 4.12749L13.1356 4.46325H12.7844ZM12.7844 8.90445L13.069 9.11133L12.96 9.44542L13.2446 9.23855L13.5275 9.44542L13.4185 9.11133L13.7031 8.90445H13.3519L13.2446 8.56953L13.1356 8.90445H12.7844ZM16.4235 3.35212L16.7065 3.559L16.5974 3.89309L16.882 3.68705L17.1667 3.89309L17.0576 3.559L17.3422 3.35212H16.9911L16.882 3.01719L16.773 3.35212H16.4235ZM16.4235 12.2354L16.7065 12.4414L16.5974 12.7772L16.882 12.5703L17.1667 12.7772L17.0576 12.4418L17.3422 12.2358H16.9911L16.882 11.9025L16.773 12.2358L16.4235 12.2354ZM16.4235 7.79332L16.7065 8.0002L16.5974 8.33512L16.882 8.12908L17.1667 8.33512L17.0576 8.0002L17.3422 7.79332H16.9911L16.882 7.46006L16.773 7.79332H16.4235ZM16.4235 5.57355L16.7065 5.7796L16.5974 6.11369L16.882 5.90681L17.1667 6.11369L17.0576 5.7796L17.3422 5.57355H16.9911L16.882 5.23863L16.773 5.57355H16.4235ZM16.4235 10.0156L16.7065 10.2216L16.5974 10.5549L16.882 10.3488L17.1667 10.5549L17.0576 10.2216L17.3422 10.0156H16.9911L16.882 9.67983L16.773 10.0156H16.4235ZM13.9977 3.35212L14.2815 3.559L14.1733 3.89309L14.4562 3.68705L14.74 3.89309L14.6318 3.559L14.9156 3.35212H14.5644L14.4562 3.01719L14.3489 3.35212H13.9977ZM13.9977 12.2354L14.2815 12.4414L14.1733 12.7767L14.4562 12.5699L14.74 12.7767L14.6318 12.4414L14.9156 12.2354H14.5644L14.4562 11.9021L14.3489 12.2354H13.9977ZM13.9977 7.79332L14.2815 8.0002L14.1733 8.33512L14.4562 8.12908L14.74 8.33512L14.6318 8.0002L14.9156 7.79332H14.5644L14.4562 7.46006L14.3489 7.79332H13.9977ZM13.9977 5.57355L14.2815 5.7796L14.1733 6.11369L14.4562 5.90681L14.74 6.11369L14.6318 5.7796L14.9156 5.57355H14.5644L14.4562 5.23863L14.3489 5.57355H13.9977ZM13.9977 10.0156L14.2815 10.2216L14.1733 10.5549L14.4562 10.3488L14.74 10.5549L14.6318 10.2216L14.9156 10.0156H14.5644L14.4562 9.67983L14.3489 10.0156H13.9977ZM11.5719 3.35212L11.8565 3.559L11.7475 3.89309L12.0321 3.68705L12.3159 3.89309L12.2077 3.559L12.4906 3.35212H12.1403L12.0321 3.01719L11.9231 3.35212H11.5719ZM11.5719 12.2354L11.8565 12.4414L11.7475 12.7767L12.0321 12.5699L12.3159 12.7767L12.2077 12.4414L12.4906 12.2354H12.1403L12.0321 11.9021L11.9231 12.2354H11.5719ZM11.5719 7.79332L11.8565 8.0002L11.7475 8.33512L12.0321 8.12908L12.3159 8.33512L12.2077 8.0002L12.4906 7.79332H12.1403L12.0321 7.46006L11.9231 7.79332H11.5719ZM11.5719 5.57355L11.8565 5.7796L11.7475 6.11369L12.0321 5.90681L12.3159 6.11369L12.2077 5.7796L12.4906 5.57355H12.1403L12.0321 5.23863L11.9231 5.57355H11.5719ZM11.5719 10.0156L11.8565 10.2216L11.7475 10.5549L12.0321 10.3488L12.3159 10.5549L12.2077 10.2216L12.4906 10.0156H12.1403L12.0321 9.67983L11.9231 10.0156H11.5719ZM9.14649 3.35212L9.42943 3.559L9.32125 3.89309L9.60502 3.68705L9.88963 3.89309L9.78061 3.559L10.0648 3.35212H9.71362L9.6046 3.01719L9.49642 3.35212H9.14649ZM9.14649 12.2354L9.42943 12.4414L9.32125 12.7767L9.60502 12.5699L9.88963 12.7767L9.78061 12.4414L10.0648 12.2354H9.71362L9.6046 11.9021L9.49642 12.2354H9.14649ZM9.14649 7.79332L9.42943 8.0002L9.32125 8.33512L9.60502 8.12908L9.88963 8.33512L9.78061 8.0002L10.0648 7.79332H9.71362L9.6046 7.46006L9.49642 7.79332H9.14649ZM9.14649 5.57355L9.42943 5.7796L9.32125 6.11369L9.60502 5.90681L9.88963 6.11369L9.78061 5.7796L10.0648 5.57355H9.71362L9.6046 5.23863L9.49642 5.57355H9.14649ZM9.14649 10.0156L9.42943 10.2216L9.32125 10.5549L9.60502 10.3488L9.88963 10.5549L9.78061 10.2216L10.0648 10.0156H9.71362L9.6046 9.67983L9.49642 10.0156H9.14649ZM6.7215 3.35212L7.00528 3.559L6.89709 3.89309L7.18087 3.68705L7.46381 3.89309L7.35563 3.559L7.6394 3.35212H7.28822L7.18087 3.01719L7.07268 3.35212H6.7215ZM6.7215 12.2354L7.00528 12.4414L6.89709 12.7767L7.18087 12.5699L7.46381 12.7767L7.35563 12.4414L7.6394 12.2354H7.28822L7.18087 11.9021L7.07268 12.2354H6.7215ZM6.7215 7.79332L7.00528 8.0002L6.89709 8.33512L7.18087 8.12908L7.46381 8.33512L7.35563 8.0002L7.6394 7.79332H7.28822L7.18087 7.46006L7.07268 7.79332H6.7215ZM6.7215 5.57355L7.00528 5.7796L6.89709 6.11369L7.18087 5.90681L7.46381 6.11369L7.35563 5.7796L7.6394 5.57355H7.28822L7.18087 5.23863L7.07268 5.57355H6.7215ZM6.7215 10.0156L7.00528 10.2216L6.89709 10.5549L7.18087 10.3488L7.46381 10.5549L7.35563 10.2216L7.6394 10.0156H7.28822L7.18087 9.67983L7.07268 10.0156H6.7215ZM7.93399 11.1251L8.2186 11.3319L8.10959 11.666L8.39253 11.4591L8.67713 11.666L8.56812 11.3319L8.85273 11.1251H8.50154L8.39253 10.791L8.28351 11.1251H7.93399ZM7.93399 6.68302L8.2186 6.88906L8.10959 7.22482L8.39253 7.01795L8.67713 7.22482L8.56812 6.88906L8.85273 6.68302H8.50154L8.39253 6.34976L8.28351 6.68302H7.93399ZM7.93399 4.46325L8.2186 4.6693L8.10959 5.00255L8.39253 4.79651L8.67713 5.00255L8.56812 4.6693L8.85273 4.46325H8.50154L8.39253 4.12749L8.28351 4.46325H7.93399ZM7.93399 8.90445L8.2186 9.11133L8.10959 9.44542L8.39253 9.23855L8.67713 9.44542L8.56812 9.11133L8.85273 8.90445H8.50154L8.39253 8.56953L8.28351 8.90445H7.93399ZM10.3594 11.1251L10.6432 11.3319L10.535 11.666L10.8188 11.4591L11.1025 11.666L10.9943 11.3319L11.2781 11.1251H10.9269L10.8188 10.791L10.7106 11.1251H10.3594ZM10.3594 6.68302L10.6432 6.88906L10.535 7.22482L10.8188 7.01795L11.1025 7.22482L10.9943 6.88906L11.2781 6.68302H10.9269L10.8188 6.34976L10.7106 6.68302H10.3594ZM10.3594 4.46325L10.6432 4.6693L10.535 5.00255L10.8188 4.79651L11.1025 5.00255L10.9943 4.6693L11.2781 4.46325H10.9269L10.8188 4.12749L10.7106 4.46325H10.3594ZM10.3594 8.90445L10.6432 9.11133L10.535 9.44542L10.8188 9.23855L11.1025 9.44542L10.9943 9.11133L11.2781 8.90445H10.9269L10.8188 8.56953L10.7106 8.90445H10.3594ZM15.211 11.1251L15.494 11.3319L15.3866 11.666L15.6696 11.4591L15.9533 11.666L15.8451 11.3319L16.1289 11.1251H15.7777L15.6696 10.791L15.5605 11.1251H15.211ZM15.211 6.68302L15.494 6.88906L15.3866 7.22482L15.6696 7.01795L15.9533 7.22482L15.8451 6.88906L16.1289 6.68302H15.7777L15.6696 6.34976L15.5605 6.68302H15.211ZM15.211 4.46325L15.494 4.6693L15.3866 5.00255L15.6696 4.79651L15.9533 5.00255L15.8451 4.6693L16.1289 4.46325H15.7777L15.6696 4.12749L15.5605 4.46325H15.211ZM15.211 8.90445L15.494 9.11133L15.3866 9.44542L15.6696 9.23855L15.9533 9.44542L15.8451 9.11133L16.1289 8.90445H15.7777L15.6696 8.56953L15.5605 8.90445H15.211ZM17.6352 11.1251L17.919 11.3319L17.8108 11.666L18.0945 11.4591L18.3791 11.666L18.2701 11.3319L18.5531 11.1251H18.2036L18.0945 10.791L17.9864 11.1251H17.6352ZM17.6352 6.68302L17.919 6.88906L17.8108 7.22482L18.0945 7.01795L18.3791 7.22482L18.2701 6.88906L18.5531 6.68302H18.2036L18.0945 6.34976L17.9864 6.68302H17.6352ZM17.6352 4.46325L17.919 4.6693L17.8108 5.00255L18.0945 4.79651L18.3791 5.00255L18.2701 4.6693L18.5531 4.46325H18.2036L18.0945 4.12749L17.9864 4.46325H17.6352ZM17.6352 8.90445L17.919 9.11133L17.8108 9.44542L18.0945 9.23855L18.3791 9.44542L18.2701 9.11133L18.5531 8.90445H18.2036L18.0945 8.56953L17.9864 8.90445H17.6352Z" fill="#105AB3" fill-opacity="0.5"/>
</svg>
