<svg width="48" height="36" viewBox="0 0 48 36" fill="none" xmlns="http://www.w3.org/2000/svg">
    <path d="M33.512 36C33.2269 36 32.9939 35.7664 32.9939 35.4805V33.6171H15.0089V35.4805C15.0089 35.7678 14.7759 36 14.4908 36H9.73579C9.44931 36 9.21766 35.7664 9.21766 35.4805V33.6171H1.01813C0.733019 33.6171 0.5 33.3835 0.5 33.0977V21.9735C0.5 21.6863 0.733019 21.4541 1.01813 21.4541H9.21766V19.5906C9.21766 19.3034 9.45068 19.0712 9.73579 19.0712H14.4908C14.7759 19.0712 15.0089 19.3048 15.0089 19.5906V21.4541H17.1417V18.4707L16.9361 18.4171C15.6572 18.0873 14.7649 16.9316 14.7663 15.6068C14.7676 14.0114 16.0643 12.7128 17.6571 12.7128H19.5199V8.98454H12.1126C11.8275 8.98454 11.5945 8.75093 11.5945 8.46509V0.51945C11.5945 0.232241 11.8275 0 12.1126 0H18.4535C18.7386 0 18.9716 0.233615 18.9716 0.51945V3.17853H29.0298V0.51945C29.0298 0.232241 29.2628 0 29.5479 0H35.8888C36.1739 0 36.4069 0.233615 36.4069 0.51945V8.46509C36.4069 8.75093 36.1739 8.98454 35.8888 8.98454H28.4815V12.7128H30.3402C31.6629 12.7128 32.8143 13.6074 33.1433 14.8881C33.3352 15.6371 33.2255 16.4176 32.8321 17.0841C32.4387 17.7506 31.8109 18.2233 31.0639 18.4171L30.8583 18.4707V21.4541H32.9911V19.5906C32.9911 19.3034 33.2241 19.0712 33.5092 19.0712H38.2642C38.5507 19.0712 38.7823 19.3048 38.7823 19.5906V21.4541H46.9819C47.267 21.4541 47.5 21.6877 47.5 21.9735V33.0977C47.5 33.3849 47.267 33.6171 46.9819 33.6171H38.7823V35.4805C38.7823 35.7678 38.5493 36 38.2642 36H33.5092H33.512ZM34.0301 34.9611H37.7488V20.1087H34.0301V34.9611ZM10.2539 34.9611H13.9726V20.1087H10.2539V34.9611ZM38.7851 32.5769H46.4665V22.493H38.7851V32.5769ZM30.8597 32.5769H32.9925V22.493H30.8597V32.5769ZM18.1793 32.5769H29.8234V18.5201H18.1793V32.5769ZM15.0089 32.5769H17.1417V22.493H15.0089V32.5769ZM1.53625 32.5769H9.21766V22.493H1.53625V32.5769ZM17.6612 13.7517C16.6359 13.7517 15.8025 14.5872 15.8025 15.6151C15.8025 16.643 16.6359 17.4785 17.6612 17.4785H30.3416C31.3668 17.4785 32.2002 16.643 32.2002 15.6151C32.2002 14.5872 31.3668 13.7517 30.3416 13.7517H17.6612ZM20.5575 12.7128H27.4466V8.98454H20.5575V12.7128ZM12.6321 7.94564H35.372V1.0389H30.0688V3.69798C30.0688 3.98519 29.8358 4.21743 29.5507 4.21743H18.4548C18.1683 4.21743 17.9367 3.98381 17.9367 3.69798V1.0389H12.6335V7.94564H12.6321Z" fill="#105AB3"/>
</svg>
