<svg width="50" height="50" viewBox="0 0 50 50" fill="none" xmlns="http://www.w3.org/2000/svg">
    <mask id="path-1-outside-1_1902_29346" maskUnits="userSpaceOnUse" x="12" y="4" width="26" height="42" fill="black">
    <rect fill="white" x="12" y="4" width="26" height="42"/>
    <path d="M14.5624 45C13.7011 45 13 44.2929 13 43.4241V41.8482H13.9098C14.1281 41.8482 14.3046 41.6702 14.3046 41.45V40.1341C14.3046 39.914 14.1281 39.7359 13.9098 39.7359H13V29.5638L14.2843 25.677C14.2978 25.6366 14.3046 25.5939 14.3046 25.5513V17.4142C14.3046 15.4492 14.7648 13.4813 15.6363 11.7234L15.867 11.258L16.0976 11.7234C16.9685 13.4813 17.4293 15.4492 17.4293 17.4142V25.5513C17.4293 25.5939 17.4361 25.6366 17.4496 25.677L18.7339 29.5638V39.7359H17.8241C17.6059 39.7359 17.4293 39.914 17.4293 40.1341V41.45C17.4293 41.6702 17.6059 41.8482 17.8241 41.8482H18.7339V43.4241C18.7339 44.2929 18.0328 45 17.1716 45H14.5624ZM13.9098 42.3682C13.6915 42.3682 13.515 42.5463 13.515 42.7665V43.4247C13.515 44.0073 13.9848 44.4812 14.5624 44.4812H17.1716C17.7491 44.4812 18.219 44.0073 18.219 43.4247V42.7665C18.219 42.5463 18.0424 42.3682 17.8241 42.3682H13.9098ZM15.2144 39.7365C14.9961 39.7365 14.8196 39.9145 14.8196 40.1347V41.4506C14.8196 41.6707 14.9961 41.8488 15.2144 41.8488H16.519C16.7373 41.8488 16.9138 41.6707 16.9138 41.4506V40.1347C16.9138 39.9145 16.7373 39.7365 16.519 39.7365H15.2144ZM13.9098 29.8665C13.6915 29.8665 13.515 30.0445 13.515 30.2647V38.8188C13.515 39.039 13.6915 39.217 13.9098 39.217H17.8241C18.0424 39.217 18.219 39.039 18.219 38.8188V30.2647C18.219 30.0445 18.0424 29.8665 17.8241 29.8665H13.9098ZM15.0316 25.9182C14.8619 25.9182 14.7107 26.028 14.6571 26.1907L13.7874 28.8225C13.7473 28.9437 13.7676 29.0774 13.8415 29.1815C13.916 29.2856 14.035 29.347 14.1619 29.347H17.5703C17.6972 29.347 17.8162 29.2856 17.8907 29.1815C17.9651 29.0774 17.9849 28.9442 17.9448 28.8225L17.0751 26.1907C17.0215 26.028 16.8704 25.9182 16.7006 25.9182H15.0316ZM15.8664 13.1331C15.6983 13.1331 15.5488 13.2406 15.4936 13.4005C15.0463 14.6993 14.8196 16.0499 14.8196 17.4147V25C14.8196 25.2202 14.9961 25.3982 15.2144 25.3982H16.519C16.7373 25.3982 16.9138 25.2202 16.9138 25V17.4136C16.9138 16.0494 16.6871 14.6988 16.2398 13.3999C16.1845 13.2395 16.0345 13.1331 15.8664 13.1331Z"/>
    <path d="M32.8284 45C31.9672 45 31.2661 44.2929 31.2661 43.4241V41.8482H32.1759C32.3941 41.8482 32.5707 41.6702 32.5707 41.45V40.1341C32.5707 39.914 32.3941 39.7359 32.1759 39.7359H31.2661V29.5638L32.5504 25.677C32.5639 25.6366 32.5707 25.5939 32.5707 25.5513V17.4142C32.5707 15.4492 33.0309 13.4813 33.9024 11.7234L34.133 11.258L34.3637 11.7234C35.2346 13.4813 35.6954 15.4492 35.6954 17.4142V25.5513C35.6954 25.5939 35.7022 25.6366 35.7157 25.677L37 29.5638V39.7359H36.0902C35.8719 39.7359 35.6954 39.914 35.6954 40.1341V41.45C35.6954 41.6702 35.8719 41.8482 36.0902 41.8482H37V43.4241C37 44.2929 36.2989 45 35.4376 45H32.8284ZM32.1759 42.3682C31.9576 42.3682 31.781 42.5463 31.781 42.7665V43.4247C31.781 44.0073 32.2509 44.4812 32.8284 44.4812H35.4376C36.0152 44.4812 36.485 44.0073 36.485 43.4247V42.7665C36.485 42.5463 36.3085 42.3682 36.0902 42.3682H32.1759ZM33.4805 39.7365C33.2622 39.7365 33.0856 39.9145 33.0856 40.1347V41.4506C33.0856 41.6707 33.2622 41.8488 33.4805 41.8488H34.7851C35.0033 41.8488 35.1799 41.6707 35.1799 41.4506V40.1347C35.1799 39.9145 35.0033 39.7365 34.7851 39.7365H33.4805ZM32.1759 29.8665C31.9576 29.8665 31.781 30.0445 31.781 30.2647V38.8188C31.781 39.039 31.9576 39.217 32.1759 39.217H36.0902C36.3085 39.217 36.485 39.039 36.485 38.8188V30.2647C36.485 30.0445 36.3085 29.8665 36.0902 29.8665H32.1759ZM33.2977 25.9182C33.1279 25.9182 32.9768 26.028 32.9232 26.1907L32.0535 28.8225C32.0134 28.9437 32.0337 29.0774 32.1076 29.1815C32.1821 29.2856 32.3011 29.347 32.428 29.347H35.8364C35.9633 29.347 36.0823 29.2856 36.1568 29.1815C36.2312 29.0774 36.251 28.9442 36.2109 28.8225L35.3412 26.1907C35.2876 26.028 35.1364 25.9182 34.9667 25.9182H33.2977ZM34.1325 13.1331C33.9644 13.1331 33.8149 13.2406 33.7597 13.4005C33.3124 14.6993 33.0856 16.0499 33.0856 17.4147V25C33.0856 25.2202 33.2622 25.3982 33.4805 25.3982H34.7851C35.0033 25.3982 35.1799 25.2202 35.1799 25V17.4136C35.1799 16.0494 34.9531 14.6988 34.5059 13.3999C34.4506 13.2395 34.3006 13.1331 34.1325 13.1331Z"/>
    <path d="M24.3477 34.4718C23.8457 34.4718 23.4379 34.0599 23.4379 33.5541V24.4487C23.4379 24.4061 23.4312 24.3634 23.4176 24.323L22.1333 20.4362V10.2641H23.0431C23.2614 10.2641 23.4379 10.086 23.4379 9.86588V8.54999C23.4379 8.32982 23.2614 8.15176 23.0431 8.15176H22.1333V6.57588C22.1333 5.70715 22.8344 5 23.6957 5H26.3049C27.1662 5 27.8672 5.70715 27.8672 6.57588V8.15176H26.9575C26.7392 8.15176 26.5626 8.32982 26.5626 8.54999V9.86588C26.5626 10.086 26.7392 10.2641 26.9575 10.2641H27.8672V20.4362L26.5829 24.323C26.5694 24.3634 26.5626 24.4061 26.5626 24.4487V33.5541C26.5626 34.0604 26.1543 34.4718 25.6529 34.4718H24.3477ZM24.3477 24.6018C24.1294 24.6018 23.9529 24.7798 23.9529 25V33.5541C23.9529 33.7743 24.1294 33.9524 24.3477 33.9524H25.6523C25.8706 33.9524 26.0471 33.7743 26.0471 33.5541V25C26.0471 24.7798 25.8706 24.6018 25.6523 24.6018H24.3477ZM23.2952 20.6535C23.1683 20.6535 23.0493 20.715 22.9749 20.8191C22.9004 20.9232 22.8807 21.0563 22.9207 21.1781L23.7904 23.8098C23.844 23.9725 23.9952 24.0823 24.165 24.0823H25.8345C26.0043 24.0823 26.1554 23.9725 26.209 23.8098L27.0787 21.1781C27.1188 21.0569 27.0985 20.9232 27.0246 20.8191C26.9501 20.715 26.8311 20.6535 26.7042 20.6535H23.2952ZM23.0425 10.7835C22.8243 10.7835 22.6477 10.9616 22.6477 11.1818V19.7359C22.6477 19.9561 22.8243 20.1341 23.0425 20.1341H26.9569C27.1752 20.1341 27.3517 19.9561 27.3517 19.7359V11.1818C27.3517 10.9616 27.1752 10.7835 26.9569 10.7835H23.0425ZM24.3471 8.15176C24.1289 8.15176 23.9523 8.32982 23.9523 8.54999V9.86588C23.9523 10.086 24.1289 10.2641 24.3471 10.2641H25.6517C25.87 10.2641 26.0466 10.086 26.0466 9.86588V8.54999C26.0466 8.32982 25.87 8.15176 25.6517 8.15176H24.3471ZM23.6946 5.51998C23.117 5.51998 22.6472 5.99388 22.6472 6.57645V7.23467C22.6472 7.45484 22.8237 7.63291 23.042 7.63291H26.9563C27.1746 7.63291 27.3512 7.45484 27.3512 7.23467V6.57645C27.3512 5.99388 26.8813 5.51998 26.3038 5.51998H23.6946Z"/>
    </mask>
    <path d="M14.5624 45C13.7011 45 13 44.2929 13 43.4241V41.8482H13.9098C14.1281 41.8482 14.3046 41.6702 14.3046 41.45V40.1341C14.3046 39.914 14.1281 39.7359 13.9098 39.7359H13V29.5638L14.2843 25.677C14.2978 25.6366 14.3046 25.5939 14.3046 25.5513V17.4142C14.3046 15.4492 14.7648 13.4813 15.6363 11.7234L15.867 11.258L16.0976 11.7234C16.9685 13.4813 17.4293 15.4492 17.4293 17.4142V25.5513C17.4293 25.5939 17.4361 25.6366 17.4496 25.677L18.7339 29.5638V39.7359H17.8241C17.6059 39.7359 17.4293 39.914 17.4293 40.1341V41.45C17.4293 41.6702 17.6059 41.8482 17.8241 41.8482H18.7339V43.4241C18.7339 44.2929 18.0328 45 17.1716 45H14.5624ZM13.9098 42.3682C13.6915 42.3682 13.515 42.5463 13.515 42.7665V43.4247C13.515 44.0073 13.9848 44.4812 14.5624 44.4812H17.1716C17.7491 44.4812 18.219 44.0073 18.219 43.4247V42.7665C18.219 42.5463 18.0424 42.3682 17.8241 42.3682H13.9098ZM15.2144 39.7365C14.9961 39.7365 14.8196 39.9145 14.8196 40.1347V41.4506C14.8196 41.6707 14.9961 41.8488 15.2144 41.8488H16.519C16.7373 41.8488 16.9138 41.6707 16.9138 41.4506V40.1347C16.9138 39.9145 16.7373 39.7365 16.519 39.7365H15.2144ZM13.9098 29.8665C13.6915 29.8665 13.515 30.0445 13.515 30.2647V38.8188C13.515 39.039 13.6915 39.217 13.9098 39.217H17.8241C18.0424 39.217 18.219 39.039 18.219 38.8188V30.2647C18.219 30.0445 18.0424 29.8665 17.8241 29.8665H13.9098ZM15.0316 25.9182C14.8619 25.9182 14.7107 26.028 14.6571 26.1907L13.7874 28.8225C13.7473 28.9437 13.7676 29.0774 13.8415 29.1815C13.916 29.2856 14.035 29.347 14.1619 29.347H17.5703C17.6972 29.347 17.8162 29.2856 17.8907 29.1815C17.9651 29.0774 17.9849 28.9442 17.9448 28.8225L17.0751 26.1907C17.0215 26.028 16.8704 25.9182 16.7006 25.9182H15.0316ZM15.8664 13.1331C15.6983 13.1331 15.5488 13.2406 15.4936 13.4005C15.0463 14.6993 14.8196 16.0499 14.8196 17.4147V25C14.8196 25.2202 14.9961 25.3982 15.2144 25.3982H16.519C16.7373 25.3982 16.9138 25.2202 16.9138 25V17.4136C16.9138 16.0494 16.6871 14.6988 16.2398 13.3999C16.1845 13.2395 16.0345 13.1331 15.8664 13.1331Z" fill="#105AB3"/>
    <path d="M32.8284 45C31.9672 45 31.2661 44.2929 31.2661 43.4241V41.8482H32.1759C32.3941 41.8482 32.5707 41.6702 32.5707 41.45V40.1341C32.5707 39.914 32.3941 39.7359 32.1759 39.7359H31.2661V29.5638L32.5504 25.677C32.5639 25.6366 32.5707 25.5939 32.5707 25.5513V17.4142C32.5707 15.4492 33.0309 13.4813 33.9024 11.7234L34.133 11.258L34.3637 11.7234C35.2346 13.4813 35.6954 15.4492 35.6954 17.4142V25.5513C35.6954 25.5939 35.7022 25.6366 35.7157 25.677L37 29.5638V39.7359H36.0902C35.8719 39.7359 35.6954 39.914 35.6954 40.1341V41.45C35.6954 41.6702 35.8719 41.8482 36.0902 41.8482H37V43.4241C37 44.2929 36.2989 45 35.4376 45H32.8284ZM32.1759 42.3682C31.9576 42.3682 31.781 42.5463 31.781 42.7665V43.4247C31.781 44.0073 32.2509 44.4812 32.8284 44.4812H35.4376C36.0152 44.4812 36.485 44.0073 36.485 43.4247V42.7665C36.485 42.5463 36.3085 42.3682 36.0902 42.3682H32.1759ZM33.4805 39.7365C33.2622 39.7365 33.0856 39.9145 33.0856 40.1347V41.4506C33.0856 41.6707 33.2622 41.8488 33.4805 41.8488H34.7851C35.0033 41.8488 35.1799 41.6707 35.1799 41.4506V40.1347C35.1799 39.9145 35.0033 39.7365 34.7851 39.7365H33.4805ZM32.1759 29.8665C31.9576 29.8665 31.781 30.0445 31.781 30.2647V38.8188C31.781 39.039 31.9576 39.217 32.1759 39.217H36.0902C36.3085 39.217 36.485 39.039 36.485 38.8188V30.2647C36.485 30.0445 36.3085 29.8665 36.0902 29.8665H32.1759ZM33.2977 25.9182C33.1279 25.9182 32.9768 26.028 32.9232 26.1907L32.0535 28.8225C32.0134 28.9437 32.0337 29.0774 32.1076 29.1815C32.1821 29.2856 32.3011 29.347 32.428 29.347H35.8364C35.9633 29.347 36.0823 29.2856 36.1568 29.1815C36.2312 29.0774 36.251 28.9442 36.2109 28.8225L35.3412 26.1907C35.2876 26.028 35.1364 25.9182 34.9667 25.9182H33.2977ZM34.1325 13.1331C33.9644 13.1331 33.8149 13.2406 33.7597 13.4005C33.3124 14.6993 33.0856 16.0499 33.0856 17.4147V25C33.0856 25.2202 33.2622 25.3982 33.4805 25.3982H34.7851C35.0033 25.3982 35.1799 25.2202 35.1799 25V17.4136C35.1799 16.0494 34.9531 14.6988 34.5059 13.3999C34.4506 13.2395 34.3006 13.1331 34.1325 13.1331Z" fill="#105AB3"/>
    <path d="M24.3477 34.4718C23.8457 34.4718 23.4379 34.0599 23.4379 33.5541V24.4487C23.4379 24.4061 23.4312 24.3634 23.4176 24.323L22.1333 20.4362V10.2641H23.0431C23.2614 10.2641 23.4379 10.086 23.4379 9.86588V8.54999C23.4379 8.32982 23.2614 8.15176 23.0431 8.15176H22.1333V6.57588C22.1333 5.70715 22.8344 5 23.6957 5H26.3049C27.1662 5 27.8672 5.70715 27.8672 6.57588V8.15176H26.9575C26.7392 8.15176 26.5626 8.32982 26.5626 8.54999V9.86588C26.5626 10.086 26.7392 10.2641 26.9575 10.2641H27.8672V20.4362L26.5829 24.323C26.5694 24.3634 26.5626 24.4061 26.5626 24.4487V33.5541C26.5626 34.0604 26.1543 34.4718 25.6529 34.4718H24.3477ZM24.3477 24.6018C24.1294 24.6018 23.9529 24.7798 23.9529 25V33.5541C23.9529 33.7743 24.1294 33.9524 24.3477 33.9524H25.6523C25.8706 33.9524 26.0471 33.7743 26.0471 33.5541V25C26.0471 24.7798 25.8706 24.6018 25.6523 24.6018H24.3477ZM23.2952 20.6535C23.1683 20.6535 23.0493 20.715 22.9749 20.8191C22.9004 20.9232 22.8807 21.0563 22.9207 21.1781L23.7904 23.8098C23.844 23.9725 23.9952 24.0823 24.165 24.0823H25.8345C26.0043 24.0823 26.1554 23.9725 26.209 23.8098L27.0787 21.1781C27.1188 21.0569 27.0985 20.9232 27.0246 20.8191C26.9501 20.715 26.8311 20.6535 26.7042 20.6535H23.2952ZM23.0425 10.7835C22.8243 10.7835 22.6477 10.9616 22.6477 11.1818V19.7359C22.6477 19.9561 22.8243 20.1341 23.0425 20.1341H26.9569C27.1752 20.1341 27.3517 19.9561 27.3517 19.7359V11.1818C27.3517 10.9616 27.1752 10.7835 26.9569 10.7835H23.0425ZM24.3471 8.15176C24.1289 8.15176 23.9523 8.32982 23.9523 8.54999V9.86588C23.9523 10.086 24.1289 10.2641 24.3471 10.2641H25.6517C25.87 10.2641 26.0466 10.086 26.0466 9.86588V8.54999C26.0466 8.32982 25.87 8.15176 25.6517 8.15176H24.3471ZM23.6946 5.51998C23.117 5.51998 22.6472 5.99388 22.6472 6.57645V7.23467C22.6472 7.45484 22.8237 7.63291 23.042 7.63291H26.9563C27.1746 7.63291 27.3512 7.45484 27.3512 7.23467V6.57645C27.3512 5.99388 26.8813 5.51998 26.3038 5.51998H23.6946Z" fill="#105AB3"/>
    <path d="M14.5624 45C13.7011 45 13 44.2929 13 43.4241V41.8482H13.9098C14.1281 41.8482 14.3046 41.6702 14.3046 41.45V40.1341C14.3046 39.914 14.1281 39.7359 13.9098 39.7359H13V29.5638L14.2843 25.677C14.2978 25.6366 14.3046 25.5939 14.3046 25.5513V17.4142C14.3046 15.4492 14.7648 13.4813 15.6363 11.7234L15.867 11.258L16.0976 11.7234C16.9685 13.4813 17.4293 15.4492 17.4293 17.4142V25.5513C17.4293 25.5939 17.4361 25.6366 17.4496 25.677L18.7339 29.5638V39.7359H17.8241C17.6059 39.7359 17.4293 39.914 17.4293 40.1341V41.45C17.4293 41.6702 17.6059 41.8482 17.8241 41.8482H18.7339V43.4241C18.7339 44.2929 18.0328 45 17.1716 45H14.5624ZM13.9098 42.3682C13.6915 42.3682 13.515 42.5463 13.515 42.7665V43.4247C13.515 44.0073 13.9848 44.4812 14.5624 44.4812H17.1716C17.7491 44.4812 18.219 44.0073 18.219 43.4247V42.7665C18.219 42.5463 18.0424 42.3682 17.8241 42.3682H13.9098ZM15.2144 39.7365C14.9961 39.7365 14.8196 39.9145 14.8196 40.1347V41.4506C14.8196 41.6707 14.9961 41.8488 15.2144 41.8488H16.519C16.7373 41.8488 16.9138 41.6707 16.9138 41.4506V40.1347C16.9138 39.9145 16.7373 39.7365 16.519 39.7365H15.2144ZM13.9098 29.8665C13.6915 29.8665 13.515 30.0445 13.515 30.2647V38.8188C13.515 39.039 13.6915 39.217 13.9098 39.217H17.8241C18.0424 39.217 18.219 39.039 18.219 38.8188V30.2647C18.219 30.0445 18.0424 29.8665 17.8241 29.8665H13.9098ZM15.0316 25.9182C14.8619 25.9182 14.7107 26.028 14.6571 26.1907L13.7874 28.8225C13.7473 28.9437 13.7676 29.0774 13.8415 29.1815C13.916 29.2856 14.035 29.347 14.1619 29.347H17.5703C17.6972 29.347 17.8162 29.2856 17.8907 29.1815C17.9651 29.0774 17.9849 28.9442 17.9448 28.8225L17.0751 26.1907C17.0215 26.028 16.8704 25.9182 16.7006 25.9182H15.0316ZM15.8664 13.1331C15.6983 13.1331 15.5488 13.2406 15.4936 13.4005C15.0463 14.6993 14.8196 16.0499 14.8196 17.4147V25C14.8196 25.2202 14.9961 25.3982 15.2144 25.3982H16.519C16.7373 25.3982 16.9138 25.2202 16.9138 25V17.4136C16.9138 16.0494 16.6871 14.6988 16.2398 13.3999C16.1845 13.2395 16.0345 13.1331 15.8664 13.1331Z" stroke="#105AB3" stroke-width="0.5" mask="url(#path-1-outside-1_1902_29346)"/>
    <path d="M32.8284 45C31.9672 45 31.2661 44.2929 31.2661 43.4241V41.8482H32.1759C32.3941 41.8482 32.5707 41.6702 32.5707 41.45V40.1341C32.5707 39.914 32.3941 39.7359 32.1759 39.7359H31.2661V29.5638L32.5504 25.677C32.5639 25.6366 32.5707 25.5939 32.5707 25.5513V17.4142C32.5707 15.4492 33.0309 13.4813 33.9024 11.7234L34.133 11.258L34.3637 11.7234C35.2346 13.4813 35.6954 15.4492 35.6954 17.4142V25.5513C35.6954 25.5939 35.7022 25.6366 35.7157 25.677L37 29.5638V39.7359H36.0902C35.8719 39.7359 35.6954 39.914 35.6954 40.1341V41.45C35.6954 41.6702 35.8719 41.8482 36.0902 41.8482H37V43.4241C37 44.2929 36.2989 45 35.4376 45H32.8284ZM32.1759 42.3682C31.9576 42.3682 31.781 42.5463 31.781 42.7665V43.4247C31.781 44.0073 32.2509 44.4812 32.8284 44.4812H35.4376C36.0152 44.4812 36.485 44.0073 36.485 43.4247V42.7665C36.485 42.5463 36.3085 42.3682 36.0902 42.3682H32.1759ZM33.4805 39.7365C33.2622 39.7365 33.0856 39.9145 33.0856 40.1347V41.4506C33.0856 41.6707 33.2622 41.8488 33.4805 41.8488H34.7851C35.0033 41.8488 35.1799 41.6707 35.1799 41.4506V40.1347C35.1799 39.9145 35.0033 39.7365 34.7851 39.7365H33.4805ZM32.1759 29.8665C31.9576 29.8665 31.781 30.0445 31.781 30.2647V38.8188C31.781 39.039 31.9576 39.217 32.1759 39.217H36.0902C36.3085 39.217 36.485 39.039 36.485 38.8188V30.2647C36.485 30.0445 36.3085 29.8665 36.0902 29.8665H32.1759ZM33.2977 25.9182C33.1279 25.9182 32.9768 26.028 32.9232 26.1907L32.0535 28.8225C32.0134 28.9437 32.0337 29.0774 32.1076 29.1815C32.1821 29.2856 32.3011 29.347 32.428 29.347H35.8364C35.9633 29.347 36.0823 29.2856 36.1568 29.1815C36.2312 29.0774 36.251 28.9442 36.2109 28.8225L35.3412 26.1907C35.2876 26.028 35.1364 25.9182 34.9667 25.9182H33.2977ZM34.1325 13.1331C33.9644 13.1331 33.8149 13.2406 33.7597 13.4005C33.3124 14.6993 33.0856 16.0499 33.0856 17.4147V25C33.0856 25.2202 33.2622 25.3982 33.4805 25.3982H34.7851C35.0033 25.3982 35.1799 25.2202 35.1799 25V17.4136C35.1799 16.0494 34.9531 14.6988 34.5059 13.3999C34.4506 13.2395 34.3006 13.1331 34.1325 13.1331Z" stroke="#105AB3" stroke-width="0.5" mask="url(#path-1-outside-1_1902_29346)"/>
    <path d="M24.3477 34.4718C23.8457 34.4718 23.4379 34.0599 23.4379 33.5541V24.4487C23.4379 24.4061 23.4312 24.3634 23.4176 24.323L22.1333 20.4362V10.2641H23.0431C23.2614 10.2641 23.4379 10.086 23.4379 9.86588V8.54999C23.4379 8.32982 23.2614 8.15176 23.0431 8.15176H22.1333V6.57588C22.1333 5.70715 22.8344 5 23.6957 5H26.3049C27.1662 5 27.8672 5.70715 27.8672 6.57588V8.15176H26.9575C26.7392 8.15176 26.5626 8.32982 26.5626 8.54999V9.86588C26.5626 10.086 26.7392 10.2641 26.9575 10.2641H27.8672V20.4362L26.5829 24.323C26.5694 24.3634 26.5626 24.4061 26.5626 24.4487V33.5541C26.5626 34.0604 26.1543 34.4718 25.6529 34.4718H24.3477ZM24.3477 24.6018C24.1294 24.6018 23.9529 24.7798 23.9529 25V33.5541C23.9529 33.7743 24.1294 33.9524 24.3477 33.9524H25.6523C25.8706 33.9524 26.0471 33.7743 26.0471 33.5541V25C26.0471 24.7798 25.8706 24.6018 25.6523 24.6018H24.3477ZM23.2952 20.6535C23.1683 20.6535 23.0493 20.715 22.9749 20.8191C22.9004 20.9232 22.8807 21.0563 22.9207 21.1781L23.7904 23.8098C23.844 23.9725 23.9952 24.0823 24.165 24.0823H25.8345C26.0043 24.0823 26.1554 23.9725 26.209 23.8098L27.0787 21.1781C27.1188 21.0569 27.0985 20.9232 27.0246 20.8191C26.9501 20.715 26.8311 20.6535 26.7042 20.6535H23.2952ZM23.0425 10.7835C22.8243 10.7835 22.6477 10.9616 22.6477 11.1818V19.7359C22.6477 19.9561 22.8243 20.1341 23.0425 20.1341H26.9569C27.1752 20.1341 27.3517 19.9561 27.3517 19.7359V11.1818C27.3517 10.9616 27.1752 10.7835 26.9569 10.7835H23.0425ZM24.3471 8.15176C24.1289 8.15176 23.9523 8.32982 23.9523 8.54999V9.86588C23.9523 10.086 24.1289 10.2641 24.3471 10.2641H25.6517C25.87 10.2641 26.0466 10.086 26.0466 9.86588V8.54999C26.0466 8.32982 25.87 8.15176 25.6517 8.15176H24.3471ZM23.6946 5.51998C23.117 5.51998 22.6472 5.99388 22.6472 6.57645V7.23467C22.6472 7.45484 22.8237 7.63291 23.042 7.63291H26.9563C27.1746 7.63291 27.3512 7.45484 27.3512 7.23467V6.57645C27.3512 5.99388 26.8813 5.51998 26.3038 5.51998H23.6946Z" stroke="#105AB3" stroke-width="0.5" mask="url(#path-1-outside-1_1902_29346)"/>
</svg>