<svg width="48" height="36" viewBox="0 0 48 36" fill="none" xmlns="http://www.w3.org/2000/svg">
    <path d="M27.5875 11.2097H25.8627C25.9515 10.9849 26.0034 10.7425 26.0034 10.4865C26.0034 10.2563 25.957 10.0384 25.8846 9.83279L27.3472 8.74737C27.6299 8.53764 27.6886 8.13861 27.4783 7.8567C27.268 7.57479 26.8679 7.51623 26.5852 7.72596L25.1062 8.82364C24.7893 8.61391 24.4097 8.48998 24.0014 8.48998C22.8979 8.48998 21.9993 9.3861 21.9993 10.4865C21.9993 10.7425 22.0526 10.9849 22.14 11.2097H20.4138C20.0615 11.2097 19.7747 11.4943 19.7747 11.847C19.7747 12.1997 20.0601 12.4844 20.4138 12.4844H27.5862C27.9385 12.4844 28.2253 12.1997 28.2253 11.847C28.2253 11.4943 27.9399 11.2097 27.5862 11.2097H27.5875ZM24.0014 11.2097C23.6012 11.2097 23.2762 10.8855 23.2762 10.4865C23.2762 10.0875 23.6012 9.76334 24.0014 9.76334C24.4015 9.76334 24.7265 10.0875 24.7265 10.4865C24.7265 10.8855 24.4015 11.2097 24.0014 11.2097Z" fill="#105AB3"/>
    <path d="M24.0014 3.48234C20.1284 3.48234 16.9779 6.6242 16.9779 10.4879C16.9779 12.1439 17.5719 13.7523 18.6494 15.0188C18.7709 15.1618 18.9485 15.2436 19.1356 15.2436H28.8672C29.0542 15.2436 29.2331 15.1618 29.3533 15.0188C30.4322 13.7537 31.0249 12.1439 31.0249 10.4879C31.0249 6.62557 27.8743 3.48234 24.0014 3.48234ZM28.5626 13.9688H19.4415C18.674 12.9706 18.2547 11.7449 18.2547 10.4879C18.2547 7.3283 20.8331 4.75706 24.0014 4.75706C27.1697 4.75706 29.748 7.3283 29.748 10.4879C29.748 11.7462 29.3287 12.9706 28.5613 13.9688H28.5626Z" fill="#105AB3"/>
    <path d="M0.502731 19.3374V33.3293C0.502731 33.6807 0.78815 33.9667 1.14185 33.9667H5.7072C6.05954 33.9667 6.34632 33.6821 6.34632 33.3293V31.6215H15.9304C17.718 34.3698 20.7088 36 24.0014 36C27.2939 36 30.2847 34.3698 32.0723 31.6215H41.6564V33.3293C41.6564 33.6807 41.9418 33.9667 42.2955 33.9667H46.8609C47.2132 33.9667 47.5 33.6821 47.5 33.3293V19.3374C47.5 18.986 47.2146 18.7 46.8609 18.7H42.2955C41.9432 18.7 41.6564 18.9846 41.6564 19.3374V20.8545H29.5472V18.7885H30.1959C30.342 18.7885 30.4841 18.7381 30.5974 18.6469C33.087 16.6422 34.5155 13.6679 34.5155 10.4865C34.5155 4.70394 29.7985 0 24 0C18.2015 0 13.4845 4.70394 13.4845 10.4865C13.4845 13.6679 14.913 16.6422 17.4026 18.6469C17.5159 18.7381 17.6579 18.7885 17.8041 18.7885H18.4528V20.8545H6.34359V19.3374C6.34359 18.986 6.05817 18.7 5.70447 18.7H1.13912C0.786784 18.7 0.5 18.9846 0.5 19.3374H0.502731ZM42.9347 19.9747H46.2218V32.6933H42.9347V19.9747ZM18.0349 17.5152C15.9536 15.757 14.7628 13.2089 14.7628 10.4879C14.7628 5.40803 18.9061 1.27608 24 1.27608C29.0939 1.27608 33.2372 5.40803 33.2372 10.4879C33.2372 13.2089 32.0477 15.7583 29.9651 17.5152H18.0321H18.0349ZM28.2717 18.7885V20.8545H19.7324V18.7885H28.2717ZM6.34632 22.1279H41.6591V30.3468H31.72C31.496 30.3468 31.2871 30.4639 31.1724 30.6573C29.6442 33.2041 26.9648 34.7253 24.0027 34.7253C21.0406 34.7253 18.3613 33.2041 16.8331 30.6573C16.7184 30.4653 16.5094 30.3468 16.2855 30.3468H6.34632V22.1279ZM1.78097 19.9734H5.06808V21.4878C5.06808 21.4878 5.06808 21.4891 5.06808 21.4905C5.06808 21.4919 5.06808 21.4919 5.06808 21.4932V32.692H1.78097V19.9734Z" fill="#105AB3"/>
</svg>