<svg width="50" height="50" viewBox="0 0 50 50" fill="none" xmlns="http://www.w3.org/2000/svg">
<path d="M42.3857 1.5H7.61431C5.08838 1.5 3 3.58142 3 6.09892V43.9011C3 46.4186 5.03953 48.5 7.61431 48.5H42.3857C44.9116 48.5 47 46.4673 47 43.9011L46.9981 6.09892C46.9493 3.58142 44.9097 1.5 42.3857 1.5ZM45.2497 43.9007C45.2497 45.4973 43.9388 46.8057 42.335 46.8057L7.61407 46.8038C6.01214 46.8038 4.69939 45.4973 4.69939 43.8989V6.09863C4.69939 4.50204 6.01026 3.19367 7.61407 3.19367H42.3855C43.9874 3.19367 45.3001 4.50017 45.3001 6.09863L45.2983 43.9008L45.2497 43.9007Z" fill="#105AB3"/>
<path d="M39.2775 13.1647H20.1913C19.7049 13.1647 19.318 13.5522 19.318 14.0351C19.318 14.5198 19.7068 14.9054 20.1913 14.9054H39.2756C39.762 14.9054 40.1488 14.518 40.1488 14.0351C40.1507 13.5522 39.762 13.1647 39.2775 13.1647Z" fill="#105AB3"/>
<path d="M15.9187 11.422L12.4218 14.9072L10.7711 13.2619C10.4311 12.9231 9.89779 12.9231 9.55788 13.2619C9.21796 13.6007 9.21796 14.1322 9.55788 14.471L11.7908 16.6965C11.9373 16.8425 12.1796 16.938 12.373 16.938C12.5664 16.938 12.8106 16.8407 12.9552 16.6965L17.083 12.5843C17.4229 12.2455 17.4229 11.7139 17.083 11.3752C16.7919 11.0832 16.2098 11.0832 15.9187 11.422Z" fill="#105AB3"/>
<path d="M39.2775 24.2982H20.1913C19.7049 24.2982 19.318 24.6857 19.318 25.1686C19.318 25.6533 19.7068 26.0389 20.1913 26.0389H39.2756C39.762 26.0389 40.1488 25.6515 40.1488 25.1686C40.1507 24.6857 39.762 24.2982 39.2775 24.2982Z" fill="#105AB3"/>
<path d="M11.8398 27.7343C11.9863 27.8803 12.2286 27.9758 12.422 27.9758C12.6154 27.9758 12.8596 27.8785 13.0042 27.7343L17.0832 23.813C17.4231 23.4742 17.4231 22.9426 17.0832 22.6039C16.7433 22.2651 16.2099 22.2651 15.87 22.6039L12.3732 25.9431L10.7713 24.2978C10.4313 23.959 9.89798 23.959 9.55807 24.2978C9.21815 24.6366 9.21815 25.1682 9.55807 25.507L11.8398 27.7343Z" fill="#105AB3"/>
<path d="M39.2775 35.3804H20.1913C19.7049 35.3804 19.318 35.7679 19.318 36.2508C19.318 36.7356 19.7068 37.1212 20.1913 37.1212H39.2756C39.762 37.1212 40.1488 36.7337 40.1488 36.2508C40.1507 35.7679 39.762 35.3804 39.2775 35.3804Z" fill="#105AB3"/>
<path d="M15.9187 33.6401L12.4218 37.1253L10.7711 35.4781C10.4311 35.1394 9.89779 35.1394 9.55788 35.4781C9.21796 35.8169 9.21796 36.3485 9.55788 36.6873L11.7908 38.9128C11.9373 39.0588 12.1796 39.1542 12.373 39.1542C12.5664 39.1542 12.8106 39.0569 12.9552 38.9128L17.0342 34.8473C17.3741 34.5085 17.3741 33.977 17.0342 33.6382C16.6943 33.3013 16.2098 33.3013 15.9187 33.6401Z" fill="#105AB3"/>
</svg>
