<svg width="50" height="50" viewBox="0 0 50 50" fill="none" xmlns="http://www.w3.org/2000/svg">
<path fill-rule="evenodd" clip-rule="evenodd" d="M25.7074 17.6052C34.3859 17.9689 41.2765 24.983 41.2765 33.545C41.2765 42.3563 33.9888 49.5 24.9998 49.5C16.0109 49.5 8.72316 42.3563 8.72316 33.545C8.72316 24.9824 15.6137 17.9689 24.2922 17.6052C23.9103 15.9591 23.0794 14.0301 21.9295 12.1438C14.8651 12.6819 12.5501 8.85162 10.4372 5.34914C9.58895 3.94337 8.77531 2.595 7.70135 1.68686C7.32383 1.36572 7.50825 0.759609 7.99642 0.687307V0.68518C16.8049 -0.627047 27.5945 5.24493 22.9906 11.6509C23.8454 13.0694 24.531 14.5177 24.9975 15.8682C25.464 14.5177 26.1496 13.0694 27.0044 11.6509C22.4048 5.24493 33.1946 -0.626938 42.003 0.687358V0.689485C42.4934 0.761793 42.6756 1.36792 42.2981 1.68904C41.2241 2.59717 40.4106 3.9455 39.5622 5.35131C37.449 8.85407 35.134 12.6867 28.07 12.146C26.9201 14.0303 26.0893 15.9593 25.7074 17.6052ZM27.6926 10.5764C29.4413 7.96896 31.7759 5.51895 34.351 4.09636C35.0192 3.72631 35.592 4.72373 34.9238 5.09167C32.5828 6.38473 30.437 8.62208 28.788 11.0338C36.6528 11.3081 37.5642 5.2256 40.6579 1.68887C36.5856 1.39538 31.1113 2.70971 28.4059 5.63399C27 7.15463 26.6659 8.85815 27.6921 10.5765L27.6926 10.5764ZM21.2186 11.0358C19.5719 8.62614 17.4218 6.38454 15.0829 5.09365C14.4146 4.7236 14.9874 3.72829 15.6534 4.09835C18.2331 5.52328 20.5589 7.96904 22.3118 10.5784C24.373 7.12025 20.7323 4.32375 17.5843 3.02416C15.137 2.01393 12.1732 1.48865 9.34845 1.69282C12.4445 5.22748 13.3538 11.3102 21.2186 11.0358ZM12.3818 25.4081H19.1036C19.6741 23.1069 20.6353 20.5803 22.1302 19.0065C18.0947 19.7678 14.5974 22.1136 12.3818 25.4081ZM20.3077 25.4081H29.6999C27.398 16.5417 22.6072 16.5417 20.3077 25.4081ZM30.8996 25.4081H37.623C35.4078 22.1137 31.9105 19.7681 27.8726 19.0065C29.3696 20.5781 30.3312 23.1047 30.8996 25.4081ZM38.3217 26.5565H31.1596C31.5566 28.5025 31.7909 30.676 31.8256 32.9707H40.0964C40.0053 30.6568 39.374 28.479 38.3217 26.5565ZM29.9687 26.5565H20.0361C19.6282 28.4834 19.3852 30.659 19.3505 32.9707H30.6545C30.6197 30.6589 30.3745 28.4832 29.9687 26.5565ZM18.8453 26.5565H11.6831C10.6309 28.4791 9.99952 30.6569 9.90837 32.9707H18.1792C18.2139 30.6759 18.4504 28.5024 18.8453 26.5565ZM11.6831 40.5336H18.8453C18.4482 38.5876 18.2139 36.4141 18.1792 34.1194H9.90843C9.99955 36.4312 10.6309 38.609 11.6831 40.5336ZM20.0361 40.5336H29.9687C30.3766 38.6067 30.6196 36.4311 30.6543 34.1194H19.3504C19.3851 36.4312 19.6304 38.6069 20.0361 40.5336ZM31.1596 40.5336H38.3217C39.374 38.611 40.0053 36.4332 40.0965 34.1194H31.8257C31.791 36.4142 31.5544 38.5877 31.1596 40.5336ZM37.623 41.682H30.8996C30.329 43.9832 29.3679 46.5098 27.873 48.0836C31.9107 47.3223 35.4096 44.9765 37.623 41.682ZM29.6971 41.682H20.3072C22.6069 50.5462 27.3977 50.5462 29.6971 41.682ZM19.103 41.682H12.3813C14.5943 44.9764 18.0938 47.322 22.1295 48.0836C20.6346 46.5099 19.6736 43.9833 19.103 41.682Z" fill="#105AB3"/>
</svg>
