<svg width="50" height="50" viewBox="0 0 50 50" fill="none" xmlns="http://www.w3.org/2000/svg">
<path d="M17.3672 17.3741C13.1638 21.5779 13.1638 28.4213 17.3672 32.6305C19.4689 34.7324 22.2318 35.7861 24.9946 35.7861C27.7575 35.7861 30.5203 34.7324 32.622 32.6305C36.8254 28.4267 36.8254 21.5833 32.622 17.3741C28.4186 13.1702 21.5706 13.1702 17.3672 17.3741ZM31.5201 31.5285C27.9187 35.1303 22.0651 35.1303 18.4638 31.5285C14.8624 27.9267 14.8624 22.0725 18.4638 18.4708C20.2645 16.6699 22.6295 15.7721 24.9946 15.7721C27.3597 15.7721 29.7248 16.6699 31.5255 18.4708C35.1269 22.0725 35.1269 27.9267 31.5255 31.5285H31.5201Z" fill="#105AB3"/>
<path d="M45.114 18.718L41.1471 18.0891C40.8461 17.3848 40.4859 16.6914 40.0774 16.0087L41.905 12.4176C42.0555 12.1166 42.0017 11.751 41.7598 11.5145L38.481 8.23529C38.2445 7.99876 37.879 7.93963 37.5779 8.09015L33.9873 9.91791C33.3047 9.50935 32.6059 9.14917 31.9071 8.84813L31.2782 4.88082C31.2245 4.54752 30.9665 4.28948 30.6332 4.23572L26.0482 3.51C25.7149 3.45624 25.387 3.62289 25.2365 3.92393L23.4036 7.52032C22.6349 7.5902 21.8663 7.71384 21.1084 7.88587L18.2541 5.03134C18.0176 4.7948 17.6521 4.73567 17.3511 4.88619L13.2176 6.99349C12.9166 7.14401 12.7499 7.47731 12.8037 7.80523L13.4326 11.7779C13.1155 12.0521 12.8359 12.3101 12.5726 12.5735C12.3092 12.8369 12.0512 13.1111 11.777 13.4337L7.80477 12.8047C7.47151 12.7509 7.14362 12.9176 6.99312 13.2186L4.88604 17.3526C4.73554 17.6536 4.78929 18.0192 5.03117 18.2557L7.8854 21.1103C7.71339 21.8682 7.58976 22.637 7.51989 23.4057L3.92388 25.2388C3.62287 25.3894 3.45624 25.7227 3.50999 26.0506L4.23565 30.6361C4.2894 30.9694 4.54741 31.2274 4.88067 31.2812L8.84756 31.9102C9.14857 32.6144 9.50871 33.3079 9.91722 33.9906L8.08966 37.5816C7.93915 37.8826 7.9929 38.2482 8.23479 38.4847L11.5137 41.764C11.7502 42.0005 12.1157 42.0596 12.4167 41.9091L16.0073 40.0813C16.69 40.4899 17.3887 40.8501 18.0875 41.1511L18.7164 45.1184C18.7702 45.4517 19.0282 45.7098 19.3614 45.7635L23.9465 46.4892C23.9895 46.4946 24.0271 46.5 24.0701 46.5C24.3604 46.5 24.6291 46.3387 24.7635 46.0753L26.5964 42.4789C27.3651 42.409 28.1337 42.2854 28.8916 42.1134L31.7459 44.9679C31.9824 45.2044 32.3479 45.2636 32.6489 45.1131L36.7824 43.0057C37.0834 42.8552 37.2501 42.5219 37.1963 42.194L36.5674 38.2213C36.8845 37.9472 37.1641 37.6891 37.4274 37.4257C37.6908 37.1623 37.9488 36.8881 38.223 36.5656L42.1952 37.1945C42.5339 37.2483 42.8564 37.0817 43.0069 36.7806L45.114 32.6466C45.2645 32.3456 45.2107 31.9801 44.9688 31.7435L42.1146 28.889C42.2866 28.131 42.4102 27.3623 42.4801 26.5935L46.0761 24.7604C46.3771 24.6099 46.5438 24.2766 46.49 23.9487L45.7644 19.3631C45.7106 19.0298 45.4526 18.7718 45.1193 18.718H45.114ZM41.3782 25.4055C41.1363 25.5291 40.9751 25.7764 40.9536 26.0452C40.8891 27.0128 40.7386 27.9859 40.4967 28.9374C40.4268 29.2008 40.5074 29.4857 40.7009 29.6792L43.4638 32.4424L41.8673 35.5711L38.0187 34.9636C37.7446 34.9206 37.4758 35.0227 37.2984 35.2324C36.9383 35.6625 36.6265 36.0119 36.3094 36.3237C35.9923 36.6408 35.6483 36.9526 35.2182 37.3128C35.0086 37.4902 34.9065 37.759 34.9495 38.0332L35.5569 41.8822L32.4285 43.4788L29.6657 40.7157C29.4722 40.5221 29.1926 40.4469 28.9239 40.5114C27.9725 40.7533 26.9996 40.9092 26.032 40.9683C25.7579 40.9845 25.516 41.1457 25.3924 41.393L23.6186 44.8765L20.1516 44.3282L19.5442 40.4845C19.5012 40.2157 19.3184 39.9846 19.0658 39.8824C18.1843 39.533 17.3027 39.0814 16.4481 38.5385C16.2169 38.3933 15.9267 38.3772 15.6794 38.5009L12.2071 40.2695L9.72371 37.7859L11.4922 34.3131C11.6158 34.0658 11.605 33.7756 11.4545 33.5444C10.917 32.6897 10.4655 31.8134 10.1107 30.9264C10.0086 30.6737 9.78284 30.491 9.50871 30.448L5.66545 29.8405L5.11718 26.3731L8.6003 24.5991C8.84218 24.4755 9.00344 24.2282 9.02494 23.9594C9.08944 22.9918 9.23995 22.0188 9.48183 21.0672C9.54633 20.8038 9.47108 20.5189 9.27757 20.3254L6.51473 17.5622L8.11116 14.4336L11.9598 15.041C12.2339 15.084 12.5027 14.9819 12.6801 14.7722C13.0402 14.3422 13.352 13.9927 13.6691 13.6809C13.9862 13.3638 14.3302 13.052 14.7603 12.6918C14.9699 12.5144 15.072 12.2456 15.029 11.9715L14.4216 8.1224L17.55 6.5258L20.3128 9.28894C20.5063 9.48247 20.7859 9.55773 21.0546 9.49322C22.006 9.25131 22.9789 9.09542 23.9465 9.03628C24.2206 9.02016 24.4625 8.85888 24.5861 8.6116L26.3599 5.1281L29.8269 5.67643L30.4343 9.5201C30.4773 9.78889 30.6601 10.02 30.9127 10.1222C31.7942 10.4716 32.6758 10.9232 33.5304 11.4661C33.7616 11.6113 34.0518 11.6274 34.2991 11.5038L37.7715 9.73513L40.2548 12.2187L38.4864 15.6915C38.3627 15.9388 38.3735 16.2291 38.524 16.4602C39.0615 17.315 39.513 18.1912 39.8678 19.0782C39.9699 19.3309 40.1957 19.5137 40.4698 19.5567L44.3131 20.1641L44.8613 23.6315L41.3782 25.4055Z" fill="#105AB3"/>
<path d="M29.0153 21.6371L23.9357 26.7172L20.9686 23.7498C20.6676 23.4487 20.1731 23.4487 19.8721 23.7498C19.5711 24.0508 19.5711 24.5454 19.8721 24.8464L23.3874 28.3622C23.5326 28.5073 23.7315 28.5879 23.9357 28.5879C24.14 28.5879 24.3389 28.5073 24.484 28.3622L30.1118 22.7337C30.4128 22.4327 30.4128 21.9381 30.1118 21.6371C29.8108 21.336 29.3163 21.336 29.0153 21.6371Z" fill="#105AB3"/>
</svg>
