<svg width="50" height="50" viewBox="0 0 50 50" fill="none" xmlns="http://www.w3.org/2000/svg">
<path d="M25.87 9.48989C22.5336 9.24348 19.3571 10.4091 16.9232 12.7785C14.5246 15.113 13.1493 18.4144 13.1493 21.8353C13.1493 24.6223 14.0262 27.2637 15.6854 29.4713C16.8962 31.082 18.073 32.8714 19.097 34.658V37.8479C19.097 38.5375 19.6333 39.0988 20.2937 39.0988H29.6497C30.3094 39.0988 30.8457 38.5375 30.8457 37.8479V34.7628C31.9255 32.8942 33.209 30.931 34.3049 29.474C36.0508 27.165 36.9488 24.2658 36.8319 21.3102C36.5884 15.1224 31.7733 9.93101 25.87 9.48989ZM33.0201 28.4152C31.8427 29.9802 30.4616 32.1006 29.3253 34.0866L29.2096 34.2901V37.3887H20.7331V34.1894L20.6187 33.9879C19.5325 32.0717 18.2715 30.1447 16.972 28.4165C15.5415 26.5117 14.7854 24.2369 14.7854 21.8366C14.7854 18.8884 15.9712 16.0429 18.0384 14.0314C20.1369 11.9896 22.8779 10.9824 25.7537 11.1973C30.8387 11.5767 34.987 16.0503 35.1977 21.3814C35.2992 23.965 34.547 26.3962 33.0201 28.4152ZM10.79 25.6483C10.6962 25.6483 10.5998 25.6637 10.5118 25.6919L7.13364 26.838C6.65122 27.0038 6.38786 27.5477 6.54588 28.0492C6.66471 28.4326 7.02122 28.7012 7.41242 28.7012C7.51648 28.7012 7.60963 28.6878 7.69313 28.6609L11.0713 27.5148C11.3077 27.4336 11.4991 27.2617 11.6096 27.03C11.7175 26.8058 11.7342 26.5493 11.6578 26.3096C11.537 25.9141 11.1889 25.6483 10.79 25.6483ZM11.0726 16.0436L7.70148 14.8962C7.60577 14.8639 7.50813 14.8471 7.41114 14.8471C7.01737 14.8471 6.67049 15.1103 6.54588 15.5038C6.39235 16.01 6.65572 16.5505 7.13171 16.7083L10.5041 17.8631C10.5921 17.892 10.6859 17.9061 10.7919 17.9061C11.1895 17.9061 11.5389 17.6369 11.6597 17.2387C11.7349 17.0044 11.7169 16.752 11.609 16.5277C11.4978 16.2967 11.3077 16.1248 11.0726 16.0436ZM15.4856 9.71481C15.6507 9.95719 15.9256 10.1015 16.2211 10.1015C16.4145 10.1015 16.5956 10.0378 16.7562 9.91355C16.9508 9.76853 17.0793 9.55031 17.1185 9.30122C17.1577 9.04809 17.1018 8.79497 16.9585 8.58951L14.8747 5.5829C14.6974 5.33246 14.4257 5.18811 14.1296 5.18811C13.9362 5.18811 13.7506 5.25256 13.5919 5.37275C13.396 5.52113 13.2669 5.7427 13.2296 5.99582C13.1924 6.24626 13.2515 6.4967 13.3954 6.69947L15.4856 9.71481ZM25.0009 7.12112C25.5058 7.12112 25.9156 6.69208 25.9156 6.16435V2.44603C25.9156 1.92501 25.5052 1.5 25.0009 1.5C24.496 1.5 24.0855 1.92434 24.0855 2.44603V6.16435C24.0855 6.69208 24.496 7.12112 25.0009 7.12112ZM33.2546 9.92027C33.4081 10.0391 33.5899 10.1015 33.7807 10.1015C34.0755 10.1015 34.3517 9.95518 34.5188 9.71078L36.609 6.69477C36.751 6.49401 36.8081 6.24559 36.7715 5.99582C36.7343 5.7427 36.6051 5.52046 36.4086 5.37207C36.2499 5.25189 36.0649 5.18878 35.8722 5.18878C35.5799 5.18878 35.3037 5.3338 35.1309 5.5782L33.0433 8.58951C32.9007 8.79497 32.8441 9.04742 32.8833 9.30055C32.9225 9.55367 33.0516 9.76853 33.2546 9.92027ZM42.8707 26.8393L39.4938 25.6939C39.4026 25.6637 39.3082 25.6483 39.2138 25.6483C38.8194 25.6483 38.4603 25.9202 38.3408 26.3076C38.1834 26.8071 38.4455 27.3483 38.9266 27.5141L42.301 28.6596C42.3896 28.6878 42.4834 28.7019 42.5881 28.7019C42.9825 28.7019 43.3287 28.442 43.4534 28.0533C43.6082 27.5477 43.3467 27.0032 42.8707 26.8393ZM39.2093 17.9061C39.314 17.9061 39.4078 17.8927 39.49 17.8658L42.8682 16.7197C43.3448 16.5559 43.6088 16.0147 43.4572 15.5118C43.3326 15.117 42.9825 14.8525 42.5855 14.8525C42.4911 14.8525 42.3986 14.868 42.3093 14.8975L38.9311 16.0436C38.6947 16.1248 38.5033 16.2967 38.3928 16.5277C38.2856 16.752 38.2682 17.0084 38.3447 17.2468C38.4641 17.6416 38.8117 17.9061 39.2093 17.9061ZM29.9798 40.7632H19.7522C19.3006 40.7632 18.9338 41.1459 18.9338 41.6186C18.9338 42.0906 19.2999 42.474 19.7522 42.474H29.9805C30.4327 42.474 30.7988 42.0913 30.7988 41.6186C30.7988 41.1459 30.4314 40.7632 29.9798 40.7632ZM29.9798 43.7564H19.7522C19.3006 43.7564 18.9338 44.1391 18.9338 44.6118C18.9338 45.0845 19.2999 45.4672 19.7522 45.4672H29.9805C30.4327 45.4672 30.7988 45.0845 30.7988 44.6118C30.7988 44.1391 30.4314 43.7564 29.9798 43.7564ZM27.8639 46.7892H21.7274C21.2758 46.7892 20.9091 47.1719 20.9091 47.6446C20.9091 48.1173 21.2752 48.5 21.7268 48.5H27.8633C28.3148 48.5 28.6816 48.1173 28.6816 47.6446C28.6816 47.1719 28.3155 46.7892 27.8639 46.7892Z" fill="#105AB3"/>
</svg>
