<svg width="50" height="50" viewBox="0 0 50 50" fill="none" xmlns="http://www.w3.org/2000/svg">
<path d="M46.6061 39.8293L38.5941 31.8185C36.9572 30.1818 34.4315 29.9836 32.5708 31.2111L28.9069 27.5477C31.3942 24.7347 32.7562 21.1608 32.7562 17.376C32.7562 13.2714 31.1576 9.40987 28.2547 6.5009C25.3517 3.59833 21.4896 2 17.3781 2C13.2666 2 9.4109 3.59833 6.50153 6.5009C3.59855 9.40347 2 13.265 2 17.376C2 21.4869 3.59855 25.342 6.50153 28.251C9.4045 31.1536 13.2666 32.7519 17.3781 32.7519C21.1635 32.7519 24.7378 31.3901 27.5513 28.9031L31.2152 32.5665C29.9875 34.4206 30.1921 36.9523 31.8226 38.589L39.8346 46.5999C40.7681 47.5333 41.9958 48 43.2171 48C44.4384 48 45.6661 47.5333 46.5997 46.5999C48.4668 44.733 48.4668 41.6962 46.5997 39.8293H46.6061ZM7.8571 26.8828C5.31221 24.3383 3.91187 20.9626 3.91187 17.3632C3.91187 13.7637 5.31221 10.388 7.8571 7.8435C10.402 5.29896 13.7781 3.89882 17.3781 3.89882C20.978 3.89882 24.3542 5.29896 26.8991 7.8435C29.444 10.388 30.8443 13.7637 30.8443 17.3632C30.8443 20.9626 29.444 24.3383 26.8991 26.8828C24.3542 29.4274 20.978 30.8275 17.3781 30.8275C13.7781 30.8275 10.402 29.4274 7.8571 26.8828ZM45.2505 45.2381C44.1315 46.3569 42.3155 46.3569 41.1966 45.2381L33.1846 37.2272C32.0656 36.1084 32.0656 34.2863 33.1846 33.1739C33.7409 32.6176 34.4762 32.3363 35.2116 32.3363C35.9469 32.3363 36.6822 32.6176 37.2385 33.1739L45.2505 41.1847C46.3695 42.3035 46.3695 44.1193 45.2505 45.2381ZM18.5035 9.7615V20.3041C18.5035 20.8347 18.0751 21.2631 17.5443 21.2631C17.0136 21.2631 16.5852 20.8347 16.5852 20.3041V9.7615C16.5852 9.23085 17.0136 8.8025 17.5443 8.8025C18.0751 8.8025 18.5035 9.23085 18.5035 9.7615ZM18.5035 24.4534V25.0671C18.5035 25.5978 18.0751 26.0261 17.5443 26.0261C17.0136 26.0261 16.5852 25.5978 16.5852 25.0671V24.4534C16.5852 23.9227 17.0136 23.4944 17.5443 23.4944C18.0751 23.4944 18.5035 23.9227 18.5035 24.4534Z" fill="#105AB3"/>
</svg>
