<svg width="50" height="50" viewBox="0 0 50 50" fill="none" xmlns="http://www.w3.org/2000/svg">
<path d="M43.0554 14.8342L48.6392 21.1433C48.9432 21.4871 48.6911 22.0296 48.2347 22.0296L45.7359 22.0328V32.871L46.0085 32.7131C46.2324 32.5853 46.5115 32.6336 46.6802 32.8195C47.7717 33.9861 48.5256 35.228 48.9767 36.7749C49.047 37.0155 48.9399 37.2648 48.7312 37.3872L47.2254 38.2488C47.3509 39.0438 47.3509 39.8237 47.2254 40.6175L48.7312 41.4791C48.9583 41.6102 49.0535 41.8809 48.9702 42.1183C48.7528 42.8585 48.4456 43.5621 48.0692 44.2131C47.6765 44.8834 47.207 45.5044 46.6683 46.0619C46.4931 46.2413 46.2172 46.2746 46.0095 46.1532L44.507 45.2917C43.8904 45.7912 43.1949 46.193 42.4463 46.4766V48.1997C42.4463 48.4672 42.2505 48.6874 41.9953 48.7293C41.1212 48.9087 40.6464 49 39.7258 49C38.9437 49 38.1746 48.9055 37.4174 48.7196C37.1718 48.6584 37.0063 48.4392 37.0063 48.1986V46.4776C36.2578 46.1919 35.5622 45.789 34.9424 45.2895L33.4399 46.1511C33.216 46.2789 32.9369 46.2306 32.7681 46.0479C31.6767 44.8813 30.9227 43.6394 30.4716 42.0893C30.3981 41.8422 30.5181 41.5833 30.7388 41.4684L32.2229 40.6154C32.0975 39.8204 32.0975 39.0405 32.2229 38.2467L30.7204 37.3851C30.49 37.254 30.3959 36.9833 30.4814 36.7459C30.7724 35.8382 31.0147 35.2419 31.509 34.4373C31.3868 34.4277 31.2667 34.3729 31.1748 34.2816L29.6203 32.7411C29.0989 33.0118 28.5591 33.2341 27.9977 33.4114V35.5922C27.9977 35.8629 27.7922 36.0885 27.5283 36.125C25.8483 36.4655 24.1122 36.4634 22.4355 36.1164C22.1813 36.0648 22.006 35.8425 22.006 35.5922L22.0028 33.4114C21.4414 33.2374 20.8994 33.0129 20.3802 32.7411L18.8258 34.2816C18.7338 34.3761 18.6138 34.4277 18.4915 34.4373C18.9361 35.1624 19.2855 35.9413 19.5278 36.7728C19.5981 37.0134 19.491 37.2626 19.279 37.3851L17.7765 38.2467C17.902 39.0416 17.902 39.8215 17.7765 40.6154L19.2823 41.477C19.5094 41.608 19.6046 41.8787 19.5213 42.1161C19.0854 43.5965 18.2946 44.9479 17.2183 46.0597C17.0431 46.2392 16.7672 46.2725 16.5596 46.1511L15.057 45.2895C14.4372 45.789 13.7417 46.1908 12.9931 46.4744V48.1975C12.9931 48.465 12.7995 48.6852 12.5453 48.7271C10.9205 49.0591 9.5954 49.1171 7.96741 48.7185C7.72185 48.6573 7.55635 48.4382 7.55635 48.1975V46.4766C6.8078 46.1908 6.109 45.788 5.49242 45.2884L3.9899 46.15C3.76598 46.2778 3.4869 46.2295 3.31815 46.0469C2.22669 44.8802 1.47272 43.6384 1.02164 42.0882C0.948086 41.8411 1.06816 41.5822 1.28883 41.4673L2.77296 40.6143C2.64748 39.8194 2.64748 39.0395 2.77296 38.2456L1.27044 37.384C1.04003 37.253 0.945922 36.9822 1.03138 36.7448C1.46731 35.2645 2.25481 33.9163 3.33113 32.8044C3.50637 32.6218 3.78221 32.5917 3.9899 32.7099L4.26249 32.8678V22.0328L1.76695 22.0296C1.30722 22.0296 1.05518 21.4871 1.35914 21.1433L6.99493 14.7794C7.21885 14.585 7.56176 14.6086 7.75539 14.831L13.1954 20.9758C13.204 20.9758 13.2722 20.9693 13.2722 20.9693H15.4681C15.6433 20.4118 15.8694 19.8736 16.1431 19.3558L14.5919 17.8153C14.3983 17.6262 14.3799 17.3308 14.5335 17.1213C15.0062 16.4091 15.5449 15.7506 16.1463 15.1543C16.7532 14.5517 17.4249 14.0092 18.1486 13.5408C18.366 13.3979 18.6516 13.4345 18.8258 13.6074L20.3802 15.1511L21.3246 14.7193V9.8432H18.1237C17.6727 9.8432 17.3817 9.3007 17.7495 8.92041L24.5935 1.18251C24.811 0.935428 25.195 0.941874 25.4092 1.18573L32.2803 8.95371C32.5864 9.29747 32.3354 9.83998 31.8757 9.83998L28.6749 9.8432V14.7182L29.6192 15.15L31.1737 13.6063C31.3641 13.4173 31.6615 13.399 31.8725 13.5515C32.5864 14.021 33.2528 14.556 33.8531 15.1533C34.46 15.7559 35.0062 16.423 35.4779 17.1417C35.6217 17.3577 35.585 17.638 35.4108 17.8142L33.8564 19.3579C34.1322 19.8757 34.3561 20.4118 34.5314 20.9693L36.803 20.9758L42.243 14.831C42.4572 14.585 42.8444 14.5882 43.0554 14.8342ZM16.2837 32.871C15.6217 32.2351 15.0267 31.5218 14.5205 30.7515C14.3766 30.5356 14.4134 30.252 14.5908 30.079L16.142 28.5353C15.8694 28.0143 15.6455 27.4815 15.467 26.9218H13.2711C12.9953 26.9218 12.7681 26.7209 12.7346 26.4556C12.4339 24.9999 12.3971 23.5013 12.6275 22.0339H10.4381V29.8696C11.165 29.8814 11.8789 29.9759 12.581 30.1467C12.8265 30.208 12.992 30.4271 12.992 30.6677V32.3909C13.7427 32.6766 14.4361 33.0762 15.056 33.5758L16.2837 32.871ZM9.35634 29.9115V21.4946C9.35634 21.1992 9.59865 20.9586 9.89937 20.9586H11.7448L7.35082 15.9955L2.9601 20.9586H4.80552C5.10299 20.9586 5.3453 21.1992 5.3453 21.4946V33.4898L5.49242 33.5747C6.11225 33.0752 6.8078 32.6766 7.55635 32.3898V30.6667C7.55635 30.4013 7.74998 30.179 8.00418 30.1371C8.54397 30.0264 8.80142 29.963 9.35634 29.9115ZM11.9146 32.7679V31.0964C10.8351 30.8923 9.71656 30.8923 8.63699 31.0964V32.7679C8.63699 32.9967 8.48988 33.2062 8.26272 33.2793C8.04853 33.3459 6.86405 33.7638 5.91429 34.6253C5.74554 34.7779 5.49133 34.8112 5.28256 34.6919L3.82656 33.8572C3.10613 34.679 2.54471 35.6383 2.18558 36.6739L3.62319 37.499C3.83197 37.6085 3.9542 37.8427 3.90228 38.0866C3.85577 38.3025 3.55937 39.7828 3.89903 40.7819C3.94771 41.0011 3.85036 41.2385 3.64158 41.3577L2.18558 42.1924C2.54471 43.2312 3.10505 44.1873 3.82656 45.0123L5.26417 44.1873C5.46321 44.0627 5.7304 44.0777 5.91429 44.2421C6.53087 44.7932 7.4352 45.3475 8.23243 45.5785C8.465 45.6397 8.63699 45.8492 8.63699 46.0995V47.771C9.71656 47.9784 10.8351 47.9784 11.9146 47.771V46.0995C11.9146 45.8739 12.0617 45.6644 12.2889 45.5914C13.1564 45.3142 13.9602 44.8458 14.6373 44.2421C14.8764 43.9682 15.1674 44.1175 15.2691 44.1755L16.7251 45.0134C17.4455 44.1884 18.0069 43.2323 18.366 42.1935L16.9284 41.3685C16.7197 41.2621 16.5974 41.0247 16.6493 40.7841C16.8397 39.8978 16.8397 38.9718 16.6493 38.0887C16.5455 37.7568 16.7965 37.5774 16.9068 37.5129L18.366 36.675C18.0069 35.6394 17.4466 34.6801 16.7251 33.8583L15.2874 34.6801C15.0884 34.8079 14.8212 34.7929 14.6373 34.6285C13.9688 34.0291 13.1813 33.5715 12.3289 33.2922C12.0888 33.2331 11.9146 33.0204 11.9146 32.7679ZM10.2769 35.6878C12.3592 35.6878 14.0456 37.3658 14.0456 39.4337C14.0456 41.5017 12.3592 43.1797 10.2769 43.1797C8.19132 43.1797 6.50491 41.5017 6.50491 39.4337C6.50491 37.3658 8.19132 35.6878 10.2769 35.6878ZM12.1775 37.5452C10.4878 35.8672 7.58448 37.0607 7.58448 39.4337C7.58448 41.8057 10.4878 42.9992 12.1775 41.3212C13.2268 40.2802 13.2268 38.5872 12.1775 37.5452ZM21.3246 15.8848C21.0704 15.9976 20.828 16.119 20.5944 16.2533C20.3824 16.3994 20.0881 16.3811 19.901 16.1921L18.3769 14.6817C17.3308 15.4186 16.4146 16.3317 15.6693 17.3705L17.1902 18.881C17.359 19.0485 17.4022 19.316 17.2757 19.5298C16.9382 20.111 16.5585 20.9672 16.3984 21.6192C16.3465 21.8631 16.1312 22.0457 15.8705 22.0457H13.7179C13.5058 23.2908 13.5058 24.6003 13.7179 25.8486H15.8705C15.8705 25.8486 16.3551 26.114 16.3919 26.2472C16.5541 26.8498 16.9252 27.8124 17.2508 28.3205C17.4011 28.531 17.3795 28.8232 17.1924 29.0091L15.6682 30.5227C16.4135 31.5583 17.3297 32.4714 18.3758 33.2116L19.8999 31.7012C20.0687 31.5336 20.3359 31.4906 20.55 31.6163C21.1353 31.9515 21.9974 32.3285 22.6562 32.4843C22.8985 32.5359 23.0824 32.7518 23.0824 33.0107V35.1485C24.3393 35.359 25.6547 35.359 26.9117 35.1485V33.0107C26.9117 32.7733 27.0707 32.5574 27.313 32.4929C27.9198 32.3318 28.8923 31.9633 29.4007 31.6399C29.6127 31.4906 29.907 31.5121 30.0963 31.698L31.6172 33.2116C32.6632 32.4714 33.5827 31.5583 34.3247 30.5227L32.8038 29.0091C32.6351 28.8415 32.5951 28.5794 32.7184 28.3635C33.0559 27.7844 33.4356 26.9293 33.5957 26.2719C33.6476 26.028 33.865 25.8486 34.1235 25.8486H36.2794C36.4914 24.6003 36.4914 23.2908 36.2794 22.0457H34.1235C33.8845 22.0457 33.6671 21.8878 33.6021 21.6472C33.4399 21.0445 33.0689 20.0788 32.7433 19.5739C32.5961 19.3633 32.6145 19.0711 32.8049 18.8831L34.3258 17.3727C33.5838 16.3339 32.6643 15.4208 31.6183 14.6838L30.0941 16.1942C29.9254 16.3618 29.6614 16.4016 29.444 16.2791C29.1984 16.1362 28.941 16.0052 28.6716 15.8859V20.2678C30.7258 22.296 30.7323 25.5811 28.6868 27.6125C26.6477 29.6375 23.3452 29.6375 21.3062 27.6125C19.2639 25.5811 19.2671 22.296 21.3213 20.2678V15.8848H21.3246ZM28.6749 22.0575V22.2004C28.6749 24.2039 27.0188 25.8518 24.9981 25.8518C22.9893 25.8518 21.3246 24.1835 21.3246 22.2004V22.0575C19.9075 24.7711 21.8892 28.0562 25.0013 28.0562C28.1102 28.0562 30.0909 24.7711 28.6749 22.0575ZM30.6826 8.76894L25.0003 2.34701L19.3158 8.76894H21.8643C22.1651 8.76894 22.4074 9.00957 22.4074 9.30822V22.2015C22.4074 23.5959 23.5789 24.7776 24.9981 24.7776C26.4238 24.7776 27.5953 23.6206 27.5953 22.2015V9.30714C27.5953 9.0085 27.8344 8.76786 28.1351 8.76786H30.6826V8.76894ZM33.7157 32.871L34.9424 33.5747C35.5622 33.0752 36.2578 32.6766 37.0063 32.3898V30.6667C37.0063 30.4013 37.2 30.179 37.4542 30.1371C38.2795 29.9695 38.7025 29.8846 39.5603 29.8696V22.0339H37.3709C37.6035 23.5196 37.5645 25.0247 37.2573 26.4953C37.2021 26.7478 36.9782 26.9218 36.7273 26.9218H34.5314C34.3561 27.4826 34.1322 28.0175 33.8564 28.5353L35.4108 30.079C35.6012 30.2681 35.6196 30.5635 35.466 30.773C34.8743 31.6195 34.461 32.1556 33.7157 32.871ZM44.6531 33.4888V21.4946C44.6531 21.1992 44.8954 20.9586 45.1928 20.9586H47.0415L42.6475 15.9955L38.2568 20.9586H40.1022C40.3997 20.9586 40.642 21.1992 40.642 21.4946V29.9115C41.1115 29.9577 41.5712 30.0329 42.031 30.1457C42.2765 30.2069 42.442 30.426 42.442 30.6667L42.4453 32.3898C43.1938 32.6755 43.8861 33.0752 44.506 33.5747L44.6531 33.4888ZM41.3625 32.7679V31.0964C40.2829 30.8923 39.1644 30.8923 38.0848 31.0964V32.7679C38.0848 32.9967 37.9377 33.2062 37.7105 33.2793C36.843 33.5564 36.0393 34.0227 35.3643 34.6285C35.1036 34.8445 34.8342 34.7499 34.7326 34.693L33.2733 33.8583C32.5529 34.6801 31.9915 35.6394 31.6323 36.675L33.0699 37.5C33.282 37.6096 33.4009 37.8438 33.349 38.0877C33.1586 38.9707 33.1586 39.8967 33.349 40.783C33.4529 41.1214 33.1922 41.2976 33.0883 41.3588L31.6323 42.1935C31.9915 43.2323 32.5518 44.1884 33.2733 45.0134L34.7109 44.1884C34.91 44.0638 35.1771 44.0788 35.361 44.2432C35.9776 44.7943 36.8852 45.3486 37.6792 45.5796C37.9117 45.6408 38.0837 45.8503 38.0837 46.1006V47.7721C39.1633 47.9795 40.2818 47.9795 41.3614 47.7721V46.0995C41.3614 45.8739 41.5085 45.6644 41.7356 45.5914C42.6032 45.3142 43.4102 44.8458 44.0841 44.2421C44.3112 43.98 44.6141 44.1175 44.7158 44.1755L46.1718 45.0134C46.8922 44.1884 47.4537 43.2323 47.8128 42.1935L46.3752 41.3685C46.1664 41.2621 46.0474 41.0247 46.0961 40.7841C46.2865 39.8978 46.2865 38.9718 46.0961 38.0887C45.976 37.7321 46.2432 37.5774 46.3535 37.5129L47.8128 36.675C47.4537 35.6394 46.8933 34.6801 46.1718 33.8583L44.7342 34.6801C44.5352 34.8079 44.268 34.7929 44.0841 34.6285C43.4156 34.0291 42.6281 33.5715 41.7757 33.2922C41.5377 33.2331 41.3625 33.0204 41.3625 32.7679ZM39.7258 35.6878C41.8081 35.6878 43.4945 37.3658 43.4945 39.4337C43.4945 41.5017 41.8081 43.1797 39.7258 43.1797C37.6402 43.1797 35.9538 41.5017 35.9538 39.4337C35.9538 37.3658 37.6402 35.6878 39.7258 35.6878ZM41.6264 37.5452C39.9367 35.8672 37.0366 37.0607 37.0366 39.4326C37.0366 41.8046 39.9378 42.9981 41.6264 41.3201C42.6757 40.2802 42.6757 38.5872 41.6264 37.5452Z" fill="#105AB3"/>
</svg>
