<svg width="50" height="50" viewBox="0 0 50 50" fill="none" xmlns="http://www.w3.org/2000/svg">
<path d="M11.3065 20.8837C12.3123 20.8832 13.2954 20.5794 14.1315 20.0107C14.9676 19.4421 15.6191 18.6341 16.0037 17.6889C16.3882 16.7438 16.4886 15.7039 16.292 14.7008C16.0954 13.6977 15.6108 12.7763 14.8994 12.0532C14.1879 11.3302 13.2816 10.8378 12.2951 10.6385C11.3085 10.4391 10.2859 10.5417 9.35668 10.9333C8.42744 11.3248 7.63322 11.9878 7.07445 12.8383C6.51568 13.6888 6.21744 14.6887 6.21744 15.7115C6.21834 17.0835 6.75488 18.3989 7.70914 19.3688C8.6634 20.3387 9.9573 20.8836 11.3065 20.8837ZM11.3065 11.9317C12.041 11.9321 12.7589 12.154 13.3695 12.5693C13.98 12.9845 14.4558 13.5746 14.7366 14.2648C15.0174 14.955 15.0907 15.7144 14.9472 16.4469C14.8036 17.1795 14.4497 17.8523 13.9302 18.3803C13.4106 18.9083 12.7488 19.2679 12.0283 19.4134C11.3079 19.559 10.5611 19.4841 9.88255 19.1981C9.20396 18.9122 8.62398 18.4281 8.21593 17.807C7.80788 17.1859 7.59009 16.4557 7.59009 15.7088C7.59135 14.7073 7.98345 13.7473 8.68027 13.0396C9.37708 12.332 10.3216 11.9345 11.3065 11.9345V11.9317ZM24.2298 10.4587C24.23 10.2737 24.3024 10.0962 24.4312 9.96545C24.5599 9.83465 24.7345 9.76117 24.9165 9.76117H38.926C39.108 9.76117 39.2824 9.83467 39.4111 9.96549C39.5397 10.0963 39.612 10.2737 39.612 10.4587C39.612 10.6438 39.5397 10.8212 39.4111 10.952C39.2824 11.0828 39.108 11.1563 38.926 11.1563H24.9165C24.7349 11.1563 24.5608 11.0832 24.4321 10.953C24.3034 10.8228 24.2307 10.6461 24.2298 10.4615V10.4587ZM24.2298 14.0444C24.2307 13.8598 24.3034 13.6831 24.4321 13.5529C24.5608 13.4227 24.7349 13.3496 24.9165 13.3496H38.926C39.108 13.3496 39.2824 13.4231 39.4111 13.5539C39.5397 13.6847 39.612 13.8621 39.612 14.0471C39.612 14.2321 39.5397 14.4096 39.4111 14.5404C39.2824 14.6712 39.108 14.7447 38.926 14.7447H24.9165C24.7345 14.7447 24.5599 14.6712 24.4312 14.5404C24.3024 14.4096 24.23 14.2322 24.2298 14.0471V14.0444ZM24.2298 17.6307C24.23 17.4456 24.3024 17.2682 24.4312 17.1374C24.5599 17.0066 24.7345 16.9331 24.9165 16.9331H38.926C39.108 16.9331 39.2824 17.0066 39.4111 17.1375C39.5397 17.2683 39.612 17.4457 39.612 17.6307C39.612 17.8157 39.5397 17.9931 39.4111 18.124C39.2824 18.2548 39.108 18.3283 38.926 18.3283H24.9165C24.7348 18.3283 24.5606 18.2551 24.4319 18.1247C24.3032 17.9944 24.2305 17.8175 24.2298 17.6328V17.6307ZM24.2298 21.2164C24.2316 21.0324 24.3047 20.8565 24.4333 20.7271C24.5619 20.5976 24.7355 20.525 24.9165 20.525H38.926C39.0161 20.525 39.1053 20.543 39.1885 20.5781C39.2718 20.6131 39.3474 20.6645 39.4111 20.7293C39.4748 20.7941 39.5253 20.871 39.5598 20.9556C39.5943 21.0402 39.612 21.1309 39.612 21.2225C39.612 21.3142 39.5943 21.4049 39.5598 21.4895C39.5253 21.5741 39.4748 21.651 39.4111 21.7158C39.3474 21.7806 39.2718 21.832 39.1885 21.867C39.1053 21.9021 39.0161 21.9201 38.926 21.9201H24.9165C24.8261 21.9201 24.7366 21.902 24.6531 21.8667C24.5696 21.8314 24.4938 21.7798 24.43 21.7146C24.3662 21.6495 24.3156 21.5722 24.2813 21.4872C24.2469 21.4021 24.2295 21.311 24.2298 21.2191V21.2164ZM45.3416 37.0098C45.8781 36.5145 46.2546 35.8657 46.4216 35.1487C46.5886 34.4317 46.5383 33.6801 46.2772 32.9927C46.0162 32.3053 45.5566 31.7144 44.959 31.2977C44.3614 30.881 43.6538 30.6579 42.9292 30.6579C42.2046 30.6579 41.4969 30.881 40.8993 31.2977C40.3018 31.7144 39.8422 32.3053 39.5811 32.9927C39.3201 33.6801 39.2697 34.4317 39.4367 35.1487C39.6037 35.8657 39.9802 36.5145 40.5167 37.0098C38.8454 37.6185 37.46 38.8434 36.6351 40.4419C35.8102 38.8431 34.4245 37.6181 32.7528 37.0098C33.2893 36.5145 33.6658 35.8657 33.8328 35.1487C33.9998 34.4317 33.9495 33.6801 33.6884 32.9927C33.4273 32.3053 32.9678 31.7144 32.3702 31.2977C31.7726 30.881 31.065 30.6579 30.3404 30.6579C29.6158 30.6579 28.9081 30.881 28.3105 31.2977C27.7129 31.7144 27.2534 32.3053 26.9923 32.9927C26.7313 33.6801 26.6809 34.4317 26.8479 35.1487C27.0149 35.8657 27.3914 36.5145 27.9279 37.0098C26.191 37.6437 24.7663 38.9424 23.9576 40.6292C23.1493 38.9422 21.7244 37.6433 19.9873 37.0098C20.4648 36.5728 20.817 36.0124 21.0065 35.3882C21.196 34.7639 21.2157 34.0992 21.0635 33.4645C20.9114 32.8298 20.593 32.2488 20.1423 31.7833C19.6916 31.3178 19.1253 30.9851 18.5036 30.8205V26.3596L18.7744 25.671C19.1765 25.9989 19.6764 26.1778 20.1918 26.1785H41.047C41.6527 26.1776 42.2334 25.9324 42.6616 25.4967C43.0898 25.061 43.3306 24.4704 43.3311 23.8544V7.82409C43.3306 7.20811 43.0898 6.61749 42.6616 6.1818C42.2334 5.74611 41.6527 5.50091 41.047 5.5H20.1965C19.5907 5.50091 19.01 5.74608 18.5817 6.18176C18.1533 6.61743 17.9124 7.20805 17.9117 7.82409V15.7735C17.8948 15.8107 17.8711 15.8424 17.8555 15.8816L15.8815 20.943H6.69079C6.48742 20.9422 6.28665 20.9895 6.10428 21.081C5.92191 21.1725 5.76292 21.3058 5.6398 21.4705L0.450557 28.3697C0.0945004 28.8484 -0.0599764 29.4513 0.0211108 30.0458C0.102198 30.6403 0.412207 31.1777 0.882938 31.5398C1.35367 31.9018 1.94656 32.0589 2.53119 31.9765C3.11582 31.894 3.64429 31.5788 4.00035 31.1001L5.6933 28.8883V33.1653C5.69294 33.6911 5.89771 34.1957 6.26268 34.5683C6.62766 34.9408 7.12306 35.151 7.6402 35.1526H14.0856C14.2512 35.8689 14.6266 36.5173 15.1623 37.0119C13.9064 37.4687 12.8031 38.2774 11.9797 39.3445C11.1563 40.4116 10.6464 41.6937 10.5087 43.0428C10.4909 43.2279 10.5111 43.4147 10.568 43.5915C10.6248 43.7682 10.7172 43.931 10.8392 44.0695C10.9609 44.2067 11.1098 44.316 11.2762 44.3902C11.4426 44.4644 11.6225 44.5018 11.8042 44.4999H23.3454C23.5586 44.4984 23.768 44.443 23.9549 44.3388C24.1432 44.4443 24.3547 44.4997 24.5698 44.4999H36.1103C36.2897 44.501 36.4673 44.464 36.6317 44.3911C36.7979 44.4638 36.977 44.5009 37.1579 44.4999H48.6998C48.882 44.5008 49.0623 44.4626 49.2289 44.3877C49.3955 44.3128 49.5447 44.203 49.6668 44.0655C49.7888 43.928 49.8809 43.7658 49.937 43.5895C49.9932 43.4133 50.0121 43.227 49.9925 43.0428C49.8558 41.6935 49.3466 40.411 48.5236 39.3435C47.7006 38.276 46.5975 37.467 45.3416 37.0098ZM40.7151 34.3283C40.7143 33.8823 40.8437 33.446 41.0868 33.0747C41.3299 32.7034 41.6759 32.4138 42.081 32.2425C42.486 32.0712 42.9319 32.026 43.3623 32.1125C43.7926 32.199 44.188 32.4134 44.4985 32.7285C44.809 33.0437 45.0205 33.4454 45.1064 33.8828C45.1923 34.3203 45.1486 34.7738 44.9809 35.186C44.8133 35.5982 44.5291 35.9506 44.1644 36.1985C43.7997 36.4464 43.3709 36.5788 42.9322 36.5788C42.345 36.5784 41.7819 36.3413 41.3663 35.9195C40.9507 35.4976 40.7166 34.9255 40.7151 34.3283ZM28.1263 34.3283C28.1255 33.8823 28.2549 33.446 28.498 33.0747C28.7411 32.7034 29.0871 32.4138 29.4921 32.2425C29.8972 32.0712 30.3431 32.026 30.7734 32.1125C31.2038 32.199 31.5992 32.4134 31.9097 32.7285C32.2202 33.0437 32.4317 33.4454 32.5176 33.8828C32.6035 34.3203 32.5598 34.7738 32.3921 35.186C32.2244 35.5982 31.9403 35.9506 31.5756 36.1985C31.2109 36.4464 30.7821 36.5788 30.3434 36.5788C29.7557 36.5791 29.1919 36.3424 28.7758 35.9204C28.3596 35.4985 28.125 34.9259 28.1236 34.3283H28.1263ZM20.1965 6.89514H41.047C41.2889 6.89551 41.5209 6.99356 41.6918 7.16775C41.8627 7.34194 41.9586 7.57802 41.9584 7.82409V23.8565C41.9586 24.1026 41.8627 24.3387 41.6918 24.5128C41.5209 24.687 41.2889 24.7851 41.047 24.7855H20.1965C20.0154 24.7836 19.8391 24.7261 19.6908 24.6204C19.5424 24.5147 19.4291 24.3658 19.3656 24.1932L21.9856 17.5825C22.0964 17.3065 22.1519 17.0108 22.149 16.7128C22.1461 16.4147 22.0848 16.1202 21.9687 15.8465C21.8591 15.5883 21.7034 15.353 21.5096 15.1524L23.3623 10.9215C23.399 10.8378 23.419 10.7476 23.4214 10.656C23.4238 10.5644 23.4083 10.4733 23.3761 10.3877C23.3438 10.3022 23.2952 10.224 23.2332 10.1576C23.1712 10.0911 23.0969 10.0377 23.0146 10.0005C22.9323 9.96321 22.8436 9.9428 22.7535 9.94041C22.6635 9.93802 22.5738 9.95369 22.4897 9.98652C22.4056 10.0194 22.3287 10.0687 22.2633 10.1318C22.198 10.1948 22.1455 10.2704 22.1089 10.3541L20.292 14.503C19.9553 14.4478 19.6106 14.4728 19.285 14.576V7.82753C19.2845 7.7054 19.3077 7.58436 19.3532 7.47135C19.3988 7.35834 19.4658 7.25559 19.5505 7.16897C19.6351 7.08235 19.7358 7.01358 19.8467 6.96659C19.9575 6.9196 20.0764 6.89532 20.1965 6.89514ZM14.0423 33.7568H7.6402C7.48706 33.7555 7.34066 33.6925 7.23314 33.5816C7.12561 33.4707 7.06573 33.321 7.06663 33.1653V26.8554C7.06608 26.7105 7.02119 26.5693 6.93817 26.4515C6.85516 26.3336 6.73813 26.245 6.60334 26.1978C6.46855 26.1507 6.32266 26.1474 6.18592 26.1883C6.04919 26.2293 5.92838 26.3125 5.84025 26.4264L2.91144 30.2531C2.77443 30.4339 2.5729 30.5525 2.3505 30.5832C2.12811 30.6139 1.90277 30.5543 1.7233 30.4173C1.54382 30.2802 1.42467 30.0768 1.39166 29.8511C1.35864 29.6253 1.41442 29.3954 1.54691 29.2112L6.6935 22.3416H15.8788C16.1414 22.3417 16.398 22.2616 16.6154 22.1117C16.8327 21.9618 17.0007 21.7489 17.0977 21.5007L19.1211 16.405C19.1835 16.244 19.2917 16.1057 19.432 16.0078C19.5723 15.91 19.7381 15.857 19.9082 15.8557C20.0783 15.8545 20.2449 15.905 20.3865 16.0008C20.5282 16.0966 20.6384 16.2333 20.703 16.3933C20.748 16.4978 20.7718 16.6104 20.773 16.7244C20.7743 16.8384 20.753 16.9516 20.7105 17.0571L17.242 25.8115C17.1672 25.9774 17.1284 26.1578 17.1282 26.3404V30.7276C16.3607 30.8249 15.6451 31.1728 15.0886 31.719C14.5322 32.2652 14.165 32.9803 14.0423 33.7568ZM15.358 34.3283C15.3572 33.8822 15.4866 33.4459 15.7298 33.0746C15.9729 32.7033 16.3189 32.4137 16.724 32.2424C17.1291 32.0712 17.5751 32.026 18.0054 32.1125C18.4358 32.1991 18.8312 32.4136 19.1417 32.7288C19.4521 33.044 19.6636 33.4458 19.7494 33.8833C19.8352 34.3208 19.7915 34.7743 19.6237 35.1865C19.4559 35.5987 19.1716 35.951 18.8068 36.1988C18.442 36.4467 18.0132 36.5789 17.5745 36.5788C16.9874 36.5782 16.4245 36.341 16.009 35.9192C15.5936 35.4974 15.3595 34.9253 15.358 34.3283ZM17.5745 37.978C18.9704 37.9738 20.3199 38.488 21.3694 39.424C22.4189 40.36 23.0963 41.6534 23.2743 43.0614C23.2743 43.0779 23.2743 43.0938 23.2743 43.1103L11.88 43.1268C12.0394 41.706 12.7084 40.3947 13.759 39.4441C14.8097 38.4935 16.1681 37.9703 17.5745 37.9746V37.978ZM30.3407 37.978C31.6466 37.9742 32.9143 38.4254 33.9328 39.2565C34.9513 40.0876 35.6591 41.2484 35.9383 42.5456C35.9098 42.7116 35.8807 42.8782 35.8631 43.0483C35.8631 43.069 35.8631 43.0896 35.8631 43.1103L24.6476 43.1254C24.8068 41.7049 25.4756 40.3939 26.5261 39.4435C27.5765 38.4932 28.9347 37.9701 30.3407 37.9746V37.978ZM37.4057 43.1268C37.4057 43.0993 37.4057 43.0724 37.4057 43.0449C37.3888 42.8762 37.3597 42.7123 37.3319 42.5477C37.6267 41.2038 38.3789 40.0091 39.4558 39.1745C40.5327 38.3398 41.865 37.919 43.2174 37.9863C44.5698 38.0536 45.8554 38.6047 46.847 39.5423C47.8386 40.4799 48.4725 41.7436 48.6368 43.1103L37.4057 43.1268Z" fill="#105AB3"/>
</svg>
