<svg width="51" height="50" viewBox="0 0 51 50" fill="none" xmlns="http://www.w3.org/2000/svg">
<path d="M35.012 43C34.7269 43 34.4939 42.7664 34.4939 42.4805V40.6171H16.5089V42.4805C16.5089 42.7678 16.2759 43 15.9908 43H11.2358C10.9493 43 10.7177 42.7664 10.7177 42.4805V40.6171H2.51813C2.23302 40.6171 2 40.3835 2 40.0977V28.9735C2 28.6863 2.23302 28.4541 2.51813 28.4541H10.7177V26.5906C10.7177 26.3034 10.9507 26.0712 11.2358 26.0712H15.9908C16.2759 26.0712 16.5089 26.3048 16.5089 26.5906V28.4541H18.6417V25.4707L18.4361 25.4171C17.1572 25.0873 16.2649 23.9316 16.2663 22.6068C16.2676 21.0114 17.5643 19.7128 19.1571 19.7128H21.0199V15.9845H13.6126C13.3275 15.9845 13.0945 15.7509 13.0945 15.4651V7.51945C13.0945 7.23224 13.3275 7 13.6126 7H19.9535C20.2386 7 20.4716 7.23362 20.4716 7.51945V10.1785H30.5298V7.51945C30.5298 7.23224 30.7628 7 31.0479 7H37.3888C37.6739 7 37.9069 7.23362 37.9069 7.51945V15.4651C37.9069 15.7509 37.6739 15.9845 37.3888 15.9845H29.9815V19.7128H31.8402C33.1629 19.7128 34.3143 20.6074 34.6433 21.8881C34.8352 22.6371 34.7255 23.4176 34.3321 24.0841C33.9387 24.7506 33.3109 25.2233 32.5639 25.4171L32.3583 25.4707V28.4541H34.4911V26.5906C34.4911 26.3034 34.7241 26.0712 35.0092 26.0712H39.7642C40.0507 26.0712 40.2823 26.3048 40.2823 26.5906V28.4541H48.4819C48.767 28.4541 49 28.6877 49 28.9735V40.0977C49 40.3849 48.767 40.6171 48.4819 40.6171H40.2823V42.4805C40.2823 42.7678 40.0493 43 39.7642 43H35.0092H35.012ZM35.5301 41.9611H39.2488V27.1087H35.5301V41.9611ZM11.7539 41.9611H15.4726V27.1087H11.7539V41.9611ZM40.2851 39.5769H47.9665V29.493H40.2851V39.5769ZM32.3597 39.5769H34.4925V29.493H32.3597V39.5769ZM19.6793 39.5769H31.3234V25.5201H19.6793V39.5769ZM16.5089 39.5769H18.6417V29.493H16.5089V39.5769ZM3.03625 39.5769H10.7177V29.493H3.03625V39.5769ZM19.1612 20.7517C18.1359 20.7517 17.3025 21.5872 17.3025 22.6151C17.3025 23.643 18.1359 24.4785 19.1612 24.4785H31.8416C32.8668 24.4785 33.7002 23.643 33.7002 22.6151C33.7002 21.5872 32.8668 20.7517 31.8416 20.7517H19.1612ZM22.0575 19.7128H28.9466V15.9845H22.0575V19.7128ZM14.1321 14.9456H36.872V8.0389H31.5688V10.698C31.5688 10.9852 31.3358 11.2174 31.0507 11.2174H19.9548C19.6683 11.2174 19.4367 10.9838 19.4367 10.698V8.0389H14.1335V14.9456H14.1321Z" fill="#105AB3"/>
</svg>
