<svg width="51" height="50" viewBox="0 0 51 50" fill="none" xmlns="http://www.w3.org/2000/svg">
<path d="M43.2 6H7.80002C7.45534 6.00034 7.12487 6.13741 6.88114 6.38114C6.63741 6.62487 6.50034 6.95534 6.5 7.30002V33.9152C6.50034 34.2599 6.63741 34.5904 6.88114 34.8341C7.12487 35.0778 7.45534 35.2149 7.80002 35.2152H21.472C21.233 37.9977 19.0425 40.1844 16.383 40.1844C16.3327 40.1844 16.2828 40.192 16.2348 40.2068C15.7593 40.2795 15.3289 40.5292 15.0297 40.9059C14.7305 41.2825 14.5846 41.7582 14.6213 42.2379C14.658 42.7175 14.8745 43.1655 15.2274 43.4923C15.5804 43.819 16.0438 44.0004 16.5248 44H34.4752C34.9562 44.0004 35.4196 43.819 35.7726 43.4923C36.1255 43.1655 36.342 42.7175 36.3787 42.2379C36.4154 41.7582 36.2695 41.2825 35.9703 40.9059C35.6711 40.5292 35.2407 40.2795 34.7652 40.2068C34.7172 40.192 34.6673 40.1844 34.617 40.1844C31.957 40.1844 29.767 37.9977 29.5276 35.2152H43.2C43.5447 35.2149 43.8751 35.0778 44.1189 34.8341C44.3626 34.5904 44.4997 34.2599 44.5 33.9152V7.30002C44.4997 6.95534 44.3626 6.62487 44.1189 6.38114C43.8751 6.13741 43.5447 6.00034 43.2 6ZM7.80002 7.01333H43.2C43.2762 7.01432 43.349 7.045 43.403 7.09886C43.4569 7.15272 43.4877 7.2255 43.4888 7.30171V30.2356H7.51333V7.30002C7.51485 7.22446 7.54553 7.15242 7.59898 7.09898C7.65242 7.04553 7.72446 7.01485 7.80002 7.01333ZM35.3711 42.0941C35.37 42.3311 35.2752 42.5579 35.1073 42.7252C34.9394 42.8924 34.7122 42.9864 34.4752 42.9867H16.5248C16.2905 42.9816 16.0675 42.8849 15.9036 42.7174C15.7397 42.5499 15.6479 42.3249 15.6479 42.0905C15.6479 41.8561 15.7397 41.6311 15.9036 41.4636C16.0675 41.2961 16.2905 41.1994 16.5248 41.1943H34.4752C34.7128 41.1947 34.9405 41.2892 35.1085 41.4573C35.2765 41.6253 35.3709 41.8531 35.3711 42.0907V42.0941ZM31.3368 40.1865H19.6632C20.4785 39.625 21.1562 38.8862 21.6454 38.0256C22.1345 37.165 22.4226 36.2047 22.4879 35.2169H28.5121C28.5777 36.2044 28.8658 37.1643 29.355 38.0247C29.8442 38.885 30.5217 39.6235 31.3368 40.1848V40.1865ZM43.2 34.2044H7.80002C7.72381 34.2035 7.65098 34.1728 7.59704 34.1189C7.54311 34.0651 7.51232 33.9923 7.51122 33.9161V31.2489H43.4888V33.9169C43.4875 33.993 43.4566 34.0655 43.4027 34.1192C43.3488 34.1729 43.2761 34.2035 43.2 34.2044ZM20.693 22.6841L18.4844 23.9596H15.8353C15.701 23.9596 15.5721 24.013 15.4771 24.108C15.382 24.2031 15.3287 24.3319 15.3287 24.4663V27.2504C15.3287 27.3848 15.382 27.5137 15.4771 27.6087C15.5721 27.7037 15.701 27.7571 15.8353 27.7571H18.6199C18.7543 27.7571 18.8831 27.7037 18.9782 27.6087C19.0732 27.5137 19.1266 27.3848 19.1266 27.2504V24.7593L21.2001 23.5623L25.2467 25.8976H25.2505C25.2685 25.9078 25.2871 25.917 25.3062 25.9251H25.3096C25.3271 25.9322 25.345 25.9383 25.3632 25.9432L25.3784 25.947C25.3934 25.9509 25.4086 25.9539 25.424 25.9559L25.4396 25.9584C25.4794 25.9635 25.5197 25.9635 25.5595 25.9584L25.5752 25.9559C25.5905 25.9539 25.6057 25.9509 25.6208 25.947L25.636 25.9432C25.6542 25.9382 25.6721 25.9321 25.6896 25.9251H25.693C25.712 25.917 25.7306 25.9078 25.7487 25.8976H25.7525L29.8008 23.5602L31.8739 24.7572V27.2483C31.8739 27.3149 31.887 27.3808 31.9124 27.4422C31.9379 27.5037 31.9752 27.5596 32.0223 27.6066C32.0693 27.6536 32.1252 27.691 32.1866 27.7164C32.2481 27.7419 32.314 27.755 32.3805 27.755H35.1647C35.2312 27.755 35.2971 27.7419 35.3586 27.7164C35.42 27.691 35.4759 27.6536 35.5229 27.6066C35.57 27.5596 35.6073 27.5037 35.6328 27.4422C35.6582 27.3808 35.6713 27.3149 35.6713 27.2483V24.4655C35.6713 24.3989 35.6582 24.333 35.6328 24.2716C35.6073 24.2101 35.57 24.1542 35.5229 24.1072C35.4759 24.0602 35.42 24.0228 35.3586 23.9974C35.2971 23.9719 35.2312 23.9588 35.1647 23.9588H32.5156L30.3066 22.6837V18.0055C30.3062 17.9849 30.3048 17.9643 30.3024 17.9438V17.9396C30.2998 17.9211 30.2961 17.9028 30.2914 17.8847L30.2872 17.8695C30.2829 17.8547 30.2779 17.8404 30.2724 17.8273L30.2665 17.8121C30.2589 17.794 30.2501 17.7763 30.2403 17.7593C30.2306 17.7423 30.2197 17.7259 30.2078 17.7103L30.1976 17.6977C30.1879 17.6858 30.1778 17.674 30.1677 17.663L30.1563 17.6516C30.1429 17.6386 30.1288 17.6263 30.114 17.6149L30.1107 17.612C30.0942 17.5997 30.0769 17.5883 30.0596 17.5778L30.0558 17.5752L26.0067 15.2348V13.0541H26.8933C27.0277 13.0541 27.1566 13.0007 27.2516 12.9057C27.3466 12.8106 27.4 12.6818 27.4 12.5474V9.76411C27.4 9.62973 27.3466 9.50086 27.2516 9.40584C27.1566 9.31083 27.0277 9.25744 26.8933 9.25744H24.1067C23.9723 9.25744 23.8434 9.31083 23.7484 9.40584C23.6534 9.50086 23.6 9.62973 23.6 9.76411V12.5482C23.6 12.6826 23.6534 12.8115 23.7484 12.9065C23.8434 13.0015 23.9723 13.0549 24.1067 13.0549H24.9933V15.2357L20.9451 17.5727L20.9417 17.5752C20.9238 17.5857 20.9066 17.5973 20.8902 17.6098L20.8868 17.6124C20.872 17.6239 20.8579 17.6363 20.8446 17.6495L20.8336 17.6605C20.823 17.6715 20.8129 17.6833 20.8032 17.6951L20.7931 17.7078C20.7811 17.7234 20.7703 17.7397 20.7606 17.7568C20.751 17.7739 20.7424 17.7915 20.7348 17.8096L20.7289 17.8248C20.7234 17.8391 20.7183 17.8535 20.7141 17.867L20.7099 17.8822C20.7052 17.9002 20.7015 17.9186 20.6989 17.9371V17.9413C20.6962 17.9617 20.6948 17.9823 20.6947 18.0029V22.6841H20.693ZM24.6133 10.2708H26.3867V12.0441H24.6133V10.2708ZM18.1141 26.7442H16.3407V24.9709H18.1141V26.7442ZM21.703 18.8858L24.9925 20.7858V24.5858L21.703 22.6858V18.8858ZM25.5 16.1105L28.7895 18.0105L25.5 19.9093L22.2105 18.0093L25.5 16.1105ZM26.0067 24.5837V20.7837L29.2962 18.8837V22.6837L26.0067 24.5837ZM32.8868 24.9709H34.6601V26.7442H32.8868V24.9709ZM10.0526 10.2847C10.0526 10.1503 10.106 10.0215 10.201 9.92644C10.296 9.83143 10.4249 9.77804 10.5592 9.77804H15.2772C15.3463 9.77357 15.4156 9.78333 15.4809 9.80672C15.5461 9.83011 15.6058 9.86662 15.6564 9.91401C15.7069 9.9614 15.7472 10.0187 15.7748 10.0822C15.8023 10.1458 15.8165 10.2144 15.8165 10.2837C15.8165 10.3529 15.8023 10.4215 15.7748 10.4851C15.7472 10.5487 15.7069 10.6059 15.6564 10.6533C15.6058 10.7007 15.5461 10.7372 15.4809 10.7606C15.4156 10.784 15.3463 10.7937 15.2772 10.7893H10.558C10.4242 10.7889 10.296 10.7357 10.2013 10.6412C10.1066 10.5466 10.0531 10.4185 10.0526 10.2847ZM10.0526 13.212C10.0526 13.0776 10.106 12.9487 10.201 12.8537C10.296 12.7587 10.4249 12.7053 10.5592 12.7053H16.7524C16.8868 12.7053 17.0156 12.7587 17.1107 12.8537C17.2057 12.9487 17.2591 13.0776 17.2591 13.212C17.2591 13.3464 17.2057 13.4752 17.1107 13.5702C17.0156 13.6653 16.8868 13.7186 16.7524 13.7186H10.558C10.4238 13.7183 10.2953 13.6648 10.2005 13.5698C10.1058 13.4748 10.0526 13.3461 10.0526 13.212Z" fill="#105AB3" stroke="#105AB3" stroke-width="0.25"/>
</svg>
