<svg width="51" height="50" viewBox="0 0 51 50" fill="none" xmlns="http://www.w3.org/2000/svg">
<path d="M29.0875 18.2097H27.3627C27.4515 17.9849 27.5034 17.7425 27.5034 17.4865C27.5034 17.2563 27.457 17.0384 27.3846 16.8328L28.8472 15.7474C29.1299 15.5376 29.1886 15.1386 28.9783 14.8567C28.768 14.5748 28.3679 14.5162 28.0852 14.726L26.6062 15.8236C26.2893 15.6139 25.9097 15.49 25.5014 15.49C24.3979 15.49 23.4993 16.3861 23.4993 17.4865C23.4993 17.7425 23.5526 17.9849 23.64 18.2097H21.9138C21.5615 18.2097 21.2747 18.4943 21.2747 18.847C21.2747 19.1997 21.5601 19.4844 21.9138 19.4844H29.0862C29.4385 19.4844 29.7253 19.1997 29.7253 18.847C29.7253 18.4943 29.4399 18.2097 29.0862 18.2097H29.0875ZM25.5014 18.2097C25.1012 18.2097 24.7762 17.8855 24.7762 17.4865C24.7762 17.0875 25.1012 16.7633 25.5014 16.7633C25.9015 16.7633 26.2265 17.0875 26.2265 17.4865C26.2265 17.8855 25.9015 18.2097 25.5014 18.2097Z" fill="#105AB3"/>
<path d="M25.5014 10.4823C21.6284 10.4823 18.4779 13.6242 18.4779 17.4879C18.4779 19.1439 19.0719 20.7523 20.1494 22.0188C20.2709 22.1618 20.4485 22.2436 20.6356 22.2436H30.3672C30.5542 22.2436 30.7331 22.1618 30.8533 22.0188C31.9322 20.7537 32.5249 19.1439 32.5249 17.4879C32.5249 13.6256 29.3743 10.4823 25.5014 10.4823ZM30.0626 20.9688H20.9415C20.174 19.9706 19.7547 18.7449 19.7547 17.4879C19.7547 14.3283 22.3331 11.7571 25.5014 11.7571C28.6697 11.7571 31.248 14.3283 31.248 17.4879C31.248 18.7462 30.8287 19.9706 30.0613 20.9688H30.0626Z" fill="#105AB3"/>
<path d="M2.00273 26.3374V40.3293C2.00273 40.6807 2.28815 40.9667 2.64185 40.9667H7.2072C7.55954 40.9667 7.84632 40.6821 7.84632 40.3293V38.6215H17.4304C19.218 41.3698 22.2088 43 25.5014 43C28.7939 43 31.7847 41.3698 33.5723 38.6215H43.1564V40.3293C43.1564 40.6807 43.4418 40.9667 43.7955 40.9667H48.3609C48.7132 40.9667 49 40.6821 49 40.3293V26.3374C49 25.986 48.7146 25.7 48.3609 25.7H43.7955C43.4432 25.7 43.1564 25.9846 43.1564 26.3374V27.8545H31.0472V25.7885H31.6959C31.842 25.7885 31.9841 25.7381 32.0974 25.6469C34.587 23.6422 36.0155 20.6679 36.0155 17.4865C36.0155 11.7039 31.2985 7 25.5 7C19.7015 7 14.9845 11.7039 14.9845 17.4865C14.9845 20.6679 16.413 23.6422 18.9026 25.6469C19.0159 25.7381 19.1579 25.7885 19.3041 25.7885H19.9528V27.8545H7.84359V26.3374C7.84359 25.986 7.55817 25.7 7.20447 25.7H2.63912C2.28678 25.7 2 25.9846 2 26.3374H2.00273ZM44.4347 26.9747H47.7218V39.6933H44.4347V26.9747ZM19.5349 24.5152C17.4536 22.757 16.2628 20.2089 16.2628 17.4879C16.2628 12.408 20.4061 8.27608 25.5 8.27608C30.5939 8.27608 34.7372 12.408 34.7372 17.4879C34.7372 20.2089 33.5477 22.7583 31.4651 24.5152H19.5321H19.5349ZM29.7717 25.7885V27.8545H21.2324V25.7885H29.7717ZM7.84632 29.1279H43.1591V37.3468H33.22C32.996 37.3468 32.7871 37.4639 32.6724 37.6573C31.1442 40.2041 28.4648 41.7253 25.5027 41.7253C22.5406 41.7253 19.8613 40.2041 18.3331 37.6573C18.2184 37.4653 18.0094 37.3468 17.7855 37.3468H7.84632V29.1279ZM3.28097 26.9734H6.56808V28.4878C6.56808 28.4878 6.56808 28.4891 6.56808 28.4905C6.56808 28.4919 6.56808 28.4919 6.56808 28.4932V39.692H3.28097V26.9734Z" fill="#105AB3"/>
</svg>
