<svg width="51" height="50" viewBox="0 0 51 50" fill="none" xmlns="http://www.w3.org/2000/svg">
<path d="M32.9324 19.2624C30.9371 17.1678 28.2934 15.9902 25.475 15.9902C22.6567 15.9902 20.0109 17.1252 18.0177 19.218C13.9426 23.5366 13.9426 30.5617 18.0177 34.8801L25.0414 42.3416C25.1719 42.4728 25.3023 42.5154 25.475 42.5154C25.6478 42.5154 25.7782 42.4711 25.9086 42.3416L32.9766 34.8801C37.0516 30.6058 37.0091 23.5812 32.9324 19.2624ZM32.1092 34.0963L25.4749 41.1198L18.8405 34.1391C15.155 30.2568 15.155 23.9307 18.8405 20.0909C20.6189 18.1719 22.9596 17.1681 25.4749 17.1681C27.9901 17.1681 30.3306 18.2145 32.1092 20.0483C35.7947 23.9306 35.7947 30.2565 32.1092 34.0963ZM30.9389 21.0944C27.9461 18.0403 23.0037 18.0403 20.0111 21.0944C18.5376 22.5771 17.7568 24.4978 17.7568 26.5925C17.7568 28.6871 18.5799 30.6061 20.0111 32.0907C21.5287 33.6177 23.4798 34.3591 25.4752 34.3591C27.4706 34.3591 29.4216 33.6177 30.9393 32.0907C32.4128 30.608 33.1936 28.6873 33.1936 26.5925C33.1936 24.498 32.4128 22.5773 30.9393 21.0944H30.9389ZM30.1141 31.2604C28.8133 32.5693 27.1653 33.1794 25.4751 33.1794C23.7848 33.1794 22.0927 32.525 20.8361 31.2604C19.5794 29.9959 18.929 28.3376 18.929 26.5925C18.929 24.803 19.6234 23.1465 20.8361 21.9246C23.3936 19.3512 27.5567 19.3512 30.1583 21.9246C31.415 23.1892 32.0654 24.8474 32.0654 26.5925C32.0654 28.3376 31.3725 29.9943 30.1141 31.2604ZM32.7156 41.1198C32.7156 43.0388 29.0741 44 25.4751 44C21.876 44 18.2345 42.9962 18.2345 41.1198C18.2345 40.5097 18.6241 39.5927 20.5752 38.9383C20.8784 38.8514 21.1816 38.9826 21.312 39.2877C21.3984 39.5927 21.268 39.8978 20.9648 40.029C19.8808 40.421 19.4032 40.8573 19.4032 41.1198C19.4032 41.6873 21.5271 42.8649 25.4734 42.8649C29.4198 42.8649 31.5437 41.7299 31.5437 41.1198C31.5437 40.8573 31.0661 40.421 29.9821 40.029C29.6789 39.9421 29.5044 39.5927 29.6349 39.2877C29.7213 38.9826 30.0685 38.8071 30.3716 38.9383C32.2821 39.6371 32.7156 40.5097 32.7156 41.1198ZM28.5101 22.5773H22.4399C21.8335 22.5773 21.3559 23.0579 21.3559 23.668V29.4712C21.3559 30.0813 21.8335 30.5619 22.4399 30.5619H28.5101C29.1165 30.5619 29.5941 30.0813 29.5941 29.4712V23.668C29.5941 23.0579 29.1165 22.5773 28.5101 22.5773ZM24.6078 23.7124H26.3422V26.4614H24.6078V23.7124ZM28.4661 29.4287H22.4838V23.7124H23.4814V26.6795C23.4814 27.2027 23.915 27.5964 24.3927 27.5964H26.5606C27.0806 27.5964 27.4718 27.1601 27.4718 26.6795L27.4702 23.7124H28.4678L28.4661 29.4287ZM21.356 10.7549C21.1393 10.5368 21.1393 10.1448 21.356 9.92665L25.0856 6.17384C25.172 6.08692 25.3465 6 25.4752 6C25.6479 6 25.7784 6.04431 25.8647 6.17384L29.5943 9.92665C29.8111 10.1448 29.8111 10.5368 29.5943 10.7549C29.3775 10.9731 28.988 10.9731 28.7712 10.7549L26.0392 8.00592V12.8051C26.0392 13.1102 25.7784 13.3727 25.4752 13.3727C25.172 13.3727 24.9112 13.1102 24.9112 12.8051V8.00592L22.1792 10.7549C22.0488 10.8861 21.9184 10.9287 21.7897 10.9287C21.6169 10.9287 21.4424 10.8861 21.356 10.7549ZM34.1028 12.6313C34.1028 12.3263 34.3636 12.0638 34.6668 12.0638H39.9561C40.2593 12.0638 40.5202 12.3262 40.5202 12.6313V17.9537C40.5202 18.2587 40.2593 18.5212 39.9561 18.5212C39.653 18.5212 39.3921 18.2587 39.3921 17.9537V14.0713L35.8793 17.606C35.7489 17.7372 35.6185 17.7799 35.4898 17.7799C35.3594 17.7799 35.1866 17.7355 35.1002 17.606C34.8834 17.3879 34.8834 16.9959 35.1002 16.7778L38.613 13.2431H34.7107C34.3635 13.1971 34.1028 12.9364 34.1028 12.6313ZM16.8471 41.7316C16.8471 42.0367 16.5863 42.2992 16.2831 42.2992H10.9937C10.6906 42.2992 10.4297 42.0367 10.4297 41.7316V36.4093C10.4297 36.1042 10.6906 35.8418 10.9937 35.8418C11.2969 35.8418 11.5578 36.1042 11.5578 36.4093V40.3359L14.7233 37.1506C14.9401 36.9325 15.3297 36.9325 15.5465 37.1506C15.7632 37.3688 15.7632 37.7607 15.5465 37.9789L12.3809 41.1642H16.2832C16.5864 41.1642 16.8471 41.4266 16.8471 41.7316ZM46.3313 27.5949L42.6017 31.3477C42.4713 31.4789 42.3409 31.5215 42.2122 31.5215C42.0818 31.5215 41.909 31.4772 41.8226 31.3477C41.6058 31.1295 41.6058 30.7376 41.8226 30.5194L44.5546 27.7704H39.5228C39.2196 27.7704 38.9588 27.508 38.9588 27.2029C38.9588 26.8978 39.2196 26.6354 39.5228 26.6354H44.5533L41.8213 23.8864C41.6045 23.6682 41.6045 23.2763 41.8213 23.0581C42.0381 22.84 42.4277 22.84 42.6445 23.0581L46.374 26.8109C46.5485 26.9848 46.5481 27.3767 46.3313 27.5949ZM9.17128 30.5194C9.38808 30.7375 9.38808 31.1295 9.17128 31.3476C9.04087 31.4789 8.91045 31.5215 8.78173 31.5215C8.65131 31.5215 8.47855 31.4772 8.39217 31.3476L4.6626 27.5948C4.4458 27.3767 4.4458 26.9847 4.6626 26.7666L8.39217 23.0137C8.60897 22.7956 8.9985 22.7956 9.2153 23.0137C9.43209 23.2319 9.43209 23.6239 9.2153 23.842L6.39696 26.5927H11.3833C11.6864 26.5927 11.9473 26.8552 11.9473 27.1602C11.9473 27.4653 11.6864 27.7278 11.3833 27.7278L6.39696 27.726L9.17128 30.5194ZM40.5203 36.4093V41.7317C40.5203 42.0367 40.2595 42.2992 39.9563 42.2992H34.6669C34.3638 42.2992 34.1029 42.0367 34.1029 41.7317C34.1029 41.4266 34.3638 41.1641 34.6669 41.1641H38.5693L35.4037 37.9788C35.1869 37.7607 35.1869 37.3687 35.4037 37.1506C35.6205 36.9324 36.01 36.9324 36.2268 37.1506L39.3924 40.3359V36.4092C39.3924 36.1042 39.6532 35.8417 39.9564 35.8417C40.2613 35.8417 40.5203 36.1026 40.5203 36.4093ZM10.43 17.9096V12.6314C10.43 12.3263 10.6908 12.0638 10.994 12.0638H16.2834C16.5866 12.0638 16.8474 12.3263 16.8474 12.6314C16.8474 12.9364 16.5866 13.1989 16.2834 13.1989H12.3811L15.8938 16.7336C16.1106 16.9517 16.1106 17.3437 15.8938 17.5618C15.7634 17.6931 15.633 17.7357 15.5043 17.7357C15.3739 17.7357 15.2011 17.6914 15.1147 17.5618L11.6003 14.0272V17.9538C11.6003 18.2589 11.3394 18.5213 11.0363 18.5213C10.7331 18.5213 10.43 18.259 10.43 17.9096Z" fill="#105AB3"/>
</svg>
